<svg width="857" height="472" viewBox="0 0 857 472" fill="none" xmlns="http://www.w3.org/2000/svg">
<mask id="mask0" mask-type="alpha" maskUnits="userSpaceOnUse" x="156" y="-198" width="490" height="421">
<path fill-rule="evenodd" clip-rule="evenodd" d="M630.427 -73.2025C648.2 -32.8441 646.555 9.80899 644.949 53.2175C643.232 99.6381 655.367 152.935 620.788 187.406C586.271 221.815 526.673 224.118 475.254 222.382C432.581 220.942 401.027 189.698 360.145 178.608C311.024 165.284 251.093 182.32 213.103 151.273C172.056 117.727 150.681 63.1736 158.36 13.6982C165.926 -35.0475 211.388 -70.3541 252.53 -102.757C288.889 -131.393 333.249 -145.51 378.807 -159.924C431.034 -176.449 484.993 -210.465 536.666 -192.656C588.495 -174.792 609.96 -119.675 630.427 -73.2025Z" fill="url(#paint0_linear)"/>
</mask>
<g mask="url(#mask0)">
<line x1="651.826" y1="131.399" x2="640.345" y2="132.037" stroke="#90D9D7" stroke-opacity="0.64" stroke-width="6" stroke-linecap="round"/>
<line x1="621.799" y1="172.591" x2="610.319" y2="173.229" stroke="#90D9D7" stroke-opacity="0.64" stroke-width="6" stroke-linecap="round"/>
<line x1="591.773" y1="213.784" x2="580.292" y2="214.422" stroke="#90D9D7" stroke-opacity="0.64" stroke-width="6" stroke-linecap="round"/>
<line x1="657.292" y1="91.7785" x2="645.812" y2="92.4162" stroke="#90D9D7" stroke-opacity="0.64" stroke-width="6" stroke-linecap="round"/>
<line x1="627.266" y1="132.971" x2="615.786" y2="133.609" stroke="#90D9D7" stroke-opacity="0.64" stroke-width="6" stroke-linecap="round"/>
<line x1="597.24" y1="174.163" x2="585.76" y2="174.801" stroke="#90D9D7" stroke-opacity="0.64" stroke-width="6" stroke-linecap="round"/>
<line x1="567.214" y1="215.356" x2="555.734" y2="215.994" stroke="#90D9D7" stroke-opacity="0.64" stroke-width="6" stroke-linecap="round"/>
<line x1="633.656" y1="139.149" x2="634.294" y2="150.629" stroke="#90D9D7" stroke-opacity="0.64" stroke-width="6" stroke-linecap="round"/>
<line x1="603.63" y1="180.342" x2="604.268" y2="191.822" stroke="#90D9D7" stroke-opacity="0.64" stroke-width="6" stroke-linecap="round"/>
<line x1="573.603" y1="221.535" x2="574.241" y2="233.015" stroke="#90D9D7" stroke-opacity="0.64" stroke-width="6" stroke-linecap="round"/>
<line x1="633.188" y1="113.917" x2="633.826" y2="125.397" stroke="#90D9D7" stroke-opacity="0.64" stroke-width="6" stroke-linecap="round"/>
<line x1="603.162" y1="155.111" x2="603.799" y2="166.591" stroke="#90D9D7" stroke-opacity="0.64" stroke-width="6" stroke-linecap="round"/>
<line x1="573.136" y1="196.303" x2="573.773" y2="207.783" stroke="#90D9D7" stroke-opacity="0.64" stroke-width="6" stroke-linecap="round"/>
<line x1="636.225" y1="75.382" x2="624.745" y2="76.0197" stroke="#90D9D7" stroke-opacity="0.64" stroke-width="6" stroke-linecap="round"/>
<line x1="606.199" y1="116.575" x2="594.719" y2="117.213" stroke="#90D9D7" stroke-opacity="0.64" stroke-width="6" stroke-linecap="round"/>
<line x1="576.173" y1="157.767" x2="564.692" y2="158.405" stroke="#90D9D7" stroke-opacity="0.64" stroke-width="6" stroke-linecap="round"/>
<line x1="546.146" y1="198.96" x2="534.666" y2="199.597" stroke="#90D9D7" stroke-opacity="0.64" stroke-width="6" stroke-linecap="round"/>
<line x1="641.692" y1="35.7614" x2="630.212" y2="36.3991" stroke="#90D9D7" stroke-opacity="0.64" stroke-width="6" stroke-linecap="round"/>
<line x1="611.666" y1="76.9538" x2="600.186" y2="77.5915" stroke="#90D9D7" stroke-opacity="0.64" stroke-width="6" stroke-linecap="round"/>
<line x1="581.64" y1="118.147" x2="570.16" y2="118.785" stroke="#90D9D7" stroke-opacity="0.64" stroke-width="6" stroke-linecap="round"/>
<line x1="551.614" y1="159.339" x2="540.134" y2="159.977" stroke="#90D9D7" stroke-opacity="0.64" stroke-width="6" stroke-linecap="round"/>
<line x1="521.587" y1="200.532" x2="510.107" y2="201.17" stroke="#90D9D7" stroke-opacity="0.64" stroke-width="6" stroke-linecap="round"/>
<line x1="648.082" y1="41.9398" x2="648.72" y2="53.42" stroke="#90D9D7" stroke-opacity="0.64" stroke-width="6" stroke-linecap="round"/>
<line x1="618.056" y1="83.1322" x2="618.693" y2="94.6124" stroke="#90D9D7" stroke-opacity="0.64" stroke-width="6" stroke-linecap="round"/>
<line x1="588.03" y1="124.325" x2="588.667" y2="135.805" stroke="#90D9D7" stroke-opacity="0.64" stroke-width="6" stroke-linecap="round"/>
<line x1="558.003" y1="165.517" x2="558.641" y2="176.998" stroke="#90D9D7" stroke-opacity="0.64" stroke-width="6" stroke-linecap="round"/>
<line x1="527.977" y1="206.71" x2="528.615" y2="218.19" stroke="#90D9D7" stroke-opacity="0.64" stroke-width="6" stroke-linecap="round"/>
<line x1="647.614" y1="16.7084" x2="648.252" y2="28.1885" stroke="#90D9D7" stroke-opacity="0.64" stroke-width="6" stroke-linecap="round"/>
<line x1="617.588" y1="57.9003" x2="618.226" y2="69.3804" stroke="#90D9D7" stroke-opacity="0.64" stroke-width="6" stroke-linecap="round"/>
<line x1="587.562" y1="99.0931" x2="588.199" y2="110.573" stroke="#90D9D7" stroke-opacity="0.64" stroke-width="6" stroke-linecap="round"/>
<line x1="557.536" y1="140.286" x2="558.173" y2="151.766" stroke="#90D9D7" stroke-opacity="0.64" stroke-width="6" stroke-linecap="round"/>
<line x1="527.509" y1="181.478" x2="528.147" y2="192.959" stroke="#90D9D7" stroke-opacity="0.64" stroke-width="6" stroke-linecap="round"/>
<line x1="497.483" y1="222.671" x2="498.121" y2="234.151" stroke="#90D9D7" stroke-opacity="0.64" stroke-width="6" stroke-linecap="round"/>
<line x1="608.024" y1="36.404" x2="596.544" y2="37.0417" stroke="#90D9D7" stroke-opacity="0.64" stroke-width="6" stroke-linecap="round"/>
<line x1="577.998" y1="77.5964" x2="566.518" y2="78.2341" stroke="#90D9D7" stroke-opacity="0.64" stroke-width="6" stroke-linecap="round"/>
<line x1="547.971" y1="118.789" x2="536.491" y2="119.427" stroke="#90D9D7" stroke-opacity="0.64" stroke-width="6" stroke-linecap="round"/>
<line x1="517.945" y1="159.982" x2="506.465" y2="160.619" stroke="#90D9D7" stroke-opacity="0.64" stroke-width="6" stroke-linecap="round"/>
<line x1="487.919" y1="201.174" x2="476.439" y2="201.812" stroke="#90D9D7" stroke-opacity="0.64" stroke-width="6" stroke-linecap="round"/>
<line x1="613.491" y1="-3.21664" x2="602.011" y2="-2.57889" stroke="#90D9D7" stroke-opacity="0.64" stroke-width="6" stroke-linecap="round"/>
<line x1="583.465" y1="37.9757" x2="571.985" y2="38.6135" stroke="#90D9D7" stroke-opacity="0.64" stroke-width="6" stroke-linecap="round"/>
<line x1="553.439" y1="79.1691" x2="541.959" y2="79.8069" stroke="#90D9D7" stroke-opacity="0.64" stroke-width="6" stroke-linecap="round"/>
<line x1="523.413" y1="120.361" x2="511.933" y2="120.999" stroke="#90D9D7" stroke-opacity="0.64" stroke-width="6" stroke-linecap="round"/>
<line x1="493.386" y1="161.554" x2="481.906" y2="162.192" stroke="#90D9D7" stroke-opacity="0.64" stroke-width="6" stroke-linecap="round"/>
<line x1="463.36" y1="202.747" x2="451.88" y2="203.384" stroke="#90D9D7" stroke-opacity="0.64" stroke-width="6" stroke-linecap="round"/>
<line x1="619.88" y1="2.96179" x2="620.518" y2="14.4419" stroke="#90D9D7" stroke-opacity="0.64" stroke-width="6" stroke-linecap="round"/>
<line x1="589.854" y1="44.1542" x2="590.492" y2="55.6343" stroke="#90D9D7" stroke-opacity="0.64" stroke-width="6" stroke-linecap="round"/>
<line x1="559.828" y1="85.347" x2="560.466" y2="96.8272" stroke="#90D9D7" stroke-opacity="0.64" stroke-width="6" stroke-linecap="round"/>
<line x1="529.802" y1="126.54" x2="530.44" y2="138.02" stroke="#90D9D7" stroke-opacity="0.64" stroke-width="6" stroke-linecap="round"/>
<line x1="499.776" y1="167.732" x2="500.414" y2="179.212" stroke="#90D9D7" stroke-opacity="0.64" stroke-width="6" stroke-linecap="round"/>
<line x1="469.75" y1="208.925" x2="470.387" y2="220.405" stroke="#90D9D7" stroke-opacity="0.64" stroke-width="6" stroke-linecap="round"/>
<line x1="589.387" y1="18.9222" x2="590.025" y2="30.4024" stroke="#90D9D7" stroke-opacity="0.64" stroke-width="6" stroke-linecap="round"/>
<line x1="559.361" y1="60.1151" x2="559.998" y2="71.5953" stroke="#90D9D7" stroke-opacity="0.64" stroke-width="6" stroke-linecap="round"/>
<line x1="529.334" y1="101.307" x2="529.972" y2="112.788" stroke="#90D9D7" stroke-opacity="0.64" stroke-width="6" stroke-linecap="round"/>
<line x1="499.308" y1="142.5" x2="499.946" y2="153.981" stroke="#90D9D7" stroke-opacity="0.64" stroke-width="6" stroke-linecap="round"/>
<line x1="469.282" y1="183.693" x2="469.919" y2="195.173" stroke="#90D9D7" stroke-opacity="0.64" stroke-width="6" stroke-linecap="round"/>
<line x1="439.255" y1="224.886" x2="439.893" y2="236.366" stroke="#90D9D7" stroke-opacity="0.64" stroke-width="6" stroke-linecap="round"/>
<line x1="562.397" y1="21.5798" x2="550.917" y2="22.2175" stroke="#90D9D7" stroke-opacity="0.64" stroke-width="6" stroke-linecap="round"/>
<line x1="532.371" y1="62.7721" x2="520.891" y2="63.4099" stroke="#90D9D7" stroke-opacity="0.64" stroke-width="6" stroke-linecap="round"/>
<line x1="502.345" y1="103.965" x2="490.865" y2="104.603" stroke="#90D9D7" stroke-opacity="0.64" stroke-width="6" stroke-linecap="round"/>
<line x1="472.319" y1="145.157" x2="460.839" y2="145.795" stroke="#90D9D7" stroke-opacity="0.64" stroke-width="6" stroke-linecap="round"/>
<line x1="442.293" y1="186.35" x2="430.813" y2="186.988" stroke="#90D9D7" stroke-opacity="0.64" stroke-width="6" stroke-linecap="round"/>
<line x1="537.838" y1="23.151" x2="526.358" y2="23.7888" stroke="#90D9D7" stroke-opacity="0.64" stroke-width="6" stroke-linecap="round"/>
<line x1="507.812" y1="64.3444" x2="496.332" y2="64.9821" stroke="#90D9D7" stroke-opacity="0.64" stroke-width="6" stroke-linecap="round"/>
<line x1="477.786" y1="105.537" x2="466.306" y2="106.175" stroke="#90D9D7" stroke-opacity="0.64" stroke-width="6" stroke-linecap="round"/>
<line x1="447.76" y1="146.729" x2="436.28" y2="147.366" stroke="#90D9D7" stroke-opacity="0.64" stroke-width="6" stroke-linecap="round"/>
<line x1="417.734" y1="187.922" x2="406.254" y2="188.56" stroke="#90D9D7" stroke-opacity="0.64" stroke-width="6" stroke-linecap="round"/>
<line x1="574.254" y1="-11.8629" x2="574.892" y2="-0.382769" stroke="#90D9D7" stroke-opacity="0.64" stroke-width="6" stroke-linecap="round"/>
<line x1="544.228" y1="29.33" x2="544.866" y2="40.8101" stroke="#90D9D7" stroke-opacity="0.64" stroke-width="6" stroke-linecap="round"/>
<line x1="514.202" y1="70.5223" x2="514.84" y2="82.0025" stroke="#90D9D7" stroke-opacity="0.64" stroke-width="6" stroke-linecap="round"/>
<line x1="484.175" y1="111.715" x2="484.813" y2="123.195" stroke="#90D9D7" stroke-opacity="0.64" stroke-width="6" stroke-linecap="round"/>
<line x1="454.15" y1="152.908" x2="454.787" y2="164.388" stroke="#90D9D7" stroke-opacity="0.64" stroke-width="6" stroke-linecap="round"/>
<line x1="424.124" y1="194.1" x2="424.761" y2="205.58" stroke="#90D9D7" stroke-opacity="0.64" stroke-width="6" stroke-linecap="round"/>
<line x1="543.76" y1="4.09754" x2="544.398" y2="15.5777" stroke="#90D9D7" stroke-opacity="0.64" stroke-width="6" stroke-linecap="round"/>
<line x1="513.734" y1="45.2904" x2="514.372" y2="56.7705" stroke="#90D9D7" stroke-opacity="0.64" stroke-width="6" stroke-linecap="round"/>
<line x1="483.708" y1="86.4833" x2="484.346" y2="97.9634" stroke="#90D9D7" stroke-opacity="0.64" stroke-width="6" stroke-linecap="round"/>
<line x1="453.682" y1="127.675" x2="454.32" y2="139.155" stroke="#90D9D7" stroke-opacity="0.64" stroke-width="6" stroke-linecap="round"/>
<line x1="423.656" y1="168.869" x2="424.293" y2="180.349" stroke="#90D9D7" stroke-opacity="0.64" stroke-width="6" stroke-linecap="round"/>
<line x1="393.629" y1="210.061" x2="394.267" y2="221.541" stroke="#90D9D7" stroke-opacity="0.64" stroke-width="6" stroke-linecap="round"/>
<line x1="504.17" y1="23.7936" x2="492.69" y2="24.4314" stroke="#90D9D7" stroke-opacity="0.64" stroke-width="6" stroke-linecap="round"/>
<line x1="474.143" y1="64.9875" x2="462.663" y2="65.6252" stroke="#90D9D7" stroke-opacity="0.64" stroke-width="6" stroke-linecap="round"/>
<line x1="444.117" y1="106.179" x2="432.637" y2="106.817" stroke="#90D9D7" stroke-opacity="0.64" stroke-width="6" stroke-linecap="round"/>
<line x1="414.091" y1="147.372" x2="402.611" y2="148.009" stroke="#90D9D7" stroke-opacity="0.64" stroke-width="6" stroke-linecap="round"/>
<line x1="384.065" y1="188.565" x2="372.585" y2="189.202" stroke="#90D9D7" stroke-opacity="0.64" stroke-width="6" stroke-linecap="round"/>
<line x1="479.611" y1="25.3664" x2="468.13" y2="26.0041" stroke="#90D9D7" stroke-opacity="0.64" stroke-width="6" stroke-linecap="round"/>
<line x1="449.585" y1="66.5583" x2="438.105" y2="67.196" stroke="#90D9D7" stroke-opacity="0.64" stroke-width="6" stroke-linecap="round"/>
<line x1="419.558" y1="107.751" x2="408.078" y2="108.389" stroke="#90D9D7" stroke-opacity="0.64" stroke-width="6" stroke-linecap="round"/>
<line x1="389.532" y1="148.944" x2="378.052" y2="149.582" stroke="#90D9D7" stroke-opacity="0.64" stroke-width="6" stroke-linecap="round"/>
<line x1="359.506" y1="190.136" x2="348.026" y2="190.774" stroke="#90D9D7" stroke-opacity="0.64" stroke-width="6" stroke-linecap="round"/>
<line x1="516.027" y1="-9.64807" x2="516.665" y2="1.83207" stroke="#90D9D7" stroke-opacity="0.64" stroke-width="6" stroke-linecap="round"/>
<line x1="486" y1="31.5443" x2="486.638" y2="43.0245" stroke="#90D9D7" stroke-opacity="0.64" stroke-width="6" stroke-linecap="round"/>
<line x1="455.974" y1="72.7367" x2="456.612" y2="84.2168" stroke="#90D9D7" stroke-opacity="0.64" stroke-width="6" stroke-linecap="round"/>
<line x1="425.948" y1="113.93" x2="426.586" y2="125.41" stroke="#90D9D7" stroke-opacity="0.64" stroke-width="6" stroke-linecap="round"/>
<line x1="395.921" y1="155.122" x2="396.559" y2="166.603" stroke="#90D9D7" stroke-opacity="0.64" stroke-width="6" stroke-linecap="round"/>
<line x1="365.896" y1="196.315" x2="366.533" y2="207.795" stroke="#90D9D7" stroke-opacity="0.64" stroke-width="6" stroke-linecap="round"/>
<line x1="485.532" y1="6.31287" x2="486.17" y2="17.793" stroke="#90D9D7" stroke-opacity="0.64" stroke-width="6" stroke-linecap="round"/>
<line x1="455.506" y1="47.5053" x2="456.144" y2="58.9854" stroke="#90D9D7" stroke-opacity="0.64" stroke-width="6" stroke-linecap="round"/>
<line x1="425.48" y1="88.6976" x2="426.118" y2="100.178" stroke="#90D9D7" stroke-opacity="0.64" stroke-width="6" stroke-linecap="round"/>
<line x1="395.454" y1="129.89" x2="396.092" y2="141.37" stroke="#90D9D7" stroke-opacity="0.64" stroke-width="6" stroke-linecap="round"/>
<line x1="365.428" y1="171.083" x2="366.066" y2="182.563" stroke="#90D9D7" stroke-opacity="0.64" stroke-width="6" stroke-linecap="round"/>
<line x1="458.544" y1="8.9694" x2="447.064" y2="9.60715" stroke="#90D9D7" stroke-opacity="0.64" stroke-width="6" stroke-linecap="round"/>
<line x1="428.518" y1="50.1623" x2="417.037" y2="50.8" stroke="#90D9D7" stroke-opacity="0.64" stroke-width="6" stroke-linecap="round"/>
<line x1="398.491" y1="91.3556" x2="387.011" y2="91.9934" stroke="#90D9D7" stroke-opacity="0.64" stroke-width="6" stroke-linecap="round"/>
<line x1="368.465" y1="132.548" x2="356.985" y2="133.185" stroke="#90D9D7" stroke-opacity="0.64" stroke-width="6" stroke-linecap="round"/>
<line x1="338.439" y1="173.74" x2="326.959" y2="174.378" stroke="#90D9D7" stroke-opacity="0.64" stroke-width="6" stroke-linecap="round"/>
<line x1="433.985" y1="10.5417" x2="422.504" y2="11.1794" stroke="#90D9D7" stroke-opacity="0.64" stroke-width="6" stroke-linecap="round"/>
<line x1="403.959" y1="51.7345" x2="392.479" y2="52.3723" stroke="#90D9D7" stroke-opacity="0.64" stroke-width="6" stroke-linecap="round"/>
<line x1="373.932" y1="92.9269" x2="362.452" y2="93.5647" stroke="#90D9D7" stroke-opacity="0.64" stroke-width="6" stroke-linecap="round"/>
<line x1="343.906" y1="134.12" x2="332.426" y2="134.758" stroke="#90D9D7" stroke-opacity="0.64" stroke-width="6" stroke-linecap="round"/>
<line x1="313.88" y1="175.312" x2="302.4" y2="175.95" stroke="#90D9D7" stroke-opacity="0.64" stroke-width="6" stroke-linecap="round"/>
<line x1="440.374" y1="16.7206" x2="441.012" y2="28.2007" stroke="#90D9D7" stroke-opacity="0.64" stroke-width="6" stroke-linecap="round"/>
<line x1="410.348" y1="57.9125" x2="410.986" y2="69.3926" stroke="#90D9D7" stroke-opacity="0.64" stroke-width="6" stroke-linecap="round"/>
<line x1="380.322" y1="99.1053" x2="380.96" y2="110.585" stroke="#90D9D7" stroke-opacity="0.64" stroke-width="6" stroke-linecap="round"/>
<line x1="350.296" y1="140.298" x2="350.934" y2="151.778" stroke="#90D9D7" stroke-opacity="0.64" stroke-width="6" stroke-linecap="round"/>
<line x1="320.27" y1="181.491" x2="320.908" y2="192.971" stroke="#90D9D7" stroke-opacity="0.64" stroke-width="6" stroke-linecap="round"/>
<line x1="439.906" y1="-8.51184" x2="440.544" y2="2.9683" stroke="#90D9D7" stroke-opacity="0.64" stroke-width="6" stroke-linecap="round"/>
<line x1="409.88" y1="32.681" x2="410.518" y2="44.1612" stroke="#90D9D7" stroke-opacity="0.64" stroke-width="6" stroke-linecap="round"/>
<line x1="379.854" y1="73.8734" x2="380.492" y2="85.3536" stroke="#90D9D7" stroke-opacity="0.64" stroke-width="6" stroke-linecap="round"/>
<line x1="349.828" y1="115.066" x2="350.466" y2="126.546" stroke="#90D9D7" stroke-opacity="0.64" stroke-width="6" stroke-linecap="round"/>
<line x1="319.801" y1="156.259" x2="320.439" y2="167.739" stroke="#90D9D7" stroke-opacity="0.64" stroke-width="6" stroke-linecap="round"/>
<line x1="400.316" y1="11.1842" x2="388.836" y2="11.822" stroke="#90D9D7" stroke-opacity="0.64" stroke-width="6" stroke-linecap="round"/>
<line x1="370.289" y1="52.3771" x2="358.809" y2="53.0149" stroke="#90D9D7" stroke-opacity="0.64" stroke-width="6" stroke-linecap="round"/>
<line x1="340.263" y1="93.5695" x2="328.783" y2="94.2072" stroke="#90D9D7" stroke-opacity="0.64" stroke-width="6" stroke-linecap="round"/>
<line x1="310.237" y1="134.762" x2="298.757" y2="135.4" stroke="#90D9D7" stroke-opacity="0.64" stroke-width="6" stroke-linecap="round"/>
<line x1="375.757" y1="12.7555" x2="364.277" y2="13.3933" stroke="#90D9D7" stroke-opacity="0.64" stroke-width="6" stroke-linecap="round"/>
<line x1="345.73" y1="53.9489" x2="334.25" y2="54.5866" stroke="#90D9D7" stroke-opacity="0.64" stroke-width="6" stroke-linecap="round"/>
<line x1="315.704" y1="95.1418" x2="304.224" y2="95.7795" stroke="#90D9D7" stroke-opacity="0.64" stroke-width="6" stroke-linecap="round"/>
<line x1="285.678" y1="136.334" x2="274.198" y2="136.971" stroke="#90D9D7" stroke-opacity="0.64" stroke-width="6" stroke-linecap="round"/>
<line x1="382.146" y1="18.9349" x2="382.784" y2="30.4151" stroke="#90D9D7" stroke-opacity="0.64" stroke-width="6" stroke-linecap="round"/>
<line x1="352.12" y1="60.1268" x2="352.758" y2="71.607" stroke="#90D9D7" stroke-opacity="0.64" stroke-width="6" stroke-linecap="round"/>
<line x1="322.094" y1="101.32" x2="322.732" y2="112.8" stroke="#90D9D7" stroke-opacity="0.64" stroke-width="6" stroke-linecap="round"/>
<line x1="292.067" y1="142.513" x2="292.705" y2="153.993" stroke="#90D9D7" stroke-opacity="0.64" stroke-width="6" stroke-linecap="round"/>
<line x1="381.678" y1="-6.29748" x2="382.316" y2="5.18266" stroke="#90D9D7" stroke-opacity="0.64" stroke-width="6" stroke-linecap="round"/>
<line x1="351.652" y1="34.8954" x2="352.29" y2="46.3755" stroke="#90D9D7" stroke-opacity="0.64" stroke-width="6" stroke-linecap="round"/>
<line x1="321.626" y1="76.0878" x2="322.264" y2="87.5679" stroke="#90D9D7" stroke-opacity="0.64" stroke-width="6" stroke-linecap="round"/>
<line x1="291.6" y1="117.281" x2="292.238" y2="128.761" stroke="#90D9D7" stroke-opacity="0.64" stroke-width="6" stroke-linecap="round"/>
<line x1="354.69" y1="-3.64046" x2="343.21" y2="-3.00271" stroke="#90D9D7" stroke-opacity="0.64" stroke-width="6" stroke-linecap="round"/>
<line x1="324.664" y1="37.5524" x2="313.184" y2="38.1902" stroke="#90D9D7" stroke-opacity="0.64" stroke-width="6" stroke-linecap="round"/>
<line x1="294.637" y1="78.7443" x2="283.157" y2="79.382" stroke="#90D9D7" stroke-opacity="0.64" stroke-width="6" stroke-linecap="round"/>
<line x1="264.611" y1="119.937" x2="253.131" y2="120.575" stroke="#90D9D7" stroke-opacity="0.64" stroke-width="6" stroke-linecap="round"/>
<line x1="330.131" y1="-2.06917" x2="318.651" y2="-1.43143" stroke="#90D9D7" stroke-opacity="0.64" stroke-width="6" stroke-linecap="round"/>
<line x1="300.105" y1="39.1242" x2="288.625" y2="39.7619" stroke="#90D9D7" stroke-opacity="0.64" stroke-width="6" stroke-linecap="round"/>
<line x1="270.078" y1="80.3166" x2="258.598" y2="80.9543" stroke="#90D9D7" stroke-opacity="0.64" stroke-width="6" stroke-linecap="round"/>
<line x1="240.052" y1="121.509" x2="228.572" y2="122.147" stroke="#90D9D7" stroke-opacity="0.64" stroke-width="6" stroke-linecap="round"/>
<line x1="336.52" y1="4.11023" x2="337.158" y2="15.5904" stroke="#90D9D7" stroke-opacity="0.64" stroke-width="6" stroke-linecap="round"/>
<line x1="306.494" y1="45.3026" x2="307.132" y2="56.7828" stroke="#90D9D7" stroke-opacity="0.64" stroke-width="6" stroke-linecap="round"/>
<line x1="276.468" y1="86.495" x2="277.106" y2="97.9751" stroke="#90D9D7" stroke-opacity="0.64" stroke-width="6" stroke-linecap="round"/>
<line x1="246.442" y1="127.688" x2="247.08" y2="139.168" stroke="#90D9D7" stroke-opacity="0.64" stroke-width="6" stroke-linecap="round"/>
<line x1="306.026" y1="20.0702" x2="306.664" y2="31.5503" stroke="#90D9D7" stroke-opacity="0.64" stroke-width="6" stroke-linecap="round"/>
<line x1="276" y1="61.2631" x2="276.638" y2="72.7432" stroke="#90D9D7" stroke-opacity="0.64" stroke-width="6" stroke-linecap="round"/>
<line x1="245.974" y1="102.456" x2="246.612" y2="113.936" stroke="#90D9D7" stroke-opacity="0.64" stroke-width="6" stroke-linecap="round"/>
<line x1="296.462" y1="-1.42464" x2="284.982" y2="-0.786894" stroke="#90D9D7" stroke-opacity="0.64" stroke-width="6" stroke-linecap="round"/>
<line x1="266.436" y1="39.7668" x2="254.955" y2="40.4045" stroke="#90D9D7" stroke-opacity="0.64" stroke-width="6" stroke-linecap="round"/>
<line x1="236.41" y1="80.9601" x2="224.93" y2="81.5979" stroke="#90D9D7" stroke-opacity="0.64" stroke-width="6" stroke-linecap="round"/>
<line x1="271.903" y1="0.146645" x2="260.423" y2="0.784395" stroke="#90D9D7" stroke-opacity="0.64" stroke-width="6" stroke-linecap="round"/>
<line x1="241.877" y1="41.3395" x2="230.396" y2="41.9773" stroke="#90D9D7" stroke-opacity="0.64" stroke-width="6" stroke-linecap="round"/>
<line x1="211.851" y1="82.5319" x2="200.371" y2="83.1696" stroke="#90D9D7" stroke-opacity="0.64" stroke-width="6" stroke-linecap="round"/>
<line x1="278.292" y1="6.32459" x2="278.93" y2="17.8047" stroke="#90D9D7" stroke-opacity="0.64" stroke-width="6" stroke-linecap="round"/>
<line x1="248.267" y1="47.5175" x2="248.904" y2="58.9976" stroke="#90D9D7" stroke-opacity="0.64" stroke-width="6" stroke-linecap="round"/>
<line x1="218.24" y1="88.7098" x2="218.878" y2="100.19" stroke="#90D9D7" stroke-opacity="0.64" stroke-width="6" stroke-linecap="round"/>
<line x1="247.799" y1="22.286" x2="248.436" y2="33.7662" stroke="#90D9D7" stroke-opacity="0.64" stroke-width="6" stroke-linecap="round"/>
<line x1="217.772" y1="63.4784" x2="218.41" y2="74.9585" stroke="#90D9D7" stroke-opacity="0.64" stroke-width="6" stroke-linecap="round"/>
<line x1="220.809" y1="24.9425" x2="209.329" y2="25.5803" stroke="#90D9D7" stroke-opacity="0.64" stroke-width="6" stroke-linecap="round"/>
<line x1="190.783" y1="66.1349" x2="179.303" y2="66.7727" stroke="#90D9D7" stroke-opacity="0.64" stroke-width="6" stroke-linecap="round"/>
<line x1="196.25" y1="26.5143" x2="184.77" y2="27.1521" stroke="#90D9D7" stroke-opacity="0.64" stroke-width="6" stroke-linecap="round"/>
<line x1="166.224" y1="67.7067" x2="154.744" y2="68.3445" stroke="#90D9D7" stroke-opacity="0.64" stroke-width="6" stroke-linecap="round"/>
<line x1="232.666" y1="-8.50012" x2="233.304" y2="2.98002" stroke="#90D9D7" stroke-opacity="0.64" stroke-width="6" stroke-linecap="round"/>
<line x1="202.64" y1="32.6928" x2="203.277" y2="44.1729" stroke="#90D9D7" stroke-opacity="0.64" stroke-width="6" stroke-linecap="round"/>
<line x1="172.614" y1="73.8851" x2="173.252" y2="85.3653" stroke="#90D9D7" stroke-opacity="0.64" stroke-width="6" stroke-linecap="round"/>
<line x1="202.172" y1="7.46082" x2="202.81" y2="18.941" stroke="#90D9D7" stroke-opacity="0.64" stroke-width="6" stroke-linecap="round"/>
<line x1="172.146" y1="48.6537" x2="172.783" y2="60.1338" stroke="#90D9D7" stroke-opacity="0.64" stroke-width="6" stroke-linecap="round"/>
<line x1="162.582" y1="27.1574" x2="151.102" y2="27.7951" stroke="#90D9D7" stroke-opacity="0.64" stroke-width="6" stroke-linecap="round"/>
<line x1="174.439" y1="-6.28479" x2="175.076" y2="5.19536" stroke="#90D9D7" stroke-opacity="0.64" stroke-width="6" stroke-linecap="round"/>
</g>
<defs>
<linearGradient id="paint0_linear" x1="644.638" y1="-69.1445" x2="237.51" y2="200.389" gradientUnits="userSpaceOnUse">
<stop stop-color="#97D3F1"/>
<stop offset="0.9999" stop-color="#EDE3D8"/>
<stop offset="1" stop-color="#EDE3D8"/>
</linearGradient>
</defs>
</svg>
