<svg width="371" height="414" viewBox="0 0 371 414" fill="none" xmlns="http://www.w3.org/2000/svg">
<mask id="mask0" mask-type="alpha" maskUnits="userSpaceOnUse" x="-77" y="100" width="328" height="354">
<path fill-rule="evenodd" clip-rule="evenodd" d="M98.3 108.746C129.647 114.96 154.288 133.659 179.394 152.648C206.243 172.954 242.929 187.893 249.029 222.746C255.118 257.536 231.724 293.878 209.33 323.686C190.745 348.425 159.084 354.178 135.514 373.844C107.194 397.473 92.409 440.135 58.1914 449.791C21.2192 460.225 -20.0517 450.251 -46.2368 425.135C-72.0357 400.391 -74.1099 358.728 -76.2553 320.838C-78.1513 287.353 -68.1026 255.149 -57.7325 222.111C-45.8445 184.236 -43.6228 138.066 -11.5795 114.785C20.5606 91.4334 62.2041 101.589 98.3 108.746Z" fill="url(#paint0_linear)"/>
</mask>
<g mask="url(#mask0)">
<line x1="204.973" y1="112.3" x2="201.452" y2="117.977" stroke="#FFF0DA" stroke-width="6" stroke-linecap="round"/>
<line x1="216.955" y1="147.242" x2="213.435" y2="152.92" stroke="#FFF0DA" stroke-width="6" stroke-linecap="round"/>
<line x1="228.938" y1="182.185" x2="225.417" y2="187.862" stroke="#FFF0DA" stroke-width="6" stroke-linecap="round"/>
<line x1="240.92" y1="217.127" x2="237.399" y2="222.804" stroke="#FFF0DA" stroke-width="6" stroke-linecap="round"/>
<line x1="252.903" y1="252.07" x2="249.382" y2="257.747" stroke="#FFF0DA" stroke-width="6" stroke-linecap="round"/>
<line x1="195.702" y1="127.534" x2="192.182" y2="133.212" stroke="#FFF0DA" stroke-width="6" stroke-linecap="round"/>
<line x1="207.685" y1="162.477" x2="204.164" y2="168.155" stroke="#FFF0DA" stroke-width="6" stroke-linecap="round"/>
<line x1="219.667" y1="197.42" x2="216.147" y2="203.097" stroke="#FFF0DA" stroke-width="6" stroke-linecap="round"/>
<line x1="231.649" y1="232.362" x2="228.129" y2="238.039" stroke="#FFF0DA" stroke-width="6" stroke-linecap="round"/>
<line x1="243.632" y1="267.304" x2="240.112" y2="272.982" stroke="#FFF0DA" stroke-width="6" stroke-linecap="round"/>
<line x1="255.615" y1="302.247" x2="252.094" y2="307.924" stroke="#FFF0DA" stroke-width="6" stroke-linecap="round"/>
<line x1="202.896" y1="124.904" x2="208.573" y2="128.425" stroke="#FFF0DA" stroke-width="6" stroke-linecap="round"/>
<line x1="214.879" y1="159.846" x2="220.556" y2="163.367" stroke="#FFF0DA" stroke-width="6" stroke-linecap="round"/>
<line x1="226.861" y1="194.789" x2="232.538" y2="198.309" stroke="#FFF0DA" stroke-width="6" stroke-linecap="round"/>
<line x1="238.843" y1="229.731" x2="244.521" y2="233.252" stroke="#FFF0DA" stroke-width="6" stroke-linecap="round"/>
<line x1="250.826" y1="264.673" x2="256.503" y2="268.194" stroke="#FFF0DA" stroke-width="6" stroke-linecap="round"/>
<line x1="187.721" y1="114.698" x2="193.398" y2="118.219" stroke="#FFF0DA" stroke-width="6" stroke-linecap="round"/>
<line x1="199.703" y1="149.641" x2="205.38" y2="153.161" stroke="#FFF0DA" stroke-width="6" stroke-linecap="round"/>
<line x1="211.685" y1="184.583" x2="217.362" y2="188.104" stroke="#FFF0DA" stroke-width="6" stroke-linecap="round"/>
<line x1="223.668" y1="219.526" x2="229.345" y2="223.046" stroke="#FFF0DA" stroke-width="6" stroke-linecap="round"/>
<line x1="235.65" y1="254.468" x2="241.327" y2="257.988" stroke="#FFF0DA" stroke-width="6" stroke-linecap="round"/>
<line x1="247.633" y1="289.41" x2="253.31" y2="292.931" stroke="#FFF0DA" stroke-width="6" stroke-linecap="round"/>
<line x1="177.214" y1="133.231" x2="173.694" y2="138.908" stroke="#FFF0DA" stroke-width="6" stroke-linecap="round"/>
<line x1="189.196" y1="168.173" x2="185.676" y2="173.85" stroke="#FFF0DA" stroke-width="6" stroke-linecap="round"/>
<line x1="201.179" y1="203.115" x2="197.658" y2="208.793" stroke="#FFF0DA" stroke-width="6" stroke-linecap="round"/>
<line x1="213.162" y1="238.058" x2="209.641" y2="243.735" stroke="#FFF0DA" stroke-width="6" stroke-linecap="round"/>
<line x1="225.144" y1="273" x2="221.623" y2="278.677" stroke="#FFF0DA" stroke-width="6" stroke-linecap="round"/>
<line x1="237.126" y1="307.943" x2="233.606" y2="313.62" stroke="#FFF0DA" stroke-width="6" stroke-linecap="round"/>
<line x1="249.109" y1="342.885" x2="245.588" y2="348.562" stroke="#FFF0DA" stroke-width="6" stroke-linecap="round"/>
<line x1="167.944" y1="148.466" x2="164.423" y2="154.143" stroke="#FFF0DA" stroke-width="6" stroke-linecap="round"/>
<line x1="179.926" y1="183.408" x2="176.405" y2="189.085" stroke="#FFF0DA" stroke-width="6" stroke-linecap="round"/>
<line x1="191.909" y1="218.35" x2="188.388" y2="224.028" stroke="#FFF0DA" stroke-width="6" stroke-linecap="round"/>
<line x1="203.891" y1="253.293" x2="200.371" y2="258.97" stroke="#FFF0DA" stroke-width="6" stroke-linecap="round"/>
<line x1="215.873" y1="288.236" x2="212.353" y2="293.913" stroke="#FFF0DA" stroke-width="6" stroke-linecap="round"/>
<line x1="227.856" y1="323.177" x2="224.335" y2="328.855" stroke="#FFF0DA" stroke-width="6" stroke-linecap="round"/>
<line x1="239.838" y1="358.119" x2="236.318" y2="363.797" stroke="#FFF0DA" stroke-width="6" stroke-linecap="round"/>
<line x1="175.137" y1="145.835" x2="180.814" y2="149.355" stroke="#FFF0DA" stroke-width="6" stroke-linecap="round"/>
<line x1="187.12" y1="180.778" x2="192.797" y2="184.298" stroke="#FFF0DA" stroke-width="6" stroke-linecap="round"/>
<line x1="199.102" y1="215.719" x2="204.78" y2="219.24" stroke="#FFF0DA" stroke-width="6" stroke-linecap="round"/>
<line x1="211.085" y1="250.662" x2="216.762" y2="254.182" stroke="#FFF0DA" stroke-width="6" stroke-linecap="round"/>
<line x1="223.067" y1="285.605" x2="228.744" y2="289.125" stroke="#FFF0DA" stroke-width="6" stroke-linecap="round"/>
<line x1="235.05" y1="320.547" x2="240.727" y2="324.067" stroke="#FFF0DA" stroke-width="6" stroke-linecap="round"/>
<line x1="247.032" y1="355.489" x2="252.709" y2="359.009" stroke="#FFF0DA" stroke-width="6" stroke-linecap="round"/>
<line x1="159.962" y1="135.63" x2="165.639" y2="139.15" stroke="#FFF0DA" stroke-width="6" stroke-linecap="round"/>
<line x1="171.944" y1="170.572" x2="177.622" y2="174.092" stroke="#FFF0DA" stroke-width="6" stroke-linecap="round"/>
<line x1="183.926" y1="205.514" x2="189.604" y2="209.035" stroke="#FFF0DA" stroke-width="6" stroke-linecap="round"/>
<line x1="195.909" y1="240.457" x2="201.587" y2="243.977" stroke="#FFF0DA" stroke-width="6" stroke-linecap="round"/>
<line x1="207.892" y1="275.399" x2="213.569" y2="278.92" stroke="#FFF0DA" stroke-width="6" stroke-linecap="round"/>
<line x1="219.874" y1="310.341" x2="225.551" y2="313.862" stroke="#FFF0DA" stroke-width="6" stroke-linecap="round"/>
<line x1="231.856" y1="345.284" x2="237.534" y2="348.804" stroke="#FFF0DA" stroke-width="6" stroke-linecap="round"/>
<line x1="142.355" y1="133.781" x2="138.834" y2="139.458" stroke="#FFF0DA" stroke-width="6" stroke-linecap="round"/>
<line x1="154.337" y1="168.723" x2="150.816" y2="174.401" stroke="#FFF0DA" stroke-width="6" stroke-linecap="round"/>
<line x1="166.319" y1="203.665" x2="162.799" y2="209.343" stroke="#FFF0DA" stroke-width="6" stroke-linecap="round"/>
<line x1="178.302" y1="238.608" x2="174.781" y2="244.285" stroke="#FFF0DA" stroke-width="6" stroke-linecap="round"/>
<line x1="190.284" y1="273.551" x2="186.764" y2="279.228" stroke="#FFF0DA" stroke-width="6" stroke-linecap="round"/>
<line x1="202.267" y1="308.492" x2="198.746" y2="314.17" stroke="#FFF0DA" stroke-width="6" stroke-linecap="round"/>
<line x1="214.249" y1="343.435" x2="210.729" y2="349.113" stroke="#FFF0DA" stroke-width="6" stroke-linecap="round"/>
<line x1="133.084" y1="149.015" x2="129.563" y2="154.693" stroke="#FFF0DA" stroke-width="6" stroke-linecap="round"/>
<line x1="145.066" y1="183.958" x2="141.546" y2="189.635" stroke="#FFF0DA" stroke-width="6" stroke-linecap="round"/>
<line x1="157.049" y1="218.9" x2="153.528" y2="224.577" stroke="#FFF0DA" stroke-width="6" stroke-linecap="round"/>
<line x1="169.031" y1="253.843" x2="165.511" y2="259.52" stroke="#FFF0DA" stroke-width="6" stroke-linecap="round"/>
<line x1="181.014" y1="288.785" x2="177.493" y2="294.462" stroke="#FFF0DA" stroke-width="6" stroke-linecap="round"/>
<line x1="192.996" y1="323.728" x2="189.476" y2="329.405" stroke="#FFF0DA" stroke-width="6" stroke-linecap="round"/>
<line x1="204.979" y1="358.67" x2="201.458" y2="364.347" stroke="#FFF0DA" stroke-width="6" stroke-linecap="round"/>
<line x1="140.278" y1="146.385" x2="145.955" y2="149.905" stroke="#FFF0DA" stroke-width="6" stroke-linecap="round"/>
<line x1="152.26" y1="181.327" x2="157.937" y2="184.847" stroke="#FFF0DA" stroke-width="6" stroke-linecap="round"/>
<line x1="164.243" y1="216.269" x2="169.92" y2="219.79" stroke="#FFF0DA" stroke-width="6" stroke-linecap="round"/>
<line x1="176.225" y1="251.212" x2="181.902" y2="254.733" stroke="#FFF0DA" stroke-width="6" stroke-linecap="round"/>
<line x1="188.208" y1="286.154" x2="193.885" y2="289.674" stroke="#FFF0DA" stroke-width="6" stroke-linecap="round"/>
<line x1="200.19" y1="321.096" x2="205.867" y2="324.617" stroke="#FFF0DA" stroke-width="6" stroke-linecap="round"/>
<line x1="212.172" y1="356.039" x2="217.85" y2="359.56" stroke="#FFF0DA" stroke-width="6" stroke-linecap="round"/>
<line x1="125.102" y1="136.179" x2="130.78" y2="139.7" stroke="#FFF0DA" stroke-width="6" stroke-linecap="round"/>
<line x1="137.085" y1="171.122" x2="142.762" y2="174.642" stroke="#FFF0DA" stroke-width="6" stroke-linecap="round"/>
<line x1="149.067" y1="206.064" x2="154.744" y2="209.584" stroke="#FFF0DA" stroke-width="6" stroke-linecap="round"/>
<line x1="161.049" y1="241.007" x2="166.727" y2="244.527" stroke="#FFF0DA" stroke-width="6" stroke-linecap="round"/>
<line x1="173.032" y1="275.949" x2="178.709" y2="279.469" stroke="#FFF0DA" stroke-width="6" stroke-linecap="round"/>
<line x1="185.014" y1="310.891" x2="190.692" y2="314.412" stroke="#FFF0DA" stroke-width="6" stroke-linecap="round"/>
<line x1="196.997" y1="345.834" x2="202.674" y2="349.354" stroke="#FFF0DA" stroke-width="6" stroke-linecap="round"/>
<line x1="114.596" y1="154.712" x2="111.075" y2="160.389" stroke="#FFF0DA" stroke-width="6" stroke-linecap="round"/>
<line x1="126.578" y1="189.655" x2="123.058" y2="195.332" stroke="#FFF0DA" stroke-width="6" stroke-linecap="round"/>
<line x1="138.561" y1="224.596" x2="135.04" y2="230.274" stroke="#FFF0DA" stroke-width="6" stroke-linecap="round"/>
<line x1="150.543" y1="259.539" x2="147.023" y2="265.216" stroke="#FFF0DA" stroke-width="6" stroke-linecap="round"/>
<line x1="162.525" y1="294.481" x2="159.005" y2="300.158" stroke="#FFF0DA" stroke-width="6" stroke-linecap="round"/>
<line x1="174.508" y1="329.424" x2="170.988" y2="335.101" stroke="#FFF0DA" stroke-width="6" stroke-linecap="round"/>
<line x1="186.49" y1="364.366" x2="182.97" y2="370.044" stroke="#FFF0DA" stroke-width="6" stroke-linecap="round"/>
<line x1="105.325" y1="169.947" x2="101.805" y2="175.624" stroke="#FFF0DA" stroke-width="6" stroke-linecap="round"/>
<line x1="117.308" y1="204.889" x2="113.787" y2="210.566" stroke="#FFF0DA" stroke-width="6" stroke-linecap="round"/>
<line x1="129.29" y1="239.831" x2="125.77" y2="245.509" stroke="#FFF0DA" stroke-width="6" stroke-linecap="round"/>
<line x1="141.273" y1="274.774" x2="137.752" y2="280.451" stroke="#FFF0DA" stroke-width="6" stroke-linecap="round"/>
<line x1="153.255" y1="309.716" x2="149.735" y2="315.393" stroke="#FFF0DA" stroke-width="6" stroke-linecap="round"/>
<line x1="165.238" y1="344.658" x2="161.717" y2="350.336" stroke="#FFF0DA" stroke-width="6" stroke-linecap="round"/>
<line x1="177.22" y1="379.6" x2="173.7" y2="385.278" stroke="#FFF0DA" stroke-width="6" stroke-linecap="round"/>
<line x1="112.519" y1="167.316" x2="118.196" y2="170.836" stroke="#FFF0DA" stroke-width="6" stroke-linecap="round"/>
<line x1="124.501" y1="202.258" x2="130.179" y2="205.778" stroke="#FFF0DA" stroke-width="6" stroke-linecap="round"/>
<line x1="136.484" y1="237.201" x2="142.161" y2="240.721" stroke="#FFF0DA" stroke-width="6" stroke-linecap="round"/>
<line x1="148.466" y1="272.143" x2="154.144" y2="275.664" stroke="#FFF0DA" stroke-width="6" stroke-linecap="round"/>
<line x1="160.449" y1="307.085" x2="166.126" y2="310.606" stroke="#FFF0DA" stroke-width="6" stroke-linecap="round"/>
<line x1="172.431" y1="342.027" x2="178.109" y2="345.548" stroke="#FFF0DA" stroke-width="6" stroke-linecap="round"/>
<line x1="184.413" y1="376.97" x2="190.091" y2="380.49" stroke="#FFF0DA" stroke-width="6" stroke-linecap="round"/>
<line x1="97.3436" y1="157.111" x2="103.021" y2="160.631" stroke="#FFF0DA" stroke-width="6" stroke-linecap="round"/>
<line x1="109.326" y1="192.052" x2="115.003" y2="195.573" stroke="#FFF0DA" stroke-width="6" stroke-linecap="round"/>
<line x1="121.308" y1="226.995" x2="126.986" y2="230.515" stroke="#FFF0DA" stroke-width="6" stroke-linecap="round"/>
<line x1="133.291" y1="261.938" x2="138.968" y2="265.458" stroke="#FFF0DA" stroke-width="6" stroke-linecap="round"/>
<line x1="145.273" y1="296.88" x2="150.95" y2="300.4" stroke="#FFF0DA" stroke-width="6" stroke-linecap="round"/>
<line x1="157.256" y1="331.822" x2="162.933" y2="335.342" stroke="#FFF0DA" stroke-width="6" stroke-linecap="round"/>
<line x1="169.238" y1="366.764" x2="174.915" y2="370.285" stroke="#FFF0DA" stroke-width="6" stroke-linecap="round"/>
<line x1="79.736" y1="155.261" x2="76.2155" y2="160.939" stroke="#FFF0DA" stroke-width="6" stroke-linecap="round"/>
<line x1="91.7183" y1="190.204" x2="88.1978" y2="195.882" stroke="#FFF0DA" stroke-width="6" stroke-linecap="round"/>
<line x1="103.701" y1="225.146" x2="100.18" y2="230.823" stroke="#FFF0DA" stroke-width="6" stroke-linecap="round"/>
<line x1="115.683" y1="260.089" x2="112.163" y2="265.766" stroke="#FFF0DA" stroke-width="6" stroke-linecap="round"/>
<line x1="127.666" y1="295.031" x2="124.145" y2="300.708" stroke="#FFF0DA" stroke-width="6" stroke-linecap="round"/>
<line x1="139.648" y1="329.973" x2="136.128" y2="335.651" stroke="#FFF0DA" stroke-width="6" stroke-linecap="round"/>
<line x1="151.631" y1="364.916" x2="148.11" y2="370.593" stroke="#FFF0DA" stroke-width="6" stroke-linecap="round"/>
<line x1="70.4654" y1="170.496" x2="66.9449" y2="176.174" stroke="#FFF0DA" stroke-width="6" stroke-linecap="round"/>
<line x1="82.4478" y1="205.439" x2="78.9273" y2="211.116" stroke="#FFF0DA" stroke-width="6" stroke-linecap="round"/>
<line x1="94.4304" y1="240.381" x2="90.9099" y2="246.058" stroke="#FFF0DA" stroke-width="6" stroke-linecap="round"/>
<line x1="106.413" y1="275.323" x2="102.892" y2="281" stroke="#FFF0DA" stroke-width="6" stroke-linecap="round"/>
<line x1="118.395" y1="310.266" x2="114.875" y2="315.943" stroke="#FFF0DA" stroke-width="6" stroke-linecap="round"/>
<line x1="130.378" y1="345.208" x2="126.857" y2="350.885" stroke="#FFF0DA" stroke-width="6" stroke-linecap="round"/>
<line x1="142.36" y1="380.15" x2="138.839" y2="385.827" stroke="#FFF0DA" stroke-width="6" stroke-linecap="round"/>
<line x1="77.659" y1="167.865" x2="83.3363" y2="171.386" stroke="#FFF0DA" stroke-width="6" stroke-linecap="round"/>
<line x1="89.6416" y1="202.807" x2="95.3188" y2="206.328" stroke="#FFF0DA" stroke-width="6" stroke-linecap="round"/>
<line x1="101.624" y1="237.751" x2="107.301" y2="241.271" stroke="#FFF0DA" stroke-width="6" stroke-linecap="round"/>
<line x1="113.606" y1="272.692" x2="119.284" y2="276.213" stroke="#FFF0DA" stroke-width="6" stroke-linecap="round"/>
<line x1="125.589" y1="307.635" x2="131.266" y2="311.155" stroke="#FFF0DA" stroke-width="6" stroke-linecap="round"/>
<line x1="137.571" y1="342.577" x2="143.249" y2="346.098" stroke="#FFF0DA" stroke-width="6" stroke-linecap="round"/>
<line x1="149.554" y1="377.52" x2="155.231" y2="381.04" stroke="#FFF0DA" stroke-width="6" stroke-linecap="round"/>
<line x1="62.4838" y1="157.66" x2="68.161" y2="161.18" stroke="#FFF0DA" stroke-width="6" stroke-linecap="round"/>
<line x1="74.4659" y1="192.602" x2="80.1432" y2="196.123" stroke="#FFF0DA" stroke-width="6" stroke-linecap="round"/>
<line x1="86.4486" y1="227.545" x2="92.1258" y2="231.065" stroke="#FFF0DA" stroke-width="6" stroke-linecap="round"/>
<line x1="98.4313" y1="262.487" x2="104.108" y2="266.008" stroke="#FFF0DA" stroke-width="6" stroke-linecap="round"/>
<line x1="110.413" y1="297.43" x2="116.091" y2="300.95" stroke="#FFF0DA" stroke-width="6" stroke-linecap="round"/>
<line x1="122.396" y1="332.371" x2="128.073" y2="335.892" stroke="#FFF0DA" stroke-width="6" stroke-linecap="round"/>
<line x1="134.378" y1="367.314" x2="140.056" y2="370.835" stroke="#FFF0DA" stroke-width="6" stroke-linecap="round"/>
<line x1="51.9772" y1="176.192" x2="48.4567" y2="181.869" stroke="#FFF0DA" stroke-width="6" stroke-linecap="round"/>
<line x1="63.9598" y1="211.135" x2="60.4393" y2="216.812" stroke="#FFF0DA" stroke-width="6" stroke-linecap="round"/>
<line x1="75.9421" y1="246.076" x2="72.4216" y2="251.754" stroke="#FFF0DA" stroke-width="6" stroke-linecap="round"/>
<line x1="87.9247" y1="281.019" x2="84.4043" y2="286.696" stroke="#FFF0DA" stroke-width="6" stroke-linecap="round"/>
<line x1="99.9073" y1="315.962" x2="96.3868" y2="321.639" stroke="#FFF0DA" stroke-width="6" stroke-linecap="round"/>
<line x1="111.889" y1="350.904" x2="108.369" y2="356.581" stroke="#FFF0DA" stroke-width="6" stroke-linecap="round"/>
<line x1="123.872" y1="385.846" x2="120.352" y2="391.523" stroke="#FFF0DA" stroke-width="6" stroke-linecap="round"/>
<line x1="42.7069" y1="191.426" x2="39.1864" y2="197.104" stroke="#FFF0DA" stroke-width="6" stroke-linecap="round"/>
<line x1="54.6894" y1="226.369" x2="51.1689" y2="232.046" stroke="#FFF0DA" stroke-width="6" stroke-linecap="round"/>
<line x1="66.6718" y1="261.312" x2="63.1513" y2="266.989" stroke="#FFF0DA" stroke-width="6" stroke-linecap="round"/>
<line x1="78.6544" y1="296.254" x2="75.1339" y2="301.931" stroke="#FFF0DA" stroke-width="6" stroke-linecap="round"/>
<line x1="90.6368" y1="331.196" x2="87.1163" y2="336.873" stroke="#FFF0DA" stroke-width="6" stroke-linecap="round"/>
<line x1="102.619" y1="366.138" x2="99.0986" y2="371.816" stroke="#FFF0DA" stroke-width="6" stroke-linecap="round"/>
<line x1="114.602" y1="401.081" x2="111.081" y2="406.758" stroke="#FFF0DA" stroke-width="6" stroke-linecap="round"/>
<line x1="49.9005" y1="188.796" x2="55.5777" y2="192.316" stroke="#FFF0DA" stroke-width="6" stroke-linecap="round"/>
<line x1="61.883" y1="223.738" x2="67.5603" y2="227.259" stroke="#FFF0DA" stroke-width="6" stroke-linecap="round"/>
<line x1="73.8657" y1="258.681" x2="79.5429" y2="262.201" stroke="#FFF0DA" stroke-width="6" stroke-linecap="round"/>
<line x1="85.8479" y1="293.623" x2="91.5251" y2="297.143" stroke="#FFF0DA" stroke-width="6" stroke-linecap="round"/>
<line x1="97.8304" y1="328.565" x2="103.508" y2="332.086" stroke="#FFF0DA" stroke-width="6" stroke-linecap="round"/>
<line x1="109.813" y1="363.508" x2="115.49" y2="367.028" stroke="#FFF0DA" stroke-width="6" stroke-linecap="round"/>
<line x1="121.795" y1="398.45" x2="127.473" y2="401.97" stroke="#FFF0DA" stroke-width="6" stroke-linecap="round"/>
<line x1="34.7252" y1="178.591" x2="40.4024" y2="182.111" stroke="#FFF0DA" stroke-width="6" stroke-linecap="round"/>
<line x1="46.7074" y1="213.533" x2="52.3846" y2="217.053" stroke="#FFF0DA" stroke-width="6" stroke-linecap="round"/>
<line x1="58.69" y1="248.475" x2="64.3673" y2="251.996" stroke="#FFF0DA" stroke-width="6" stroke-linecap="round"/>
<line x1="70.6725" y1="283.418" x2="76.3497" y2="286.938" stroke="#FFF0DA" stroke-width="6" stroke-linecap="round"/>
<line x1="82.655" y1="318.36" x2="88.3323" y2="321.88" stroke="#FFF0DA" stroke-width="6" stroke-linecap="round"/>
<line x1="94.6373" y1="353.302" x2="100.315" y2="356.822" stroke="#FFF0DA" stroke-width="6" stroke-linecap="round"/>
<line x1="106.62" y1="388.245" x2="112.297" y2="391.765" stroke="#FFF0DA" stroke-width="6" stroke-linecap="round"/>
<line x1="17.1175" y1="176.742" x2="13.597" y2="182.419" stroke="#FFF0DA" stroke-width="6" stroke-linecap="round"/>
<line x1="29.1" y1="211.685" x2="25.5795" y2="217.362" stroke="#FFF0DA" stroke-width="6" stroke-linecap="round"/>
<line x1="41.0826" y1="246.627" x2="37.5621" y2="252.304" stroke="#FFF0DA" stroke-width="6" stroke-linecap="round"/>
<line x1="53.065" y1="281.569" x2="49.5445" y2="287.246" stroke="#FFF0DA" stroke-width="6" stroke-linecap="round"/>
<line x1="65.0474" y1="316.512" x2="61.5269" y2="322.189" stroke="#FFF0DA" stroke-width="6" stroke-linecap="round"/>
<line x1="77.0299" y1="351.454" x2="73.5094" y2="357.131" stroke="#FFF0DA" stroke-width="6" stroke-linecap="round"/>
<line x1="89.0121" y1="386.396" x2="85.4917" y2="392.073" stroke="#FFF0DA" stroke-width="6" stroke-linecap="round"/>
<line x1="7.84699" y1="191.977" x2="4.32649" y2="197.654" stroke="#FFF0DA" stroke-width="6" stroke-linecap="round"/>
<line x1="19.8297" y1="226.919" x2="16.3092" y2="232.596" stroke="#FFF0DA" stroke-width="6" stroke-linecap="round"/>
<line x1="31.8117" y1="261.862" x2="28.2912" y2="267.539" stroke="#FFF0DA" stroke-width="6" stroke-linecap="round"/>
<line x1="43.7943" y1="296.803" x2="40.2738" y2="302.481" stroke="#FFF0DA" stroke-width="6" stroke-linecap="round"/>
<line x1="55.7768" y1="331.746" x2="52.2563" y2="337.423" stroke="#FFF0DA" stroke-width="6" stroke-linecap="round"/>
<line x1="67.7596" y1="366.689" x2="64.2391" y2="372.366" stroke="#FFF0DA" stroke-width="6" stroke-linecap="round"/>
<line x1="79.7418" y1="401.631" x2="76.2213" y2="407.308" stroke="#FFF0DA" stroke-width="6" stroke-linecap="round"/>
<line x1="15.041" y1="189.346" x2="20.7182" y2="192.867" stroke="#FFF0DA" stroke-width="6" stroke-linecap="round"/>
<line x1="27.0233" y1="224.289" x2="32.7005" y2="227.809" stroke="#FFF0DA" stroke-width="6" stroke-linecap="round"/>
<line x1="39.0056" y1="259.231" x2="44.6828" y2="262.752" stroke="#FFF0DA" stroke-width="6" stroke-linecap="round"/>
<line x1="50.9883" y1="294.173" x2="56.6655" y2="297.694" stroke="#FFF0DA" stroke-width="6" stroke-linecap="round"/>
<line x1="62.9706" y1="329.115" x2="68.6478" y2="332.636" stroke="#FFF0DA" stroke-width="6" stroke-linecap="round"/>
<line x1="74.9531" y1="364.058" x2="80.6303" y2="367.579" stroke="#FFF0DA" stroke-width="6" stroke-linecap="round"/>
<line x1="86.9357" y1="399.001" x2="92.6129" y2="402.521" stroke="#FFF0DA" stroke-width="6" stroke-linecap="round"/>
<line x1="-0.134657" y1="179.14" x2="5.54258" y2="182.661" stroke="#FFF0DA" stroke-width="6" stroke-linecap="round"/>
<line x1="11.8476" y1="214.083" x2="17.5249" y2="217.603" stroke="#FFF0DA" stroke-width="6" stroke-linecap="round"/>
<line x1="23.8304" y1="249.026" x2="29.5077" y2="252.546" stroke="#FFF0DA" stroke-width="6" stroke-linecap="round"/>
<line x1="35.8127" y1="283.967" x2="41.49" y2="287.488" stroke="#FFF0DA" stroke-width="6" stroke-linecap="round"/>
<line x1="47.795" y1="318.91" x2="53.4723" y2="322.43" stroke="#FFF0DA" stroke-width="6" stroke-linecap="round"/>
<line x1="59.7775" y1="353.852" x2="65.4547" y2="357.373" stroke="#FFF0DA" stroke-width="6" stroke-linecap="round"/>
<line x1="71.76" y1="388.795" x2="77.4372" y2="392.316" stroke="#FFF0DA" stroke-width="6" stroke-linecap="round"/>
<line x1="1.3415" y1="232.615" x2="-2.179" y2="238.292" stroke="#FFF0DA" stroke-width="6" stroke-linecap="round"/>
<line x1="13.3237" y1="267.557" x2="9.80318" y2="273.235" stroke="#FFF0DA" stroke-width="6" stroke-linecap="round"/>
<line x1="25.3061" y1="302.5" x2="21.7856" y2="308.177" stroke="#FFF0DA" stroke-width="6" stroke-linecap="round"/>
<line x1="37.2888" y1="337.442" x2="33.7683" y2="343.119" stroke="#FFF0DA" stroke-width="6" stroke-linecap="round"/>
<line x1="49.2709" y1="372.385" x2="45.7504" y2="378.062" stroke="#FFF0DA" stroke-width="6" stroke-linecap="round"/>
<line x1="61.2535" y1="407.327" x2="57.733" y2="413.004" stroke="#FFF0DA" stroke-width="6" stroke-linecap="round"/>
<line x1="4.05329" y1="282.793" x2="0.532794" y2="288.47" stroke="#FFF0DA" stroke-width="6" stroke-linecap="round"/>
<line x1="16.0357" y1="317.734" x2="12.5152" y2="323.411" stroke="#FFF0DA" stroke-width="6" stroke-linecap="round"/>
<line x1="28.0181" y1="352.677" x2="24.4976" y2="358.354" stroke="#FFF0DA" stroke-width="6" stroke-linecap="round"/>
<line x1="40.0007" y1="387.619" x2="36.4802" y2="393.297" stroke="#FFF0DA" stroke-width="6" stroke-linecap="round"/>
<line x1="-0.735487" y1="245.219" x2="4.94175" y2="248.74" stroke="#FFF0DA" stroke-width="6" stroke-linecap="round"/>
<line x1="11.2471" y1="280.162" x2="16.9243" y2="283.682" stroke="#FFF0DA" stroke-width="6" stroke-linecap="round"/>
<line x1="23.2297" y1="315.104" x2="28.907" y2="318.625" stroke="#FFF0DA" stroke-width="6" stroke-linecap="round"/>
<line x1="35.212" y1="350.046" x2="40.8893" y2="353.567" stroke="#FFF0DA" stroke-width="6" stroke-linecap="round"/>
<line x1="47.1944" y1="384.989" x2="52.8717" y2="388.509" stroke="#FFF0DA" stroke-width="6" stroke-linecap="round"/>
<line x1="-3.92872" y1="269.956" x2="1.74851" y2="273.477" stroke="#FFF0DA" stroke-width="6" stroke-linecap="round"/>
<line x1="8.05394" y1="304.899" x2="13.7312" y2="308.419" stroke="#FFF0DA" stroke-width="6" stroke-linecap="round"/>
<line x1="20.0362" y1="339.841" x2="25.7135" y2="343.361" stroke="#FFF0DA" stroke-width="6" stroke-linecap="round"/>
<line x1="32.0188" y1="374.783" x2="37.696" y2="378.303" stroke="#FFF0DA" stroke-width="6" stroke-linecap="round"/>
<line x1="44.0013" y1="409.726" x2="49.6786" y2="413.246" stroke="#FFF0DA" stroke-width="6" stroke-linecap="round"/>
<line x1="2.42914" y1="337.992" x2="-1.09135" y2="343.67" stroke="#FFF0DA" stroke-width="6" stroke-linecap="round"/>
<line x1="14.4112" y1="372.934" x2="10.8907" y2="378.612" stroke="#FFF0DA" stroke-width="6" stroke-linecap="round"/>
<line x1="26.3939" y1="407.877" x2="22.8734" y2="413.554" stroke="#FFF0DA" stroke-width="6" stroke-linecap="round"/>
<line x1="5.14106" y1="388.169" x2="1.62056" y2="393.846" stroke="#FFF0DA" stroke-width="6" stroke-linecap="round"/>
<line x1="0.352159" y1="350.596" x2="6.0294" y2="354.116" stroke="#FFF0DA" stroke-width="6" stroke-linecap="round"/>
<line x1="12.3347" y1="385.538" x2="18.0119" y2="389.059" stroke="#FFF0DA" stroke-width="6" stroke-linecap="round"/>
<line x1="-2.84083" y1="375.333" x2="2.83641" y2="378.853" stroke="#FFF0DA" stroke-width="6" stroke-linecap="round"/>
<line x1="9.14159" y1="410.276" x2="14.8188" y2="413.796" stroke="#FFF0DA" stroke-width="6" stroke-linecap="round"/>
</g>
<defs>
<linearGradient id="paint0_linear" x1="106.614" y1="101.994" x2="97.4939" y2="455.707" gradientUnits="userSpaceOnUse">
<stop stop-color="#97D3F1"/>
<stop offset="0.9999" stop-color="#EDE3D8"/>
<stop offset="1" stop-color="#EDE3D8"/>
</linearGradient>
</defs>
</svg>
