<svg width="521" height="584" viewBox="0 0 521 584" fill="none" xmlns="http://www.w3.org/2000/svg">
<mask id="mask0" mask-type="alpha" maskUnits="userSpaceOnUse" x="-104" y="203" width="471" height="409">
<path fill-rule="evenodd" clip-rule="evenodd" d="M-103.361 437.283C-104.186 394.948 -86.9547 357.76 -69.4792 319.889C-50.7912 279.389 -41.8339 227.674 1.55482 209.916C44.8656 192.19 98.5283 212.19 143.45 232.743C180.731 249.8 197.137 289.155 229.263 314.1C267.863 344.072 327.27 351.139 349.451 392.699C373.419 437.605 372.185 493.851 347.084 534.852C322.354 575.249 269.012 589.723 220.572 603.221C177.763 615.151 133.235 611.255 87.5341 607.18C35.1436 602.509 -25.2498 612.697 -64.4526 577.807C-103.774 542.811 -102.411 486.032 -103.361 437.283Z" fill="url(#paint0_linear)"/>
</mask>
<g mask="url(#mask0)">
<line x1="-4.66747" y1="222.596" x2="5.51604" y2="226.197" stroke="#FFF0DA" stroke-width="6" stroke-linecap="round"/>
<line x1="37.1734" y1="197.199" x2="47.3569" y2="200.799" stroke="#FFF0DA" stroke-width="6" stroke-linecap="round"/>
<line x1="17.6763" y1="230.286" x2="27.8598" y2="233.887" stroke="#FFF0DA" stroke-width="6" stroke-linecap="round"/>
<line x1="59.5166" y1="204.888" x2="69.7001" y2="208.489" stroke="#FFF0DA" stroke-width="6" stroke-linecap="round"/>
<line x1="14.0738" y1="222.368" x2="17.6745" y2="212.185" stroke="#FFF0DA" stroke-width="6" stroke-linecap="round"/>
<line x1="5.15785" y1="244.9" x2="8.75855" y2="234.716" stroke="#FFF0DA" stroke-width="6" stroke-linecap="round"/>
<line x1="46.9976" y1="219.502" x2="50.5983" y2="209.319" stroke="#FFF0DA" stroke-width="6" stroke-linecap="round"/>
<line x1="-11.5591" y1="278.004" x2="-1.37563" y2="281.604" stroke="#FFF0DA" stroke-width="6" stroke-linecap="round"/>
<line x1="30.2811" y1="252.606" x2="40.4646" y2="256.206" stroke="#FFF0DA" stroke-width="6" stroke-linecap="round"/>
<line x1="72.1216" y1="227.208" x2="82.3051" y2="230.809" stroke="#FFF0DA" stroke-width="6" stroke-linecap="round"/>
<line x1="113.962" y1="201.81" x2="124.145" y2="205.411" stroke="#FFF0DA" stroke-width="6" stroke-linecap="round"/>
<line x1="10.7847" y1="285.692" x2="20.9682" y2="289.293" stroke="#FFF0DA" stroke-width="6" stroke-linecap="round"/>
<line x1="52.6248" y1="260.295" x2="62.8083" y2="263.895" stroke="#FFF0DA" stroke-width="6" stroke-linecap="round"/>
<line x1="94.4653" y1="234.897" x2="104.649" y2="238.497" stroke="#FFF0DA" stroke-width="6" stroke-linecap="round"/>
<line x1="136.305" y1="209.499" x2="146.489" y2="213.1" stroke="#FFF0DA" stroke-width="6" stroke-linecap="round"/>
<line x1="7.18199" y1="277.775" x2="10.7827" y2="267.592" stroke="#FFF0DA" stroke-width="6" stroke-linecap="round"/>
<line x1="49.0221" y1="252.378" x2="52.6228" y2="242.194" stroke="#FFF0DA" stroke-width="6" stroke-linecap="round"/>
<line x1="90.8629" y1="226.98" x2="94.4636" y2="216.796" stroke="#FFF0DA" stroke-width="6" stroke-linecap="round"/>
<line x1="132.703" y1="201.582" x2="136.304" y2="191.398" stroke="#FFF0DA" stroke-width="6" stroke-linecap="round"/>
<line x1="-1.73418" y1="300.307" x2="1.86653" y2="290.123" stroke="#FFF0DA" stroke-width="6" stroke-linecap="round"/>
<line x1="40.1061" y1="274.909" x2="43.7068" y2="264.725" stroke="#FFF0DA" stroke-width="6" stroke-linecap="round"/>
<line x1="81.9462" y1="249.511" x2="85.5469" y2="239.328" stroke="#FFF0DA" stroke-width="6" stroke-linecap="round"/>
<line x1="123.787" y1="224.113" x2="127.387" y2="213.93" stroke="#FFF0DA" stroke-width="6" stroke-linecap="round"/>
<line x1="-0.983995" y1="322.972" x2="9.19951" y2="326.573" stroke="#FFF0DA" stroke-width="6" stroke-linecap="round"/>
<line x1="40.8568" y1="297.574" x2="51.0403" y2="301.175" stroke="#FFF0DA" stroke-width="6" stroke-linecap="round"/>
<line x1="82.6972" y1="272.176" x2="92.8807" y2="275.777" stroke="#FFF0DA" stroke-width="6" stroke-linecap="round"/>
<line x1="124.537" y1="246.778" x2="134.721" y2="250.379" stroke="#FFF0DA" stroke-width="6" stroke-linecap="round"/>
<line x1="166.378" y1="221.38" x2="176.561" y2="224.981" stroke="#FFF0DA" stroke-width="6" stroke-linecap="round"/>
<line x1="21.3599" y1="330.661" x2="31.5434" y2="334.262" stroke="#FFF0DA" stroke-width="6" stroke-linecap="round"/>
<line x1="63.2" y1="305.263" x2="73.3835" y2="308.864" stroke="#FFF0DA" stroke-width="6" stroke-linecap="round"/>
<line x1="105.04" y1="279.866" x2="115.224" y2="283.466" stroke="#FFF0DA" stroke-width="6" stroke-linecap="round"/>
<line x1="146.881" y1="254.467" x2="157.065" y2="258.068" stroke="#FFF0DA" stroke-width="6" stroke-linecap="round"/>
<line x1="188.721" y1="229.07" x2="198.904" y2="232.67" stroke="#FFF0DA" stroke-width="6" stroke-linecap="round"/>
<line x1="17.7576" y1="322.744" x2="21.3583" y2="312.56" stroke="#FFF0DA" stroke-width="6" stroke-linecap="round"/>
<line x1="59.5985" y1="297.345" x2="63.1992" y2="287.162" stroke="#FFF0DA" stroke-width="6" stroke-linecap="round"/>
<line x1="101.438" y1="271.948" x2="105.039" y2="261.764" stroke="#FFF0DA" stroke-width="6" stroke-linecap="round"/>
<line x1="143.279" y1="246.55" x2="146.879" y2="236.366" stroke="#FFF0DA" stroke-width="6" stroke-linecap="round"/>
<line x1="185.119" y1="221.152" x2="188.72" y2="210.968" stroke="#FFF0DA" stroke-width="6" stroke-linecap="round"/>
<line x1="8.84095" y1="345.275" x2="12.4417" y2="335.092" stroke="#FFF0DA" stroke-width="6" stroke-linecap="round"/>
<line x1="50.6817" y1="319.877" x2="54.2824" y2="309.694" stroke="#FFF0DA" stroke-width="6" stroke-linecap="round"/>
<line x1="92.5218" y1="294.48" x2="96.1225" y2="284.296" stroke="#FFF0DA" stroke-width="6" stroke-linecap="round"/>
<line x1="134.362" y1="269.082" x2="137.963" y2="258.898" stroke="#FFF0DA" stroke-width="6" stroke-linecap="round"/>
<line x1="176.203" y1="243.684" x2="179.803" y2="233.5" stroke="#FFF0DA" stroke-width="6" stroke-linecap="round"/>
<line x1="-7.87535" y1="378.379" x2="2.30815" y2="381.979" stroke="#FFF0DA" stroke-width="6" stroke-linecap="round"/>
<line x1="33.9646" y1="352.981" x2="44.1481" y2="356.581" stroke="#FFF0DA" stroke-width="6" stroke-linecap="round"/>
<line x1="75.805" y1="327.583" x2="85.9885" y2="331.184" stroke="#FFF0DA" stroke-width="6" stroke-linecap="round"/>
<line x1="117.645" y1="302.185" x2="127.829" y2="305.786" stroke="#FFF0DA" stroke-width="6" stroke-linecap="round"/>
<line x1="159.485" y1="276.788" x2="169.669" y2="280.389" stroke="#FFF0DA" stroke-width="6" stroke-linecap="round"/>
<line x1="201.326" y1="251.39" x2="211.51" y2="254.991" stroke="#FFF0DA" stroke-width="6" stroke-linecap="round"/>
<line x1="14.468" y1="386.068" x2="24.6515" y2="389.669" stroke="#FFF0DA" stroke-width="6" stroke-linecap="round"/>
<line x1="56.3083" y1="360.67" x2="66.4918" y2="364.271" stroke="#FFF0DA" stroke-width="6" stroke-linecap="round"/>
<line x1="98.1485" y1="335.273" x2="108.332" y2="338.873" stroke="#FFF0DA" stroke-width="6" stroke-linecap="round"/>
<line x1="139.988" y1="309.875" x2="150.172" y2="313.475" stroke="#FFF0DA" stroke-width="6" stroke-linecap="round"/>
<line x1="181.829" y1="284.477" x2="192.013" y2="288.078" stroke="#FFF0DA" stroke-width="6" stroke-linecap="round"/>
<line x1="223.669" y1="259.079" x2="233.852" y2="262.68" stroke="#FFF0DA" stroke-width="6" stroke-linecap="round"/>
<line x1="10.8656" y1="378.151" x2="14.4663" y2="367.968" stroke="#FFF0DA" stroke-width="6" stroke-linecap="round"/>
<line x1="52.706" y1="352.753" x2="56.3067" y2="342.57" stroke="#FFF0DA" stroke-width="6" stroke-linecap="round"/>
<line x1="94.5465" y1="327.355" x2="98.1472" y2="317.172" stroke="#FFF0DA" stroke-width="6" stroke-linecap="round"/>
<line x1="136.386" y1="301.957" x2="139.987" y2="291.774" stroke="#FFF0DA" stroke-width="6" stroke-linecap="round"/>
<line x1="178.227" y1="276.56" x2="181.827" y2="266.376" stroke="#FFF0DA" stroke-width="6" stroke-linecap="round"/>
<line x1="220.067" y1="251.162" x2="223.667" y2="240.979" stroke="#FFF0DA" stroke-width="6" stroke-linecap="round"/>
<line x1="1.94923" y1="400.682" x2="5.54994" y2="390.499" stroke="#FFF0DA" stroke-width="6" stroke-linecap="round"/>
<line x1="43.7893" y1="375.285" x2="47.39" y2="365.101" stroke="#FFF0DA" stroke-width="6" stroke-linecap="round"/>
<line x1="85.63" y1="349.886" x2="89.2307" y2="339.703" stroke="#FFF0DA" stroke-width="6" stroke-linecap="round"/>
<line x1="127.47" y1="324.489" x2="131.071" y2="314.305" stroke="#FFF0DA" stroke-width="6" stroke-linecap="round"/>
<line x1="169.31" y1="299.091" x2="172.911" y2="288.907" stroke="#FFF0DA" stroke-width="6" stroke-linecap="round"/>
<line x1="211.151" y1="273.693" x2="214.751" y2="263.51" stroke="#FFF0DA" stroke-width="6" stroke-linecap="round"/>
<line x1="2.7003" y1="423.347" x2="12.8838" y2="426.948" stroke="#FFF0DA" stroke-width="6" stroke-linecap="round"/>
<line x1="44.5401" y1="397.95" x2="54.7236" y2="401.55" stroke="#FFF0DA" stroke-width="6" stroke-linecap="round"/>
<line x1="86.3807" y1="372.552" x2="96.5642" y2="376.152" stroke="#FFF0DA" stroke-width="6" stroke-linecap="round"/>
<line x1="128.221" y1="347.154" x2="138.404" y2="350.754" stroke="#FFF0DA" stroke-width="6" stroke-linecap="round"/>
<line x1="170.061" y1="321.756" x2="180.244" y2="325.357" stroke="#FFF0DA" stroke-width="6" stroke-linecap="round"/>
<line x1="211.901" y1="296.358" x2="222.085" y2="299.959" stroke="#FFF0DA" stroke-width="6" stroke-linecap="round"/>
<line x1="25.0436" y1="431.036" x2="35.2271" y2="434.637" stroke="#FFF0DA" stroke-width="6" stroke-linecap="round"/>
<line x1="66.884" y1="405.638" x2="77.0675" y2="409.239" stroke="#FFF0DA" stroke-width="6" stroke-linecap="round"/>
<line x1="108.724" y1="380.241" x2="118.907" y2="383.842" stroke="#FFF0DA" stroke-width="6" stroke-linecap="round"/>
<line x1="150.565" y1="354.843" x2="160.748" y2="358.444" stroke="#FFF0DA" stroke-width="6" stroke-linecap="round"/>
<line x1="192.405" y1="329.445" x2="202.588" y2="333.046" stroke="#FFF0DA" stroke-width="6" stroke-linecap="round"/>
<line x1="234.245" y1="304.048" x2="244.428" y2="307.648" stroke="#FFF0DA" stroke-width="6" stroke-linecap="round"/>
<line x1="21.4408" y1="423.119" x2="25.0415" y2="412.936" stroke="#FFF0DA" stroke-width="6" stroke-linecap="round"/>
<line x1="63.2815" y1="397.721" x2="66.8822" y2="387.537" stroke="#FFF0DA" stroke-width="6" stroke-linecap="round"/>
<line x1="105.121" y1="372.324" x2="108.722" y2="362.14" stroke="#FFF0DA" stroke-width="6" stroke-linecap="round"/>
<line x1="146.962" y1="346.925" x2="150.563" y2="336.742" stroke="#FFF0DA" stroke-width="6" stroke-linecap="round"/>
<line x1="188.803" y1="321.528" x2="192.403" y2="311.344" stroke="#FFF0DA" stroke-width="6" stroke-linecap="round"/>
<line x1="230.643" y1="296.13" x2="234.243" y2="285.947" stroke="#FFF0DA" stroke-width="6" stroke-linecap="round"/>
<line x1="12.5246" y1="445.651" x2="16.1253" y2="435.468" stroke="#FFF0DA" stroke-width="6" stroke-linecap="round"/>
<line x1="54.3654" y1="420.253" x2="57.9661" y2="410.069" stroke="#FFF0DA" stroke-width="6" stroke-linecap="round"/>
<line x1="96.2057" y1="394.855" x2="99.8064" y2="384.671" stroke="#FFF0DA" stroke-width="6" stroke-linecap="round"/>
<line x1="138.046" y1="369.457" x2="141.647" y2="359.274" stroke="#FFF0DA" stroke-width="6" stroke-linecap="round"/>
<line x1="179.886" y1="344.06" x2="183.486" y2="333.876" stroke="#FFF0DA" stroke-width="6" stroke-linecap="round"/>
<line x1="221.726" y1="318.661" x2="225.327" y2="308.478" stroke="#FFF0DA" stroke-width="6" stroke-linecap="round"/>
<line x1="-4.19216" y1="478.755" x2="5.99135" y2="482.355" stroke="#FFF0DA" stroke-width="6" stroke-linecap="round"/>
<line x1="37.6487" y1="453.357" x2="47.8322" y2="456.957" stroke="#FFF0DA" stroke-width="6" stroke-linecap="round"/>
<line x1="79.4881" y1="427.959" x2="89.6716" y2="431.56" stroke="#FFF0DA" stroke-width="6" stroke-linecap="round"/>
<line x1="121.329" y1="402.561" x2="131.512" y2="406.162" stroke="#FFF0DA" stroke-width="6" stroke-linecap="round"/>
<line x1="163.169" y1="377.163" x2="173.353" y2="380.764" stroke="#FFF0DA" stroke-width="6" stroke-linecap="round"/>
<line x1="205.009" y1="351.765" x2="215.193" y2="355.366" stroke="#FFF0DA" stroke-width="6" stroke-linecap="round"/>
<line x1="246.85" y1="326.367" x2="257.033" y2="329.968" stroke="#FFF0DA" stroke-width="6" stroke-linecap="round"/>
<line x1="18.1511" y1="486.444" x2="28.3346" y2="490.045" stroke="#FFF0DA" stroke-width="6" stroke-linecap="round"/>
<line x1="59.9919" y1="461.046" x2="70.1754" y2="464.646" stroke="#FFF0DA" stroke-width="6" stroke-linecap="round"/>
<line x1="101.832" y1="435.648" x2="112.016" y2="439.249" stroke="#FFF0DA" stroke-width="6" stroke-linecap="round"/>
<line x1="143.672" y1="410.25" x2="153.856" y2="413.851" stroke="#FFF0DA" stroke-width="6" stroke-linecap="round"/>
<line x1="185.512" y1="384.852" x2="195.696" y2="388.453" stroke="#FFF0DA" stroke-width="6" stroke-linecap="round"/>
<line x1="227.353" y1="359.455" x2="237.536" y2="363.056" stroke="#FFF0DA" stroke-width="6" stroke-linecap="round"/>
<line x1="269.193" y1="334.057" x2="279.376" y2="337.658" stroke="#FFF0DA" stroke-width="6" stroke-linecap="round"/>
<line x1="14.5489" y1="478.527" x2="18.1496" y2="468.344" stroke="#FFF0DA" stroke-width="6" stroke-linecap="round"/>
<line x1="56.3893" y1="453.129" x2="59.99" y2="442.946" stroke="#FFF0DA" stroke-width="6" stroke-linecap="round"/>
<line x1="98.23" y1="427.731" x2="101.831" y2="417.547" stroke="#FFF0DA" stroke-width="6" stroke-linecap="round"/>
<line x1="140.07" y1="402.333" x2="143.67" y2="392.15" stroke="#FFF0DA" stroke-width="6" stroke-linecap="round"/>
<line x1="181.91" y1="376.935" x2="185.511" y2="366.752" stroke="#FFF0DA" stroke-width="6" stroke-linecap="round"/>
<line x1="223.751" y1="351.537" x2="227.351" y2="341.354" stroke="#FFF0DA" stroke-width="6" stroke-linecap="round"/>
<line x1="265.591" y1="326.139" x2="269.191" y2="315.956" stroke="#FFF0DA" stroke-width="6" stroke-linecap="round"/>
<line x1="5.63288" y1="501.058" x2="9.23359" y2="490.874" stroke="#FFF0DA" stroke-width="6" stroke-linecap="round"/>
<line x1="47.473" y1="475.66" x2="51.0737" y2="465.477" stroke="#FFF0DA" stroke-width="6" stroke-linecap="round"/>
<line x1="89.3134" y1="450.262" x2="92.9141" y2="440.079" stroke="#FFF0DA" stroke-width="6" stroke-linecap="round"/>
<line x1="131.154" y1="424.864" x2="134.755" y2="414.681" stroke="#FFF0DA" stroke-width="6" stroke-linecap="round"/>
<line x1="172.994" y1="399.466" x2="176.595" y2="389.283" stroke="#FFF0DA" stroke-width="6" stroke-linecap="round"/>
<line x1="214.834" y1="374.069" x2="218.435" y2="363.885" stroke="#FFF0DA" stroke-width="6" stroke-linecap="round"/>
<line x1="256.675" y1="348.671" x2="260.275" y2="338.488" stroke="#FFF0DA" stroke-width="6" stroke-linecap="round"/>
<line x1="6.3835" y1="523.723" x2="16.567" y2="527.324" stroke="#FFF0DA" stroke-width="6" stroke-linecap="round"/>
<line x1="48.2243" y1="498.325" x2="58.4078" y2="501.926" stroke="#FFF0DA" stroke-width="6" stroke-linecap="round"/>
<line x1="90.0643" y1="472.927" x2="100.248" y2="476.528" stroke="#FFF0DA" stroke-width="6" stroke-linecap="round"/>
<line x1="131.904" y1="447.53" x2="142.088" y2="451.13" stroke="#FFF0DA" stroke-width="6" stroke-linecap="round"/>
<line x1="173.745" y1="422.132" x2="183.929" y2="425.732" stroke="#FFF0DA" stroke-width="6" stroke-linecap="round"/>
<line x1="215.585" y1="396.734" x2="225.769" y2="400.334" stroke="#FFF0DA" stroke-width="6" stroke-linecap="round"/>
<line x1="257.425" y1="371.336" x2="267.609" y2="374.937" stroke="#FFF0DA" stroke-width="6" stroke-linecap="round"/>
<line x1="28.7273" y1="531.412" x2="38.9108" y2="535.013" stroke="#FFF0DA" stroke-width="6" stroke-linecap="round"/>
<line x1="70.5676" y1="506.014" x2="80.7511" y2="509.615" stroke="#FFF0DA" stroke-width="6" stroke-linecap="round"/>
<line x1="112.408" y1="480.617" x2="122.591" y2="484.218" stroke="#FFF0DA" stroke-width="6" stroke-linecap="round"/>
<line x1="154.248" y1="455.219" x2="164.431" y2="458.82" stroke="#FFF0DA" stroke-width="6" stroke-linecap="round"/>
<line x1="196.088" y1="429.821" x2="206.272" y2="433.422" stroke="#FFF0DA" stroke-width="6" stroke-linecap="round"/>
<line x1="237.929" y1="404.423" x2="248.112" y2="408.023" stroke="#FFF0DA" stroke-width="6" stroke-linecap="round"/>
<line x1="279.769" y1="379.025" x2="289.953" y2="382.626" stroke="#FFF0DA" stroke-width="6" stroke-linecap="round"/>
<line x1="25.1252" y1="523.495" x2="28.7259" y2="513.311" stroke="#FFF0DA" stroke-width="6" stroke-linecap="round"/>
<line x1="66.9653" y1="498.097" x2="70.566" y2="487.913" stroke="#FFF0DA" stroke-width="6" stroke-linecap="round"/>
<line x1="108.806" y1="472.699" x2="112.407" y2="462.516" stroke="#FFF0DA" stroke-width="6" stroke-linecap="round"/>
<line x1="150.646" y1="447.301" x2="154.247" y2="437.117" stroke="#FFF0DA" stroke-width="6" stroke-linecap="round"/>
<line x1="192.486" y1="421.903" x2="196.087" y2="411.72" stroke="#FFF0DA" stroke-width="6" stroke-linecap="round"/>
<line x1="234.327" y1="396.506" x2="237.927" y2="386.322" stroke="#FFF0DA" stroke-width="6" stroke-linecap="round"/>
<line x1="276.167" y1="371.108" x2="279.768" y2="360.924" stroke="#FFF0DA" stroke-width="6" stroke-linecap="round"/>
<line x1="16.2085" y1="546.027" x2="19.8092" y2="535.843" stroke="#FFF0DA" stroke-width="6" stroke-linecap="round"/>
<line x1="58.0487" y1="520.629" x2="61.6494" y2="510.445" stroke="#FFF0DA" stroke-width="6" stroke-linecap="round"/>
<line x1="99.8893" y1="495.23" x2="103.49" y2="485.047" stroke="#FFF0DA" stroke-width="6" stroke-linecap="round"/>
<line x1="141.73" y1="469.833" x2="145.33" y2="459.649" stroke="#FFF0DA" stroke-width="6" stroke-linecap="round"/>
<line x1="183.57" y1="444.435" x2="187.17" y2="434.252" stroke="#FFF0DA" stroke-width="6" stroke-linecap="round"/>
<line x1="225.41" y1="419.037" x2="229.011" y2="408.854" stroke="#FFF0DA" stroke-width="6" stroke-linecap="round"/>
<line x1="267.25" y1="393.639" x2="270.851" y2="383.456" stroke="#FFF0DA" stroke-width="6" stroke-linecap="round"/>
<line x1="41.3319" y1="553.732" x2="51.5154" y2="557.333" stroke="#FFF0DA" stroke-width="6" stroke-linecap="round"/>
<line x1="83.1718" y1="528.334" x2="93.3553" y2="531.935" stroke="#FFF0DA" stroke-width="6" stroke-linecap="round"/>
<line x1="125.012" y1="502.937" x2="135.196" y2="506.538" stroke="#FFF0DA" stroke-width="6" stroke-linecap="round"/>
<line x1="166.852" y1="477.539" x2="177.036" y2="481.14" stroke="#FFF0DA" stroke-width="6" stroke-linecap="round"/>
<line x1="208.693" y1="452.141" x2="218.876" y2="455.742" stroke="#FFF0DA" stroke-width="6" stroke-linecap="round"/>
<line x1="250.533" y1="426.743" x2="260.717" y2="430.344" stroke="#FFF0DA" stroke-width="6" stroke-linecap="round"/>
<line x1="292.373" y1="401.345" x2="302.557" y2="404.946" stroke="#FFF0DA" stroke-width="6" stroke-linecap="round"/>
<line x1="63.6751" y1="561.421" x2="73.8586" y2="565.022" stroke="#FFF0DA" stroke-width="6" stroke-linecap="round"/>
<line x1="105.515" y1="536.024" x2="115.699" y2="539.624" stroke="#FFF0DA" stroke-width="6" stroke-linecap="round"/>
<line x1="147.356" y1="510.626" x2="157.54" y2="514.227" stroke="#FFF0DA" stroke-width="6" stroke-linecap="round"/>
<line x1="189.196" y1="485.228" x2="199.379" y2="488.829" stroke="#FFF0DA" stroke-width="6" stroke-linecap="round"/>
<line x1="231.037" y1="459.83" x2="241.22" y2="463.431" stroke="#FFF0DA" stroke-width="6" stroke-linecap="round"/>
<line x1="272.877" y1="434.432" x2="283.06" y2="438.033" stroke="#FFF0DA" stroke-width="6" stroke-linecap="round"/>
<line x1="314.717" y1="409.034" x2="324.9" y2="412.635" stroke="#FFF0DA" stroke-width="6" stroke-linecap="round"/>
<line x1="60.073" y1="553.504" x2="63.6737" y2="543.32" stroke="#FFF0DA" stroke-width="6" stroke-linecap="round"/>
<line x1="101.913" y1="528.106" x2="105.514" y2="517.923" stroke="#FFF0DA" stroke-width="6" stroke-linecap="round"/>
<line x1="143.754" y1="502.708" x2="147.354" y2="492.525" stroke="#FFF0DA" stroke-width="6" stroke-linecap="round"/>
<line x1="185.594" y1="477.31" x2="189.195" y2="467.127" stroke="#FFF0DA" stroke-width="6" stroke-linecap="round"/>
<line x1="227.434" y1="451.913" x2="231.034" y2="441.729" stroke="#FFF0DA" stroke-width="6" stroke-linecap="round"/>
<line x1="269.275" y1="426.515" x2="272.875" y2="416.331" stroke="#FFF0DA" stroke-width="6" stroke-linecap="round"/>
<line x1="311.115" y1="401.117" x2="314.715" y2="390.933" stroke="#FFF0DA" stroke-width="6" stroke-linecap="round"/>
<line x1="51.1565" y1="576.036" x2="54.7572" y2="565.852" stroke="#FFF0DA" stroke-width="6" stroke-linecap="round"/>
<line x1="92.9965" y1="550.638" x2="96.5972" y2="540.454" stroke="#FFF0DA" stroke-width="6" stroke-linecap="round"/>
<line x1="134.838" y1="525.24" x2="138.438" y2="515.057" stroke="#FFF0DA" stroke-width="6" stroke-linecap="round"/>
<line x1="176.677" y1="499.842" x2="180.278" y2="489.659" stroke="#FFF0DA" stroke-width="6" stroke-linecap="round"/>
<line x1="218.518" y1="474.444" x2="222.118" y2="464.261" stroke="#FFF0DA" stroke-width="6" stroke-linecap="round"/>
<line x1="260.358" y1="449.047" x2="263.959" y2="438.863" stroke="#FFF0DA" stroke-width="6" stroke-linecap="round"/>
<line x1="302.198" y1="423.649" x2="305.799" y2="413.465" stroke="#FFF0DA" stroke-width="6" stroke-linecap="round"/>
<line x1="93.7483" y1="573.303" x2="103.932" y2="576.903" stroke="#FFF0DA" stroke-width="6" stroke-linecap="round"/>
<line x1="135.588" y1="547.905" x2="145.772" y2="551.506" stroke="#FFF0DA" stroke-width="6" stroke-linecap="round"/>
<line x1="177.429" y1="522.507" x2="187.612" y2="526.108" stroke="#FFF0DA" stroke-width="6" stroke-linecap="round"/>
<line x1="219.269" y1="497.109" x2="229.453" y2="500.71" stroke="#FFF0DA" stroke-width="6" stroke-linecap="round"/>
<line x1="261.109" y1="471.712" x2="271.293" y2="475.312" stroke="#FFF0DA" stroke-width="6" stroke-linecap="round"/>
<line x1="302.949" y1="446.314" x2="313.133" y2="449.914" stroke="#FFF0DA" stroke-width="6" stroke-linecap="round"/>
<line x1="116.092" y1="580.992" x2="126.276" y2="584.593" stroke="#FFF0DA" stroke-width="6" stroke-linecap="round"/>
<line x1="157.932" y1="555.595" x2="168.115" y2="559.195" stroke="#FFF0DA" stroke-width="6" stroke-linecap="round"/>
<line x1="199.772" y1="530.197" x2="209.955" y2="533.797" stroke="#FFF0DA" stroke-width="6" stroke-linecap="round"/>
<line x1="241.612" y1="504.799" x2="251.796" y2="508.399" stroke="#FFF0DA" stroke-width="6" stroke-linecap="round"/>
<line x1="283.453" y1="479.401" x2="293.636" y2="483.001" stroke="#FFF0DA" stroke-width="6" stroke-linecap="round"/>
<line x1="325.293" y1="454.003" x2="335.477" y2="457.604" stroke="#FFF0DA" stroke-width="6" stroke-linecap="round"/>
<line x1="112.489" y1="573.075" x2="116.09" y2="562.891" stroke="#FFF0DA" stroke-width="6" stroke-linecap="round"/>
<line x1="154.33" y1="547.677" x2="157.93" y2="537.493" stroke="#FFF0DA" stroke-width="6" stroke-linecap="round"/>
<line x1="196.17" y1="522.279" x2="199.771" y2="512.095" stroke="#FFF0DA" stroke-width="6" stroke-linecap="round"/>
<line x1="238.01" y1="496.881" x2="241.611" y2="486.698" stroke="#FFF0DA" stroke-width="6" stroke-linecap="round"/>
<line x1="279.85" y1="471.484" x2="283.451" y2="461.3" stroke="#FFF0DA" stroke-width="6" stroke-linecap="round"/>
<line x1="321.69" y1="446.086" x2="325.291" y2="435.903" stroke="#FFF0DA" stroke-width="6" stroke-linecap="round"/>
<line x1="103.573" y1="595.606" x2="107.174" y2="585.423" stroke="#FFF0DA" stroke-width="6" stroke-linecap="round"/>
<line x1="145.413" y1="570.209" x2="149.014" y2="560.025" stroke="#FFF0DA" stroke-width="6" stroke-linecap="round"/>
<line x1="187.254" y1="544.81" x2="190.854" y2="534.627" stroke="#FFF0DA" stroke-width="6" stroke-linecap="round"/>
<line x1="229.094" y1="519.413" x2="232.694" y2="509.23" stroke="#FFF0DA" stroke-width="6" stroke-linecap="round"/>
<line x1="270.934" y1="494.015" x2="274.535" y2="483.831" stroke="#FFF0DA" stroke-width="6" stroke-linecap="round"/>
<line x1="312.775" y1="468.617" x2="316.376" y2="458.434" stroke="#FFF0DA" stroke-width="6" stroke-linecap="round"/>
<line x1="170.537" y1="577.914" x2="180.72" y2="581.515" stroke="#FFF0DA" stroke-width="6" stroke-linecap="round"/>
<line x1="212.377" y1="552.516" x2="222.561" y2="556.117" stroke="#FFF0DA" stroke-width="6" stroke-linecap="round"/>
<line x1="254.217" y1="527.118" x2="264.401" y2="530.719" stroke="#FFF0DA" stroke-width="6" stroke-linecap="round"/>
<line x1="296.057" y1="501.721" x2="306.241" y2="505.322" stroke="#FFF0DA" stroke-width="6" stroke-linecap="round"/>
<line x1="337.898" y1="476.323" x2="348.082" y2="479.924" stroke="#FFF0DA" stroke-width="6" stroke-linecap="round"/>
<line x1="192.88" y1="585.603" x2="203.064" y2="589.204" stroke="#FFF0DA" stroke-width="6" stroke-linecap="round"/>
<line x1="234.721" y1="560.206" x2="244.904" y2="563.807" stroke="#FFF0DA" stroke-width="6" stroke-linecap="round"/>
<line x1="276.56" y1="534.808" x2="286.744" y2="538.409" stroke="#FFF0DA" stroke-width="6" stroke-linecap="round"/>
<line x1="318.401" y1="509.41" x2="328.585" y2="513.011" stroke="#FFF0DA" stroke-width="6" stroke-linecap="round"/>
<line x1="360.241" y1="484.012" x2="370.425" y2="487.613" stroke="#FFF0DA" stroke-width="6" stroke-linecap="round"/>
<line x1="189.278" y1="577.686" x2="192.879" y2="567.503" stroke="#FFF0DA" stroke-width="6" stroke-linecap="round"/>
<line x1="231.118" y1="552.289" x2="234.719" y2="542.105" stroke="#FFF0DA" stroke-width="6" stroke-linecap="round"/>
<line x1="272.959" y1="526.891" x2="276.559" y2="516.707" stroke="#FFF0DA" stroke-width="6" stroke-linecap="round"/>
<line x1="314.799" y1="501.493" x2="318.4" y2="491.309" stroke="#FFF0DA" stroke-width="6" stroke-linecap="round"/>
<line x1="356.638" y1="476.095" x2="360.239" y2="465.911" stroke="#FFF0DA" stroke-width="6" stroke-linecap="round"/>
<line x1="222.202" y1="574.819" x2="225.803" y2="564.636" stroke="#FFF0DA" stroke-width="6" stroke-linecap="round"/>
<line x1="264.042" y1="549.423" x2="267.643" y2="539.239" stroke="#FFF0DA" stroke-width="6" stroke-linecap="round"/>
<line x1="305.882" y1="524.025" x2="309.483" y2="513.841" stroke="#FFF0DA" stroke-width="6" stroke-linecap="round"/>
<line x1="347.723" y1="498.626" x2="351.324" y2="488.443" stroke="#FFF0DA" stroke-width="6" stroke-linecap="round"/>
<line x1="264.793" y1="572.087" x2="274.976" y2="575.687" stroke="#FFF0DA" stroke-width="6" stroke-linecap="round"/>
<line x1="306.633" y1="546.689" x2="316.816" y2="550.289" stroke="#FFF0DA" stroke-width="6" stroke-linecap="round"/>
<line x1="348.473" y1="521.291" x2="358.657" y2="524.892" stroke="#FFF0DA" stroke-width="6" stroke-linecap="round"/>
<line x1="287.136" y1="579.776" x2="297.32" y2="583.376" stroke="#FFF0DA" stroke-width="6" stroke-linecap="round"/>
<line x1="328.977" y1="554.378" x2="339.16" y2="557.979" stroke="#FFF0DA" stroke-width="6" stroke-linecap="round"/>
<line x1="241.694" y1="597.256" x2="245.294" y2="587.073" stroke="#FFF0DA" stroke-width="6" stroke-linecap="round"/>
<line x1="283.534" y1="571.859" x2="287.135" y2="561.675" stroke="#FFF0DA" stroke-width="6" stroke-linecap="round"/>
<line x1="325.375" y1="546.461" x2="328.975" y2="536.277" stroke="#FFF0DA" stroke-width="6" stroke-linecap="round"/>
<line x1="367.214" y1="521.063" x2="370.815" y2="510.88" stroke="#FFF0DA" stroke-width="6" stroke-linecap="round"/>
<line x1="274.618" y1="594.39" x2="278.218" y2="584.207" stroke="#FFF0DA" stroke-width="6" stroke-linecap="round"/>
<line x1="316.458" y1="568.992" x2="320.059" y2="558.809" stroke="#FFF0DA" stroke-width="6" stroke-linecap="round"/>
<line x1="358.298" y1="543.594" x2="361.899" y2="533.411" stroke="#FFF0DA" stroke-width="6" stroke-linecap="round"/>
<line x1="341.581" y1="576.699" x2="351.764" y2="580.299" stroke="#FFF0DA" stroke-width="6" stroke-linecap="round"/>
<line x1="363.925" y1="584.388" x2="374.108" y2="587.989" stroke="#FFF0DA" stroke-width="6" stroke-linecap="round"/>
<line x1="360.322" y1="576.47" x2="363.923" y2="566.287" stroke="#FFF0DA" stroke-width="6" stroke-linecap="round"/>
</g>
<defs>
<linearGradient id="paint0_linear" x1="-114.454" y1="428.432" x2="345.987" y2="340.151" gradientUnits="userSpaceOnUse">
<stop stop-color="#97D3F1"/>
<stop offset="0.9999" stop-color="#EDE3D8"/>
<stop offset="1" stop-color="#EDE3D8"/>
</linearGradient>
</defs>
</svg>
