<svg width="381" height="657" viewBox="0 0 381 657" fill="none" xmlns="http://www.w3.org/2000/svg">
<mask id="mask0" mask-type="alpha" maskUnits="userSpaceOnUse" x="-161" y="139" width="380" height="326">
<path fill-rule="evenodd" clip-rule="evenodd" d="M206.067 235.468C219.821 266.698 218.548 299.704 217.305 333.295C215.977 369.216 225.366 410.459 198.608 437.133C171.899 463.76 125.78 465.542 85.9912 464.199C52.9696 463.084 28.5527 438.907 -3.08314 430.325C-41.0939 420.015 -87.4704 433.198 -116.867 409.173C-148.631 383.214 -165.171 340.999 -159.229 302.714C-153.375 264.993 -118.195 237.672 -86.3581 212.598C-58.2224 190.439 -23.8958 179.515 11.358 168.361C51.7726 155.574 93.527 129.251 133.513 143.032C173.62 156.855 190.23 199.507 206.067 235.468Z" fill="url(#paint0_linear)"/>
</mask>
<g mask="url(#mask0)">
<line x1="221.986" y1="394.508" x2="214.458" y2="394.927" stroke="#90D9D7" stroke-opacity="0.64" stroke-width="6" stroke-linecap="round"/>
<line x1="198.751" y1="426.384" x2="191.223" y2="426.803" stroke="#90D9D7" stroke-opacity="0.64" stroke-width="6" stroke-linecap="round"/>
<line x1="175.516" y1="458.26" x2="167.987" y2="458.679" stroke="#90D9D7" stroke-opacity="0.64" stroke-width="6" stroke-linecap="round"/>
<line x1="226.217" y1="363.849" x2="218.688" y2="364.268" stroke="#90D9D7" stroke-opacity="0.64" stroke-width="6" stroke-linecap="round"/>
<line x1="202.982" y1="395.725" x2="195.453" y2="396.143" stroke="#90D9D7" stroke-opacity="0.64" stroke-width="6" stroke-linecap="round"/>
<line x1="179.747" y1="427.601" x2="172.218" y2="428.019" stroke="#90D9D7" stroke-opacity="0.64" stroke-width="6" stroke-linecap="round"/>
<line x1="156.512" y1="459.477" x2="148.983" y2="459.895" stroke="#90D9D7" stroke-opacity="0.64" stroke-width="6" stroke-linecap="round"/>
<line x1="209.281" y1="400.431" x2="209.7" y2="407.959" stroke="#90D9D7" stroke-opacity="0.64" stroke-width="6" stroke-linecap="round"/>
<line x1="186.046" y1="432.306" x2="186.465" y2="439.835" stroke="#90D9D7" stroke-opacity="0.64" stroke-width="6" stroke-linecap="round"/>
<line x1="162.811" y1="464.182" x2="163.23" y2="471.711" stroke="#90D9D7" stroke-opacity="0.64" stroke-width="6" stroke-linecap="round"/>
<line x1="208.919" y1="380.905" x2="209.337" y2="388.434" stroke="#90D9D7" stroke-opacity="0.64" stroke-width="6" stroke-linecap="round"/>
<line x1="185.684" y1="412.782" x2="186.102" y2="420.311" stroke="#90D9D7" stroke-opacity="0.64" stroke-width="6" stroke-linecap="round"/>
<line x1="162.449" y1="444.657" x2="162.868" y2="452.186" stroke="#90D9D7" stroke-opacity="0.64" stroke-width="6" stroke-linecap="round"/>
<line x1="209.914" y1="351.161" x2="202.386" y2="351.58" stroke="#90D9D7" stroke-opacity="0.64" stroke-width="6" stroke-linecap="round"/>
<line x1="186.679" y1="383.037" x2="179.151" y2="383.456" stroke="#90D9D7" stroke-opacity="0.64" stroke-width="6" stroke-linecap="round"/>
<line x1="163.444" y1="414.913" x2="155.916" y2="415.331" stroke="#90D9D7" stroke-opacity="0.64" stroke-width="6" stroke-linecap="round"/>
<line x1="140.209" y1="446.789" x2="132.681" y2="447.207" stroke="#90D9D7" stroke-opacity="0.64" stroke-width="6" stroke-linecap="round"/>
<line x1="214.145" y1="320.502" x2="206.617" y2="320.92" stroke="#90D9D7" stroke-opacity="0.64" stroke-width="6" stroke-linecap="round"/>
<line x1="190.91" y1="352.378" x2="183.382" y2="352.796" stroke="#90D9D7" stroke-opacity="0.64" stroke-width="6" stroke-linecap="round"/>
<line x1="167.675" y1="384.254" x2="160.147" y2="384.672" stroke="#90D9D7" stroke-opacity="0.64" stroke-width="6" stroke-linecap="round"/>
<line x1="144.44" y1="416.129" x2="136.912" y2="416.547" stroke="#90D9D7" stroke-opacity="0.64" stroke-width="6" stroke-linecap="round"/>
<line x1="121.205" y1="448.005" x2="113.676" y2="448.423" stroke="#90D9D7" stroke-opacity="0.64" stroke-width="6" stroke-linecap="round"/>
<line x1="220.445" y1="325.207" x2="220.863" y2="332.736" stroke="#90D9D7" stroke-opacity="0.64" stroke-width="6" stroke-linecap="round"/>
<line x1="197.209" y1="357.083" x2="197.628" y2="364.612" stroke="#90D9D7" stroke-opacity="0.64" stroke-width="6" stroke-linecap="round"/>
<line x1="173.975" y1="388.959" x2="174.393" y2="396.488" stroke="#90D9D7" stroke-opacity="0.64" stroke-width="6" stroke-linecap="round"/>
<line x1="150.74" y1="420.835" x2="151.158" y2="428.363" stroke="#90D9D7" stroke-opacity="0.64" stroke-width="6" stroke-linecap="round"/>
<line x1="127.504" y1="452.711" x2="127.923" y2="460.239" stroke="#90D9D7" stroke-opacity="0.64" stroke-width="6" stroke-linecap="round"/>
<line x1="220.082" y1="305.683" x2="220.501" y2="313.212" stroke="#90D9D7" stroke-opacity="0.64" stroke-width="6" stroke-linecap="round"/>
<line x1="196.847" y1="337.558" x2="197.266" y2="345.087" stroke="#90D9D7" stroke-opacity="0.64" stroke-width="6" stroke-linecap="round"/>
<line x1="173.613" y1="369.434" x2="174.031" y2="376.963" stroke="#90D9D7" stroke-opacity="0.64" stroke-width="6" stroke-linecap="round"/>
<line x1="150.378" y1="401.31" x2="150.796" y2="408.839" stroke="#90D9D7" stroke-opacity="0.64" stroke-width="6" stroke-linecap="round"/>
<line x1="127.143" y1="433.186" x2="127.561" y2="440.715" stroke="#90D9D7" stroke-opacity="0.64" stroke-width="6" stroke-linecap="round"/>
<line x1="103.908" y1="465.061" x2="104.326" y2="472.59" stroke="#90D9D7" stroke-opacity="0.64" stroke-width="6" stroke-linecap="round"/>
<line x1="211.327" y1="289.124" x2="203.798" y2="289.542" stroke="#90D9D7" stroke-opacity="0.64" stroke-width="6" stroke-linecap="round"/>
<line x1="188.092" y1="320.999" x2="180.563" y2="321.417" stroke="#90D9D7" stroke-opacity="0.64" stroke-width="6" stroke-linecap="round"/>
<line x1="164.857" y1="352.875" x2="157.328" y2="353.293" stroke="#90D9D7" stroke-opacity="0.64" stroke-width="6" stroke-linecap="round"/>
<line x1="141.621" y1="384.751" x2="134.093" y2="385.169" stroke="#90D9D7" stroke-opacity="0.64" stroke-width="6" stroke-linecap="round"/>
<line x1="118.386" y1="416.627" x2="110.858" y2="417.045" stroke="#90D9D7" stroke-opacity="0.64" stroke-width="6" stroke-linecap="round"/>
<line x1="95.1517" y1="448.503" x2="87.6231" y2="448.921" stroke="#90D9D7" stroke-opacity="0.64" stroke-width="6" stroke-linecap="round"/>
<line x1="192.322" y1="290.34" x2="184.794" y2="290.758" stroke="#90D9D7" stroke-opacity="0.64" stroke-width="6" stroke-linecap="round"/>
<line x1="169.087" y1="322.215" x2="161.559" y2="322.634" stroke="#90D9D7" stroke-opacity="0.64" stroke-width="6" stroke-linecap="round"/>
<line x1="145.852" y1="354.092" x2="138.324" y2="354.51" stroke="#90D9D7" stroke-opacity="0.64" stroke-width="6" stroke-linecap="round"/>
<line x1="122.618" y1="385.967" x2="115.089" y2="386.385" stroke="#90D9D7" stroke-opacity="0.64" stroke-width="6" stroke-linecap="round"/>
<line x1="99.3823" y1="417.843" x2="91.8537" y2="418.261" stroke="#90D9D7" stroke-opacity="0.64" stroke-width="6" stroke-linecap="round"/>
<line x1="76.1473" y1="449.719" x2="68.6187" y2="450.137" stroke="#90D9D7" stroke-opacity="0.64" stroke-width="6" stroke-linecap="round"/>
<line x1="198.621" y1="295.045" x2="199.04" y2="302.574" stroke="#90D9D7" stroke-opacity="0.64" stroke-width="6" stroke-linecap="round"/>
<line x1="175.387" y1="326.921" x2="175.805" y2="334.45" stroke="#90D9D7" stroke-opacity="0.64" stroke-width="6" stroke-linecap="round"/>
<line x1="152.152" y1="358.797" x2="152.57" y2="366.326" stroke="#90D9D7" stroke-opacity="0.64" stroke-width="6" stroke-linecap="round"/>
<line x1="128.916" y1="390.673" x2="129.335" y2="398.202" stroke="#90D9D7" stroke-opacity="0.64" stroke-width="6" stroke-linecap="round"/>
<line x1="105.682" y1="422.548" x2="106.1" y2="430.077" stroke="#90D9D7" stroke-opacity="0.64" stroke-width="6" stroke-linecap="round"/>
<line x1="82.4467" y1="454.425" x2="82.8649" y2="461.953" stroke="#90D9D7" stroke-opacity="0.64" stroke-width="6" stroke-linecap="round"/>
<line x1="198.26" y1="275.52" x2="198.678" y2="283.049" stroke="#90D9D7" stroke-opacity="0.64" stroke-width="6" stroke-linecap="round"/>
<line x1="175.025" y1="307.396" x2="175.443" y2="314.925" stroke="#90D9D7" stroke-opacity="0.64" stroke-width="6" stroke-linecap="round"/>
<line x1="151.79" y1="339.272" x2="152.208" y2="346.801" stroke="#90D9D7" stroke-opacity="0.64" stroke-width="6" stroke-linecap="round"/>
<line x1="128.555" y1="371.148" x2="128.973" y2="378.676" stroke="#90D9D7" stroke-opacity="0.64" stroke-width="6" stroke-linecap="round"/>
<line x1="105.32" y1="403.024" x2="105.738" y2="410.552" stroke="#90D9D7" stroke-opacity="0.64" stroke-width="6" stroke-linecap="round"/>
<line x1="82.0846" y1="434.899" x2="82.5029" y2="442.428" stroke="#90D9D7" stroke-opacity="0.64" stroke-width="6" stroke-linecap="round"/>
<line x1="58.8495" y1="466.776" x2="59.2678" y2="474.304" stroke="#90D9D7" stroke-opacity="0.64" stroke-width="6" stroke-linecap="round"/>
<line x1="176.02" y1="277.652" x2="168.491" y2="278.07" stroke="#90D9D7" stroke-opacity="0.64" stroke-width="6" stroke-linecap="round"/>
<line x1="152.785" y1="309.528" x2="145.256" y2="309.946" stroke="#90D9D7" stroke-opacity="0.64" stroke-width="6" stroke-linecap="round"/>
<line x1="129.55" y1="341.403" x2="122.021" y2="341.822" stroke="#90D9D7" stroke-opacity="0.64" stroke-width="6" stroke-linecap="round"/>
<line x1="106.315" y1="373.279" x2="98.7863" y2="373.698" stroke="#90D9D7" stroke-opacity="0.64" stroke-width="6" stroke-linecap="round"/>
<line x1="83.0798" y1="405.155" x2="75.5512" y2="405.573" stroke="#90D9D7" stroke-opacity="0.64" stroke-width="6" stroke-linecap="round"/>
<line x1="59.845" y1="437.031" x2="52.3163" y2="437.449" stroke="#90D9D7" stroke-opacity="0.64" stroke-width="6" stroke-linecap="round"/>
<line x1="157.016" y1="278.868" x2="149.487" y2="279.286" stroke="#90D9D7" stroke-opacity="0.64" stroke-width="6" stroke-linecap="round"/>
<line x1="133.78" y1="310.744" x2="126.252" y2="311.162" stroke="#90D9D7" stroke-opacity="0.64" stroke-width="6" stroke-linecap="round"/>
<line x1="110.546" y1="342.62" x2="103.017" y2="343.039" stroke="#90D9D7" stroke-opacity="0.64" stroke-width="6" stroke-linecap="round"/>
<line x1="87.3107" y1="374.496" x2="79.782" y2="374.914" stroke="#90D9D7" stroke-opacity="0.64" stroke-width="6" stroke-linecap="round"/>
<line x1="64.0757" y1="406.371" x2="56.547" y2="406.789" stroke="#90D9D7" stroke-opacity="0.64" stroke-width="6" stroke-linecap="round"/>
<line x1="40.8407" y1="438.247" x2="33.312" y2="438.665" stroke="#90D9D7" stroke-opacity="0.64" stroke-width="6" stroke-linecap="round"/>
<line x1="163.315" y1="283.574" x2="163.733" y2="291.102" stroke="#90D9D7" stroke-opacity="0.64" stroke-width="6" stroke-linecap="round"/>
<line x1="140.08" y1="315.45" x2="140.498" y2="322.978" stroke="#90D9D7" stroke-opacity="0.64" stroke-width="6" stroke-linecap="round"/>
<line x1="116.845" y1="347.326" x2="117.263" y2="354.854" stroke="#90D9D7" stroke-opacity="0.64" stroke-width="6" stroke-linecap="round"/>
<line x1="93.6097" y1="379.202" x2="94.0279" y2="386.73" stroke="#90D9D7" stroke-opacity="0.64" stroke-width="6" stroke-linecap="round"/>
<line x1="70.375" y1="411.078" x2="70.7933" y2="418.606" stroke="#90D9D7" stroke-opacity="0.64" stroke-width="6" stroke-linecap="round"/>
<line x1="47.1401" y1="442.953" x2="47.5583" y2="450.481" stroke="#90D9D7" stroke-opacity="0.64" stroke-width="6" stroke-linecap="round"/>
<line x1="162.953" y1="264.049" x2="163.371" y2="271.578" stroke="#90D9D7" stroke-opacity="0.64" stroke-width="6" stroke-linecap="round"/>
<line x1="139.718" y1="295.924" x2="140.136" y2="303.453" stroke="#90D9D7" stroke-opacity="0.64" stroke-width="6" stroke-linecap="round"/>
<line x1="116.483" y1="327.8" x2="116.901" y2="335.329" stroke="#90D9D7" stroke-opacity="0.64" stroke-width="6" stroke-linecap="round"/>
<line x1="93.248" y1="359.676" x2="93.6662" y2="367.205" stroke="#90D9D7" stroke-opacity="0.64" stroke-width="6" stroke-linecap="round"/>
<line x1="70.0131" y1="391.552" x2="70.4313" y2="399.08" stroke="#90D9D7" stroke-opacity="0.64" stroke-width="6" stroke-linecap="round"/>
<line x1="46.778" y1="423.428" x2="47.1962" y2="430.957" stroke="#90D9D7" stroke-opacity="0.64" stroke-width="6" stroke-linecap="round"/>
<line x1="23.543" y1="455.304" x2="23.9612" y2="462.832" stroke="#90D9D7" stroke-opacity="0.64" stroke-width="6" stroke-linecap="round"/>
<line x1="154.197" y1="247.49" x2="146.668" y2="247.908" stroke="#90D9D7" stroke-opacity="0.64" stroke-width="6" stroke-linecap="round"/>
<line x1="130.962" y1="279.365" x2="123.433" y2="279.784" stroke="#90D9D7" stroke-opacity="0.64" stroke-width="6" stroke-linecap="round"/>
<line x1="107.727" y1="311.241" x2="100.198" y2="311.659" stroke="#90D9D7" stroke-opacity="0.64" stroke-width="6" stroke-linecap="round"/>
<line x1="84.4918" y1="343.118" x2="76.9632" y2="343.536" stroke="#90D9D7" stroke-opacity="0.64" stroke-width="6" stroke-linecap="round"/>
<line x1="61.2568" y1="374.993" x2="53.7282" y2="375.411" stroke="#90D9D7" stroke-opacity="0.64" stroke-width="6" stroke-linecap="round"/>
<line x1="38.0218" y1="406.869" x2="30.4932" y2="407.287" stroke="#90D9D7" stroke-opacity="0.64" stroke-width="6" stroke-linecap="round"/>
<line x1="14.787" y1="438.745" x2="7.25834" y2="439.163" stroke="#90D9D7" stroke-opacity="0.64" stroke-width="6" stroke-linecap="round"/>
<line x1="135.193" y1="248.706" x2="127.664" y2="249.124" stroke="#90D9D7" stroke-opacity="0.64" stroke-width="6" stroke-linecap="round"/>
<line x1="111.958" y1="280.582" x2="104.429" y2="281" stroke="#90D9D7" stroke-opacity="0.64" stroke-width="6" stroke-linecap="round"/>
<line x1="88.7224" y1="312.458" x2="81.1938" y2="312.876" stroke="#90D9D7" stroke-opacity="0.64" stroke-width="6" stroke-linecap="round"/>
<line x1="65.4875" y1="344.333" x2="57.9589" y2="344.751" stroke="#90D9D7" stroke-opacity="0.64" stroke-width="6" stroke-linecap="round"/>
<line x1="42.2523" y1="376.209" x2="34.7237" y2="376.627" stroke="#90D9D7" stroke-opacity="0.64" stroke-width="6" stroke-linecap="round"/>
<line x1="19.0175" y1="408.085" x2="11.4888" y2="408.503" stroke="#90D9D7" stroke-opacity="0.64" stroke-width="6" stroke-linecap="round"/>
<line x1="141.492" y1="253.412" x2="141.91" y2="260.941" stroke="#90D9D7" stroke-opacity="0.64" stroke-width="6" stroke-linecap="round"/>
<line x1="118.257" y1="285.287" x2="118.675" y2="292.816" stroke="#90D9D7" stroke-opacity="0.64" stroke-width="6" stroke-linecap="round"/>
<line x1="95.022" y1="317.163" x2="95.4402" y2="324.692" stroke="#90D9D7" stroke-opacity="0.64" stroke-width="6" stroke-linecap="round"/>
<line x1="71.7871" y1="349.039" x2="72.2054" y2="356.568" stroke="#90D9D7" stroke-opacity="0.64" stroke-width="6" stroke-linecap="round"/>
<line x1="48.5518" y1="380.915" x2="48.97" y2="388.444" stroke="#90D9D7" stroke-opacity="0.64" stroke-width="6" stroke-linecap="round"/>
<line x1="25.3167" y1="412.791" x2="25.7349" y2="420.32" stroke="#90D9D7" stroke-opacity="0.64" stroke-width="6" stroke-linecap="round"/>
<line x1="2.08195" y1="444.667" x2="2.50018" y2="452.196" stroke="#90D9D7" stroke-opacity="0.64" stroke-width="6" stroke-linecap="round"/>
<line x1="141.13" y1="233.887" x2="141.548" y2="241.416" stroke="#90D9D7" stroke-opacity="0.64" stroke-width="6" stroke-linecap="round"/>
<line x1="117.895" y1="265.762" x2="118.313" y2="273.291" stroke="#90D9D7" stroke-opacity="0.64" stroke-width="6" stroke-linecap="round"/>
<line x1="94.6598" y1="297.639" x2="95.0781" y2="305.167" stroke="#90D9D7" stroke-opacity="0.64" stroke-width="6" stroke-linecap="round"/>
<line x1="71.4248" y1="329.514" x2="71.8431" y2="337.043" stroke="#90D9D7" stroke-opacity="0.64" stroke-width="6" stroke-linecap="round"/>
<line x1="48.1899" y1="361.39" x2="48.6081" y2="368.919" stroke="#90D9D7" stroke-opacity="0.64" stroke-width="6" stroke-linecap="round"/>
<line x1="24.9549" y1="393.266" x2="25.3731" y2="400.794" stroke="#90D9D7" stroke-opacity="0.64" stroke-width="6" stroke-linecap="round"/>
<line x1="1.72001" y1="425.141" x2="2.13824" y2="432.67" stroke="#90D9D7" stroke-opacity="0.64" stroke-width="6" stroke-linecap="round"/>
<line x1="118.89" y1="236.018" x2="111.362" y2="236.436" stroke="#90D9D7" stroke-opacity="0.64" stroke-width="6" stroke-linecap="round"/>
<line x1="95.6549" y1="267.894" x2="88.1263" y2="268.312" stroke="#90D9D7" stroke-opacity="0.64" stroke-width="6" stroke-linecap="round"/>
<line x1="72.4204" y1="299.77" x2="64.8918" y2="300.188" stroke="#90D9D7" stroke-opacity="0.64" stroke-width="6" stroke-linecap="round"/>
<line x1="49.1853" y1="331.646" x2="41.6567" y2="332.064" stroke="#90D9D7" stroke-opacity="0.64" stroke-width="6" stroke-linecap="round"/>
<line x1="25.9502" y1="363.522" x2="18.4215" y2="363.94" stroke="#90D9D7" stroke-opacity="0.64" stroke-width="6" stroke-linecap="round"/>
<line x1="2.71521" y1="395.397" x2="-4.81344" y2="395.815" stroke="#90D9D7" stroke-opacity="0.64" stroke-width="6" stroke-linecap="round"/>
<line x1="99.8862" y1="237.235" x2="92.3576" y2="237.653" stroke="#90D9D7" stroke-opacity="0.64" stroke-width="6" stroke-linecap="round"/>
<line x1="76.651" y1="269.111" x2="69.1224" y2="269.529" stroke="#90D9D7" stroke-opacity="0.64" stroke-width="6" stroke-linecap="round"/>
<line x1="53.4159" y1="300.986" x2="45.8872" y2="301.404" stroke="#90D9D7" stroke-opacity="0.64" stroke-width="6" stroke-linecap="round"/>
<line x1="30.1812" y1="332.862" x2="22.6525" y2="333.281" stroke="#90D9D7" stroke-opacity="0.64" stroke-width="6" stroke-linecap="round"/>
<line x1="6.94604" y1="364.738" x2="-0.582602" y2="365.156" stroke="#90D9D7" stroke-opacity="0.64" stroke-width="6" stroke-linecap="round"/>
<line x1="106.185" y1="241.94" x2="106.604" y2="249.468" stroke="#90D9D7" stroke-opacity="0.64" stroke-width="6" stroke-linecap="round"/>
<line x1="82.9504" y1="273.816" x2="83.3686" y2="281.345" stroke="#90D9D7" stroke-opacity="0.64" stroke-width="6" stroke-linecap="round"/>
<line x1="59.7154" y1="305.692" x2="60.1336" y2="313.221" stroke="#90D9D7" stroke-opacity="0.64" stroke-width="6" stroke-linecap="round"/>
<line x1="36.4805" y1="337.568" x2="36.8987" y2="345.096" stroke="#90D9D7" stroke-opacity="0.64" stroke-width="6" stroke-linecap="round"/>
<line x1="13.2453" y1="369.444" x2="13.6635" y2="376.972" stroke="#90D9D7" stroke-opacity="0.64" stroke-width="6" stroke-linecap="round"/>
<line x1="105.823" y1="222.415" x2="106.242" y2="229.944" stroke="#90D9D7" stroke-opacity="0.64" stroke-width="6" stroke-linecap="round"/>
<line x1="82.5884" y1="254.291" x2="83.0067" y2="261.82" stroke="#90D9D7" stroke-opacity="0.64" stroke-width="6" stroke-linecap="round"/>
<line x1="59.3533" y1="286.167" x2="59.7715" y2="293.696" stroke="#90D9D7" stroke-opacity="0.64" stroke-width="6" stroke-linecap="round"/>
<line x1="36.1182" y1="318.043" x2="36.5364" y2="325.572" stroke="#90D9D7" stroke-opacity="0.64" stroke-width="6" stroke-linecap="round"/>
<line x1="12.8836" y1="349.918" x2="13.3018" y2="357.447" stroke="#90D9D7" stroke-opacity="0.64" stroke-width="6" stroke-linecap="round"/>
<line x1="97.0673" y1="205.856" x2="89.5386" y2="206.274" stroke="#90D9D7" stroke-opacity="0.64" stroke-width="6" stroke-linecap="round"/>
<line x1="73.832" y1="237.732" x2="66.3034" y2="238.15" stroke="#90D9D7" stroke-opacity="0.64" stroke-width="6" stroke-linecap="round"/>
<line x1="50.5972" y1="269.608" x2="43.0685" y2="270.026" stroke="#90D9D7" stroke-opacity="0.64" stroke-width="6" stroke-linecap="round"/>
<line x1="27.3621" y1="301.484" x2="19.8334" y2="301.902" stroke="#90D9D7" stroke-opacity="0.64" stroke-width="6" stroke-linecap="round"/>
<line x1="4.12683" y1="333.36" x2="-3.40182" y2="333.778" stroke="#90D9D7" stroke-opacity="0.64" stroke-width="6" stroke-linecap="round"/>
<line x1="78.0626" y1="207.072" x2="70.534" y2="207.491" stroke="#90D9D7" stroke-opacity="0.64" stroke-width="6" stroke-linecap="round"/>
<line x1="54.8276" y1="238.948" x2="47.299" y2="239.366" stroke="#90D9D7" stroke-opacity="0.64" stroke-width="6" stroke-linecap="round"/>
<line x1="31.5925" y1="270.824" x2="24.0639" y2="271.242" stroke="#90D9D7" stroke-opacity="0.64" stroke-width="6" stroke-linecap="round"/>
<line x1="8.35779" y1="302.699" x2="0.829141" y2="303.118" stroke="#90D9D7" stroke-opacity="0.64" stroke-width="6" stroke-linecap="round"/>
<line x1="84.362" y1="211.778" x2="84.7802" y2="219.307" stroke="#90D9D7" stroke-opacity="0.64" stroke-width="6" stroke-linecap="round"/>
<line x1="61.1271" y1="243.654" x2="61.5453" y2="251.182" stroke="#90D9D7" stroke-opacity="0.64" stroke-width="6" stroke-linecap="round"/>
<line x1="37.8919" y1="275.53" x2="38.3101" y2="283.058" stroke="#90D9D7" stroke-opacity="0.64" stroke-width="6" stroke-linecap="round"/>
<line x1="14.657" y1="307.406" x2="15.0753" y2="314.934" stroke="#90D9D7" stroke-opacity="0.64" stroke-width="6" stroke-linecap="round"/>
<line x1="84" y1="192.253" x2="84.4183" y2="199.781" stroke="#90D9D7" stroke-opacity="0.64" stroke-width="6" stroke-linecap="round"/>
<line x1="60.7652" y1="224.129" x2="61.1834" y2="231.657" stroke="#90D9D7" stroke-opacity="0.64" stroke-width="6" stroke-linecap="round"/>
<line x1="37.5303" y1="256.005" x2="37.9485" y2="263.534" stroke="#90D9D7" stroke-opacity="0.64" stroke-width="6" stroke-linecap="round"/>
<line x1="14.295" y1="287.88" x2="14.7132" y2="295.409" stroke="#90D9D7" stroke-opacity="0.64" stroke-width="6" stroke-linecap="round"/>
<line x1="61.7605" y1="194.384" x2="54.2318" y2="194.803" stroke="#90D9D7" stroke-opacity="0.64" stroke-width="6" stroke-linecap="round"/>
<line x1="38.5258" y1="226.26" x2="30.9971" y2="226.678" stroke="#90D9D7" stroke-opacity="0.64" stroke-width="6" stroke-linecap="round"/>
<line x1="15.2906" y1="258.136" x2="7.762" y2="258.554" stroke="#90D9D7" stroke-opacity="0.64" stroke-width="6" stroke-linecap="round"/>
<line x1="42.7566" y1="195.601" x2="35.2279" y2="196.019" stroke="#90D9D7" stroke-opacity="0.64" stroke-width="6" stroke-linecap="round"/>
<line x1="19.5212" y1="227.476" x2="11.9926" y2="227.894" stroke="#90D9D7" stroke-opacity="0.64" stroke-width="6" stroke-linecap="round"/>
<line x1="49.0558" y1="200.307" x2="49.4741" y2="207.836" stroke="#90D9D7" stroke-opacity="0.64" stroke-width="6" stroke-linecap="round"/>
<line x1="25.8207" y1="232.182" x2="26.239" y2="239.711" stroke="#90D9D7" stroke-opacity="0.64" stroke-width="6" stroke-linecap="round"/>
<line x1="2.58573" y1="264.058" x2="3.00397" y2="271.587" stroke="#90D9D7" stroke-opacity="0.64" stroke-width="6" stroke-linecap="round"/>
<line x1="48.6938" y1="180.781" x2="49.112" y2="188.31" stroke="#90D9D7" stroke-opacity="0.64" stroke-width="6" stroke-linecap="round"/>
<line x1="25.4589" y1="212.657" x2="25.8771" y2="220.186" stroke="#90D9D7" stroke-opacity="0.64" stroke-width="6" stroke-linecap="round"/>
<line x1="2.22331" y1="244.533" x2="2.64154" y2="252.062" stroke="#90D9D7" stroke-opacity="0.64" stroke-width="6" stroke-linecap="round"/>
<line x1="39.9375" y1="164.223" x2="32.4089" y2="164.641" stroke="#90D9D7" stroke-opacity="0.64" stroke-width="6" stroke-linecap="round"/>
<line x1="16.7023" y1="196.099" x2="9.17362" y2="196.517" stroke="#90D9D7" stroke-opacity="0.64" stroke-width="6" stroke-linecap="round"/>
<line x1="20.9332" y1="165.439" x2="13.4046" y2="165.857" stroke="#90D9D7" stroke-opacity="0.64" stroke-width="6" stroke-linecap="round"/>
<line x1="-2.30213" y1="197.315" x2="-9.83077" y2="197.733" stroke="#90D9D7" stroke-opacity="0.64" stroke-width="6" stroke-linecap="round"/>
<line x1="27.2325" y1="170.144" x2="27.6507" y2="177.673" stroke="#90D9D7" stroke-opacity="0.64" stroke-width="6" stroke-linecap="round"/>
<line x1="3.9976" y1="202.021" x2="4.41583" y2="209.55" stroke="#90D9D7" stroke-opacity="0.64" stroke-width="6" stroke-linecap="round"/>
<line x1="26.8705" y1="150.62" x2="27.2888" y2="158.149" stroke="#90D9D7" stroke-opacity="0.64" stroke-width="6" stroke-linecap="round"/>
<line x1="3.63554" y1="182.495" x2="4.05377" y2="190.024" stroke="#90D9D7" stroke-opacity="0.64" stroke-width="6" stroke-linecap="round"/>
<line x1="4.63074" y1="152.751" x2="-2.89791" y2="153.169" stroke="#90D9D7" stroke-opacity="0.64" stroke-width="6" stroke-linecap="round"/>
</g>
<defs>
<linearGradient id="paint0_linear" x1="217.064" y1="238.608" x2="-97.981" y2="447.18" gradientUnits="userSpaceOnUse">
<stop stop-color="#97D3F1"/>
<stop offset="0.9999" stop-color="#EDE3D8"/>
<stop offset="1" stop-color="#EDE3D8"/>
</linearGradient>
</defs>
</svg>
