<svg width="618" height="619" viewBox="0 0 618 619" fill="none" xmlns="http://www.w3.org/2000/svg">
<mask id="mask0" mask-type="alpha" maskUnits="userSpaceOnUse" x="209" y="183" width="460" height="518">
<path fill-rule="evenodd" clip-rule="evenodd" d="M421.139 185.17C467.788 187.427 507.422 209.169 547.791 231.23C590.961 254.823 647.2 268.545 663.498 317.619C679.767 366.605 653.748 424.162 627.773 472.059C606.216 511.809 561.682 526.921 531.83 560.409C495.962 600.645 483.745 665.49 436.352 686.793C385.145 709.811 323.343 704.249 280.099 673.562C237.494 643.328 225.554 583.547 214.321 529.233C204.393 481.233 212.008 432.524 219.909 382.538C228.965 325.235 222.268 258.015 263.593 217.483C305.043 176.828 367.423 182.572 421.139 185.17Z" fill="url(#paint0_linear)"/>
</mask>
<g mask="url(#mask0)">
<line x1="600.206" y1="213.536" x2="595.237" y2="225.041" stroke="#F2CFD9" stroke-opacity="0.6" stroke-width="6" stroke-linecap="round"/>
<line x1="625.027" y1="261.477" x2="620.059" y2="272.981" stroke="#F2CFD9" stroke-opacity="0.6" stroke-width="6" stroke-linecap="round"/>
<line x1="565.254" y1="189.608" x2="560.285" y2="201.112" stroke="#F2CFD9" stroke-opacity="0.6" stroke-width="6" stroke-linecap="round"/>
<line x1="590.074" y1="237.549" x2="585.106" y2="249.053" stroke="#F2CFD9" stroke-opacity="0.6" stroke-width="6" stroke-linecap="round"/>
<line x1="614.895" y1="285.49" x2="609.927" y2="296.994" stroke="#F2CFD9" stroke-opacity="0.6" stroke-width="6" stroke-linecap="round"/>
<line x1="573.99" y1="186.804" x2="585.495" y2="191.772" stroke="#F2CFD9" stroke-opacity="0.6" stroke-width="6" stroke-linecap="round"/>
<line x1="598.812" y1="234.744" x2="610.316" y2="239.712" stroke="#F2CFD9" stroke-opacity="0.6" stroke-width="6" stroke-linecap="round"/>
<line x1="549.862" y1="175.307" x2="561.367" y2="180.275" stroke="#F2CFD9" stroke-opacity="0.6" stroke-width="6" stroke-linecap="round"/>
<line x1="574.683" y1="223.247" x2="586.187" y2="228.216" stroke="#F2CFD9" stroke-opacity="0.6" stroke-width="6" stroke-linecap="round"/>
<line x1="599.504" y1="271.189" x2="611.008" y2="276.157" stroke="#F2CFD9" stroke-opacity="0.6" stroke-width="6" stroke-linecap="round"/>
<line x1="539.75" y1="201.81" x2="534.781" y2="213.315" stroke="#F2CFD9" stroke-opacity="0.6" stroke-width="6" stroke-linecap="round"/>
<line x1="564.571" y1="249.751" x2="559.602" y2="261.255" stroke="#F2CFD9" stroke-opacity="0.6" stroke-width="6" stroke-linecap="round"/>
<line x1="589.391" y1="297.692" x2="584.423" y2="309.196" stroke="#F2CFD9" stroke-opacity="0.6" stroke-width="6" stroke-linecap="round"/>
<line x1="614.213" y1="345.633" x2="609.244" y2="357.137" stroke="#F2CFD9" stroke-opacity="0.6" stroke-width="6" stroke-linecap="round"/>
<line x1="529.618" y1="225.823" x2="524.649" y2="237.327" stroke="#F2CFD9" stroke-opacity="0.6" stroke-width="6" stroke-linecap="round"/>
<line x1="554.439" y1="273.764" x2="549.47" y2="285.268" stroke="#F2CFD9" stroke-opacity="0.6" stroke-width="6" stroke-linecap="round"/>
<line x1="579.26" y1="321.705" x2="574.292" y2="333.21" stroke="#F2CFD9" stroke-opacity="0.6" stroke-width="6" stroke-linecap="round"/>
<line x1="604.081" y1="369.646" x2="599.113" y2="381.15" stroke="#F2CFD9" stroke-opacity="0.6" stroke-width="6" stroke-linecap="round"/>
<line x1="538.355" y1="223.018" x2="549.859" y2="227.986" stroke="#F2CFD9" stroke-opacity="0.6" stroke-width="6" stroke-linecap="round"/>
<line x1="563.176" y1="270.959" x2="574.68" y2="275.928" stroke="#F2CFD9" stroke-opacity="0.6" stroke-width="6" stroke-linecap="round"/>
<line x1="587.997" y1="318.9" x2="599.501" y2="323.868" stroke="#F2CFD9" stroke-opacity="0.6" stroke-width="6" stroke-linecap="round"/>
<line x1="612.818" y1="366.841" x2="624.322" y2="371.809" stroke="#F2CFD9" stroke-opacity="0.6" stroke-width="6" stroke-linecap="round"/>
<line x1="514.227" y1="211.522" x2="525.731" y2="216.491" stroke="#F2CFD9" stroke-opacity="0.6" stroke-width="6" stroke-linecap="round"/>
<line x1="539.048" y1="259.463" x2="550.552" y2="264.432" stroke="#F2CFD9" stroke-opacity="0.6" stroke-width="6" stroke-linecap="round"/>
<line x1="563.869" y1="307.404" x2="575.373" y2="312.372" stroke="#F2CFD9" stroke-opacity="0.6" stroke-width="6" stroke-linecap="round"/>
<line x1="588.69" y1="355.345" x2="600.194" y2="360.313" stroke="#F2CFD9" stroke-opacity="0.6" stroke-width="6" stroke-linecap="round"/>
<line x1="613.511" y1="403.285" x2="625.015" y2="408.254" stroke="#F2CFD9" stroke-opacity="0.6" stroke-width="6" stroke-linecap="round"/>
<line x1="489.475" y1="210.087" x2="484.506" y2="221.591" stroke="#F2CFD9" stroke-opacity="0.6" stroke-width="6" stroke-linecap="round"/>
<line x1="514.296" y1="258.028" x2="509.327" y2="269.532" stroke="#F2CFD9" stroke-opacity="0.6" stroke-width="6" stroke-linecap="round"/>
<line x1="539.116" y1="305.968" x2="534.148" y2="317.473" stroke="#F2CFD9" stroke-opacity="0.6" stroke-width="6" stroke-linecap="round"/>
<line x1="563.937" y1="353.91" x2="558.969" y2="365.414" stroke="#F2CFD9" stroke-opacity="0.6" stroke-width="6" stroke-linecap="round"/>
<line x1="588.759" y1="401.851" x2="583.79" y2="413.355" stroke="#F2CFD9" stroke-opacity="0.6" stroke-width="6" stroke-linecap="round"/>
<line x1="613.58" y1="449.791" x2="608.611" y2="461.296" stroke="#F2CFD9" stroke-opacity="0.6" stroke-width="6" stroke-linecap="round"/>
<line x1="479.343" y1="234.099" x2="474.374" y2="245.604" stroke="#F2CFD9" stroke-opacity="0.6" stroke-width="6" stroke-linecap="round"/>
<line x1="504.164" y1="282.04" x2="499.195" y2="293.545" stroke="#F2CFD9" stroke-opacity="0.6" stroke-width="6" stroke-linecap="round"/>
<line x1="528.985" y1="329.982" x2="524.017" y2="341.486" stroke="#F2CFD9" stroke-opacity="0.6" stroke-width="6" stroke-linecap="round"/>
<line x1="553.806" y1="377.922" x2="548.837" y2="389.426" stroke="#F2CFD9" stroke-opacity="0.6" stroke-width="6" stroke-linecap="round"/>
<line x1="578.627" y1="425.864" x2="573.658" y2="437.368" stroke="#F2CFD9" stroke-opacity="0.6" stroke-width="6" stroke-linecap="round"/>
<line x1="603.448" y1="473.805" x2="598.48" y2="485.309" stroke="#F2CFD9" stroke-opacity="0.6" stroke-width="6" stroke-linecap="round"/>
<line x1="488.079" y1="231.295" x2="499.584" y2="236.263" stroke="#F2CFD9" stroke-opacity="0.6" stroke-width="6" stroke-linecap="round"/>
<line x1="512.901" y1="279.235" x2="524.405" y2="284.204" stroke="#F2CFD9" stroke-opacity="0.6" stroke-width="6" stroke-linecap="round"/>
<line x1="537.722" y1="327.177" x2="549.226" y2="332.145" stroke="#F2CFD9" stroke-opacity="0.6" stroke-width="6" stroke-linecap="round"/>
<line x1="562.543" y1="375.118" x2="574.047" y2="380.086" stroke="#F2CFD9" stroke-opacity="0.6" stroke-width="6" stroke-linecap="round"/>
<line x1="587.364" y1="423.058" x2="598.868" y2="428.026" stroke="#F2CFD9" stroke-opacity="0.6" stroke-width="6" stroke-linecap="round"/>
<line x1="612.185" y1="470.999" x2="623.689" y2="475.968" stroke="#F2CFD9" stroke-opacity="0.6" stroke-width="6" stroke-linecap="round"/>
<line x1="463.952" y1="219.799" x2="475.456" y2="224.767" stroke="#F2CFD9" stroke-opacity="0.6" stroke-width="6" stroke-linecap="round"/>
<line x1="488.773" y1="267.739" x2="500.277" y2="272.708" stroke="#F2CFD9" stroke-opacity="0.6" stroke-width="6" stroke-linecap="round"/>
<line x1="513.594" y1="315.68" x2="525.098" y2="320.648" stroke="#F2CFD9" stroke-opacity="0.6" stroke-width="6" stroke-linecap="round"/>
<line x1="538.415" y1="363.621" x2="549.919" y2="368.59" stroke="#F2CFD9" stroke-opacity="0.6" stroke-width="6" stroke-linecap="round"/>
<line x1="563.236" y1="411.562" x2="574.74" y2="416.531" stroke="#F2CFD9" stroke-opacity="0.6" stroke-width="6" stroke-linecap="round"/>
<line x1="588.057" y1="459.503" x2="599.561" y2="464.472" stroke="#F2CFD9" stroke-opacity="0.6" stroke-width="6" stroke-linecap="round"/>
<line x1="612.878" y1="507.444" x2="624.382" y2="512.413" stroke="#F2CFD9" stroke-opacity="0.6" stroke-width="6" stroke-linecap="round"/>
<line x1="453.839" y1="246.302" x2="448.87" y2="257.806" stroke="#F2CFD9" stroke-opacity="0.6" stroke-width="6" stroke-linecap="round"/>
<line x1="478.66" y1="294.243" x2="473.691" y2="305.747" stroke="#F2CFD9" stroke-opacity="0.6" stroke-width="6" stroke-linecap="round"/>
<line x1="503.481" y1="342.184" x2="498.512" y2="353.688" stroke="#F2CFD9" stroke-opacity="0.6" stroke-width="6" stroke-linecap="round"/>
<line x1="528.302" y1="390.125" x2="523.333" y2="401.629" stroke="#F2CFD9" stroke-opacity="0.6" stroke-width="6" stroke-linecap="round"/>
<line x1="553.123" y1="438.066" x2="548.154" y2="449.57" stroke="#F2CFD9" stroke-opacity="0.6" stroke-width="6" stroke-linecap="round"/>
<line x1="577.944" y1="486.006" x2="572.975" y2="497.51" stroke="#F2CFD9" stroke-opacity="0.6" stroke-width="6" stroke-linecap="round"/>
<line x1="602.765" y1="533.947" x2="597.796" y2="545.452" stroke="#F2CFD9" stroke-opacity="0.6" stroke-width="6" stroke-linecap="round"/>
<line x1="443.707" y1="270.315" x2="438.738" y2="281.819" stroke="#F2CFD9" stroke-opacity="0.6" stroke-width="6" stroke-linecap="round"/>
<line x1="468.528" y1="318.256" x2="463.559" y2="329.76" stroke="#F2CFD9" stroke-opacity="0.6" stroke-width="6" stroke-linecap="round"/>
<line x1="493.349" y1="366.197" x2="488.381" y2="377.701" stroke="#F2CFD9" stroke-opacity="0.6" stroke-width="6" stroke-linecap="round"/>
<line x1="518.17" y1="414.137" x2="513.201" y2="425.642" stroke="#F2CFD9" stroke-opacity="0.6" stroke-width="6" stroke-linecap="round"/>
<line x1="542.991" y1="462.078" x2="538.022" y2="473.582" stroke="#F2CFD9" stroke-opacity="0.6" stroke-width="6" stroke-linecap="round"/>
<line x1="567.812" y1="510.019" x2="562.844" y2="521.524" stroke="#F2CFD9" stroke-opacity="0.6" stroke-width="6" stroke-linecap="round"/>
<line x1="592.633" y1="557.96" x2="587.665" y2="569.464" stroke="#F2CFD9" stroke-opacity="0.6" stroke-width="6" stroke-linecap="round"/>
<line x1="452.444" y1="267.51" x2="463.948" y2="272.478" stroke="#F2CFD9" stroke-opacity="0.6" stroke-width="6" stroke-linecap="round"/>
<line x1="477.265" y1="315.45" x2="488.769" y2="320.419" stroke="#F2CFD9" stroke-opacity="0.6" stroke-width="6" stroke-linecap="round"/>
<line x1="502.086" y1="363.391" x2="513.59" y2="368.36" stroke="#F2CFD9" stroke-opacity="0.6" stroke-width="6" stroke-linecap="round"/>
<line x1="526.907" y1="411.333" x2="538.411" y2="416.301" stroke="#F2CFD9" stroke-opacity="0.6" stroke-width="6" stroke-linecap="round"/>
<line x1="551.728" y1="459.273" x2="563.232" y2="464.242" stroke="#F2CFD9" stroke-opacity="0.6" stroke-width="6" stroke-linecap="round"/>
<line x1="576.549" y1="507.214" x2="588.053" y2="512.183" stroke="#F2CFD9" stroke-opacity="0.6" stroke-width="6" stroke-linecap="round"/>
<line x1="601.37" y1="555.155" x2="612.874" y2="560.123" stroke="#F2CFD9" stroke-opacity="0.6" stroke-width="6" stroke-linecap="round"/>
<line x1="428.316" y1="256.014" x2="439.82" y2="260.982" stroke="#F2CFD9" stroke-opacity="0.6" stroke-width="6" stroke-linecap="round"/>
<line x1="453.137" y1="303.954" x2="464.641" y2="308.923" stroke="#F2CFD9" stroke-opacity="0.6" stroke-width="6" stroke-linecap="round"/>
<line x1="477.958" y1="351.895" x2="489.462" y2="356.864" stroke="#F2CFD9" stroke-opacity="0.6" stroke-width="6" stroke-linecap="round"/>
<line x1="502.779" y1="399.837" x2="514.284" y2="404.805" stroke="#F2CFD9" stroke-opacity="0.6" stroke-width="6" stroke-linecap="round"/>
<line x1="527.6" y1="447.777" x2="539.104" y2="452.745" stroke="#F2CFD9" stroke-opacity="0.6" stroke-width="6" stroke-linecap="round"/>
<line x1="552.421" y1="495.718" x2="563.925" y2="500.687" stroke="#F2CFD9" stroke-opacity="0.6" stroke-width="6" stroke-linecap="round"/>
<line x1="577.242" y1="543.659" x2="588.746" y2="548.628" stroke="#F2CFD9" stroke-opacity="0.6" stroke-width="6" stroke-linecap="round"/>
<line x1="403.564" y1="254.578" x2="398.595" y2="266.083" stroke="#F2CFD9" stroke-opacity="0.6" stroke-width="6" stroke-linecap="round"/>
<line x1="428.385" y1="302.52" x2="423.416" y2="314.024" stroke="#F2CFD9" stroke-opacity="0.6" stroke-width="6" stroke-linecap="round"/>
<line x1="453.205" y1="350.46" x2="448.237" y2="361.964" stroke="#F2CFD9" stroke-opacity="0.6" stroke-width="6" stroke-linecap="round"/>
<line x1="478.027" y1="398.401" x2="473.059" y2="409.905" stroke="#F2CFD9" stroke-opacity="0.6" stroke-width="6" stroke-linecap="round"/>
<line x1="502.848" y1="446.342" x2="497.879" y2="457.846" stroke="#F2CFD9" stroke-opacity="0.6" stroke-width="6" stroke-linecap="round"/>
<line x1="527.669" y1="494.283" x2="522.7" y2="505.787" stroke="#F2CFD9" stroke-opacity="0.6" stroke-width="6" stroke-linecap="round"/>
<line x1="552.49" y1="542.224" x2="547.521" y2="553.728" stroke="#F2CFD9" stroke-opacity="0.6" stroke-width="6" stroke-linecap="round"/>
<line x1="393.432" y1="278.591" x2="388.463" y2="290.095" stroke="#F2CFD9" stroke-opacity="0.6" stroke-width="6" stroke-linecap="round"/>
<line x1="418.253" y1="326.532" x2="413.285" y2="338.036" stroke="#F2CFD9" stroke-opacity="0.6" stroke-width="6" stroke-linecap="round"/>
<line x1="443.074" y1="374.473" x2="438.106" y2="385.978" stroke="#F2CFD9" stroke-opacity="0.6" stroke-width="6" stroke-linecap="round"/>
<line x1="467.895" y1="422.414" x2="462.926" y2="433.918" stroke="#F2CFD9" stroke-opacity="0.6" stroke-width="6" stroke-linecap="round"/>
<line x1="492.716" y1="470.355" x2="487.748" y2="481.859" stroke="#F2CFD9" stroke-opacity="0.6" stroke-width="6" stroke-linecap="round"/>
<line x1="517.537" y1="518.296" x2="512.569" y2="529.8" stroke="#F2CFD9" stroke-opacity="0.6" stroke-width="6" stroke-linecap="round"/>
<line x1="542.358" y1="566.237" x2="537.389" y2="577.741" stroke="#F2CFD9" stroke-opacity="0.6" stroke-width="6" stroke-linecap="round"/>
<line x1="402.169" y1="275.786" x2="413.673" y2="280.754" stroke="#F2CFD9" stroke-opacity="0.6" stroke-width="6" stroke-linecap="round"/>
<line x1="426.99" y1="323.726" x2="438.494" y2="328.695" stroke="#F2CFD9" stroke-opacity="0.6" stroke-width="6" stroke-linecap="round"/>
<line x1="451.811" y1="371.668" x2="463.315" y2="376.636" stroke="#F2CFD9" stroke-opacity="0.6" stroke-width="6" stroke-linecap="round"/>
<line x1="476.632" y1="419.608" x2="488.136" y2="424.577" stroke="#F2CFD9" stroke-opacity="0.6" stroke-width="6" stroke-linecap="round"/>
<line x1="501.453" y1="467.55" x2="512.957" y2="472.519" stroke="#F2CFD9" stroke-opacity="0.6" stroke-width="6" stroke-linecap="round"/>
<line x1="526.274" y1="515.491" x2="537.778" y2="520.46" stroke="#F2CFD9" stroke-opacity="0.6" stroke-width="6" stroke-linecap="round"/>
<line x1="551.095" y1="563.431" x2="562.599" y2="568.4" stroke="#F2CFD9" stroke-opacity="0.6" stroke-width="6" stroke-linecap="round"/>
<line x1="378.041" y1="264.29" x2="389.545" y2="269.258" stroke="#F2CFD9" stroke-opacity="0.6" stroke-width="6" stroke-linecap="round"/>
<line x1="402.862" y1="312.231" x2="414.366" y2="317.199" stroke="#F2CFD9" stroke-opacity="0.6" stroke-width="6" stroke-linecap="round"/>
<line x1="427.683" y1="360.172" x2="439.187" y2="365.141" stroke="#F2CFD9" stroke-opacity="0.6" stroke-width="6" stroke-linecap="round"/>
<line x1="452.504" y1="408.113" x2="464.009" y2="413.082" stroke="#F2CFD9" stroke-opacity="0.6" stroke-width="6" stroke-linecap="round"/>
<line x1="477.325" y1="456.054" x2="488.829" y2="461.022" stroke="#F2CFD9" stroke-opacity="0.6" stroke-width="6" stroke-linecap="round"/>
<line x1="502.146" y1="503.994" x2="513.65" y2="508.962" stroke="#F2CFD9" stroke-opacity="0.6" stroke-width="6" stroke-linecap="round"/>
<line x1="526.967" y1="551.935" x2="538.472" y2="556.904" stroke="#F2CFD9" stroke-opacity="0.6" stroke-width="6" stroke-linecap="round"/>
<line x1="367.928" y1="290.793" x2="362.959" y2="302.297" stroke="#F2CFD9" stroke-opacity="0.6" stroke-width="6" stroke-linecap="round"/>
<line x1="392.749" y1="338.735" x2="387.78" y2="350.239" stroke="#F2CFD9" stroke-opacity="0.6" stroke-width="6" stroke-linecap="round"/>
<line x1="417.57" y1="386.674" x2="412.601" y2="398.178" stroke="#F2CFD9" stroke-opacity="0.6" stroke-width="6" stroke-linecap="round"/>
<line x1="442.391" y1="434.615" x2="437.423" y2="446.12" stroke="#F2CFD9" stroke-opacity="0.6" stroke-width="6" stroke-linecap="round"/>
<line x1="467.212" y1="482.557" x2="462.244" y2="494.061" stroke="#F2CFD9" stroke-opacity="0.6" stroke-width="6" stroke-linecap="round"/>
<line x1="492.033" y1="530.497" x2="487.064" y2="542.002" stroke="#F2CFD9" stroke-opacity="0.6" stroke-width="6" stroke-linecap="round"/>
<line x1="516.854" y1="578.438" x2="511.886" y2="589.943" stroke="#F2CFD9" stroke-opacity="0.6" stroke-width="6" stroke-linecap="round"/>
<line x1="357.796" y1="314.805" x2="352.828" y2="326.31" stroke="#F2CFD9" stroke-opacity="0.6" stroke-width="6" stroke-linecap="round"/>
<line x1="382.617" y1="362.747" x2="377.649" y2="374.251" stroke="#F2CFD9" stroke-opacity="0.6" stroke-width="6" stroke-linecap="round"/>
<line x1="407.438" y1="410.688" x2="402.47" y2="422.192" stroke="#F2CFD9" stroke-opacity="0.6" stroke-width="6" stroke-linecap="round"/>
<line x1="432.259" y1="458.628" x2="427.291" y2="470.132" stroke="#F2CFD9" stroke-opacity="0.6" stroke-width="6" stroke-linecap="round"/>
<line x1="457.08" y1="506.569" x2="452.112" y2="518.073" stroke="#F2CFD9" stroke-opacity="0.6" stroke-width="6" stroke-linecap="round"/>
<line x1="481.901" y1="554.51" x2="476.933" y2="566.015" stroke="#F2CFD9" stroke-opacity="0.6" stroke-width="6" stroke-linecap="round"/>
<line x1="506.722" y1="602.451" x2="501.754" y2="613.955" stroke="#F2CFD9" stroke-opacity="0.6" stroke-width="6" stroke-linecap="round"/>
<line x1="366.533" y1="312" x2="378.037" y2="316.969" stroke="#F2CFD9" stroke-opacity="0.6" stroke-width="6" stroke-linecap="round"/>
<line x1="391.354" y1="359.941" x2="402.858" y2="364.91" stroke="#F2CFD9" stroke-opacity="0.6" stroke-width="6" stroke-linecap="round"/>
<line x1="416.175" y1="407.883" x2="427.68" y2="412.851" stroke="#F2CFD9" stroke-opacity="0.6" stroke-width="6" stroke-linecap="round"/>
<line x1="440.996" y1="455.823" x2="452.5" y2="460.792" stroke="#F2CFD9" stroke-opacity="0.6" stroke-width="6" stroke-linecap="round"/>
<line x1="465.817" y1="503.764" x2="477.322" y2="508.732" stroke="#F2CFD9" stroke-opacity="0.6" stroke-width="6" stroke-linecap="round"/>
<line x1="490.638" y1="551.705" x2="502.143" y2="556.674" stroke="#F2CFD9" stroke-opacity="0.6" stroke-width="6" stroke-linecap="round"/>
<line x1="515.459" y1="599.646" x2="526.964" y2="604.614" stroke="#F2CFD9" stroke-opacity="0.6" stroke-width="6" stroke-linecap="round"/>
<line x1="342.405" y1="300.505" x2="353.909" y2="305.473" stroke="#F2CFD9" stroke-opacity="0.6" stroke-width="6" stroke-linecap="round"/>
<line x1="367.226" y1="348.445" x2="378.73" y2="353.414" stroke="#F2CFD9" stroke-opacity="0.6" stroke-width="6" stroke-linecap="round"/>
<line x1="392.047" y1="396.387" x2="403.552" y2="401.355" stroke="#F2CFD9" stroke-opacity="0.6" stroke-width="6" stroke-linecap="round"/>
<line x1="416.868" y1="444.327" x2="428.373" y2="449.296" stroke="#F2CFD9" stroke-opacity="0.6" stroke-width="6" stroke-linecap="round"/>
<line x1="441.689" y1="492.268" x2="453.194" y2="497.236" stroke="#F2CFD9" stroke-opacity="0.6" stroke-width="6" stroke-linecap="round"/>
<line x1="466.51" y1="540.209" x2="478.014" y2="545.177" stroke="#F2CFD9" stroke-opacity="0.6" stroke-width="6" stroke-linecap="round"/>
<line x1="491.331" y1="588.15" x2="502.836" y2="593.119" stroke="#F2CFD9" stroke-opacity="0.6" stroke-width="6" stroke-linecap="round"/>
<line x1="317.653" y1="299.07" x2="312.684" y2="310.574" stroke="#F2CFD9" stroke-opacity="0.6" stroke-width="6" stroke-linecap="round"/>
<line x1="342.474" y1="347.011" x2="337.505" y2="358.515" stroke="#F2CFD9" stroke-opacity="0.6" stroke-width="6" stroke-linecap="round"/>
<line x1="367.295" y1="394.951" x2="362.326" y2="406.456" stroke="#F2CFD9" stroke-opacity="0.6" stroke-width="6" stroke-linecap="round"/>
<line x1="392.116" y1="442.892" x2="387.147" y2="454.397" stroke="#F2CFD9" stroke-opacity="0.6" stroke-width="6" stroke-linecap="round"/>
<line x1="416.937" y1="490.834" x2="411.968" y2="502.338" stroke="#F2CFD9" stroke-opacity="0.6" stroke-width="6" stroke-linecap="round"/>
<line x1="441.758" y1="538.775" x2="436.789" y2="550.279" stroke="#F2CFD9" stroke-opacity="0.6" stroke-width="6" stroke-linecap="round"/>
<line x1="466.579" y1="586.715" x2="461.61" y2="598.219" stroke="#F2CFD9" stroke-opacity="0.6" stroke-width="6" stroke-linecap="round"/>
<line x1="307.521" y1="323.082" x2="302.552" y2="334.587" stroke="#F2CFD9" stroke-opacity="0.6" stroke-width="6" stroke-linecap="round"/>
<line x1="332.342" y1="371.023" x2="327.374" y2="382.527" stroke="#F2CFD9" stroke-opacity="0.6" stroke-width="6" stroke-linecap="round"/>
<line x1="357.163" y1="418.964" x2="352.194" y2="430.468" stroke="#F2CFD9" stroke-opacity="0.6" stroke-width="6" stroke-linecap="round"/>
<line x1="381.984" y1="466.905" x2="377.015" y2="478.409" stroke="#F2CFD9" stroke-opacity="0.6" stroke-width="6" stroke-linecap="round"/>
<line x1="406.805" y1="514.846" x2="401.836" y2="526.35" stroke="#F2CFD9" stroke-opacity="0.6" stroke-width="6" stroke-linecap="round"/>
<line x1="431.626" y1="562.787" x2="426.658" y2="574.292" stroke="#F2CFD9" stroke-opacity="0.6" stroke-width="6" stroke-linecap="round"/>
<line x1="456.447" y1="610.728" x2="451.478" y2="622.232" stroke="#F2CFD9" stroke-opacity="0.6" stroke-width="6" stroke-linecap="round"/>
<line x1="316.258" y1="320.278" x2="327.762" y2="325.246" stroke="#F2CFD9" stroke-opacity="0.6" stroke-width="6" stroke-linecap="round"/>
<line x1="341.079" y1="368.218" x2="352.583" y2="373.187" stroke="#F2CFD9" stroke-opacity="0.6" stroke-width="6" stroke-linecap="round"/>
<line x1="365.9" y1="416.159" x2="377.404" y2="421.128" stroke="#F2CFD9" stroke-opacity="0.6" stroke-width="6" stroke-linecap="round"/>
<line x1="390.721" y1="464.1" x2="402.225" y2="469.069" stroke="#F2CFD9" stroke-opacity="0.6" stroke-width="6" stroke-linecap="round"/>
<line x1="415.542" y1="512.041" x2="427.046" y2="517.009" stroke="#F2CFD9" stroke-opacity="0.6" stroke-width="6" stroke-linecap="round"/>
<line x1="440.363" y1="559.982" x2="451.867" y2="564.951" stroke="#F2CFD9" stroke-opacity="0.6" stroke-width="6" stroke-linecap="round"/>
<line x1="465.184" y1="607.923" x2="476.688" y2="612.892" stroke="#F2CFD9" stroke-opacity="0.6" stroke-width="6" stroke-linecap="round"/>
<line x1="292.13" y1="308.781" x2="303.634" y2="313.75" stroke="#F2CFD9" stroke-opacity="0.6" stroke-width="6" stroke-linecap="round"/>
<line x1="316.951" y1="356.722" x2="328.455" y2="361.69" stroke="#F2CFD9" stroke-opacity="0.6" stroke-width="6" stroke-linecap="round"/>
<line x1="341.772" y1="404.663" x2="353.277" y2="409.632" stroke="#F2CFD9" stroke-opacity="0.6" stroke-width="6" stroke-linecap="round"/>
<line x1="366.593" y1="452.604" x2="378.097" y2="457.572" stroke="#F2CFD9" stroke-opacity="0.6" stroke-width="6" stroke-linecap="round"/>
<line x1="391.414" y1="500.545" x2="402.918" y2="505.513" stroke="#F2CFD9" stroke-opacity="0.6" stroke-width="6" stroke-linecap="round"/>
<line x1="416.235" y1="548.486" x2="427.739" y2="553.454" stroke="#F2CFD9" stroke-opacity="0.6" stroke-width="6" stroke-linecap="round"/>
<line x1="441.056" y1="596.427" x2="452.56" y2="601.395" stroke="#F2CFD9" stroke-opacity="0.6" stroke-width="6" stroke-linecap="round"/>
<line x1="282.017" y1="335.284" x2="277.048" y2="346.789" stroke="#F2CFD9" stroke-opacity="0.6" stroke-width="6" stroke-linecap="round"/>
<line x1="306.838" y1="383.225" x2="301.87" y2="394.729" stroke="#F2CFD9" stroke-opacity="0.6" stroke-width="6" stroke-linecap="round"/>
<line x1="331.659" y1="431.166" x2="326.69" y2="442.67" stroke="#F2CFD9" stroke-opacity="0.6" stroke-width="6" stroke-linecap="round"/>
<line x1="356.48" y1="479.107" x2="351.512" y2="490.611" stroke="#F2CFD9" stroke-opacity="0.6" stroke-width="6" stroke-linecap="round"/>
<line x1="381.301" y1="527.048" x2="376.333" y2="538.552" stroke="#F2CFD9" stroke-opacity="0.6" stroke-width="6" stroke-linecap="round"/>
<line x1="406.122" y1="574.989" x2="401.153" y2="586.493" stroke="#F2CFD9" stroke-opacity="0.6" stroke-width="6" stroke-linecap="round"/>
<line x1="430.943" y1="622.93" x2="425.974" y2="634.434" stroke="#F2CFD9" stroke-opacity="0.6" stroke-width="6" stroke-linecap="round"/>
<line x1="271.885" y1="359.297" x2="266.917" y2="370.801" stroke="#F2CFD9" stroke-opacity="0.6" stroke-width="6" stroke-linecap="round"/>
<line x1="296.706" y1="407.238" x2="291.738" y2="418.742" stroke="#F2CFD9" stroke-opacity="0.6" stroke-width="6" stroke-linecap="round"/>
<line x1="321.527" y1="455.179" x2="316.559" y2="466.684" stroke="#F2CFD9" stroke-opacity="0.6" stroke-width="6" stroke-linecap="round"/>
<line x1="346.348" y1="503.119" x2="341.38" y2="514.624" stroke="#F2CFD9" stroke-opacity="0.6" stroke-width="6" stroke-linecap="round"/>
<line x1="371.169" y1="551.061" x2="366.201" y2="562.565" stroke="#F2CFD9" stroke-opacity="0.6" stroke-width="6" stroke-linecap="round"/>
<line x1="395.99" y1="599.002" x2="391.022" y2="610.506" stroke="#F2CFD9" stroke-opacity="0.6" stroke-width="6" stroke-linecap="round"/>
<line x1="280.623" y1="356.492" x2="292.127" y2="361.46" stroke="#F2CFD9" stroke-opacity="0.6" stroke-width="6" stroke-linecap="round"/>
<line x1="305.443" y1="404.433" x2="316.948" y2="409.401" stroke="#F2CFD9" stroke-opacity="0.6" stroke-width="6" stroke-linecap="round"/>
<line x1="330.264" y1="452.374" x2="341.769" y2="457.342" stroke="#F2CFD9" stroke-opacity="0.6" stroke-width="6" stroke-linecap="round"/>
<line x1="355.086" y1="500.315" x2="366.59" y2="505.284" stroke="#F2CFD9" stroke-opacity="0.6" stroke-width="6" stroke-linecap="round"/>
<line x1="379.906" y1="548.255" x2="391.411" y2="553.224" stroke="#F2CFD9" stroke-opacity="0.6" stroke-width="6" stroke-linecap="round"/>
<line x1="404.727" y1="596.197" x2="416.232" y2="601.166" stroke="#F2CFD9" stroke-opacity="0.6" stroke-width="6" stroke-linecap="round"/>
<line x1="256.494" y1="344.996" x2="267.999" y2="349.964" stroke="#F2CFD9" stroke-opacity="0.6" stroke-width="6" stroke-linecap="round"/>
<line x1="281.315" y1="392.936" x2="292.819" y2="397.905" stroke="#F2CFD9" stroke-opacity="0.6" stroke-width="6" stroke-linecap="round"/>
<line x1="306.136" y1="440.878" x2="317.64" y2="445.847" stroke="#F2CFD9" stroke-opacity="0.6" stroke-width="6" stroke-linecap="round"/>
<line x1="330.957" y1="488.819" x2="342.462" y2="493.787" stroke="#F2CFD9" stroke-opacity="0.6" stroke-width="6" stroke-linecap="round"/>
<line x1="355.778" y1="536.76" x2="367.282" y2="541.728" stroke="#F2CFD9" stroke-opacity="0.6" stroke-width="6" stroke-linecap="round"/>
<line x1="380.599" y1="584.7" x2="392.104" y2="589.669" stroke="#F2CFD9" stroke-opacity="0.6" stroke-width="6" stroke-linecap="round"/>
<line x1="231.742" y1="343.561" x2="226.774" y2="355.066" stroke="#F2CFD9" stroke-opacity="0.6" stroke-width="6" stroke-linecap="round"/>
<line x1="256.563" y1="391.502" x2="251.594" y2="403.006" stroke="#F2CFD9" stroke-opacity="0.6" stroke-width="6" stroke-linecap="round"/>
<line x1="281.384" y1="439.443" x2="276.415" y2="450.947" stroke="#F2CFD9" stroke-opacity="0.6" stroke-width="6" stroke-linecap="round"/>
<line x1="306.205" y1="487.384" x2="301.236" y2="498.888" stroke="#F2CFD9" stroke-opacity="0.6" stroke-width="6" stroke-linecap="round"/>
<line x1="331.026" y1="535.325" x2="326.058" y2="546.829" stroke="#F2CFD9" stroke-opacity="0.6" stroke-width="6" stroke-linecap="round"/>
<line x1="355.847" y1="583.265" x2="350.878" y2="594.77" stroke="#F2CFD9" stroke-opacity="0.6" stroke-width="6" stroke-linecap="round"/>
<line x1="221.61" y1="367.573" x2="216.641" y2="379.078" stroke="#F2CFD9" stroke-opacity="0.6" stroke-width="6" stroke-linecap="round"/>
<line x1="246.431" y1="415.515" x2="241.463" y2="427.02" stroke="#F2CFD9" stroke-opacity="0.6" stroke-width="6" stroke-linecap="round"/>
<line x1="271.252" y1="463.455" x2="266.284" y2="474.96" stroke="#F2CFD9" stroke-opacity="0.6" stroke-width="6" stroke-linecap="round"/>
<line x1="296.073" y1="511.396" x2="291.104" y2="522.901" stroke="#F2CFD9" stroke-opacity="0.6" stroke-width="6" stroke-linecap="round"/>
<line x1="320.894" y1="559.338" x2="315.926" y2="570.842" stroke="#F2CFD9" stroke-opacity="0.6" stroke-width="6" stroke-linecap="round"/>
<line x1="345.715" y1="607.279" x2="340.747" y2="618.783" stroke="#F2CFD9" stroke-opacity="0.6" stroke-width="6" stroke-linecap="round"/>
<line x1="230.347" y1="364.769" x2="241.851" y2="369.737" stroke="#F2CFD9" stroke-opacity="0.6" stroke-width="6" stroke-linecap="round"/>
<line x1="255.168" y1="412.71" x2="266.672" y2="417.678" stroke="#F2CFD9" stroke-opacity="0.6" stroke-width="6" stroke-linecap="round"/>
<line x1="279.989" y1="460.651" x2="291.494" y2="465.619" stroke="#F2CFD9" stroke-opacity="0.6" stroke-width="6" stroke-linecap="round"/>
<line x1="304.81" y1="508.592" x2="316.315" y2="513.56" stroke="#F2CFD9" stroke-opacity="0.6" stroke-width="6" stroke-linecap="round"/>
<line x1="329.631" y1="556.533" x2="341.135" y2="561.501" stroke="#F2CFD9" stroke-opacity="0.6" stroke-width="6" stroke-linecap="round"/>
<line x1="354.452" y1="604.473" x2="365.956" y2="609.441" stroke="#F2CFD9" stroke-opacity="0.6" stroke-width="6" stroke-linecap="round"/>
<line x1="206.219" y1="353.273" x2="217.723" y2="358.241" stroke="#F2CFD9" stroke-opacity="0.6" stroke-width="6" stroke-linecap="round"/>
<line x1="231.04" y1="401.214" x2="242.544" y2="406.182" stroke="#F2CFD9" stroke-opacity="0.6" stroke-width="6" stroke-linecap="round"/>
<line x1="255.861" y1="449.155" x2="267.365" y2="454.123" stroke="#F2CFD9" stroke-opacity="0.6" stroke-width="6" stroke-linecap="round"/>
<line x1="280.682" y1="497.095" x2="292.187" y2="502.064" stroke="#F2CFD9" stroke-opacity="0.6" stroke-width="6" stroke-linecap="round"/>
<line x1="305.503" y1="545.036" x2="317.007" y2="550.004" stroke="#F2CFD9" stroke-opacity="0.6" stroke-width="6" stroke-linecap="round"/>
<line x1="330.324" y1="592.977" x2="341.828" y2="597.945" stroke="#F2CFD9" stroke-opacity="0.6" stroke-width="6" stroke-linecap="round"/>
<line x1="220.927" y1="427.718" x2="215.959" y2="439.222" stroke="#F2CFD9" stroke-opacity="0.6" stroke-width="6" stroke-linecap="round"/>
<line x1="245.749" y1="475.658" x2="240.78" y2="487.162" stroke="#F2CFD9" stroke-opacity="0.6" stroke-width="6" stroke-linecap="round"/>
<line x1="270.569" y1="523.599" x2="265.601" y2="535.104" stroke="#F2CFD9" stroke-opacity="0.6" stroke-width="6" stroke-linecap="round"/>
<line x1="295.39" y1="571.54" x2="290.422" y2="583.044" stroke="#F2CFD9" stroke-opacity="0.6" stroke-width="6" stroke-linecap="round"/>
<line x1="320.211" y1="619.481" x2="315.243" y2="630.985" stroke="#F2CFD9" stroke-opacity="0.6" stroke-width="6" stroke-linecap="round"/>
<line x1="210.796" y1="451.73" x2="205.827" y2="463.234" stroke="#F2CFD9" stroke-opacity="0.6" stroke-width="6" stroke-linecap="round"/>
<line x1="235.617" y1="499.671" x2="230.648" y2="511.175" stroke="#F2CFD9" stroke-opacity="0.6" stroke-width="6" stroke-linecap="round"/>
<line x1="260.437" y1="547.612" x2="255.469" y2="559.116" stroke="#F2CFD9" stroke-opacity="0.6" stroke-width="6" stroke-linecap="round"/>
<line x1="285.259" y1="595.552" x2="280.29" y2="607.057" stroke="#F2CFD9" stroke-opacity="0.6" stroke-width="6" stroke-linecap="round"/>
<line x1="194.711" y1="400.984" x2="206.216" y2="405.952" stroke="#F2CFD9" stroke-opacity="0.6" stroke-width="6" stroke-linecap="round"/>
<line x1="219.532" y1="448.925" x2="231.037" y2="453.893" stroke="#F2CFD9" stroke-opacity="0.6" stroke-width="6" stroke-linecap="round"/>
<line x1="244.354" y1="496.866" x2="255.858" y2="501.834" stroke="#F2CFD9" stroke-opacity="0.6" stroke-width="6" stroke-linecap="round"/>
<line x1="269.174" y1="544.806" x2="280.679" y2="549.775" stroke="#F2CFD9" stroke-opacity="0.6" stroke-width="6" stroke-linecap="round"/>
<line x1="293.995" y1="592.748" x2="305.5" y2="597.716" stroke="#F2CFD9" stroke-opacity="0.6" stroke-width="6" stroke-linecap="round"/>
<line x1="195.405" y1="437.429" x2="206.909" y2="442.397" stroke="#F2CFD9" stroke-opacity="0.6" stroke-width="6" stroke-linecap="round"/>
<line x1="220.225" y1="485.369" x2="231.73" y2="490.338" stroke="#F2CFD9" stroke-opacity="0.6" stroke-width="6" stroke-linecap="round"/>
<line x1="245.047" y1="533.311" x2="256.551" y2="538.279" stroke="#F2CFD9" stroke-opacity="0.6" stroke-width="6" stroke-linecap="round"/>
<line x1="269.867" y1="581.251" x2="281.372" y2="586.22" stroke="#F2CFD9" stroke-opacity="0.6" stroke-width="6" stroke-linecap="round"/>
<line x1="220.294" y1="531.875" x2="215.325" y2="543.38" stroke="#F2CFD9" stroke-opacity="0.6" stroke-width="6" stroke-linecap="round"/>
<line x1="245.115" y1="579.816" x2="240.147" y2="591.32" stroke="#F2CFD9" stroke-opacity="0.6" stroke-width="6" stroke-linecap="round"/>
<line x1="210.162" y1="555.888" x2="205.194" y2="567.392" stroke="#F2CFD9" stroke-opacity="0.6" stroke-width="6" stroke-linecap="round"/>
<line x1="234.984" y1="603.829" x2="230.015" y2="615.334" stroke="#F2CFD9" stroke-opacity="0.6" stroke-width="6" stroke-linecap="round"/>
<line x1="218.899" y1="553.083" x2="230.404" y2="558.051" stroke="#F2CFD9" stroke-opacity="0.6" stroke-width="6" stroke-linecap="round"/>
<line x1="243.72" y1="601.024" x2="255.225" y2="605.993" stroke="#F2CFD9" stroke-opacity="0.6" stroke-width="6" stroke-linecap="round"/>
<line x1="194.771" y1="541.587" x2="206.276" y2="546.555" stroke="#F2CFD9" stroke-opacity="0.6" stroke-width="6" stroke-linecap="round"/>
<line x1="219.592" y1="589.528" x2="231.096" y2="594.496" stroke="#F2CFD9" stroke-opacity="0.6" stroke-width="6" stroke-linecap="round"/>
<line x1="209.479" y1="616.031" x2="204.511" y2="627.535" stroke="#F2CFD9" stroke-opacity="0.6" stroke-width="6" stroke-linecap="round"/>
</g>
<defs>
<linearGradient id="paint0_linear" x1="431.708" y1="173.626" x2="494.437" y2="686.909" gradientUnits="userSpaceOnUse">
<stop stop-color="#97D3F1"/>
<stop offset="0.9999" stop-color="#EDE3D8"/>
<stop offset="1" stop-color="#EDE3D8"/>
</linearGradient>
</defs>
</svg>
