<svg width="957" height="211" viewBox="0 0 957 211" fill="none" xmlns="http://www.w3.org/2000/svg">
<g filter="url(#filter0_d)">
<path fill-rule="evenodd" clip-rule="evenodd" d="M755.83 60.0051C751.443 64.2864 744.777 63.7471 738.965 64.062C734.226 64.3187 730.016 62.9317 725.597 61.6432C720.576 60.1794 714.644 60.0888 711.458 56.042C708.077 51.7467 706.958 45.5156 708.411 39.8114C709.809 34.3254 714.396 30.0684 718.973 26.5424C722.887 23.5274 727.536 22.3012 732.226 21.4656C736.565 20.6926 740.713 20.975 744.844 21.9331C749.731 23.0664 755.298 23.5562 758.246 27.4993C761.34 31.6356 760.98 37.5189 760.575 42.9696C760.135 48.885 760.248 55.6927 755.83 60.0051Z" fill="url(#paint0_linear)"/>
</g>
<g filter="url(#filter1_d)">
<path fill-rule="evenodd" clip-rule="evenodd" d="M671.848 104.999C674.787 98.6601 687.011 101.941 693.076 99.2506C698.021 97.0565 699.247 87.619 706.886 85.7042C712.669 84.255 717.754 86.0977 722.788 89.1184C729.152 92.9372 731.351 100.911 731.251 107.447C731.152 113.9 728.126 120.104 724.678 125.716C721.73 130.514 717.274 133.705 712.616 136.496C708.306 139.078 703.772 140.458 698.982 141.111C693.316 141.884 687.186 143.618 682.447 140.612C677.475 137.459 675.474 131.045 673.696 125.073C671.768 118.592 668.889 111.384 671.848 104.999Z" fill="url(#paint1_linear)"/>
</g>
<g filter="url(#filter2_d)">
<path fill-rule="evenodd" clip-rule="evenodd" d="M784.108 73.1959C789.112 69.6674 792.168 62.9739 798.519 62.5482C805.085 62.1079 811.281 67.1382 817.341 70.968C824.138 75.2635 832.263 78.6937 835.74 86.0703C839.295 93.61 838.3 102.304 835.37 109.207C832.685 115.528 825.773 117.706 820.558 121.826C815.181 126.075 811.631 134.29 804.387 133.688C797.137 133.086 792.218 124.651 786.673 119.011C782.089 114.349 777.943 109.604 774.987 103.786C771.667 97.2535 766.77 89.9861 768.677 83.5914C770.58 77.2085 778.914 76.859 784.108 73.1959Z" fill="url(#paint2_linear)"/>
</g>
<g filter="url(#filter3_d)">
<g clip-path="url(#clip0)">
<path d="M49.874 12.871C49.7202 10.6973 49.2025 8.56414 48.342 6.5592C48.0799 6.09086 47.92 5.57307 47.8727 5.03945C48.0447 4.76754 48.2891 4.54815 48.579 4.40557C48.8689 4.263 49.1929 4.2028 49.5151 4.23165C52.5419 4.63948 55.5353 5.26176 58.4725 6.09369C59.7698 6.43598 63.5377 7.3807 63.5377 9.13321C63.5377 10.5024 61.5364 11.94 60.5979 12.6382C60.4737 16.02 60.2391 19.484 60.2391 23.0301C60.2391 26.0696 60.5979 28.9859 60.7083 32.0254H76.1387C76.6079 31.4504 80.6104 26.3024 81.9078 26.3024C82.3257 26.3249 82.7329 26.4413 83.0988 26.6429C83.4646 26.8446 83.7794 27.1261 84.0195 27.4661L89.2089 33.2029C89.8581 33.7946 90.3105 34.5682 90.5063 35.4209C90.4881 35.7056 90.3731 35.9758 90.1801 36.1872C89.987 36.3986 89.7273 36.5387 89.4435 36.5847H61.3018C61.6123 43.0222 62.3965 49.4286 63.6481 55.7528L67.6644 72.0457C70.9081 65.411 73.0919 58.3161 74.1374 51.0155C74.4093 49.708 74.5663 48.3795 74.6067 47.045C74.5866 46.6891 74.6286 46.3324 74.7309 45.9908C76.0145 45.9908 85.7723 49.9613 86.8488 50.6596C87.3181 51.0155 88.0358 51.6043 88.0358 52.3025C88.0358 53.2336 85.9103 54.411 85.2754 54.8765C84.2265 58.0256 83.1637 61.1883 82.101 64.3374C79.9065 70.9367 76.3043 77.002 72.7158 82.8483C73.7786 84.9568 79.7823 94.8831 81.5489 94.8831C83.3156 94.8831 86.3796 85.9973 86.7384 85.2991C87.4423 83.5466 88.2704 81.6845 89.0847 79.8225C89.2089 79.4665 89.5677 79.4665 89.9128 79.4665C90.2578 79.4665 90.5063 79.9457 90.5063 80.288C89.9128 84.8473 89.4435 89.2833 89.1261 93.9795C89.0157 95.4992 88.7811 97.0053 88.7811 98.6483C88.7811 102.153 90.7823 105.494 90.7823 109.04C90.7823 111.505 89.4021 111.778 87.1248 111.778C82.6531 111.778 71.5841 99.9764 68.9894 96.4713L65.4561 91.6793C61.2277 95.9715 56.5343 99.7872 51.4612 103.057C48.8878 104.768 46.2148 106.327 43.4562 107.726C42.0433 108.48 40.5652 109.108 39.0396 109.602C38.9544 109.609 38.8685 109.6 38.7869 109.574C38.7053 109.549 38.6296 109.507 38.5642 109.453C38.4987 109.398 38.4449 109.331 38.4057 109.255C38.3665 109.18 38.3427 109.097 38.3358 109.013C38.3542 108.778 38.4273 108.551 38.5495 108.349C38.6716 108.147 38.8394 107.976 39.0396 107.849C43.2565 104.476 47.2317 100.816 50.9367 96.8958C53.6351 94.1379 56.1522 91.211 58.4725 88.1332L61.7711 83.4644C59.5641 78.025 57.6385 72.4772 56.002 66.8429C53.2416 56.9166 52.5791 46.7438 51.6406 36.5847H26.7975L25.7348 37.7485C25.6106 43.718 25.3759 54.1783 25.2655 60.2984H39.7435C40.2128 59.8329 42.214 52.0835 42.9317 52.0835C43.9222 52.3447 44.8572 52.7807 45.6921 53.3705C46.5202 53.836 52.5929 56.985 52.5929 58.5048C52.5929 60.0246 50.4813 61.4211 49.4185 62.3658C49.2943 72.0594 50.012 83.04 46.4788 92.2681C44.7122 96.8273 36.928 98.2239 32.8151 98.8126C32.3458 94.8421 31.8766 92.624 28.2191 90.406C27.7498 90.1733 25.0447 88.763 25.0447 88.1743C25.0447 87.5856 25.7486 87.3665 26.2178 87.3665C28.4537 87.3665 30.8138 88.0648 33.2843 88.0648C34.3048 88.1948 35.3387 87.9604 36.201 87.4036C37.0632 86.8467 37.6976 86.0036 37.9907 85.0252C39.2881 81.9857 39.6469 63.4064 39.7573 60.2573H25.2379C24.6721 73.853 25.1413 88.4755 16.9569 100.141C15.5672 102.159 14.0746 104.106 12.4851 105.973C10.5366 108.462 8.20827 110.633 5.58427 112.408C4.88038 112.641 4.64575 112.285 4.64575 111.943C5.48937 110.055 6.5155 108.253 7.70973 106.562C10.1614 102.09 11.9465 97.2892 13.0096 92.3091C16.0736 79.3433 15.4801 60.8187 15.4801 47.798C15.4801 42.8965 15.3697 37.7485 15.0108 32.8469C14.7762 31.4778 13.8377 28.6436 13.8377 28.0549C13.8377 27.2334 15.0108 27.2334 15.6043 27.2334C17.8402 27.2334 26.6457 31.2039 28.3157 32.0254H51.1714C50.8125 25.6041 50.081 19.2923 49.874 12.871ZM66.7121 8.42125C72.3708 8.42125 83.2742 11.94 83.2742 18.95C83.2742 22.2086 81.5075 25.3713 77.7535 25.3713C71.032 25.3713 72.9229 15.7873 68.9204 12.1727C68.3269 11.7072 65.8564 9.83148 65.8564 9.24274C65.8582 9.13306 65.8817 9.0248 65.9257 8.92415C65.9697 8.82351 66.0332 8.73244 66.1127 8.65615C66.1922 8.57987 66.286 8.51986 66.3888 8.47955C66.4917 8.43925 66.6015 8.41944 66.7121 8.42125V8.42125Z" fill="#2ABAF3" fill-opacity="0.85"/>
<path d="M322.515 76.9196H305.553V80.4109C302.025 81.3721 298.45 82.1535 294.842 82.7522C295.905 72.0043 295.671 61.0237 295.671 50.1527C295.671 48.1674 295.671 46.1822 295.546 44.1969C295.533 42.7064 295.214 41.2342 294.608 39.8704C294.341 39.3208 294.182 38.7262 294.139 38.1179C294.139 37.5428 294.373 37.1868 295.077 37.1868C297.313 37.1868 307.085 41.4038 308.147 41.4038H349.138C350.077 40.5823 352.547 37.1868 353.845 37.1868C355.142 37.1868 361.974 41.8556 363.382 42.8004C363.584 42.8798 363.764 43.0056 363.908 43.1674C364.052 43.3292 364.156 43.5224 364.21 43.7314C364.21 44.6624 361.022 47.0036 360.442 47.5924V66.1991C360.442 70.4161 360.787 74.8522 361.022 79.165C357.382 80.5623 353.646 81.6971 349.842 82.5605L350.312 76.9607H332.88V87.5853H359.379C359.973 86.9965 365.148 81.1503 365.507 81.1503C366.446 81.1503 372.104 87.4621 373.043 88.4068C373.308 88.6233 373.527 88.8895 373.688 89.1902C373.849 89.491 373.949 89.8203 373.981 90.1593C373.981 91.0903 372.919 91.679 372.104 91.679H332.88V100.086C332.88 103.823 333.349 107.917 333.584 111.655C329.652 112.986 325.642 114.079 321.576 114.927C321.921 111.066 322.515 106.397 322.515 102.605V91.6517H289.073L287.072 93.1577L282.476 86.8596C285.236 87.0924 288.245 87.5579 291.075 87.5579C301.55 87.7906 312.039 87.5579 322.515 87.5579V76.9196ZM300.97 35.1331C297.782 35.8314 294.484 36.5023 291.309 37.1184C291.544 33.3806 291.903 29.4101 291.903 25.6723V16.4305C291.903 14.2125 291.668 11.8849 291.544 9.58475C291.42 8.2156 290.716 6.20295 290.716 5.61421C290.74 5.35402 290.864 5.11286 291.061 4.93987C291.259 4.76689 291.515 4.67509 291.778 4.68319C293.076 4.68319 301.081 8.29775 301.909 8.65373H313.213C313.571 8.29775 316.635 4.79272 317.45 4.79272C318.637 4.79272 324.64 9.11924 325.731 9.94073C326.2 10.1735 327.014 10.7485 327.014 11.3099C327.014 12.4737 324.433 13.8839 323.605 14.3494V23.3447C323.605 26.7265 323.95 30.3548 324.199 33.7366L313.944 36.4749L314.303 32.0251H300.998L300.97 35.1331ZM314.275 27.8766V12.6927H302.737L301.357 14.0619V27.8766H314.275ZM322.556 61.2976V45.525L307.416 45.6345L305.525 47.6335V61.325L322.556 61.2976ZM322.556 72.8669V61.2976H305.553V72.8121L322.556 72.8669ZM342.693 35.3659C339.394 36.1737 336.22 36.8856 332.921 37.4607C333.156 33.6134 333.625 29.7523 333.625 25.8913V16.4305C333.625 13.9797 333.28 11.4057 333.156 8.84541C333.046 7.79116 332.452 6.62739 332.452 5.57314C332.453 5.44045 332.482 5.30947 332.538 5.18872C332.593 5.06798 332.674 4.96018 332.774 4.87234C332.874 4.78451 332.992 4.71861 333.12 4.67894C333.247 4.63928 333.382 4.62673 333.515 4.64212C334.895 4.64212 342.458 8.14714 343.632 8.61265H355.184C355.763 8.02392 358.468 4.75165 359.421 4.75165C360.594 4.75165 366.487 9.07817 367.702 9.89966C368.171 10.1324 368.999 10.7075 368.999 11.2688C368.999 12.4326 366.404 13.8428 365.59 14.3083V23.7965C365.59 27.1783 365.935 30.6423 366.17 34.0789C362.761 35.1331 359.338 36.0641 355.929 36.8856L356.288 31.9704H342.734L342.693 35.3659ZM350.353 61.2976V45.525H335.019C334.808 45.9293 334.568 46.3182 334.302 46.6887L332.921 47.2775V61.2976H350.353ZM350.353 61.2976H332.88V72.8121H350.312L350.353 61.2976ZM356.246 27.8766V12.6927H344.225L342.693 14.0619V27.8766H356.246Z" fill="#2ABAF3" fill-opacity="0.85"/>
<path d="M457.225 83.9029V71.5805H440.746V74.4968C437.523 75.6652 434.15 76.3751 430.726 76.6053C430.961 72.4978 431.43 68.185 431.43 64.105V41.6098C431.507 40.0391 431.349 38.4656 430.961 36.941C430.726 36.1195 429.318 32.9568 429.318 32.724C429.318 32.2585 429.663 32.149 430.022 32.149C433.21 32.149 441.45 35.7635 444.39 37.1738H457.225V24.7282H426.958L423.894 26.7134L419.657 20.1689C422.417 20.4154 425.178 20.8672 427.938 20.8672H457.267V13.3368C457.267 11.4611 457.267 9.70859 457.156 7.86024C456.871 6.39052 456.474 4.94424 455.969 3.53372C455.954 3.4416 455.961 3.34731 455.988 3.25798C456.015 3.16865 456.062 3.08661 456.126 3.01804C456.19 2.94948 456.269 2.89618 456.356 2.86218C456.444 2.82818 456.538 2.81436 456.632 2.82177C459.392 2.82177 471.124 6.7923 471.124 8.43528C471.124 9.59906 467.715 11.3516 467.121 11.8171V20.9219H490.584C490.819 20.5797 495.415 14.2679 496.712 14.2679C497.416 14.2679 498.948 15.9108 499.472 16.3764C500.176 17.1842 505.476 22.2089 505.476 23.7287C505.445 24.0391 505.29 24.3244 505.047 24.522C504.804 24.7197 504.492 24.8135 504.179 24.7829H467.121V37.1738H481.847C482.068 36.6946 485.132 32.149 486.085 32.149C487.258 32.149 493.62 36.585 494.794 37.2833C495.263 37.6393 496.56 38.4471 496.56 39.0358C496.56 40.0901 493.496 42.5408 492.903 43.1433V61.1202C492.903 65.3235 493.262 69.65 493.496 73.8533C490.06 75.3088 486.466 76.3655 482.786 77.0024L483.255 71.6353H467.121V83.9576H493.262C493.496 83.6017 497.968 77.7554 499.031 77.7554C500.093 77.7554 501.791 79.6311 502.219 80.2199C502.923 80.9181 507.629 85.3542 507.629 86.7507C507.629 87.3394 506.925 87.805 506.249 87.805H467.121V99.7303C467.121 103.838 467.59 108.137 467.825 112.231C464.173 113.465 460.431 114.422 456.632 115.092C456.756 110.3 457.225 105.508 457.225 100.716V87.7091V83.9029ZM457.225 52.4261V41.0211H441.685L440.746 42.6641V52.4672L457.225 52.4261ZM457.225 67.7332V56.3282H440.746V67.7743L457.225 67.7332ZM483.255 52.4261V41.0211H467.121V52.4672L483.255 52.4261ZM483.255 67.7332V56.3282H467.121V67.7743L483.255 67.7332Z" fill="#2ABAF3" fill-opacity="0.85"/>
<path d="M181.252 18.0332C181.252 18.9095 181.252 19.8542 181.252 20.7715H192.294C192.432 18.1838 192.611 15.6098 192.722 13.0222C193.66 12.3239 196.614 10.5714 196.614 9.28437C196.614 8.5861 195.91 8.35335 195.44 8.12059C193.66 7.06635 182.715 4.7251 181.059 4.7251C180.59 4.7251 179.886 4.84832 179.886 5.42336C179.886 5.99841 180.825 7.2991 180.825 7.88784C180.894 11.2559 181.252 14.6377 181.252 18.0332Z" fill="#2ABAF3" fill-opacity="0.85"/>
<path d="M232.954 107.288C230.766 106.151 228.643 104.899 226.591 103.536C224.294 101.785 222.126 99.872 220.104 97.8132C217.227 95.2479 214.516 92.5041 211.989 89.5983C202.018 77.6343 195.143 63.4356 191.963 48.2363H230.124C230.704 48.2363 232.126 47.7708 232.126 46.9493C232.126 46.1278 230.594 44.3753 230 43.8002C228.703 42.5132 224.935 38.0635 223.099 38.0635C221.719 38.0635 217.91 43.2115 217.206 44.033H150.226C147.866 44.033 145.161 43.5675 142.69 43.4442L146.928 49.756L149.163 48.2363H179.527C179.237 51.399 178.879 54.5207 178.395 57.5739C176.229 71.2654 171.757 83.7794 162.33 94.8422C157.233 101.057 151.492 106.725 145.202 111.751C144.991 111.877 144.81 112.046 144.669 112.246C144.529 112.447 144.433 112.675 144.388 112.915C144.395 113.069 144.459 113.215 144.569 113.324C144.679 113.433 144.826 113.497 144.982 113.504C146.362 113.504 153.925 108.835 155.457 107.904C159.886 105.042 164.132 101.91 168.168 98.5252C173.853 93.7621 178.469 87.8718 181.722 81.2328C184.856 75.2855 187.079 68.9083 188.319 62.3111C188.54 60.7503 188.774 59.1895 189.023 57.6286C189.409 55.1094 189.796 52.5765 190.086 50.0435C190.555 54.7123 190.789 59.3948 191.466 63.9404C194.764 85.3266 202.065 97.3614 216.309 113.23C220.23 110.444 224.943 108.967 229.765 109.013C230.594 109.013 233.658 109.369 233.658 108.082C233.658 107.753 233.299 107.52 232.954 107.288Z" fill="#2ABAF3" fill-opacity="0.85"/>
</g>
<path d="M562.228 21.9127C560.908 23.6441 559.531 25.3327 558.168 26.9926C555.06 30.8439 551.644 34.4379 547.954 37.7391C547.352 38.2257 545.171 40.4007 544.44 40.4007C544.067 40.1575 543.952 40.043 543.952 39.7997C543.952 39.7997 548.442 31.5574 548.93 30.7131C552.703 23.5583 559.388 8.41865 559.861 0.7916C559.957 0.656954 560.087 0.551061 560.239 0.485458C560.391 0.419854 560.558 0.397057 560.722 0.419549C562.041 0.419549 570.075 3.56767 571.767 4.42625C572.614 4.784 574.321 5.51379 574.321 6.60132C574.321 7.68886 571.036 8.7907 570.304 9.01965C568.999 11.1661 567.765 13.3126 566.517 15.5305C565.233 17.7516 563.8 19.8838 562.228 21.9127V21.9127ZM563.749 73.5991V93.6327C568.239 92.0586 572.743 90.4845 577.233 88.6672C576.015 85.954 574.551 83.3579 572.858 80.9114C572.743 80.5536 572.37 80.3104 572.37 79.8238C572.37 79.5806 573.216 79.5806 573.345 79.5806C575.004 80.3961 576.587 81.3536 578.079 82.4425C582.211 85.1041 590.718 92.6167 590.718 97.8254C590.718 100.974 589.14 105.095 585.367 105.095C579.543 105.095 579.786 98.1831 579.055 94.434C578.854 93.4579 578.571 92.5005 578.208 91.5721C571.28 97.0241 564.365 102.476 557.68 108.3L551.612 96.1798C553.908 94.6057 554.482 94.1192 554.482 91.2143V50.2172C554.482 48.1566 554.109 45.495 554.109 43.3199C553.994 41.9748 553.262 40.644 553.262 39.3132C553.262 38.7122 553.75 38.5834 554.352 38.5834C555.687 38.5834 562.744 41.4453 564.322 41.9748H579.012C579.256 41.7458 582.168 37.8679 582.655 37.8679C583.746 37.8679 592.009 42.9479 592.009 44.4074C592.009 45.6238 589.455 46.8258 588.609 47.2694V67.3029C588.609 70.079 588.967 73.0268 589.211 75.7885C586.062 76.6585 582.855 77.3041 579.614 77.7203L579.987 73.5991H563.749ZM580.03 46.4108H564.839L563.749 47.9849V54.6532H580.03V46.4108ZM580.03 69.435V58.9461H563.749V69.3635L580.03 69.435ZM566.546 23.1433C568.726 23.1433 574.077 26.4202 575.899 27.8798C576.639 28.362 577.253 29.0135 577.689 29.7801C578.126 30.5467 578.373 31.4062 578.409 32.2872C578.409 34.7055 576.458 38.3545 573.79 38.3545C573.266 38.3464 572.749 38.2347 572.269 38.0259C571.789 37.8171 571.355 37.5154 570.993 37.1381C568.568 35.3208 569.286 30.5986 568.124 27.8082C567.266 26.4262 566.495 24.9925 565.814 23.5153C565.814 23.2005 566.187 23.0717 566.546 23.0717V23.1433ZM605.536 17.9489H623.138C623.869 17.2191 627.513 12.4826 628.488 12.4826C629.823 12.4826 634.556 17.8201 635.288 18.6644C636.051 19.2704 636.562 20.1371 636.723 21.097C636.719 21.4171 636.589 21.7228 636.36 21.9478C636.132 22.1729 635.824 22.299 635.503 22.299H602.796C599.438 27.0849 595.592 31.5111 591.32 35.5068C590.847 35.9934 589.269 37.6819 588.537 37.6819C588.465 37.6748 588.396 37.6535 588.332 37.6194C588.269 37.5852 588.213 37.5388 588.167 37.483C588.122 37.4271 588.088 37.3627 588.068 37.2937C588.048 37.2247 588.041 37.1524 588.049 37.0809C588.349 35.9595 588.834 34.8956 589.484 33.9328C592.037 28.9673 594.218 24.1163 596.283 18.9076C597.86 15.2157 599.08 11.3825 599.927 7.4599C600.042 6.50115 600.286 5.41362 600.415 4.31178C600.53 3.71077 600.415 0.677123 601.376 0.677123C602.811 0.677123 611.819 4.31178 613.283 5.28483C613.77 5.77136 614.617 6.37237 614.617 7.10216C614.617 8.07522 611.461 9.40602 610.729 9.64928C608.936 12.2966 607.229 15.087 605.536 17.8773V17.9489ZM608.204 42.5329H618.576H608.204ZM608.247 46.8258L607.1 48.5V103.292C607.1 106.912 607.458 110.675 607.702 114.31C604.399 115.258 601.047 116.027 597.661 116.614C597.904 112.006 598.392 107.284 598.392 102.676V53.3653C598.334 50.2056 598.09 47.052 597.661 43.9209C597.546 42.7046 596.57 40.043 596.57 39.442C596.57 38.841 597.417 38.5834 597.904 38.5834C598.995 38.5834 606.77 41.8603 608.233 42.4613L608.247 46.8258ZM619.709 46.7542H608.233H619.709ZM618.562 42.4613C619.035 41.8603 621.961 37.9824 622.865 37.9824C623.769 37.9824 632.591 44.0354 632.591 44.8797C632.591 45.7239 629.062 47.9133 628.704 48.271V90.7994C628.747 92.6362 628.539 94.4703 628.087 96.2513C626.882 100.544 619.107 101.703 615.463 102.319C615.104 98.3119 614.373 96.0224 610.844 94.0763C610.37 93.7185 608.176 92.8599 608.176 92.1445C608.176 91.429 608.663 91.2859 609.266 91.2859C611.461 91.2859 613.641 91.7724 615.822 91.7724C618.26 91.7724 619.594 91.1714 619.594 88.6243V46.7113L618.562 42.4613ZM608.663 23.0717C609.997 23.0717 612.795 24.6601 614 25.1466C616.553 26.3487 621.058 28.7813 621.058 32.1727C621.058 34.8343 619.221 39.0699 616.195 39.0699C615.072 39.0328 613.997 38.6079 613.153 37.8679C610.485 35.8073 611.819 29.74 608.778 25.6189C608.534 25.1466 607.688 24.1879 607.688 23.6871C607.688 23.1862 608.319 23.0717 608.692 23.0717H608.663Z" fill="#2ABAF3" fill-opacity="0.85"/>
</g>
<g filter="url(#filter4_d)">
<path d="M5.064 157H15.144V154.72H11.688V139.336H9.6C8.592 139.96 7.416 140.368 5.76 140.68V142.432H8.928V154.72H5.064V157ZM33.8715 150.112L37.3515 144.784C37.8555 143.872 38.3355 142.96 38.7675 142.072H38.8635C38.8155 143.032 38.7195 144.52 38.7195 145.48V150.112H33.8715ZM43.5675 150.112H41.3115V139.336H38.1195L31.0875 150.4V152.248H38.7195V157H41.3115V152.248H43.5675V150.112ZM64.143 157H66.927V141.664H72.135V139.336H58.959V141.664H64.143V157ZM89.1114 157H91.8954V148.96H99.4554V157H102.239V139.336H99.4554V146.536H91.8954V139.336H89.1114V157ZM140.108 157H142.748V148.672C142.748 146.752 142.532 144.712 142.388 142.888H142.508L144.356 146.584L150.212 157H153.068V139.336H150.428V147.568C150.428 149.488 150.644 151.624 150.788 153.448H150.668L148.82 149.704L142.964 139.336H140.108V157ZM178.541 157.312C180.821 157.312 182.621 156.4 184.037 154.768L182.549 153.016C181.493 154.168 180.245 154.888 178.637 154.888C175.517 154.888 173.549 152.32 173.549 148.12C173.549 143.968 175.661 141.424 178.709 141.424C180.149 141.424 181.253 142.072 182.165 143.008L183.677 141.232C182.597 140.056 180.869 139 178.661 139C174.197 139 170.693 142.456 170.693 148.216C170.693 154 174.101 157.312 178.541 157.312ZM201.088 157H203.872V151.672L206.584 148.36L211.576 157H214.672L208.288 146.152L213.76 139.336H210.664L203.944 147.688H203.872V139.336H201.088V157ZM237.004 157.312C240.916 157.312 243.556 155.176 243.556 149.416V139.336H240.868V149.608C240.868 153.592 239.236 154.888 237.004 154.888C234.796 154.888 233.212 153.592 233.212 149.608V139.336H230.428V149.416C230.428 155.176 233.092 157.312 237.004 157.312ZM300.667 157H306.571C310.483 157 313.339 155.32 313.339 151.816C313.339 149.416 311.875 148.048 309.859 147.616V147.496C311.443 146.968 312.379 145.36 312.379 143.68C312.379 140.488 309.763 139.336 306.139 139.336H300.667V157ZM303.451 146.704V141.496H305.899C308.395 141.496 309.643 142.192 309.643 144.04C309.643 145.696 308.515 146.704 305.827 146.704H303.451ZM303.451 154.816V148.816H306.259C309.067 148.816 310.603 149.68 310.603 151.672C310.603 153.832 309.019 154.816 306.259 154.816H303.451ZM330.595 157H333.379V139.336H330.595V157ZM351.921 157H354.705V151.672L357.417 148.36L362.409 157H365.505L359.121 146.152L364.593 139.336H361.497L354.777 147.688H354.705V139.336H351.921V157ZM381.755 157H392.459V154.648H384.539V148.936H391.019V146.584H384.539V141.664H392.195V139.336H381.755V157ZM429.376 157H432.16V149.392H438.688V147.064H432.16V141.664H439.84V139.336H429.376V157ZM456.89 157H467.594V154.648H459.674V148.936H466.154V146.584H459.674V141.664H467.33V139.336H456.89V157ZM490.24 157.312C494.104 157.312 496.456 155.008 496.456 152.176C496.456 149.584 494.944 148.288 492.856 147.4L490.432 146.368C488.992 145.792 487.576 145.216 487.576 143.704C487.576 142.288 488.752 141.424 490.552 141.424C492.112 141.424 493.336 142.024 494.44 143.008L495.904 141.232C494.56 139.864 492.616 139 490.552 139C487.192 139 484.744 141.088 484.744 143.872C484.744 146.44 486.64 147.784 488.344 148.504L490.792 149.56C492.424 150.28 493.624 150.784 493.624 152.392C493.624 153.88 492.424 154.888 490.288 154.888C488.584 154.888 486.856 154.072 485.584 152.8L483.952 154.72C485.56 156.352 487.816 157.312 490.24 157.312ZM516.783 157H519.567V141.664H524.775V139.336H511.599V141.664H516.783V157ZM541.751 157H544.535V139.336H541.751V157ZM566.246 157H569.534L575.054 139.336H572.222L569.606 148.48C569.03 150.496 568.598 152.224 567.998 154.264H567.878C567.254 152.224 566.87 150.496 566.27 148.48L563.654 139.336H560.702L566.246 157ZM593.513 149.776L594.233 147.4C594.809 145.48 595.361 143.536 595.865 141.52H595.961C596.513 143.512 597.041 145.48 597.641 147.4L598.337 149.776H593.513ZM600.497 157H603.449L597.593 139.336H594.377L588.521 157H591.353L592.865 151.96H599.009L600.497 157ZM619.699 157H629.947V154.648H622.483V139.336H619.699V157Z" fill="#2ABAF3" fill-opacity="0.85"/>
</g>
<defs>
<filter id="filter0_d" x="696.198" y="6.84131" width="81.0247" height="81.1765" filterUnits="userSpaceOnUse" color-interpolation-filters="sRGB">
<feFlood flood-opacity="0" result="BackgroundImageFix"/>
<feColorMatrix in="SourceAlpha" type="matrix" values="0 0 0 0 0 0 0 0 0 0 0 0 0 0 0 0 0 0 127 0"/>
<feOffset dy="4"/>
<feGaussianBlur stdDeviation="2"/>
<feColorMatrix type="matrix" values="0 0 0 0 0 0 0 0 0 0 0 0 0 0 0 0 0 0 0.25 0"/>
<feBlend mode="normal" in2="BackgroundImageFix" result="effect1_dropShadow"/>
<feBlend mode="normal" in="SourceGraphic" in2="effect1_dropShadow" result="shape"/>
</filter>
<filter id="filter1_d" x="657.068" y="73.4282" width="84.9263" height="88.0903" filterUnits="userSpaceOnUse" color-interpolation-filters="sRGB">
<feFlood flood-opacity="0" result="BackgroundImageFix"/>
<feColorMatrix in="SourceAlpha" type="matrix" values="0 0 0 0 0 0 0 0 0 0 0 0 0 0 0 0 0 0 127 0"/>
<feOffset dy="4"/>
<feGaussianBlur stdDeviation="2"/>
<feColorMatrix type="matrix" values="0 0 0 0 0 0 0 0 0 0 0 0 0 0 0 0 0 0 0.25 0"/>
<feBlend mode="normal" in2="BackgroundImageFix" result="effect1_dropShadow"/>
<feBlend mode="normal" in="SourceGraphic" in2="effect1_dropShadow" result="shape"/>
</filter>
<filter id="filter2_d" x="757.548" y="50.8203" width="95.394" height="96.4109" filterUnits="userSpaceOnUse" color-interpolation-filters="sRGB">
<feFlood flood-opacity="0" result="BackgroundImageFix"/>
<feColorMatrix in="SourceAlpha" type="matrix" values="0 0 0 0 0 0 0 0 0 0 0 0 0 0 0 0 0 0 127 0"/>
<feOffset dy="4"/>
<feGaussianBlur stdDeviation="2"/>
<feColorMatrix type="matrix" values="0 0 0 0 0 0 0 0 0 0 0 0 0 0 0 0 0 0 0.25 0"/>
<feBlend mode="normal" in2="BackgroundImageFix" result="effect1_dropShadow"/>
<feBlend mode="normal" in="SourceGraphic" in2="effect1_dropShadow" result="shape"/>
</filter>
<filter id="filter3_d" x="0.5354" y="0.411133" width="640.187" height="124.203" filterUnits="userSpaceOnUse" color-interpolation-filters="sRGB">
<feFlood flood-opacity="0" result="BackgroundImageFix"/>
<feColorMatrix in="SourceAlpha" type="matrix" values="0 0 0 0 0 0 0 0 0 0 0 0 0 0 0 0 0 0 127 0"/>
<feOffset dy="4"/>
<feGaussianBlur stdDeviation="2"/>
<feColorMatrix type="matrix" values="0 0 0 0 0 0 0 0 0 0 0 0 0 0 0 0 0 0 0.25 0"/>
<feBlend mode="normal" in2="BackgroundImageFix" result="effect1_dropShadow"/>
<feBlend mode="normal" in="SourceGraphic" in2="effect1_dropShadow" result="shape"/>
</filter>
<filter id="filter4_d" x="1.06396" y="139" width="632.883" height="26.312" filterUnits="userSpaceOnUse" color-interpolation-filters="sRGB">
<feFlood flood-opacity="0" result="BackgroundImageFix"/>
<feColorMatrix in="SourceAlpha" type="matrix" values="0 0 0 0 0 0 0 0 0 0 0 0 0 0 0 0 0 0 127 0"/>
<feOffset dy="4"/>
<feGaussianBlur stdDeviation="2"/>
<feColorMatrix type="matrix" values="0 0 0 0 0 0 0 0 0 0 0 0 0 0 0 0 0 0 0.25 0"/>
<feBlend mode="normal" in2="BackgroundImageFix" result="effect1_dropShadow"/>
<feBlend mode="normal" in="SourceGraphic" in2="effect1_dropShadow" result="shape"/>
</filter>
<linearGradient id="paint0_linear" x1="755.455" y1="60.4489" x2="717.965" y2="26.4106" gradientUnits="userSpaceOnUse">
<stop stop-color="#99D4F1"/>
<stop offset="0.286458" stop-color="#98D5EE"/>
<stop offset="0.666667" stop-color="#93D7E1"/>
<stop offset="1" stop-color="#90D9D7"/>
</linearGradient>
<linearGradient id="paint1_linear" x1="726.051" y1="104.027" x2="681.633" y2="107.072" gradientUnits="userSpaceOnUse">
<stop stop-color="#97D3F1"/>
<stop offset="0.9999" stop-color="#EDE3D8"/>
<stop offset="1" stop-color="#EDE3D8"/>
</linearGradient>
<linearGradient id="paint2_linear" x1="823.795" y1="118.815" x2="786.513" y2="72.4982" gradientUnits="userSpaceOnUse">
<stop stop-color="#75D9DE"/>
<stop offset="0.520833" stop-color="#CFD2DA"/>
<stop offset="0.9375" stop-color="#F2CFD9"/>
</linearGradient>
<clipPath id="clip0">
<rect width="573.696" height="113.311" fill="white" transform="translate(4.5354 2.21924)"/>
</clipPath>
</defs>
</svg>
