<svg width="400" height="449" viewBox="0 0 400 449" fill="none" xmlns="http://www.w3.org/2000/svg">
<path d="M307.184 206.285C305.611 208.423 303.865 210.498 302.198 212.573C298.369 217.333 294.16 221.775 289.613 225.855C288.874 226.453 286.168 229.141 285.271 229.141C284.831 228.842 284.674 228.701 284.674 228.402C284.674 228.402 290.211 218.232 290.809 217.179C295.528 208.345 303.692 189.655 304.29 180.223C304.408 180.059 304.568 179.93 304.754 179.85C304.939 179.769 305.143 179.741 305.344 179.767C306.917 179.767 316.874 183.666 318.967 184.719C320.021 185.159 322.113 186.055 322.113 187.407C322.113 188.759 318.07 190.095 317.158 190.393C315.584 193.05 314.011 195.738 312.438 198.442C310.852 201.163 309.097 203.782 307.184 206.285ZM309.072 270.104V294.799C314.609 292.85 320.083 290.901 325.684 288.669C324.185 285.321 322.384 282.117 320.304 279.096C320.146 278.64 319.706 278.341 319.706 277.744C319.706 277.445 320.744 277.445 320.901 277.445C321.641 277.445 325.983 280.432 326.738 280.888C331.834 284.173 342.311 293.463 342.311 299.876C342.311 303.774 340.36 308.867 335.72 308.867C328.531 308.867 328.83 300.332 327.854 295.695C327.588 294.523 327.236 293.373 326.801 292.252C318.274 298.996 309.733 305.724 301.505 312.907L294.018 297.943C296.865 295.994 297.62 295.396 297.62 291.812V241.229C297.62 238.698 297.164 235.397 297.164 232.709C297.006 231.058 296.11 229.424 296.11 227.773C296.11 227.019 296.708 226.861 297.463 226.861C299.036 226.861 307.798 230.461 309.733 231.058H327.87C328.169 230.76 331.771 225.981 332.369 225.981C333.706 225.981 343.884 232.269 343.884 234.045C343.884 235.617 340.738 237.047 339.7 237.645V262.339C339.7 265.766 340.156 269.366 340.439 272.808C336.564 273.89 332.616 274.689 328.625 275.197L329.066 270.104H309.072ZM329.129 236.45H310.409L309.072 238.399V246.62H329.129V236.45ZM329.129 264.886V252.012H309.072V264.886H329.129ZM312.517 207.716C315.207 207.716 321.798 211.756 324.048 213.563C324.981 214.163 325.754 214.979 326.302 215.943C326.85 216.906 327.156 217.989 327.194 219.096C327.194 222.083 324.803 226.579 321.515 226.579C320.864 226.563 320.223 226.416 319.631 226.145C319.039 225.875 318.508 225.488 318.07 225.007C315.081 222.775 315.962 216.943 314.483 213.5C313.431 211.808 312.481 210.055 311.636 208.25C311.62 207.873 312.139 207.716 312.517 207.716ZM360.574 201.287H382.283C383.179 200.391 387.678 194.559 388.874 194.559C390.526 194.559 396.362 201.13 397.258 202.183C398.208 202.926 398.848 203.997 399.052 205.185C399.052 205.589 398.897 205.977 398.619 206.27C398.341 206.562 397.961 206.737 397.557 206.757H357.129C352.983 212.662 348.239 218.125 342.972 223.057C342.374 223.671 340.423 225.745 339.527 225.745C339.35 225.726 339.188 225.637 339.076 225.499C338.964 225.36 338.911 225.184 338.929 225.007C339.314 223.62 339.92 222.304 340.722 221.108C343.868 214.978 346.558 208.989 349.107 202.56C351.06 198.001 352.567 193.263 353.606 188.413C353.747 187.218 354.046 185.882 354.203 184.53C354.345 183.776 354.203 180.035 355.399 180.035C357.192 180.035 368.267 184.53 370.076 185.725C370.674 186.322 371.649 187.077 371.649 187.973C371.649 189.167 367.763 190.818 366.93 191.117C364.774 194.402 362.667 197.844 360.574 201.287ZM363.862 231.656H376.635H363.862ZM363.862 236.843L362.525 239.091V306.682C362.525 311.162 362.981 315.799 363.264 320.295C359.179 321.471 355.029 322.416 350.837 323.124C351.136 317.45 351.734 311.618 351.734 305.928V245.127C351.662 241.22 351.362 237.32 350.837 233.448C350.695 231.97 349.484 228.732 349.484 227.915C349.484 227.097 350.538 226.861 351.057 226.861C352.41 226.861 362.069 230.917 363.783 231.577L363.862 236.843ZM377.941 236.812H363.783H377.941ZM376.635 231.656C377.249 230.917 380.836 226.123 382.031 226.123C383.227 226.123 394.018 233.605 394.018 234.642C394.018 235.68 389.661 238.399 389.22 238.839V291.356C389.273 293.623 389.019 295.886 388.465 298.084C386.892 303.334 377.453 304.828 372.892 305.582C372.451 300.631 371.554 297.801 367.213 295.396C366.615 294.956 363.909 293.903 363.909 293.007C363.909 292.111 364.507 291.954 365.262 291.954C367.952 291.954 370.658 292.551 373.348 292.551C376.337 292.551 378.067 291.812 378.067 288.669V236.843L376.635 231.656ZM364.586 207.669C366.237 207.669 369.682 209.618 371.177 210.215C374.323 211.787 379.876 214.711 379.876 218.892C379.876 222.193 377.627 227.427 373.883 227.427C372.499 227.379 371.175 226.851 370.139 225.934C366.835 223.388 368.566 215.905 364.743 210.812C364.444 210.215 363.39 209.02 363.39 208.423C363.39 207.826 364.051 207.716 364.46 207.716L364.586 207.669Z" fill="#2ABAF3" fill-opacity="0.85"/>
<path d="M61.1871 16.6463C60.993 13.8868 60.3445 11.1782 59.268 8.62959C58.9332 8.04066 58.7293 7.38659 58.6702 6.71187C58.8866 6.36415 59.1952 6.08313 59.5617 5.90001C59.9283 5.71688 60.3384 5.63879 60.7467 5.67442C63.122 5.67442 69.5087 7.45066 72.0256 8.04799C73.5987 8.48812 78.4123 9.61988 78.4123 11.8991C78.4123 13.6754 75.8796 15.4673 74.6998 16.3476C74.5425 20.6546 74.2594 25.1031 74.2594 29.5515C74.2594 33.4027 74.6998 37.1124 74.8414 40.9635H94.2846C94.8823 40.2247 99.9319 33.7014 101.568 33.7014C102.094 33.729 102.608 33.8765 103.068 34.1326C103.529 34.3887 103.925 34.7466 104.226 35.1789L110.786 42.4568C111.587 43.2113 112.136 44.1936 112.359 45.2705C112.341 45.6332 112.199 45.9786 111.955 46.248C111.711 46.5173 111.381 46.6941 111.022 46.7481H75.5807C75.9798 54.9204 76.9734 63.0529 78.5538 71.0811L83.6034 91.8458C87.7029 83.4184 90.4576 74.402 91.7677 65.1236C92.1148 63.4625 92.3148 61.774 92.3654 60.0778C92.3425 59.6329 92.3903 59.1873 92.507 58.7574C94.0801 58.7574 106.46 63.8032 107.797 64.6835C108.395 65.1236 109.276 65.8624 109.276 66.7584C109.276 67.9373 106.602 69.4306 105.862 70.0279L101.851 81.99C99.0353 90.3525 94.4419 98.0705 89.9901 105.568C91.3272 108.225 98.8937 120.847 101.112 120.847C103.33 120.847 107.2 109.561 107.64 108.681C108.537 106.449 109.575 104.075 110.613 101.702C110.755 101.262 111.211 101.262 111.651 101.262C112.092 101.262 112.391 101.859 112.391 102.299C111.651 108.084 111.054 113.727 110.613 119.59C110.471 121.523 110.173 123.441 110.173 125.516C110.173 129.964 112.69 134.271 112.69 138.72C112.69 141.864 110.912 142.131 108.096 142.131C102.449 142.131 88.4957 127.151 85.2394 122.702L80.7876 116.572C75.4464 122.056 69.5228 126.942 63.122 131.143C59.8712 133.29 56.4993 135.248 53.0229 137.006C51.2687 137.962 49.4311 138.757 47.5328 139.38C47.3192 139.393 47.1085 139.324 46.9445 139.187C46.7805 139.049 46.6757 138.854 46.6519 138.641C46.6759 138.344 46.7677 138.056 46.9205 137.8C47.0732 137.544 47.2827 137.326 47.5328 137.164C52.847 132.869 57.8562 128.21 62.5242 123.221C65.9072 119.718 69.0599 116.001 71.9627 112.092L76.1785 106.229C73.52 99.2809 70.8458 92.286 68.9109 85.1338C65.3558 72.5587 64.6007 59.6219 63.4209 46.7167H32.1325L30.7953 48.2886C30.6538 55.8494 30.3549 69.1948 30.1976 76.9128H48.4295C49.0273 76.3155 51.5756 66.5226 52.4408 66.5226C53.7085 66.8354 54.9117 67.3674 55.996 68.0945C57.0342 68.6918 64.6007 72.6844 64.6007 74.6178C64.6007 76.5513 61.9265 78.3275 60.6051 79.5222C60.4478 91.8301 61.3444 105.757 56.8926 117.483C54.6589 123.268 44.8586 125.044 39.5888 125.783C39.0068 120.753 38.409 117.924 33.7999 115.11C33.2179 114.811 29.7886 113.035 29.7886 112.296C29.7886 111.557 30.6852 111.259 31.3617 111.259C34.1775 111.259 37.1506 112.139 40.2652 112.139C41.5504 112.305 42.8526 112.009 43.9391 111.303C45.0256 110.597 45.8255 109.529 46.1957 108.288C47.7688 104.437 48.2722 80.8426 48.4295 76.8499H30.1661C29.4268 94.0465 30.0245 112.595 19.6423 127.418C17.849 129.933 16.0714 132.464 13.9949 134.837C11.5216 138.004 8.56476 140.763 5.23291 143.011C4.35198 143.31 4.0531 142.854 4.0531 142.414C5.11775 140.022 6.40827 137.738 7.90713 135.592C11.0476 129.923 13.3474 123.829 14.7343 117.499C18.5883 101.041 17.8804 77.4473 17.8804 60.9895C17.8804 54.7019 17.7388 48.2414 17.2984 42.0167C16.9995 40.2247 15.7253 36.6722 15.7253 35.9177C15.7253 34.896 17.2984 34.896 17.9591 34.896C20.7749 34.896 31.9122 39.9261 33.9887 40.9635H62.7759C62.3826 32.8054 61.486 24.8044 61.1871 16.6463ZM82.4708 11.0032C89.5811 11.0032 103.235 15.4673 103.235 24.3643C103.235 28.5141 101.017 32.5224 96.2666 32.5224C87.8035 32.5224 90.1788 20.3559 85.1293 15.7503C84.3899 15.1687 81.2753 12.7951 81.2753 12.0563C81.2739 11.9053 81.3051 11.7557 81.3666 11.6177C81.4282 11.4798 81.5188 11.3567 81.6322 11.2568C81.7456 11.1569 81.8792 11.0825 82.0239 11.0388C82.1686 10.995 82.321 10.9829 82.4708 11.0032Z" fill="#2ABAF3" fill-opacity="0.85"/>
<path d="M51.8116 275.558H30.1504V280.07C25.6443 281.309 21.0761 282.312 16.4647 283.072C17.8175 269.255 17.5186 255.124 17.5186 241.149C17.5186 238.587 17.5186 236.041 17.3613 233.479C17.3442 231.562 16.9374 229.669 16.1658 227.914C15.8284 227.208 15.6257 226.446 15.568 225.666C15.568 224.912 15.8669 224.456 16.7636 224.456C19.6266 224.456 32.1168 229.879 33.4539 229.879H85.8057C87.0013 228.826 90.1632 224.456 91.8149 224.456C93.4666 224.456 102.197 230.476 104.006 231.671C104.447 231.828 105.06 232.425 105.06 232.881C105.06 234.076 100.986 237.094 100.247 237.833V261.726C100.247 267.149 100.687 272.855 100.986 278.419C96.3353 280.21 91.5618 281.666 86.7024 282.773L87.3002 275.558H65.0412V289.234H98.878C99.6331 288.495 106.256 280.966 106.743 280.966C107.939 280.966 115.159 289.092 116.371 290.287C117.049 290.857 117.478 291.669 117.566 292.55C117.566 293.745 116.213 294.5 115.159 294.5H65.0412V305.314C65.0412 310.124 65.6389 315.39 65.9536 320.2C60.9275 321.919 55.8 323.326 50.6004 324.413C51.0566 319.446 51.8116 313.41 51.8116 308.694V294.547H9.08696L6.53858 296.496L0.671021 288.338C4.27336 288.636 8.04873 289.234 11.6825 289.234C25.0694 289.548 38.4248 289.234 51.8431 289.234L51.8116 275.558ZM24.2671 221.752C20.2086 222.664 15.9928 223.56 11.9342 224.314C12.2331 219.504 12.6893 214.396 12.6893 209.586V197.718C12.6893 194.857 12.3904 191.855 12.2331 188.837C12.0915 187.045 11.1791 184.483 11.1791 183.728C11.2109 183.395 11.3684 183.086 11.6196 182.864C11.8707 182.642 12.1969 182.524 12.532 182.533C14.1995 182.533 24.4244 187.249 25.4784 187.642H39.9979C40.4383 187.186 44.3553 182.675 45.4092 182.675C46.9823 182.675 54.5802 188.239 55.9331 189.293C56.5309 189.591 57.5062 190.346 57.5062 191.1C57.5062 192.672 54.2027 194.401 53.1487 195.014V206.583C53.1487 210.938 53.6049 215.59 53.9038 219.96L40.8158 223.418L41.272 217.697H24.2671V221.752ZM41.272 212.431V192.908H26.5481L24.739 194.7V212.431H41.272ZM51.7959 255.422V235.129L32.5415 235.286L30.1347 237.833V255.422H51.7959ZM51.7959 270.308V255.422H30.1504V270.308H51.7959ZM77.5156 222.051C73.2998 223.104 69.2413 224.016 65.0254 224.77C65.3243 219.803 65.9378 214.836 65.9378 209.884V197.718C65.9378 194.574 65.4816 191.242 65.3243 187.941C65.1828 186.589 64.4277 185.08 64.4277 183.728C64.4311 183.558 64.4697 183.392 64.541 183.238C64.6123 183.084 64.7148 182.946 64.8419 182.834C64.969 182.722 65.1181 182.637 65.2797 182.585C65.4412 182.534 65.6118 182.516 65.7805 182.533C67.5896 182.533 77.2168 187.045 78.7112 187.642H93.4823C94.2374 186.888 97.6982 182.675 98.8937 182.675C100.467 182.675 107.923 188.239 109.433 189.293C110.031 189.591 111.085 190.346 111.085 191.1C111.085 192.672 107.782 194.401 106.728 195.014V207.181C106.728 211.535 107.168 216.046 107.483 220.4C103.11 221.752 98.7469 222.957 94.3947 224.016L94.8352 217.728H77.5314L77.5156 222.051ZM87.2844 255.422V235.129H67.7469C67.4818 235.672 67.1824 236.197 66.8502 236.701L65.0412 237.455V255.485L87.2844 255.422ZM87.2844 255.422H65.0412V270.308H87.3002L87.2844 255.422ZM94.8037 212.431V192.908H79.482L77.5314 194.7V212.431H94.8037Z" fill="#2ABAF3" fill-opacity="0.85"/>
<path d="M192.775 282.569V266.944H171.916V270.654C167.871 272.147 163.633 273.053 159.331 273.342C159.63 268.139 160.228 262.622 160.228 257.419V228.684C160.303 226.665 160.075 224.647 159.551 222.695C159.253 221.658 157.459 217.634 157.459 217.335C157.459 216.738 157.915 216.581 158.356 216.581C162.383 216.581 172.812 221.202 176.541 222.994H192.775V207.275H154.486L150.616 209.806L145.252 201.475C148.681 201.773 152.252 202.355 155.682 202.355H192.775V192.688C192.775 190.299 192.775 188.066 192.633 185.677C192.248 183.806 191.722 181.967 191.06 180.176C191.041 180.054 191.052 179.929 191.09 179.812C191.129 179.695 191.194 179.588 191.281 179.501C191.369 179.413 191.475 179.348 191.593 179.31C191.71 179.271 191.835 179.261 191.957 179.28C195.386 179.28 210.283 184.341 210.283 186.432C210.283 188.004 205.957 190.157 205.218 190.754V202.261H234.854C235.153 201.821 240.974 193.772 242.61 193.772C243.506 193.772 245.441 195.863 246.039 196.46C246.936 197.498 253.637 203.895 253.637 205.892C253.584 206.269 253.394 206.615 253.105 206.864C252.816 207.112 252.446 207.247 252.064 207.244H205.296V222.963H223.922C224.205 222.365 228.09 216.549 229.286 216.549C230.764 216.549 238.819 222.208 240.297 223.104C240.895 223.56 242.531 224.597 242.531 225.336C242.531 226.688 238.661 229.816 237.922 230.555V253.473C237.922 258.833 238.362 264.351 238.661 269.711C234.312 271.567 229.761 272.912 225.101 273.719L225.699 266.881H205.249V282.506H238.284C238.583 282.066 244.246 274.647 245.583 274.647C246.92 274.647 249.012 277.036 249.61 277.79C250.507 278.686 256.468 284.345 256.468 286.121C256.468 286.876 255.572 287.473 254.675 287.473H205.296V302.658C205.296 307.861 205.878 313.378 206.177 318.581C201.562 320.187 196.828 321.432 192.02 322.307C192.161 316.208 192.759 310.093 192.759 303.994V287.489L192.775 282.569ZM192.759 242.517V227.93H173.096L171.9 230.02V242.596L192.759 242.517ZM192.759 262.024V247.437H171.916V261.993L192.759 262.024ZM225.683 242.517V227.93H205.233V242.517H225.683ZM225.683 262.024V247.437H205.233V261.993L225.683 262.024Z" fill="#2ABAF3" fill-opacity="0.85"/>
<path d="M331.142 17.0865C331.142 18.2025 331.142 19.3815 331.142 20.5132H345.174C345.347 17.2594 345.568 14.0056 345.725 10.736C346.92 9.84004 350.649 7.59223 350.649 6.02033C350.649 5.14007 349.752 4.84141 349.154 4.54275C346.857 3.20663 332.936 0.251465 330.844 0.251465C330.246 0.251465 329.349 0.392936 329.349 1.13173C329.349 1.87052 330.545 3.50529 330.545 4.27552C330.686 8.51965 331.142 12.8266 331.142 17.0865Z" fill="#2ABAF3" fill-opacity="0.85"/>
<path d="M396.834 129.886C394.058 128.457 391.359 126.883 388.748 125.17C385.835 122.962 383.085 120.545 380.521 117.939C376.857 114.729 373.409 111.279 370.202 107.612C358.231 94.0152 348.053 72.8889 344.765 55.2679H393.247C393.987 55.2679 395.796 54.6706 395.796 53.696C395.796 52.7214 393.845 50.4579 393.09 49.7191C391.517 48.1472 386.656 42.4727 384.265 42.4727C382.472 42.4727 377.69 48.9803 376.777 50.002H291.69C288.701 50.002 285.256 49.4204 282.11 49.2633L287.505 57.2485L290.29 55.2679H328.893C328.531 59.2605 328.075 63.206 327.461 67.0728C324.708 84.3637 319.03 100.177 307.011 114.23C300.565 122.031 293.321 129.137 285.397 135.435C285.127 135.59 284.894 135.803 284.714 136.059C284.535 136.314 284.414 136.605 284.359 136.912C284.374 137.106 284.459 137.288 284.598 137.423C284.737 137.559 284.92 137.64 285.114 137.651C286.907 137.651 296.488 131.741 298.422 130.562C304.054 126.968 309.455 123.025 314.594 118.757C321.802 112.756 327.665 105.306 331.803 96.8917C335.787 89.3896 338.613 81.3291 340.187 72.9832C340.471 71.0026 340.77 69.0377 341.084 67.0728C341.572 63.9291 342.059 60.6752 342.421 57.4686C343.019 63.3789 343.318 69.2892 344.23 75.0424C348.415 102.063 357.696 117.279 375.802 137.352C380.787 133.837 386.753 131.978 392.854 132.039C393.908 132.039 397.793 132.479 397.793 130.86C397.73 130.483 397.29 130.185 396.834 129.886Z" fill="#2ABAF3" fill-opacity="0.85"/>
<path d="M170.648 137.684H169.146V35.0009L147.13 56.8465L146.081 55.8033L168.549 33.4668H170.607L170.648 137.684Z" stroke="#2ABAF3" stroke-opacity="0.85" stroke-width="3" stroke-miterlimit="10" stroke-linejoin="round"/>
<path d="M253.319 82.7422H238.341V137.684H236.839V82.7422H200.153V81.249L236.242 33.4668H238.299V81.249H253.278L253.319 82.7422ZM236.859 81.249V35.41L201.881 81.249H236.859Z" stroke="#2ABAF3" stroke-opacity="0.85" stroke-width="3" stroke-miterlimit="10" stroke-linejoin="round"/>
<path d="M142.032 436.923V386.488" stroke="#2ABAF3" stroke-opacity="0.85" stroke-width="3" stroke-linecap="round" stroke-linejoin="round"/>
<path d="M133.26 431.55C133.26 431.55 121.384 416.179 132.122 397.865C132.208 397.719 132.336 397.603 132.489 397.531C132.643 397.459 132.814 397.436 132.982 397.464C133.149 397.492 133.303 397.57 133.425 397.688C133.547 397.806 133.63 397.958 133.663 398.124L142.032 436.923" stroke="#2ABAF3" stroke-opacity="0.85" stroke-width="3" stroke-linecap="round" stroke-linejoin="round"/>
<path d="M160.556 381.479C158.213 381.374 153.549 382.324 151.797 382.696C151.611 382.736 151.444 382.839 151.325 382.987C151.205 383.136 151.14 383.32 151.141 383.511V444.101C151.14 444.289 151.203 444.472 151.32 444.619C151.437 444.766 151.601 444.869 151.784 444.911C153.431 445.297 157.871 446.256 160.543 446.12" stroke="#2ABAF3" stroke-opacity="0.85" stroke-width="3" stroke-linecap="round" stroke-linejoin="round"/>
<path d="M166.122 380.384V446.79" stroke="#2ABAF3" stroke-opacity="0.85" stroke-width="3" stroke-linecap="round" stroke-linejoin="round"/>
<path d="M177.819 384.544L166.113 416.604" stroke="#2ABAF3" stroke-opacity="0.85" stroke-width="3" stroke-linecap="round" stroke-linejoin="round"/>
<path d="M177.819 443.064L169.564 407.452" stroke="#2ABAF3" stroke-opacity="0.85" stroke-width="3" stroke-linecap="round" stroke-linejoin="round"/>
<path d="M181.843 389.134V436.263C181.842 436.426 181.889 436.586 181.978 436.723C182.067 436.86 182.195 436.967 182.345 437.032C182.494 437.097 182.66 437.116 182.821 437.088C182.982 437.059 183.131 436.984 183.249 436.871C201.204 419.302 189.008 397.866 189.008 397.866" stroke="#2ABAF3" stroke-opacity="0.85" stroke-width="3" stroke-linecap="round" stroke-linejoin="round"/>
<path d="M267.732 399.543C266.077 395.426 261.343 390.701 258.702 388.28C258.037 387.671 256.863 388.083 256.863 388.928V439.722C256.863 440.55 257.993 440.97 258.672 440.396C261.299 438.18 265.989 433.757 267.732 429.326" stroke="#2ABAF3" stroke-opacity="0.85" stroke-width="3" stroke-linecap="round" stroke-linejoin="round"/>
<path d="M256.863 414.437H270.583" stroke="#2ABAF3" stroke-opacity="0.85" stroke-width="3" stroke-linecap="round" stroke-linejoin="round"/>
<path d="M230.864 381.943V445.218" stroke="#2ABAF3" stroke-opacity="0.85" stroke-width="3" stroke-linecap="round" stroke-linejoin="round"/>
<path d="M205.648 414.06L219.294 419.315C219.451 419.379 219.584 419.49 219.676 419.633C219.769 419.775 219.816 419.942 219.811 420.112V439.989C219.807 440.14 219.762 440.287 219.682 440.415C219.601 440.542 219.487 440.646 219.353 440.714C219.218 440.782 219.067 440.813 218.917 440.802C218.766 440.792 218.621 440.741 218.497 440.654C214.788 437.847 204.619 428.796 204.619 413.797" stroke="#2ABAF3" stroke-opacity="0.85" stroke-width="3" stroke-linecap="round" stroke-linejoin="round"/>
<path d="M242.013 380.603V447" stroke="#2ABAF3" stroke-opacity="0.85" stroke-width="3" stroke-linecap="round" stroke-linejoin="round"/>
<path d="M253.705 384.755L242 416.815" stroke="#2ABAF3" stroke-opacity="0.85" stroke-width="3" stroke-linecap="round" stroke-linejoin="round"/>
<path d="M253.706 443.273L245.477 407.754" stroke="#2ABAF3" stroke-opacity="0.85" stroke-width="3" stroke-linecap="round" stroke-linejoin="round"/>
<path d="M204.615 413.797C204.615 398.141 214.853 389.79 218.532 387.298C218.657 387.209 218.805 387.157 218.959 387.146C219.112 387.136 219.265 387.169 219.401 387.24C219.538 387.312 219.651 387.42 219.73 387.552C219.808 387.685 219.848 387.836 219.846 387.99V407.911C219.846 408.092 219.787 408.269 219.678 408.413C219.569 408.558 219.416 408.663 219.241 408.712L205.521 412.654" stroke="#2ABAF3" stroke-opacity="0.85" stroke-width="3" stroke-linecap="round" stroke-linejoin="round"/>
<path d="M223.962 383.914C223.962 383.914 232.607 380.603 238.562 381.545" stroke="#2ABAF3" stroke-opacity="0.85" stroke-width="3" stroke-linecap="round" stroke-linejoin="round"/>
<path d="M238.562 446.045C233.189 446.838 223.962 443.681 223.962 443.681" stroke="#2ABAF3" stroke-opacity="0.85" stroke-width="3" stroke-linecap="round" stroke-linejoin="round"/>
</svg>
