<svg width="320" height="568" viewBox="0 0 320 568" fill="none" xmlns="http://www.w3.org/2000/svg">
<g opacity="0.9">
<g opacity="0.9">
<path opacity="0.9" d="M0.0299967 0.0299967C106.64 -0.0700033 213.31 0.129997 320.03 0.0299967C319.93 189.57 320.13 378.86 320.03 568.03C213.42 568.13 106.75 567.93 0.0299967 568.03C0.129997 378.49 -0.0700033 189.19 0.0299967 0.0299967Z" stroke="url(#paint0_linear_467_1739)" stroke-miterlimit="10"/>
<path opacity="0.9" d="M0.0399933 540.95C109.36 535.83 216.03 546.22 320.04 541" stroke="url(#paint1_linear_467_1739)" stroke-miterlimit="10"/>
<path opacity="0.9" d="M0.0500031 513.88C111.19 504.3 217.86 523.86 320.05 513.98" stroke="url(#paint2_linear_467_1739)" stroke-miterlimit="10"/>
<path opacity="0.9" d="M0.0599976 486.81C112.32 473.3 218.98 501 320.06 486.95" stroke="url(#paint3_linear_467_1739)" stroke-miterlimit="10"/>
<path opacity="0.9" d="M0.0599976 459.75C112.82 442.8 219.49 477.62 320.06 459.92" stroke="url(#paint4_linear_467_1739)" stroke-miterlimit="10"/>
<path opacity="0.9" d="M0.0599976 432.68C112.79 412.75 219.45 453.68 320.06 432.88" stroke="url(#paint5_linear_467_1739)" stroke-miterlimit="10"/>
<path opacity="0.9" d="M0.0599976 405.62C112.3 383.16 218.97 429.2 320.06 405.85" stroke="url(#paint6_linear_467_1739)" stroke-miterlimit="10"/>
<path opacity="0.9" d="M0.0500031 378.57C111.44 354.04 218.1 404.17 320.05 378.82" stroke="url(#paint7_linear_467_1739)" stroke-miterlimit="10"/>
<path opacity="0.9" d="M0.0500031 351.51C110.29 325.37 216.96 378.58 320.05 351.77" stroke="url(#paint8_linear_467_1739)" stroke-miterlimit="10"/>
<path opacity="0.9" d="M0.0399933 324.46C108.94 297.18 215.6 352.45 320.04 324.73" stroke="url(#paint9_linear_467_1739)" stroke-miterlimit="10"/>
<path opacity="0.9" d="M0.0299988 297.41C107.45 269.47 214.12 325.78 320.03 297.69" stroke="url(#paint10_linear_467_1739)" stroke-miterlimit="10"/>
<path opacity="0.9" d="M0.0299988 270.37C105.94 242.28 212.61 298.59 320.03 270.65" stroke="url(#paint11_linear_467_1739)" stroke-miterlimit="10"/>
<path opacity="0.9" d="M0.0200043 243.32C104.46 215.61 211.12 270.88 320.02 243.59" stroke="url(#paint12_linear_467_1739)" stroke-miterlimit="10"/>
<path opacity="0.9" d="M0.00999451 216.28C103.1 189.47 209.77 242.69 320.01 216.54" stroke="url(#paint13_linear_467_1739)" stroke-miterlimit="10"/>
<path opacity="0.9" d="M0.00999451 189.24C101.96 163.89 208.62 214.02 320.01 189.49" stroke="url(#paint14_linear_467_1739)" stroke-miterlimit="10"/>
<path opacity="0.9" d="M0 162.21C101.09 138.86 207.76 184.9 320 162.44" stroke="url(#paint15_linear_467_1739)" stroke-miterlimit="10"/>
<path opacity="0.9" d="M0 135.17C100.61 114.37 207.27 155.31 320 135.37" stroke="url(#paint16_linear_467_1739)" stroke-miterlimit="10"/>
<path opacity="0.9" d="M0 108.14C100.57 90.45 207.24 125.27 320 108.31" stroke="url(#paint17_linear_467_1739)" stroke-miterlimit="10"/>
<path opacity="0.9" d="M0 81.11C101.08 67.06 207.74 94.76 320 81.25" stroke="url(#paint18_linear_467_1739)" stroke-miterlimit="10"/>
<path opacity="0.9" d="M0.00999451 54.08C102.2 44.19 208.87 63.76 320.01 54.18" stroke="url(#paint19_linear_467_1739)" stroke-miterlimit="10"/>
<path opacity="0.9" d="M0.0200043 27.05C104.03 21.83 210.7 32.23 320.02 27.1" stroke="url(#paint20_linear_467_1739)" stroke-miterlimit="10"/>
<path opacity="0.9" d="M309.7 0.0400085C307.62 193.15 311.79 381.84 309.71 568.04" stroke="url(#paint21_linear_467_1739)" stroke-miterlimit="10"/>
<path opacity="0.9" d="M299.37 0.0400085C295.45 195.91 303.31 384.29 299.39 568.04" stroke="url(#paint22_linear_467_1739)" stroke-miterlimit="10"/>
<path opacity="0.9" d="M289.05 0.0499878C283.41 197.95 294.72 386.27 289.08 568.05" stroke="url(#paint23_linear_467_1739)" stroke-miterlimit="10"/>
<path opacity="0.9" d="M278.72 0.0499878C271.5 199.32 285.98 387.77 278.76 568.05" stroke="url(#paint24_linear_467_1739)" stroke-miterlimit="10"/>
<path opacity="0.9" d="M268.39 0.0599976C259.72 200.11 277.11 388.83 268.44 568.06" stroke="url(#paint25_linear_467_1739)" stroke-miterlimit="10"/>
<path opacity="0.9" d="M258.07 0.0599976C248.08 200.36 268.11 389.46 258.12 568.06" stroke="url(#paint26_linear_467_1739)" stroke-miterlimit="10"/>
<path opacity="0.9" d="M247.74 0.0599976C236.57 200.14 258.97 389.7 247.8 568.06" stroke="url(#paint27_linear_467_1739)" stroke-miterlimit="10"/>
<path opacity="0.9" d="M237.42 0.0599976C225.19 199.52 249.71 389.56 237.48 568.06" stroke="url(#paint28_linear_467_1739)" stroke-miterlimit="10"/>
<path opacity="0.9" d="M227.09 0.0499878C213.94 198.55 240.31 389.09 227.16 568.05" stroke="url(#paint29_linear_467_1739)" stroke-miterlimit="10"/>
<path opacity="0.9" d="M216.77 0.0499878C202.83 197.31 230.79 388.32 216.84 568.05" stroke="url(#paint30_linear_467_1739)" stroke-miterlimit="10"/>
<path opacity="0.9" d="M206.44 0.0499878C191.84 195.84 221.12 387.28 206.52 568.05" stroke="url(#paint31_linear_467_1739)" stroke-miterlimit="10"/>
<path opacity="0.9" d="M196.12 0.0400085C180.99 194.19 211.33 385.99 196.2 568.04" stroke="url(#paint32_linear_467_1739)" stroke-miterlimit="10"/>
<path opacity="0.9" d="M185.79 0.0400085C170.26 192.43 201.4 384.52 185.87 568.04" stroke="url(#paint33_linear_467_1739)" stroke-miterlimit="10"/>
<path opacity="0.9" d="M175.47 0.0400085C159.68 190.6 191.34 382.89 175.55 568.04" stroke="url(#paint34_linear_467_1739)" stroke-miterlimit="10"/>
<path opacity="0.9" d="M165.15 0.0299988C149.23 188.75 181.16 381.13 165.23 568.03" stroke="url(#paint35_linear_467_1739)" stroke-miterlimit="10"/>
<path opacity="0.9" d="M154.83 0.0299988C138.91 186.93 170.84 379.32 154.91 568.03" stroke="url(#paint36_linear_467_1739)" stroke-miterlimit="10"/>
<path opacity="0.9" d="M144.5 0.019989C128.71 185.17 160.37 377.46 144.58 568.02" stroke="url(#paint37_linear_467_1739)" stroke-miterlimit="10"/>
<path opacity="0.9" d="M134.18 0.019989C118.65 183.54 149.79 375.63 134.26 568.02" stroke="url(#paint38_linear_467_1739)" stroke-miterlimit="10"/>
<path opacity="0.9" d="M123.86 0.0100098C108.73 182.06 139.07 373.86 123.94 568.01" stroke="url(#paint39_linear_467_1739)" stroke-miterlimit="10"/>
<path opacity="0.9" d="M113.54 0.0100098C98.94 180.78 128.22 372.22 113.62 568.01" stroke="url(#paint40_linear_467_1739)" stroke-miterlimit="10"/>
<path opacity="0.9" d="M103.22 0.0100098C89.28 179.74 117.24 370.75 103.29 568.01" stroke="url(#paint41_linear_467_1739)" stroke-miterlimit="10"/>
<path opacity="0.9" d="M92.9 0C79.75 178.96 106.12 369.5 92.97 568" stroke="url(#paint42_linear_467_1739)" stroke-miterlimit="10"/>
<path opacity="0.9" d="M82.58 0C70.35 178.5 94.87 368.54 82.64 568" stroke="url(#paint43_linear_467_1739)" stroke-miterlimit="10"/>
<path opacity="0.9" d="M72.26 0C61.09 178.36 83.49 367.92 72.32 568" stroke="url(#paint44_linear_467_1739)" stroke-miterlimit="10"/>
<path opacity="0.9" d="M61.94 0C51.95 178.6 71.98 367.7 61.99 568" stroke="url(#paint45_linear_467_1739)" stroke-miterlimit="10"/>
<path opacity="0.9" d="M51.62 0C42.95 179.23 60.34 367.95 51.67 568" stroke="url(#paint46_linear_467_1739)" stroke-miterlimit="10"/>
<path opacity="0.9" d="M41.3 0C34.08 180.28 48.56 368.73 41.34 568" stroke="url(#paint47_linear_467_1739)" stroke-miterlimit="10"/>
<path opacity="0.9" d="M30.98 0.0100098C25.34 181.79 36.65 370.1 31.01 568.01" stroke="url(#paint48_linear_467_1739)" stroke-miterlimit="10"/>
<path opacity="0.9" d="M20.66 0.0100098C16.74 183.76 24.6 372.14 20.68 568.01" stroke="url(#paint49_linear_467_1739)" stroke-miterlimit="10"/>
<path opacity="0.9" d="M10.35 0.019989C8.27 186.22 12.44 374.91 10.36 568.02" stroke="url(#paint50_linear_467_1739)" stroke-miterlimit="10"/>
</g>
</g>
<defs>
<linearGradient id="paint0_linear_467_1739" x1="-62.4712" y1="506.529" x2="382.529" y2="61.5289" gradientUnits="userSpaceOnUse">
<stop stop-color="#FCD1DE"/>
<stop offset="1" stop-color="#C3B8D8"/>
</linearGradient>
<linearGradient id="paint1_linear_467_1739" x1="79.8166" y1="621.206" x2="240.265" y2="460.757" gradientUnits="userSpaceOnUse">
<stop stop-color="#FCD1DE"/>
<stop offset="1" stop-color="#C3B8D8"/>
</linearGradient>
<linearGradient id="paint2_linear_467_1739" x1="79.8477" y1="594.136" x2="240.251" y2="433.732" gradientUnits="userSpaceOnUse">
<stop stop-color="#FCD1DE"/>
<stop offset="1" stop-color="#C3B8D8"/>
</linearGradient>
<linearGradient id="paint3_linear_467_1739" x1="79.8732" y1="567.069" x2="240.236" y2="406.706" gradientUnits="userSpaceOnUse">
<stop stop-color="#FCD1DE"/>
<stop offset="1" stop-color="#C3B8D8"/>
</linearGradient>
<linearGradient id="paint4_linear_467_1739" x1="79.8932" y1="540.003" x2="240.22" y2="379.677" gradientUnits="userSpaceOnUse">
<stop stop-color="#FCD1DE"/>
<stop offset="1" stop-color="#C3B8D8"/>
</linearGradient>
<linearGradient id="paint5_linear_467_1739" x1="79.9082" y1="512.94" x2="240.204" y2="352.645" gradientUnits="userSpaceOnUse">
<stop stop-color="#FCD1DE"/>
<stop offset="1" stop-color="#C3B8D8"/>
</linearGradient>
<linearGradient id="paint6_linear_467_1739" x1="79.9189" y1="485.879" x2="240.188" y2="325.61" gradientUnits="userSpaceOnUse">
<stop stop-color="#FCD1DE"/>
<stop offset="1" stop-color="#C3B8D8"/>
</linearGradient>
<linearGradient id="paint7_linear_467_1739" x1="79.9253" y1="458.821" x2="240.174" y2="298.573" gradientUnits="userSpaceOnUse">
<stop stop-color="#FCD1DE"/>
<stop offset="1" stop-color="#C3B8D8"/>
</linearGradient>
<linearGradient id="paint8_linear_467_1739" x1="79.9281" y1="431.765" x2="240.161" y2="271.532" gradientUnits="userSpaceOnUse">
<stop stop-color="#FCD1DE"/>
<stop offset="1" stop-color="#C3B8D8"/>
</linearGradient>
<linearGradient id="paint9_linear_467_1739" x1="79.9273" y1="404.712" x2="240.15" y2="244.49" gradientUnits="userSpaceOnUse">
<stop stop-color="#FCD1DE"/>
<stop offset="1" stop-color="#C3B8D8"/>
</linearGradient>
<linearGradient id="paint10_linear_467_1739" x1="79.9235" y1="377.661" x2="240.141" y2="217.444" gradientUnits="userSpaceOnUse">
<stop stop-color="#FCD1DE"/>
<stop offset="1" stop-color="#C3B8D8"/>
</linearGradient>
<linearGradient id="paint11_linear_467_1739" x1="79.9171" y1="350.613" x2="240.134" y2="190.396" gradientUnits="userSpaceOnUse">
<stop stop-color="#FCD1DE"/>
<stop offset="1" stop-color="#C3B8D8"/>
</linearGradient>
<linearGradient id="paint12_linear_467_1739" x1="79.9081" y1="323.568" x2="240.13" y2="163.346" gradientUnits="userSpaceOnUse">
<stop stop-color="#FCD1DE"/>
<stop offset="1" stop-color="#C3B8D8"/>
</linearGradient>
<linearGradient id="paint13_linear_467_1739" x1="79.897" y1="296.525" x2="240.13" y2="136.292" gradientUnits="userSpaceOnUse">
<stop stop-color="#FCD1DE"/>
<stop offset="1" stop-color="#C3B8D8"/>
</linearGradient>
<linearGradient id="paint14_linear_467_1739" x1="79.8841" y1="269.485" x2="240.132" y2="109.237" gradientUnits="userSpaceOnUse">
<stop stop-color="#FCD1DE"/>
<stop offset="1" stop-color="#C3B8D8"/>
</linearGradient>
<linearGradient id="paint15_linear_467_1739" x1="79.8696" y1="242.447" x2="240.139" y2="82.1783" gradientUnits="userSpaceOnUse">
<stop stop-color="#FCD1DE"/>
<stop offset="1" stop-color="#C3B8D8"/>
</linearGradient>
<linearGradient id="paint16_linear_467_1739" x1="79.8542" y1="215.413" x2="240.149" y2="55.1176" gradientUnits="userSpaceOnUse">
<stop stop-color="#FCD1DE"/>
<stop offset="1" stop-color="#C3B8D8"/>
</linearGradient>
<linearGradient id="paint17_linear_467_1739" x1="79.838" y1="188.381" x2="240.164" y2="28.0545" gradientUnits="userSpaceOnUse">
<stop stop-color="#FCD1DE"/>
<stop offset="1" stop-color="#C3B8D8"/>
</linearGradient>
<linearGradient id="paint18_linear_467_1739" x1="79.8217" y1="161.352" x2="240.185" y2="0.989103" gradientUnits="userSpaceOnUse">
<stop stop-color="#FCD1DE"/>
<stop offset="1" stop-color="#C3B8D8"/>
</linearGradient>
<linearGradient id="paint19_linear_467_1739" x1="79.8061" y1="134.325" x2="240.21" y2="-26.0788" gradientUnits="userSpaceOnUse">
<stop stop-color="#FCD1DE"/>
<stop offset="1" stop-color="#C3B8D8"/>
</linearGradient>
<linearGradient id="paint20_linear_467_1739" x1="79.7917" y1="107.301" x2="240.241" y2="-53.1487" gradientUnits="userSpaceOnUse">
<stop stop-color="#FCD1DE"/>
<stop offset="1" stop-color="#C3B8D8"/>
</linearGradient>
<linearGradient id="paint21_linear_467_1739" x1="167.464" y1="426.282" x2="451.953" y2="141.797" gradientUnits="userSpaceOnUse">
<stop stop-color="#FCD1DE"/>
<stop offset="1" stop-color="#C3B8D8"/>
</linearGradient>
<linearGradient id="paint22_linear_467_1739" x1="157.143" y1="426.285" x2="441.623" y2="141.803" gradientUnits="userSpaceOnUse">
<stop stop-color="#FCD1DE"/>
<stop offset="1" stop-color="#C3B8D8"/>
</linearGradient>
<linearGradient id="paint23_linear_467_1739" x1="146.827" y1="426.285" x2="431.297" y2="141.815" gradientUnits="userSpaceOnUse">
<stop stop-color="#FCD1DE"/>
<stop offset="1" stop-color="#C3B8D8"/>
</linearGradient>
<linearGradient id="paint24_linear_467_1739" x1="136.508" y1="426.285" x2="420.97" y2="141.823" gradientUnits="userSpaceOnUse">
<stop stop-color="#FCD1DE"/>
<stop offset="1" stop-color="#C3B8D8"/>
</linearGradient>
<linearGradient id="paint25_linear_467_1739" x1="126.191" y1="426.283" x2="410.644" y2="141.83" gradientUnits="userSpaceOnUse">
<stop stop-color="#FCD1DE"/>
<stop offset="1" stop-color="#C3B8D8"/>
</linearGradient>
<linearGradient id="paint26_linear_467_1739" x1="115.872" y1="426.281" x2="400.318" y2="141.835" gradientUnits="userSpaceOnUse">
<stop stop-color="#FCD1DE"/>
<stop offset="1" stop-color="#C3B8D8"/>
</linearGradient>
<linearGradient id="paint27_linear_467_1739" x1="105.552" y1="426.278" x2="389.993" y2="141.838" gradientUnits="userSpaceOnUse">
<stop stop-color="#FCD1DE"/>
<stop offset="1" stop-color="#C3B8D8"/>
</linearGradient>
<linearGradient id="paint28_linear_467_1739" x1="95.2328" y1="426.274" x2="379.667" y2="141.839" gradientUnits="userSpaceOnUse">
<stop stop-color="#FCD1DE"/>
<stop offset="1" stop-color="#C3B8D8"/>
</linearGradient>
<linearGradient id="paint29_linear_467_1739" x1="84.9128" y1="426.269" x2="369.342" y2="141.84" gradientUnits="userSpaceOnUse">
<stop stop-color="#FCD1DE"/>
<stop offset="1" stop-color="#C3B8D8"/>
</linearGradient>
<linearGradient id="paint30_linear_467_1739" x1="74.5924" y1="426.264" x2="359.017" y2="141.84" gradientUnits="userSpaceOnUse">
<stop stop-color="#FCD1DE"/>
<stop offset="1" stop-color="#C3B8D8"/>
</linearGradient>
<linearGradient id="paint31_linear_467_1739" x1="64.2714" y1="426.259" x2="348.692" y2="141.838" gradientUnits="userSpaceOnUse">
<stop stop-color="#FCD1DE"/>
<stop offset="1" stop-color="#C3B8D8"/>
</linearGradient>
<linearGradient id="paint32_linear_467_1739" x1="53.95" y1="426.254" x2="338.368" y2="141.836" gradientUnits="userSpaceOnUse">
<stop stop-color="#FCD1DE"/>
<stop offset="1" stop-color="#C3B8D8"/>
</linearGradient>
<linearGradient id="paint33_linear_467_1739" x1="43.6283" y1="426.249" x2="328.044" y2="141.832" gradientUnits="userSpaceOnUse">
<stop stop-color="#FCD1DE"/>
<stop offset="1" stop-color="#C3B8D8"/>
</linearGradient>
<linearGradient id="paint34_linear_467_1739" x1="33.3061" y1="426.243" x2="317.721" y2="141.829" gradientUnits="userSpaceOnUse">
<stop stop-color="#FCD1DE"/>
<stop offset="1" stop-color="#C3B8D8"/>
</linearGradient>
<linearGradient id="paint35_linear_467_1739" x1="22.9834" y1="426.238" x2="307.397" y2="141.824" gradientUnits="userSpaceOnUse">
<stop stop-color="#FCD1DE"/>
<stop offset="1" stop-color="#C3B8D8"/>
</linearGradient>
<linearGradient id="paint36_linear_467_1739" x1="12.6604" y1="426.233" x2="297.074" y2="141.819" gradientUnits="userSpaceOnUse">
<stop stop-color="#FCD1DE"/>
<stop offset="1" stop-color="#C3B8D8"/>
</linearGradient>
<linearGradient id="paint37_linear_467_1739" x1="2.33707" y1="426.229" x2="286.752" y2="141.814" gradientUnits="userSpaceOnUse">
<stop stop-color="#FCD1DE"/>
<stop offset="1" stop-color="#C3B8D8"/>
</linearGradient>
<linearGradient id="paint38_linear_467_1739" x1="-7.98654" y1="426.225" x2="276.429" y2="141.809" gradientUnits="userSpaceOnUse">
<stop stop-color="#FCD1DE"/>
<stop offset="1" stop-color="#C3B8D8"/>
</linearGradient>
<linearGradient id="paint39_linear_467_1739" x1="-18.3107" y1="426.222" x2="266.108" y2="141.804" gradientUnits="userSpaceOnUse">
<stop stop-color="#FCD1DE"/>
<stop offset="1" stop-color="#C3B8D8"/>
</linearGradient>
<linearGradient id="paint40_linear_467_1739" x1="-28.6349" y1="426.22" x2="255.786" y2="141.799" gradientUnits="userSpaceOnUse">
<stop stop-color="#FCD1DE"/>
<stop offset="1" stop-color="#C3B8D8"/>
</linearGradient>
<linearGradient id="paint41_linear_467_1739" x1="-38.9595" y1="426.218" x2="245.465" y2="141.793" gradientUnits="userSpaceOnUse">
<stop stop-color="#FCD1DE"/>
<stop offset="1" stop-color="#C3B8D8"/>
</linearGradient>
<linearGradient id="paint42_linear_467_1739" x1="-49.2843" y1="426.218" x2="235.145" y2="141.789" gradientUnits="userSpaceOnUse">
<stop stop-color="#FCD1DE"/>
<stop offset="1" stop-color="#C3B8D8"/>
</linearGradient>
<linearGradient id="paint43_linear_467_1739" x1="-59.6095" y1="426.218" x2="224.825" y2="141.784" gradientUnits="userSpaceOnUse">
<stop stop-color="#FCD1DE"/>
<stop offset="1" stop-color="#C3B8D8"/>
</linearGradient>
<linearGradient id="paint44_linear_467_1739" x1="-69.9348" y1="426.22" x2="214.505" y2="141.78" gradientUnits="userSpaceOnUse">
<stop stop-color="#FCD1DE"/>
<stop offset="1" stop-color="#C3B8D8"/>
</linearGradient>
<linearGradient id="paint45_linear_467_1739" x1="-80.2605" y1="426.223" x2="204.186" y2="141.777" gradientUnits="userSpaceOnUse">
<stop stop-color="#FCD1DE"/>
<stop offset="1" stop-color="#C3B8D8"/>
</linearGradient>
<linearGradient id="paint46_linear_467_1739" x1="-90.5863" y1="426.228" x2="193.867" y2="141.775" gradientUnits="userSpaceOnUse">
<stop stop-color="#FCD1DE"/>
<stop offset="1" stop-color="#C3B8D8"/>
</linearGradient>
<linearGradient id="paint47_linear_467_1739" x1="-100.913" y1="426.235" x2="183.549" y2="141.773" gradientUnits="userSpaceOnUse">
<stop stop-color="#FCD1DE"/>
<stop offset="1" stop-color="#C3B8D8"/>
</linearGradient>
<linearGradient id="paint48_linear_467_1739" x1="-111.239" y1="426.243" x2="173.231" y2="141.773" gradientUnits="userSpaceOnUse">
<stop stop-color="#FCD1DE"/>
<stop offset="1" stop-color="#C3B8D8"/>
</linearGradient>
<linearGradient id="paint49_linear_467_1739" x1="-121.566" y1="426.252" x2="162.913" y2="141.773" gradientUnits="userSpaceOnUse">
<stop stop-color="#FCD1DE"/>
<stop offset="1" stop-color="#C3B8D8"/>
</linearGradient>
<linearGradient id="paint50_linear_467_1739" x1="-131.893" y1="426.264" x2="152.596" y2="141.775" gradientUnits="userSpaceOnUse">
<stop stop-color="#FCD1DE"/>
<stop offset="1" stop-color="#C3B8D8"/>
</linearGradient>
</defs>
</svg>
