<?xml version="1.0" encoding="utf-8"?>
<!-- Generator: Adobe Illustrator 21.0.0, SVG Export Plug-In . SVG Version: 6.00 Build 0)  -->
<svg version="1.1" id="圖層_1" xmlns="http://www.w3.org/2000/svg" xmlns:xlink="http://www.w3.org/1999/xlink" x="0px" y="0px"
	 viewBox="0 0 374 163.3" style="enable-background:new 0 0 374 163.3;" xml:space="preserve">
<style type="text/css">
	.st0{clip-path:url(#SVGID_2_);}
	.st1{fill:#CF5951;}
	.st2{fill:#172A88;}
	.st3{fill:none;stroke:#CF5951;stroke-width:5;stroke-linecap:round;stroke-miterlimit:10;}
</style>
<title>資產 8</title>
<g id="圖層_2">
	<g id="圖層_1-2">
		<g>
			<defs>
				<rect id="SVGID_1_" y="-4.1" width="374" height="171.7"/>
			</defs>
			<clipPath id="SVGID_2_">
				<use xlink:href="#SVGID_1_"  style="overflow:visible;"/>
			</clipPath>
			<g class="st0">
				<path class="st1" d="M52.5,69c-1.1,0.9-2.8,0.7-3.7-0.5c0,0,0,0,0,0l-9.1-11.9c-0.9-1.1-0.7-2.8,0.5-3.7c0,0,0,0,0,0l11.9-9.1
					c1.1-0.9,2.8-0.7,3.7,0.5c0,0,0,0,0,0L65,56.2c0.9,1.1,0.7,2.8-0.4,3.7c0,0,0,0,0,0L52.5,69z"/>
				<path class="st1" d="M82.6,20.6c-0.3,1.4-1.6,2.3-3,2.1l-14.9-2.8c-1.4-0.2-2.4-1.6-2.1-3l2.8-14.8c0.3-1.4,1.6-2.3,3-2.1
					l14.8,2.7c1.4,0.3,2.4,1.6,2.1,3.1L82.6,20.6z"/>
				<path class="st1" d="M13.3,46.2c0.2,1.4-0.7,2.7-2.1,3L-3.6,52c-1.4,0.3-2.8-0.7-3-2.1l-2.8-14.8c-0.3-1.4,0.7-2.8,2.1-3.1
					c0,0,0,0,0,0l14.8-2.8c1.4-0.3,2.8,0.6,3.1,2c0,0,0,0.1,0,0.1L13.3,46.2z"/>
				
					<ellipse transform="matrix(7.741512e-02 -0.997 0.997 7.741512e-02 20.2532 125.4583)" class="st2" cx="77.9" cy="51.8" rx="4" ry="4"/>
				
					<ellipse transform="matrix(7.741512e-02 -0.997 0.997 7.741512e-02 -12.7827 67.5508)" class="st2" cx="30.1" cy="40.7" rx="4" ry="4"/>
				<line class="st3" x1="36.7" y1="24.5" x2="31.5" y2="11.4"/>
				<line class="st3" x1="18.5" y1="80.9" x2="25.8" y2="68.8"/>
				<path class="st1" d="M314.2,153.1c0.2,1.4-0.7,2.8-2.2,3c0,0,0,0,0,0l-14.9,2.2c-1.4,0.2-2.8-0.7-3-2.2c0,0,0,0,0,0l-2.2-14.9
					c-0.2-1.4,0.7-2.8,2.2-3c0,0,0,0,0,0l14.9-2.2c1.4-0.2,2.8,0.8,3,2.2c0,0,0,0,0,0L314.2,153.1z"/>
				<path class="st1" d="M353,118.6c-0.6,1.3-2.2,1.8-3.5,1.2c0,0,0,0,0,0l-13.5-6.6c-1.3-0.6-1.8-2.2-1.2-3.5l6.6-13.5
					c0.6-1.3,2.2-1.8,3.5-1.2c0,0,0,0,0,0l13.5,6.6c1.3,0.6,1.8,2.2,1.2,3.5L353,118.6z"/>
				
					<ellipse transform="matrix(7.741512e-02 -0.997 0.997 7.741512e-02 135.2023 396.6404)" class="st2" cx="281.9" cy="125.3" rx="4" ry="4"/>
				
					<ellipse transform="matrix(7.741512e-02 -0.997 0.997 7.741512e-02 172.9445 458.1421)" class="st2" cx="334" cy="135.6" rx="4" ry="4"/>
				<line class="st3" x1="367.1" y1="128.9" x2="379.2" y2="121.6"/>
				<line class="st3" x1="338.1" y1="160.8" x2="345" y2="148.4"/>
				<line class="st3" x1="303.1" y1="115.5" x2="297.9" y2="102.4"/>
			</g>
		</g>
	</g>
</g>
</svg>
