<svg xmlns="http://www.w3.org/2000/svg" viewBox="0 0 868.6 405.6"><defs><style>.cls-1,.cls-2{fill:#cf5951;}.cls-2{stroke:#cf5951;stroke-linecap:round;stroke-miterlimit:10;stroke-width:4.78px;}.cls-3{fill:#172a88;}</style></defs><title>資產 19</title><g id="圖層_2" data-name="圖層 2"><g id="網頁版面"><path class="cls-1" d="M793.91,349.61A3.38,3.38,0,0,1,792.5,345l9.11-17.18a3.38,3.38,0,0,1,4.57-1.39l17.17,9.1a3.38,3.38,0,0,1,1.41,4.58l-9.11,17.17a3.4,3.4,0,0,1-4.58,1.4Z"/><path class="cls-1" d="M846.27,401.93a3.38,3.38,0,0,1-3.73-3l-2.17-19.32a3.38,3.38,0,0,1,3-3.73l19.31-2.16a3.38,3.38,0,0,1,3.75,3L868.57,396a3.41,3.41,0,0,1-3,3.74Z"/><line class="cls-2" x1="792.87" y1="378.44" x2="781.51" y2="385.74"/><line class="cls-2" x1="848.45" y1="323.54" x2="840.35" y2="312.73"/><circle class="cls-3" cx="767.85" cy="361.41" r="3.65" transform="translate(-77.54 287.12) rotate(-20.18)"/><circle class="cls-3" cx="814.87" cy="401.95" r="3.65" transform="translate(-88.69 306.22) rotate(-20.21)"/><circle class="cls-3" cx="840.35" cy="346.24" r="3.65" transform="translate(-67.87 311.36) rotate(-20.19)"/><path class="cls-1" d="M86.89,36.7a3.38,3.38,0,0,1,4.23,2.24l5.71,18.59a3.38,3.38,0,0,1-2.25,4.21L76,67.44a3.39,3.39,0,0,1-4.24-2.24l-5.7-18.58a3.4,3.4,0,0,1,2.25-4.23Z"/><path class="cls-1" d="M12.87,36.74a3.37,3.37,0,0,1,4.75-.53L32.81,48.34a3.38,3.38,0,0,1,.52,4.75L21.2,68.27a3.38,3.38,0,0,1-4.76.54L1.26,56.67a3.4,3.4,0,0,1-.53-4.76Z"/><line class="cls-2" x1="67.24" y1="15.59" x2="70.11" y2="2.39"/><line class="cls-2" x1="66.76" y1="93.71" x2="80.13" y2="95.63"/><circle class="cls-3" cx="96.98" cy="9.94" r="3.65" transform="translate(47.26 93.79) rotate(-65.19)"/><circle class="cls-3" cx="35.06" cy="14.52" r="3.65" transform="translate(7.18 40.26) rotate(-65.2)"/><circle class="cls-3" cx="56.43" cy="71.93" r="3.65" transform="translate(-32.54 92.98) rotate(-65.2)"/></g></g></svg>