<?xml version="1.0" encoding="utf-8"?>
<!-- Generator: Adobe Illustrator 21.0.0, SVG Export Plug-In . SVG Version: 6.00 Build 0)  -->
<svg version="1.1" id="圖層_1" xmlns="http://www.w3.org/2000/svg" xmlns:xlink="http://www.w3.org/1999/xlink" x="0px" y="0px"
	 viewBox="0 0 83.9 116.9" style="enable-background:new 0 0 83.9 116.9;" xml:space="preserve">
<style type="text/css">
	.st0{fill:#C5564F;}
	.st1{fill:#192D78;}
</style>
<title>資產 25</title>
<g id="圖層_2">
	<g id="網頁版面">
		<path class="st0" d="M68.6,81.1L68.6,81.1C60,81,53,74,53,65.4c0-2.4,0.5-4.7,1.6-6.8c0.4-0.8,1.4-1.1,2.2-0.7c0,0,0.1,0,0.1,0.1
			c0.8,0.4,1.2,1.5,0.8,2.3c-0.8,1.7-1.3,3.5-1.3,5.4c0,6.6,5.3,11.9,11.8,11.9c0,0,0,0,0,0l0,0c6.7,0,12.2-5.4,12.2-12.2
			c0-1.8-0.4-3.6-1.2-5.3c-0.4-0.8-0.1-1.7,0.6-2.1c0,0,0.1,0,0.1-0.1c0.9-0.3,1.9,0.1,2.3,1c3.7,7.6,0.6,16.8-7.1,20.5
			C73.2,80.6,70.9,81.1,68.6,81.1L68.6,81.1z"/>
		<path class="st1" d="M39.8,40.4h-7.9c-1.5,0-2.7-1.2-2.9-2.6c-0.1-1.3,0.8-2.5,2.1-2.6c0.1,0,0.2,0,0.3,0h7.9
			c1.5,0,2.7,1.2,2.9,2.6c0.2,1.3-0.8,2.5-2.1,2.6C40,40.4,39.9,40.4,39.8,40.4z"/>
		<path class="st0" d="M16,80.7L16,80.7c-8.8,0-16-7.2-16-16C0,56.1,7,49,15.7,49l0,0c5.9,0,11.3,3.2,14.1,8.4
			c0.5,0.8,0.2,1.7-0.5,2.2c0,0-0.1,0-0.1,0.1c-0.9,0.4-1.9,0-2.3-0.9c-2.1-4-6.3-6.4-10.8-6.4l0,0C9.1,52.5,3.4,58.1,3.4,65
			c0,6.8,5.4,12.3,12.2,12.3c0,0,0,0,0.1,0l0,0c4.7,0,9.1-2.6,11.2-6.9c0.4-0.8,1.4-1.1,2.2-0.6c0,0,0.1,0,0.1,0.1
			c0.9,0.4,1.2,1.5,0.8,2.3C27.3,77.5,21.9,80.8,16,80.7z"/>
		<path class="st0" d="M69.8,49.8h-7.9c-0.9,0-1.6-0.7-1.7-1.6c-0.1-0.8,0.5-1.5,1.3-1.6c0.1,0,0.1,0,0.2,0l0,0h7.9
			c0.9,0,1.6,0.7,1.7,1.6c0.1,0.8-0.4,1.5-1.2,1.6C70,49.8,69.9,49.8,69.8,49.8z"/>
		<path class="st0" d="M15.2,67.2c-0.5,0-1-0.2-1.3-0.5c-0.7-0.6-0.7-1.7-0.1-2.4L36,42.1c0.7-0.6,1.8-0.6,2.4,0.1
			c0.7,0.6,0.7,1.7,0.1,2.4c0,0,0,0,0,0L16.3,66.8C16,67.1,15.6,67.2,15.2,67.2z"/>
		<path class="st0" d="M37.3,66.6c-0.5,0-1-0.2-1.3-0.6c-0.7-0.6-0.7-1.7-0.1-2.4c0,0,0,0,0,0l22.2-22.1c0.7-0.6,1.8-0.6,2.4,0.1
			c0.7,0.6,0.8,1.7,0.1,2.4c0,0,0,0,0,0.1l-22.1,22C38.2,66.4,37.8,66.6,37.3,66.6z"/>
		<path class="st0" d="M37.3,70.1h-0.2c-1-0.1-1.7-0.9-1.7-1.8v-25c0-0.8,0.6-1.5,1.5-1.6c0.1,0,0.2,0,0.3,0c1,0.1,1.7,0.9,1.7,1.8
			v25c0,0.8-0.7,1.5-1.5,1.6C37.4,70.1,37.4,70.1,37.3,70.1z"/>
		<path class="st0" d="M68.6,67.3c-0.5,0-1-0.2-1.3-0.6L53,51.9c-0.7-0.6-0.7-1.7-0.1-2.4c0,0,0,0,0,0c0.7-0.6,1.8-0.5,2.4,0.2
			l14.2,14.8c0.7,0.7,0.7,1.7,0,2.4C69.3,67.1,69,67.3,68.6,67.3z"/>
		<path class="st1" d="M41.3,71L41.3,71h-7.9c-0.9,0-1.6-0.7-1.7-1.6c-0.1-0.8,0.5-1.5,1.3-1.6c0.1,0,0.1,0,0.2,0H41
			c0.9,0,1.6,0.7,1.7,1.6c0.1,0.8-0.5,1.5-1.3,1.6C41.4,71,41.3,71,41.3,71z"/>
	</g>
</g>
</svg>
