<svg xmlns="http://www.w3.org/2000/svg" viewBox="0 0 70.5 70.5"><defs><style>.cls-1{fill:#172a88;}.cls-1,.cls-2{fill-rule:evenodd;}.cls-2{fill:#fff;}</style></defs><title>資產 27</title><g id="圖層_2" data-name="圖層 2"><g id="網頁版面"><path class="cls-1" d="M70.5,34.7v1.1a7.43,7.43,0,0,0-.3,1.32,33.23,33.23,0,0,1-7.27,19.61,34.07,34.07,0,0,1-22.4,13.14c-1.57.24-3.15.42-4.73.63H34.7l-4.59-.61A34.87,34.87,0,0,1,.88,42C.49,40,.29,37.87,0,35.8V34.7a7,7,0,0,0,.3-1.32A33.28,33.28,0,0,1,7.57,13.77,34.11,34.11,0,0,1,30,.63C31.54.39,33.12.21,34.7,0h1.1L40.4.61A34.86,34.86,0,0,1,69.62,28.49C70,30.54,70.21,32.63,70.5,34.7Zm-44.12.65a23.46,23.46,0,0,0,2.76,0c1.34-.17,1.61.43,1.6,1.64-.06,4.77,0,9.54-.06,14.31,0,1.45.44,1.84,1.79,1.71a18.36,18.36,0,0,1,3.44,0c1.31.12,1.73-.29,1.71-1.65-.09-4.67,0-9.35,0-14,0-2,0-2,1.89-2a20.39,20.39,0,0,0,2.61,0c.38,0,1-.42,1-.73.4-1.95.67-3.92,1-5.82-.26-.12-.34-.19-.42-.2-1.61,0-3.21-.07-4.81,0-.91,0-1.34-.23-1.3-1.24.08-2,.75-2.78,2.85-2.81,1.22,0,2.44,0,3.8,0,0-2.13,0-4,0-5.87,0-1-.39-1.3-1.29-1.26-2,.09-3.94.05-5.89.26a6.46,6.46,0,0,0-6.1,5.57,15.24,15.24,0,0,0-.21,3c0,2.56.19,2.33-2.42,2.34H26.38Z"/><path class="cls-2" d="M26.38,35.35V28.51H28.3c2.6,0,2.39.23,2.42-2.34a15.24,15.24,0,0,1,.21-3A6.46,6.46,0,0,1,37,17.59c2-.21,3.93-.17,5.89-.26.91,0,1.33.27,1.29,1.26-.06,1.87,0,3.74,0,5.87-1.36,0-2.58,0-3.8,0-2.09,0-2.77.76-2.85,2.81,0,1,.39,1.26,1.3,1.24,1.6,0,3.21,0,4.81,0,.08,0,.16.07.42.2-.3,1.91-.58,3.88-1,5.82-.06.31-.65.68-1,.73a20.39,20.39,0,0,1-2.61,0c-1.89,0-1.89,0-1.89,2,0,4.68-.05,9.35,0,14,0,1.37-.4,1.78-1.71,1.65a18.36,18.36,0,0,0-3.44,0c-1.35.13-1.82-.27-1.79-1.71.1-4.77,0-9.54.06-14.31,0-1.21-.26-1.81-1.6-1.64A23.46,23.46,0,0,1,26.38,35.35Z"/></g></g></svg>