<?xml version="1.0" encoding="utf-8"?>
<!-- Generator: Adobe Illustrator 21.0.0, SVG Export Plug-In . SVG Version: 6.00 Build 0)  -->
<svg version="1.1" id="圖層_1" xmlns="http://www.w3.org/2000/svg" xmlns:xlink="http://www.w3.org/1999/xlink" x="0px" y="0px"
	 viewBox="0 0 482.1 294.5" style="enable-background:new 0 0 482.1 294.5;" xml:space="preserve">
<style type="text/css">
	.st0{fill:none;}
	.st1{enable-background:new    ;}
	.st2{fill:#182987;}
	.st3{clip-path:url(#SVGID_2_);fill:none;stroke:#172A88;stroke-width:1.44;stroke-miterlimit:10;}
	.st4{clip-path:url(#SVGID_4_);fill:none;stroke:#172A88;stroke-width:1.44;stroke-miterlimit:10;}
	.st5{clip-path:url(#SVGID_6_);fill:none;stroke:#172A88;stroke-width:1.44;stroke-miterlimit:10;}
	.st6{clip-path:url(#SVGID_8_);fill:none;stroke:#172A88;stroke-width:1.44;stroke-miterlimit:10;}
	.st7{clip-path:url(#SVGID_10_);fill:#C5564F;}
	.st8{clip-path:url(#SVGID_12_);fill:#192D78;}
	.st9{clip-path:url(#SVGID_14_);fill:#C5564F;}
	.st10{clip-path:url(#SVGID_16_);fill:#C5564F;}
	.st11{clip-path:url(#SVGID_18_);fill:#C5564F;}
	.st12{clip-path:url(#SVGID_20_);fill:#C5564F;}
	.st13{clip-path:url(#SVGID_22_);fill:#C5564F;}
	.st14{clip-path:url(#SVGID_24_);fill:#C5564F;}
	.st15{clip-path:url(#SVGID_26_);fill:#192D78;}
	.st16{clip-path:url(#SVGID_28_);fill:#9FA0A0;stroke:#9FA0A0;stroke-width:2.24;stroke-miterlimit:10;}
	.st17{clip-path:url(#SVGID_30_);fill:#9FA0A0;stroke:#9FA0A0;stroke-width:2.24;stroke-miterlimit:10;}
	.st18{clip-path:url(#SVGID_32_);fill:#9FA0A0;stroke:#9FA0A0;stroke-width:2.24;stroke-miterlimit:10;}
	.st19{clip-path:url(#SVGID_34_);fill:#9FA0A0;stroke:#9FA0A0;stroke-width:2.24;stroke-miterlimit:10;}
	.st20{clip-path:url(#SVGID_36_);fill:#9FA0A0;stroke:#9FA0A0;stroke-width:2.24;stroke-miterlimit:10;}
	.st21{clip-path:url(#SVGID_38_);fill:#9FA0A0;stroke:#9FA0A0;stroke-width:2.24;stroke-miterlimit:10;}
	.st22{clip-path:url(#SVGID_40_);fill:#9FA0A0;stroke:#9FA0A0;stroke-width:2.24;stroke-miterlimit:10;}
	.st23{clip-path:url(#SVGID_42_);fill:#9FA0A0;stroke:#9FA0A0;stroke-width:2.24;stroke-miterlimit:10;}
	.st24{clip-path:url(#SVGID_44_);fill:#9FA0A0;stroke:#9FA0A0;stroke-width:2.24;stroke-miterlimit:10;}
	.st25{clip-path:url(#SVGID_46_);fill:#9FA0A0;stroke:#9FA0A0;stroke-width:2.24;stroke-miterlimit:10;}
	.st26{clip-path:url(#SVGID_48_);fill:#9FA0A0;stroke:#9FA0A0;stroke-width:2.24;stroke-miterlimit:10;}
	.st27{clip-path:url(#SVGID_50_);fill:#9FA0A0;}
	.st28{clip-path:url(#SVGID_52_);fill:#9FA0A0;}
	.st29{clip-path:url(#SVGID_54_);fill:#9FA0A0;}
	.st30{clip-path:url(#SVGID_56_);fill:#9FA0A0;}
	.st31{clip-path:url(#SVGID_58_);fill:#9FA0A0;}
	.st32{clip-path:url(#SVGID_60_);fill:#9FA0A0;}
	.st33{clip-path:url(#SVGID_62_);fill:#9FA0A0;}
	.st34{clip-path:url(#SVGID_64_);fill:#9FA0A0;}
	.st35{clip-path:url(#SVGID_66_);fill:#9FA0A0;}
	.st36{clip-path:url(#SVGID_68_);fill:#9FA0A0;}
	.st37{clip-path:url(#SVGID_70_);fill:#9FA0A0;}
	.st38{clip-path:url(#SVGID_72_);fill:#9FA0A0;}
	.st39{clip-path:url(#SVGID_74_);fill:#9FA0A0;}
	.st40{clip-path:url(#SVGID_76_);fill:#9FA0A0;}
	.st41{clip-path:url(#SVGID_78_);fill:#9FA0A0;}
	.st42{clip-path:url(#SVGID_80_);fill:#9FA0A0;}
	.st43{clip-path:url(#SVGID_82_);fill:#9FA0A0;}
	.st44{clip-path:url(#SVGID_84_);fill:#9FA0A0;}
	.st45{clip-path:url(#SVGID_86_);fill:#9FA0A0;}
	.st46{clip-path:url(#SVGID_88_);fill:#9FA0A0;}
	.st47{clip-path:url(#SVGID_90_);fill:#9FA0A0;}
	.st48{clip-path:url(#SVGID_92_);fill:#9FA0A0;}
	.st49{clip-path:url(#SVGID_94_);fill:#9FA0A0;}
	.st50{clip-path:url(#SVGID_96_);fill:#9FA0A0;}
	.st51{clip-path:url(#SVGID_98_);fill:#9FA0A0;}
	.st52{clip-path:url(#SVGID_100_);fill:#9FA0A0;}
	.st53{clip-path:url(#SVGID_102_);fill:#9FA0A0;}
	.st54{clip-path:url(#SVGID_104_);fill:none;stroke:#172A88;stroke-width:5.59;stroke-miterlimit:10;}
	.st55{clip-path:url(#SVGID_106_);fill:none;stroke:#172A88;stroke-width:5.59;stroke-miterlimit:10;}
	.st56{clip-path:url(#SVGID_108_);fill:none;stroke:#172A88;stroke-width:5.59;stroke-miterlimit:10;}
	.st57{clip-path:url(#SVGID_110_);fill:none;stroke:#172A88;stroke-width:5.59;stroke-miterlimit:10;}
	.st58{clip-path:url(#SVGID_112_);fill:none;stroke:#172A88;stroke-width:5.59;stroke-miterlimit:10;}
	.st59{opacity:0.9;clip-path:url(#SVGID_114_);}
	.st60{fill:none;stroke:#172A88;stroke-width:5.59;stroke-miterlimit:10;}
	.st61{clip-path:url(#SVGID_116_);fill:none;stroke:#172A88;stroke-width:5.59;stroke-miterlimit:10;}
	.st62{clip-path:url(#SVGID_118_);fill:none;stroke:#172A88;stroke-width:5.59;stroke-miterlimit:10;}
	.st63{clip-path:url(#SVGID_120_);fill:none;stroke:#172A88;stroke-width:5.59;stroke-miterlimit:10;}
	.st64{clip-path:url(#SVGID_122_);fill:none;stroke:#172A88;stroke-width:5.59;stroke-miterlimit:10;}
	.st65{clip-path:url(#SVGID_124_);fill:none;stroke:#172A88;stroke-width:5.59;stroke-miterlimit:10;}
	.st66{clip-path:url(#SVGID_126_);fill:none;stroke:#172A88;stroke-width:5.59;stroke-miterlimit:10;}
	.st67{clip-path:url(#SVGID_128_);fill:none;stroke:#172A88;stroke-width:5.59;stroke-miterlimit:10;}
	.st68{clip-path:url(#SVGID_130_);fill:none;stroke:#172A88;stroke-width:5.59;stroke-miterlimit:10;}
	.st69{clip-path:url(#SVGID_132_);fill:none;stroke:#172A88;stroke-width:5.59;stroke-miterlimit:10;}
	.st70{clip-path:url(#SVGID_134_);fill:none;stroke:#172A88;stroke-width:5.59;stroke-miterlimit:10;}
	.st71{clip-path:url(#SVGID_136_);fill:none;stroke:#172A88;stroke-width:5.59;stroke-miterlimit:10;}
	.st72{clip-path:url(#SVGID_138_);fill:none;stroke:#172A88;stroke-width:5.59;stroke-miterlimit:10;}
	.st73{clip-path:url(#SVGID_140_);fill:none;stroke:#172A88;stroke-width:5.59;stroke-miterlimit:10;}
	.st74{clip-path:url(#SVGID_142_);fill:none;stroke:#172A88;stroke-width:5.59;stroke-miterlimit:10;}
	.st75{clip-path:url(#SVGID_144_);fill:none;stroke:#172A88;stroke-width:5.14;stroke-miterlimit:10;}
</style>
<title>資產 11</title>
<g>
	<rect y="-22.1" class="st0" width="482.1" height="326.1"/>
	<g class="st1">
		<path class="st2" d="M394.6,145.9l-2.8,0.2l-2.6-5.8c-0.6-1.4-1.3-3.2-1.8-4.7h-0.1c0,1.8-0.2,3.8-0.4,6.5l-0.4,4.5l-2.5,0.2
			l1.3-14.6l3-0.3l2.6,5.7c0.6,1.4,1.3,3.1,1.8,4.6l0,0c0-1.8,0.1-3.9,0.3-6.3l0.4-4.4l2.5-0.2L394.6,145.9z"/>
		<path class="st2" d="M407.8,144.4c-0.6,0.3-1.8,0.7-3.3,0.8c-4.4,0.4-6.5-2.4-6.2-6.7c0.4-5.1,3.9-8,7.8-8.3
			c1.6-0.1,2.6,0.1,3,0.3l-0.7,2.3c-0.5-0.2-1.3-0.4-2.3-0.3c-2.4,0.2-4.5,2-4.8,5.6c-0.3,3.3,1.2,4.9,3.9,4.7
			c0.9-0.1,1.8-0.3,2.4-0.6L407.8,144.4z"/>
		<path class="st2" d="M421.2,143.6l-3.2,0.3l-2.8-6.2l-1.2,1.6l-0.4,5l-2.8,0.2l1.3-14.6l2.8-0.2l-0.6,6.6h0.1
			c0.4-0.6,0.7-1.2,1.1-1.8l3.6-5.2l3.3-0.3l-4.9,6.6L421.2,143.6z"/>
		<path class="st2" d="M434.5,136.4c-0.4,4.3-2.6,6.5-5.9,6.7c-3.3,0.3-5-1.5-4.6-5.8l0.7-8.6l2.8-0.2l-0.8,8.8
			c-0.2,2.6,0.6,3.6,2.1,3.5s2.5-1.3,2.8-3.9l0.8-8.8l2.8-0.2L434.5,136.4z"/>
	</g>
	<g class="st1">
		<path class="st2" d="M388.6,171.7c1.6,0.3,2.7,1.5,2.5,3.3c-0.1,1.1-0.7,2.3-1.6,3.1c-1.1,1-2.7,1.6-5.3,1.8
			c-1.4,0.1-2.4,0.1-3.1,0.1l1.2-14.4c0.8-0.2,2.3-0.5,3.7-0.6c1.8-0.2,3,0,3.9,0.6c0.8,0.5,1.3,1.4,1.2,2.6
			C391.1,169.6,390.2,170.9,388.6,171.7L388.6,171.7z M384.1,177.8c0.3,0,0.6,0,1.1,0c1.5-0.1,2.9-0.9,3-2.6c0.1-1.7-1.2-2.2-2.7-2
			l-1,0.1L384.1,177.8z M385.7,171.1c1.6-0.1,2.6-1.1,2.7-2.3c0.1-1.4-0.9-1.8-2.2-1.7c-0.6,0.1-1,0.1-1.2,0.2l-0.3,3.9L385.7,171.1
			z"/>
		<path class="st2" d="M395.2,164.4l2.8-0.2l-1.3,14.6l-2.8,0.2L395.2,164.4z"/>
		<path class="st2" d="M411,177.5l-3.2,0.3l-2.8-6.2l-1.2,1.6l-0.4,5l-2.8,0.2l1.3-14.6l2.8-0.2l-0.6,6.6h0.1
			c0.4-0.6,0.7-1.2,1.1-1.8l3.6-5.2l3.3-0.3l-4.9,6.6L411,177.5z"/>
		<path class="st2" d="M421.5,176.6l-8.1,0.7l1.3-14.6l7.8-0.7l-0.2,2.4l-5,0.4l-0.3,3.5l4.8-0.4l-0.2,2.3l-4.8,0.4l-0.4,4.1
			l5.3-0.5L421.5,176.6z"/>
	</g>
	<g class="st1">
		<path class="st2" d="M378.2,213.4l1.3-14.6l7.8-0.7l-0.2,2.4l-5,0.4l-0.3,3.9l4.7-0.4l-0.2,2.3l-4.7,0.4l-0.5,6.1L378.2,213.4z"/>
		<path class="st2" d="M397.5,211.7l-8.1,0.7l1.3-14.6l7.8-0.7l-0.2,2.4l-5,0.4l-0.3,3.5l4.8-0.4l-0.2,2.3l-4.8,0.4l-0.4,4.1
			l5.3-0.5L397.5,211.7z"/>
		<path class="st2" d="M408.8,198.9c-0.5-0.2-1.3-0.5-2.5-0.4c-1.5,0.1-2.2,1-2.3,1.8c-0.1,1,0.6,1.5,2.3,2.1c2.2,0.8,3.2,2.1,3,4
			c-0.2,2.5-2.3,4.6-5.7,4.9c-1.4,0.1-2.9-0.1-3.5-0.5l0.8-2.4c0.7,0.4,1.9,0.6,3.1,0.5c1.6-0.1,2.4-0.9,2.5-2
			c0.1-1-0.6-1.6-2.1-2.2c-2.1-0.8-3.4-2-3.2-3.9c0.2-2.4,2.2-4.4,5.4-4.7c1.4-0.1,2.4,0.1,3.1,0.4L408.8,198.9z"/>
		<path class="st2" d="M421.9,197.5l-3.6,0.3l-1.1,12.2l-2.8,0.2l1.1-12.2l-3.6,0.3l0.2-2.4l10-0.9L421.9,197.5z"/>
		<path class="st2" d="M424.7,194.8l2.8-0.2l-1.3,14.6l-2.8,0.2L424.7,194.8z"/>
		<path class="st2" d="M441.9,193.3l-5.7,15l-3.2,0.3l-3-14.3l3.1-0.3l1.1,6.3c0.3,1.7,0.6,3.4,0.7,5.1h0.1c0.5-1.8,1.1-3.6,1.7-5.4
			l2.2-6.6L441.9,193.3z"/>
		<path class="st2" d="M453.6,206.8l-2.9,0.3l-0.7-3.8l-3.9,0.3l-1.3,3.9l-2.8,0.2l5.4-15l3.5-0.3L453.6,206.8z M449.8,201.2
			l-0.6-3.3c-0.1-0.9-0.3-2-0.4-2.9h-0.1c-0.3,0.9-0.6,2.2-0.9,3l-1.2,3.4L449.8,201.2z"/>
		<path class="st2" d="M464.5,205.8l-8,0.7l1.3-14.6l2.8-0.2l-1.1,12.2l5.2-0.5L464.5,205.8z"/>
	</g>
	<g>
		<g>
			<defs>
				<rect id="SVGID_1_" y="-22.1" width="482.1" height="326.1"/>
			</defs>
			<clipPath id="SVGID_2_">
				<use xlink:href="#SVGID_1_"  style="overflow:visible;"/>
			</clipPath>
			<line class="st3" x1="-85.4" y1="26.2" x2="124.3" y2="7.9"/>
		</g>
	</g>
	<g>
		<g>
			<defs>
				<rect id="SVGID_3_" y="-22.1" width="482.1" height="326.1"/>
			</defs>
			<clipPath id="SVGID_4_">
				<use xlink:href="#SVGID_3_"  style="overflow:visible;"/>
			</clipPath>
			<line class="st4" x1="-95.8" y1="42.8" x2="113.9" y2="24.5"/>
		</g>
	</g>
	<g>
		<g>
			<defs>
				<rect id="SVGID_5_" y="-22.1" width="482.1" height="326.1"/>
			</defs>
			<clipPath id="SVGID_6_">
				<use xlink:href="#SVGID_5_"  style="overflow:visible;"/>
			</clipPath>
			<line class="st5" x1="387.8" y1="236.9" x2="597.4" y2="218.5"/>
		</g>
	</g>
	<g>
		<g>
			<defs>
				<rect id="SVGID_7_" y="-22.1" width="482.1" height="326.1"/>
			</defs>
			<clipPath id="SVGID_8_">
				<use xlink:href="#SVGID_7_"  style="overflow:visible;"/>
			</clipPath>
			<line class="st6" x1="377.3" y1="253.5" x2="587" y2="235.1"/>
		</g>
	</g>
	<g>
		<g>
			<defs>
				<rect id="SVGID_9_" y="-22.1" width="482.1" height="326.1"/>
			</defs>
			<clipPath id="SVGID_10_">
				<use xlink:href="#SVGID_9_"  style="overflow:visible;"/>
			</clipPath>
			<path class="st7" d="M380.8,75.4L380.8,75.4c-4.7,0.5-9.3-1-12.7-4.3c-3.3-3.3-4.9-8-4.3-12.6c0.3-2.9,1.2-5.7,2.6-8.2
				c0.5-1,1.7-1.4,2.8-1c0.9,0.5,1.3,1.6,0.8,2.5c0,0.1-0.1,0.1-0.1,0.1c-1.1,2-1.8,4.2-2.1,6.5c-0.4,3.6,0.8,7.1,3.3,9.7
				c2.6,2.5,6.1,3.7,9.7,3.2l0,0c8-0.7,15.1-7.7,15.8-15.7c0.2-2.1-0.1-4.2-0.9-6.1c-0.4-1.1,0.1-2.2,1.1-2.7
				c0.9-0.5,2.1-0.1,2.6,0.8c0,0,0,0.1,0.1,0.1c1,2.5,1.4,5.2,1.1,7.9C399.8,65.7,390.9,74.5,380.8,75.4z"/>
		</g>
	</g>
	<g>
		<g>
			<defs>
				<rect id="SVGID_11_" y="-22.1" width="482.1" height="326.1"/>
			</defs>
			<clipPath id="SVGID_12_">
				<use xlink:href="#SVGID_11_"  style="overflow:visible;"/>
			</clipPath>
			<path class="st8" d="M350.7,30.2L350.7,30.2l-9.4,0.8c-1.5,0.2-3-0.9-3.1-2.4c0-0.1,0-0.3,0-0.4c0-1.8,1.4-3.2,3.1-3.4l0,0
				l9.4-0.8c1.5-0.2,2.9,0.9,3.1,2.5c0,0.1,0,0.2,0,0.3C353.8,28.6,352.4,30,350.7,30.2z"/>
		</g>
	</g>
	<g>
		<g>
			<defs>
				<rect id="SVGID_13_" y="-22.1" width="482.1" height="326.1"/>
			</defs>
			<clipPath id="SVGID_14_">
				<use xlink:href="#SVGID_13_"  style="overflow:visible;"/>
			</clipPath>
			<path class="st9" d="M318,80.4L318,80.4c-4.8,0.5-9.5-1.1-13-4.4c-3.4-3.4-5-8.2-4.4-12.9c0.9-10.3,10-19.3,20.4-20.2l0,0
				c7-0.6,13.1,2.7,15.9,8.5c0.4,1,0,2.2-1,2.7c-0.9,0.5-2.1,0.2-2.6-0.7c0,0,0-0.1-0.1-0.1c-2.1-4.5-6.8-7-12.2-6.5l0,0
				c-8.3,0.7-15.6,8-16.3,16.2c-0.4,3.7,0.8,7.4,3.4,10c2.7,2.5,6.3,3.8,10,3.3l0,0c5.9-0.7,11.1-4.1,14-9.3c0.5-1,1.8-1.4,2.8-0.9
				c0.9,0.5,1.3,1.6,0.8,2.6l-0.1,0.1C331.9,75.3,325.4,79.6,318,80.4z"/>
		</g>
	</g>
	<g>
		<g>
			<defs>
				<rect id="SVGID_15_" y="-22.1" width="482.1" height="326.1"/>
			</defs>
			<clipPath id="SVGID_16_">
				<use xlink:href="#SVGID_15_"  style="overflow:visible;"/>
			</clipPath>
			<path class="st10" d="M385.6,38.2L385.6,38.2l-9.5,0.8c-0.9,0.1-1.8-0.6-1.9-1.5c0-0.1,0-0.1,0-0.2c0-1,0.8-1.9,1.9-2l0,0
				l9.4-0.8c0.9-0.1,1.8,0.6,1.9,1.5c0,0.1,0,0.1,0,0.2C387.4,37.2,386.6,38,385.6,38.2z"/>
		</g>
	</g>
	<g>
		<g>
			<defs>
				<rect id="SVGID_17_" y="-22.1" width="482.1" height="326.1"/>
			</defs>
			<clipPath id="SVGID_18_">
				<use xlink:href="#SVGID_17_"  style="overflow:visible;"/>
			</clipPath>
			<path class="st11" d="M318.5,64.5c-0.6,0.1-1.1-0.1-1.5-0.5c-0.8-0.8-0.7-2.1,0.1-2.8l0,0l28.8-28.5c0.7-0.8,2-0.9,2.8-0.2l0,0
				c0.7,0.8,0.7,2.1-0.1,2.8l0,0l-28.8,28.5C319.5,64.2,319,64.5,318.5,64.5z"/>
		</g>
	</g>
	<g>
		<g>
			<defs>
				<rect id="SVGID_19_" y="-22.1" width="482.1" height="326.1"/>
			</defs>
			<clipPath id="SVGID_20_">
				<use xlink:href="#SVGID_19_"  style="overflow:visible;"/>
			</clipPath>
			<path class="st12" d="M345,61.5c-0.6,0.1-1.1-0.1-1.5-0.5c-0.8-0.8-0.7-2.1,0.1-2.8l0,0l28.8-28.5c0.8-0.8,2-0.9,2.9-0.1
				c0.7,0.8,0.7,2.1-0.1,2.8l0,0l-28.8,28.5C346,61.2,345.5,61.5,345,61.5z"/>
		</g>
	</g>
	<g>
		<g>
			<defs>
				<rect id="SVGID_21_" y="-22.1" width="482.1" height="326.1"/>
			</defs>
			<clipPath id="SVGID_22_">
				<use xlink:href="#SVGID_21_"  style="overflow:visible;"/>
			</clipPath>
			<path class="st13" d="M344.6,65.6h-0.2c-1,0-1.8-0.8-1.8-1.8c0-0.1,0-0.2,0-0.2l2.6-29.6c0.1-1.1,1.1-2,2.2-2
				c1,0,1.8,0.8,1.9,1.8c0,0.1,0,0.1,0,0.2l-2.6,29.6C346.6,64.7,345.7,65.5,344.6,65.6z"/>
		</g>
	</g>
	<g>
		<g>
			<defs>
				<rect id="SVGID_23_" y="-22.1" width="482.1" height="326.1"/>
			</defs>
			<clipPath id="SVGID_24_">
				<use xlink:href="#SVGID_23_"  style="overflow:visible;"/>
			</clipPath>
			<path class="st14" d="M382.3,59.1c-0.6,0.1-1.1-0.1-1.5-0.6l-15.5-16.1c-0.7-0.8-0.7-2.1,0.2-2.8l0,0c0.8-0.8,2.1-0.8,2.9-0.1
				l15.5,16.1c0.7,0.8,0.7,2.1-0.2,2.8l0,0C383.2,58.8,382.8,59,382.3,59.1z"/>
		</g>
	</g>
	<g>
		<g>
			<defs>
				<rect id="SVGID_25_" y="-22.1" width="482.1" height="326.1"/>
			</defs>
			<clipPath id="SVGID_26_">
				<use xlink:href="#SVGID_25_"  style="overflow:visible;"/>
			</clipPath>
			<path class="st15" d="M349.2,66.3L349.2,66.3l-9.4,0.8c-0.9,0.1-1.8-0.6-1.9-1.5c0-0.1,0-0.1,0-0.2c0-1,0.8-1.9,1.9-2l0,0
				l9.4-0.8c0.9-0.1,1.8,0.6,1.9,1.5c0,0.1,0,0.1,0,0.2C351.1,65.3,350.3,66.2,349.2,66.3z"/>
		</g>
	</g>
	<g>
		<g>
			<defs>
				<rect id="SVGID_27_" y="-22.1" width="482.1" height="326.1"/>
			</defs>
			<clipPath id="SVGID_28_">
				<use xlink:href="#SVGID_27_"  style="overflow:visible;"/>
			</clipPath>
			<path class="st16" d="M191.1,40.7l-55.9,4.9c-2.2,0.3-4.3-1.3-4.5-3.6c0-0.2,0-0.3,0-0.5c0.1-2.5,2-4.6,4.5-4.9l55.9-4.9
				c2.2-0.3,4.3,1.3,4.5,3.6c0,0.2,0,0.3,0,0.5C195.6,38.3,193.6,40.5,191.1,40.7z"/>
		</g>
	</g>
	<g>
		<g>
			<defs>
				<rect id="SVGID_29_" y="-22.1" width="482.1" height="326.1"/>
			</defs>
			<clipPath id="SVGID_30_">
				<use xlink:href="#SVGID_29_"  style="overflow:visible;"/>
			</clipPath>
			<path class="st17" d="M107.2,126h-0.4c-2.2,0.1-4.1-1.7-4.2-4c0-0.2,0-0.3,0-0.5l4.9-55.5c0.3-2.5,2.4-4.4,4.9-4.5
				c2.2-0.1,4.1,1.7,4.2,4c0,0.2,0,0.3,0,0.5l-4.9,55.5C111.5,123.9,109.6,125.8,107.2,126z"/>
		</g>
	</g>
	<g>
		<g>
			<defs>
				<rect id="SVGID_31_" y="-22.1" width="482.1" height="326.1"/>
			</defs>
			<clipPath id="SVGID_32_">
				<use xlink:href="#SVGID_31_"  style="overflow:visible;"/>
			</clipPath>
			<path class="st18" d="M137.2,104.6c-1.2,0.1-2.5-0.3-3.4-1.2c-1.7-1.8-1.6-4.6,0.2-6.3c0,0,0,0,0.1,0l20.2-20
				c1.7-1.8,4.6-2,6.4-0.3c1.7,1.8,1.6,4.6-0.2,6.3l0,0l-20.2,20C139.5,104,138.4,104.5,137.2,104.6z"/>
		</g>
	</g>
	<g>
		<g>
			<defs>
				<rect id="SVGID_33_" y="-22.1" width="482.1" height="326.1"/>
			</defs>
			<clipPath id="SVGID_34_">
				<use xlink:href="#SVGID_33_"  style="overflow:visible;"/>
			</clipPath>
			<path class="st19" d="M150.1,119.3c-1.2,0.1-2.5-0.3-3.4-1.2c-1.7-1.8-1.6-4.6,0.2-6.3l0,0L184,74.9c1.7-1.8,4.6-2,6.4-0.3
				c1.7,1.8,1.6,4.6-0.2,6.3l0,0l-37.1,36.9C152.4,118.7,151.3,119.2,150.1,119.3z"/>
		</g>
	</g>
	<g>
		<g>
			<defs>
				<rect id="SVGID_35_" y="-22.1" width="482.1" height="326.1"/>
			</defs>
			<clipPath id="SVGID_36_">
				<use xlink:href="#SVGID_35_"  style="overflow:visible;"/>
			</clipPath>
			<path class="st20" d="M186.4,119.1c-1.2,0.1-2.5-0.3-3.4-1.2l-16.3-16.2c-1.7-1.8-1.6-4.6,0.3-6.3l0,0c1.7-1.8,4.6-1.9,6.4-0.3
				l16.3,16.2c1.7,1.8,1.6,4.6-0.3,6.3l0,0C188.6,118.5,187.5,119,186.4,119.1z"/>
		</g>
	</g>
	<g>
		<g>
			<defs>
				<rect id="SVGID_37_" y="-22.1" width="482.1" height="326.1"/>
			</defs>
			<clipPath id="SVGID_38_">
				<use xlink:href="#SVGID_37_"  style="overflow:visible;"/>
			</clipPath>
			<path class="st21" d="M203.5,18.8l-21.1,1.8c-2.2,0.3-4.3-1.3-4.5-3.6c0-0.2,0-0.3,0-0.5c0.1-2.5,2-4.6,4.5-4.9l21.1-1.8
				c2.2-0.3,4.3,1.3,4.6,3.5c0,0.2,0,0.4,0,0.6C208,16.5,206.1,18.6,203.5,18.8z"/>
		</g>
	</g>
	<g>
		<g>
			<defs>
				<rect id="SVGID_39_" y="-22.1" width="482.1" height="326.1"/>
			</defs>
			<clipPath id="SVGID_40_">
				<use xlink:href="#SVGID_39_"  style="overflow:visible;"/>
			</clipPath>
			<path class="st22" d="M155.4,85.3l-22,1.9c-2.4,0.3-4.5-1.4-4.8-3.8c0-0.2,0-0.4,0-0.6c0.1-2.7,2.1-4.9,4.8-5.2l22-1.9
				c2.4-0.3,4.5,1.4,4.8,3.8c0,0.2,0,0.4,0,0.5C160.2,82.8,158.1,85.1,155.4,85.3z"/>
		</g>
	</g>
	<g>
		<g>
			<defs>
				<rect id="SVGID_41_" y="-22.1" width="482.1" height="326.1"/>
			</defs>
			<clipPath id="SVGID_42_">
				<use xlink:href="#SVGID_41_"  style="overflow:visible;"/>
			</clipPath>
			<path class="st23" d="M286,49.3l-55.9,4.9c-2.2,0.3-4.3-1.3-4.5-3.6c0-0.2,0-0.3,0-0.5c0.1-2.5,2-4.7,4.5-4.9l55.9-4.8
				c2.2-0.3,4.3,1.3,4.5,3.6c0,0.2,0,0.3,0,0.5C290.5,46.9,288.6,49,286,49.3z"/>
		</g>
	</g>
	<g>
		<g>
			<defs>
				<rect id="SVGID_43_" y="-22.1" width="482.1" height="326.1"/>
			</defs>
			<clipPath id="SVGID_44_">
				<use xlink:href="#SVGID_43_"  style="overflow:visible;"/>
			</clipPath>
			<path class="st24" d="M256.4,71.2H256c-2.2,0.1-4.1-1.7-4.2-4c0-0.2,0-0.4,0-0.5l4.9-55.5c0.3-2.5,2.4-4.5,4.9-4.5
				c2.2,0,4.1,1.7,4.2,4c0,0.2,0,0.3,0,0.5l-4.9,55.5C260.6,69.1,258.7,71,256.4,71.2z"/>
		</g>
	</g>
	<g>
		<g>
			<defs>
				<rect id="SVGID_45_" y="-22.1" width="482.1" height="326.1"/>
			</defs>
			<clipPath id="SVGID_46_">
				<use xlink:href="#SVGID_45_"  style="overflow:visible;"/>
			</clipPath>
			<path class="st25" d="M213.2,115.4c-1.2,0.1-2.5-0.3-3.4-1.2c-1.7-1.8-1.6-4.6,0.2-6.3c0,0,0,0,0.1,0l43-42.7
				c1.7-1.8,4.6-2,6.4-0.3c1.7,1.8,1.6,4.6-0.2,6.3l0,0l-43,42.7C215.4,114.8,214.3,115.3,213.2,115.4z"/>
		</g>
	</g>
	<g>
		<g>
			<defs>
				<rect id="SVGID_47_" y="-22.1" width="482.1" height="326.1"/>
			</defs>
			<clipPath id="SVGID_48_">
				<use xlink:href="#SVGID_47_"  style="overflow:visible;"/>
			</clipPath>
			<path class="st26" d="M292.3,109.4c-1.2,0.1-2.5-0.3-3.4-1.2L272.6,92c-1.7-1.8-1.6-4.6,0.2-6.3c0,0,0,0,0.1,0
				c1.7-1.8,4.6-1.9,6.4-0.3l16.3,16.2c1.7,1.8,1.6,4.6-0.2,6.3c0,0,0,0-0.1,0C294.5,108.7,293.5,109.3,292.3,109.4z"/>
		</g>
	</g>
	<g>
		<g>
			<defs>
				<rect id="SVGID_49_" y="-22.1" width="482.1" height="326.1"/>
			</defs>
			<clipPath id="SVGID_50_">
				<use xlink:href="#SVGID_49_"  style="overflow:visible;"/>
			</clipPath>
			<path class="st27" d="M372.3,105l-78.8,6.8c-2.5,0.3-4.8-1.5-5-4c0-0.2,0-0.4,0-0.5c0.1-2.8,2.2-5.2,5.1-5.4l78.8-6.8
				c2.5-0.3,4.7,1.5,5,4c0,0.2,0,0.4,0,0.6C377.3,102.4,375.1,104.7,372.3,105z"/>
		</g>
	</g>
	<g>
		<g>
			<defs>
				<rect id="SVGID_51_" y="-22.1" width="482.1" height="326.1"/>
			</defs>
			<clipPath id="SVGID_52_">
				<use xlink:href="#SVGID_51_"  style="overflow:visible;"/>
			</clipPath>
			<path class="st28" d="M360.8,171.4l-21.1,1.8c-2.4,0.3-4.5-1.4-4.8-3.8c0-0.2,0-0.4,0-0.5c0.1-2.7,2.1-4.9,4.8-5.2l21-1.8
				c2.4-0.3,4.5,1.4,4.8,3.8c0,0.2,0,0.4,0,0.5C365.6,168.9,363.5,171.1,360.8,171.4z"/>
		</g>
	</g>
	<g>
		<g>
			<defs>
				<rect id="SVGID_53_" y="-22.1" width="482.1" height="326.1"/>
			</defs>
			<clipPath id="SVGID_54_">
				<use xlink:href="#SVGID_53_"  style="overflow:visible;"/>
			</clipPath>
			<path class="st29" d="M356.5,223.2h-0.4c-2.2,0.1-4.1-1.7-4.2-4c0-0.2,0-0.3,0-0.5l2.8-32c0.3-2.5,2.4-4.5,4.9-4.5
				c2.2,0,4.1,1.7,4.2,4c0,0.2,0,0.3,0,0.5l-2.8,32C360.8,221.1,358.9,223,356.5,223.2z"/>
		</g>
	</g>
	<g>
		<g>
			<defs>
				<rect id="SVGID_55_" y="-22.1" width="482.1" height="326.1"/>
			</defs>
			<clipPath id="SVGID_56_">
				<use xlink:href="#SVGID_55_"  style="overflow:visible;"/>
			</clipPath>
			<path class="st30" d="M309.1,249.3c-1.2,0.1-2.5-0.3-3.4-1.2l-13.6-13.5c-1.7-1.8-1.6-4.6,0.3-6.3l0,0c1.7-1.8,4.6-1.9,6.4-0.3
				l13.6,13.5c1.7,1.8,1.6,4.6-0.3,6.3l0,0C311.3,248.7,310.3,249.2,309.1,249.3z"/>
		</g>
	</g>
	<g>
		<g>
			<defs>
				<rect id="SVGID_57_" y="-22.1" width="482.1" height="326.1"/>
			</defs>
			<clipPath id="SVGID_58_">
				<use xlink:href="#SVGID_57_"  style="overflow:visible;"/>
			</clipPath>
			<path class="st31" d="M320.8,174.6l-21.1,1.8c-2.2,0.3-4.3-1.3-4.5-3.6c0-0.2,0-0.3,0-0.5c0.1-2.5,2-4.6,4.5-4.9l21.1-1.8
				c2.2-0.3,4.3,1.3,4.5,3.6c0,0.2,0,0.3,0,0.5C325.3,172.2,323.3,174.3,320.8,174.6z"/>
		</g>
	</g>
	<g>
		<g>
			<defs>
				<rect id="SVGID_59_" y="-22.1" width="482.1" height="326.1"/>
			</defs>
			<clipPath id="SVGID_60_">
				<use xlink:href="#SVGID_59_"  style="overflow:visible;"/>
			</clipPath>
			<path class="st32" d="M321,193.5l-21.1,1.8c-2.2,0.3-4.3-1.3-4.5-3.6c0-0.2,0-0.3,0-0.5c0.1-2.5,2-4.6,4.5-4.9l21.1-1.8
				c2.2-0.3,4.3,1.3,4.5,3.6c0,0.2,0,0.3,0,0.5C325.4,191.1,323.5,193.3,321,193.5z"/>
		</g>
	</g>
	<g>
		<g>
			<defs>
				<rect id="SVGID_61_" y="-22.1" width="482.1" height="326.1"/>
			</defs>
			<clipPath id="SVGID_62_">
				<use xlink:href="#SVGID_61_"  style="overflow:visible;"/>
			</clipPath>
			<path class="st33" d="M319.1,211.1l-21.1,1.8c-2.2,0.3-4.3-1.3-4.5-3.6c0-0.2,0-0.3,0-0.5c0.1-2.5,2-4.6,4.5-4.9l21.1-1.8
				c2.2-0.3,4.3,1.3,4.5,3.6c0,0.2,0,0.3,0,0.5C323.6,208.8,321.6,210.9,319.1,211.1z"/>
		</g>
	</g>
	<g>
		<g>
			<defs>
				<rect id="SVGID_63_" y="-22.1" width="482.1" height="326.1"/>
			</defs>
			<clipPath id="SVGID_64_">
				<use xlink:href="#SVGID_63_"  style="overflow:visible;"/>
			</clipPath>
			<path class="st34" d="M301.4,149.5H301c-2.2,0.1-4.1-1.7-4.2-4c0-0.2,0-0.3,0-0.5l1.6-18.4c0.3-2.5,2.4-4.5,4.9-4.5
				c2.2-0.1,4.1,1.7,4.2,4c0,0.2,0,0.4,0,0.5L306,145C305.7,147.4,303.8,149.3,301.4,149.5z"/>
		</g>
	</g>
	<g>
		<g>
			<defs>
				<rect id="SVGID_65_" y="-22.1" width="482.1" height="326.1"/>
			</defs>
			<clipPath id="SVGID_66_">
				<use xlink:href="#SVGID_65_"  style="overflow:visible;"/>
			</clipPath>
			<path class="st35" d="M341,146.1h-0.4c-2.2,0.1-4.1-1.7-4.2-4c0-0.2,0-0.3,0-0.5l1.6-18.4c0.3-2.5,2.4-4.5,4.9-4.5
				c2.2-0.1,4.1,1.7,4.2,4c0,0.2,0,0.3,0,0.5l-1.6,18.4C345.3,144,343.4,145.9,341,146.1z"/>
		</g>
	</g>
	<g>
		<g>
			<defs>
				<rect id="SVGID_67_" y="-22.1" width="482.1" height="326.1"/>
			</defs>
			<clipPath id="SVGID_68_">
				<use xlink:href="#SVGID_67_"  style="overflow:visible;"/>
			</clipPath>
			<path class="st36" d="M325.2,147.5l-23.2,2c-2.4,0.3-4.5-1.4-4.8-3.8c0-0.2,0-0.4,0-0.6c0.1-2.7,2.1-4.9,4.8-5.2l23.2-2
				c2.4-0.3,4.5,1.4,4.8,3.8c0,0.2,0,0.4,0,0.6C330,145.1,327.9,147.3,325.2,147.5z"/>
		</g>
	</g>
	<g>
		<g>
			<defs>
				<rect id="SVGID_69_" y="-22.1" width="482.1" height="326.1"/>
			</defs>
			<clipPath id="SVGID_70_">
				<use xlink:href="#SVGID_69_"  style="overflow:visible;"/>
			</clipPath>
			<path class="st37" d="M364.7,144.1l-23.2,2c-2.4,0.3-4.5-1.4-4.8-3.8c0-0.2,0-0.4,0-0.5c0.1-2.7,2.1-4.9,4.8-5.2l23.2-2
				c2.4-0.3,4.5,1.4,4.8,3.8c0,0.2,0,0.4,0,0.6C369.5,141.6,367.4,143.9,364.7,144.1z"/>
		</g>
	</g>
	<g>
		<g>
			<defs>
				<rect id="SVGID_71_" y="-22.1" width="482.1" height="326.1"/>
			</defs>
			<clipPath id="SVGID_72_">
				<use xlink:href="#SVGID_71_"  style="overflow:visible;"/>
			</clipPath>
			<path class="st38" d="M315.2,157.5h-0.4c-2.4,0.1-4.4-1.8-4.4-4.2c0-0.2,0-0.4,0-0.5l0.8-9c0.3-2.7,2.5-4.7,5.2-4.8
				c2.4-0.1,4.4,1.8,4.4,4.2c0,0.2,0,0.4,0,0.6l-0.8,9C319.8,155.3,317.8,157.3,315.2,157.5z"/>
		</g>
	</g>
	<g>
		<g>
			<defs>
				<rect id="SVGID_73_" y="-22.1" width="482.1" height="326.1"/>
			</defs>
			<clipPath id="SVGID_74_">
				<use xlink:href="#SVGID_73_"  style="overflow:visible;"/>
			</clipPath>
			<path class="st39" d="M355.6,154h-0.4c-2.4,0.1-4.4-1.8-4.4-4.2c0-0.2,0-0.4,0-0.5l0.8-9c0.3-2.7,2.5-4.7,5.2-4.8
				c2.4-0.1,4.4,1.8,4.4,4.2c0,0.2,0,0.4,0,0.5l-0.8,9C360.2,151.8,358.2,153.8,355.6,154z"/>
		</g>
	</g>
	<g>
		<g>
			<defs>
				<rect id="SVGID_75_" y="-22.1" width="482.1" height="326.1"/>
			</defs>
			<clipPath id="SVGID_76_">
				<use xlink:href="#SVGID_75_"  style="overflow:visible;"/>
			</clipPath>
			<path class="st40" d="M329.6,294.5h-0.5c-2.5,0.1-4.6-1.9-4.6-4.4c0-0.2,0-0.4,0-0.6l10.4-119.2c0.3-2.8,2.7-5,5.5-5
				c2.5-0.1,4.6,1.9,4.6,4.4c0,0.2,0,0.4,0,0.6l-10.4,119.2C334.3,292.1,332.2,294.2,329.6,294.5z"/>
		</g>
	</g>
	<g>
		<g>
			<defs>
				<rect id="SVGID_77_" y="-22.1" width="482.1" height="326.1"/>
			</defs>
			<clipPath id="SVGID_78_">
				<use xlink:href="#SVGID_77_"  style="overflow:visible;"/>
			</clipPath>
			<path class="st41" d="M294.4,234.4H294c-2,0-3.7-1.6-3.8-3.6c0-0.2,0-0.3,0-0.5l5.1-58.4c0.2-2.3,2.2-4,4.5-4.1
				c2-0.1,3.7,1.6,3.8,3.6c0,0.2,0,0.3,0,0.5l-5.1,58.4C298.3,232.5,296.6,234.2,294.4,234.4z"/>
		</g>
	</g>
	<g>
		<g>
			<defs>
				<rect id="SVGID_79_" y="-22.1" width="482.1" height="326.1"/>
			</defs>
			<clipPath id="SVGID_80_">
				<use xlink:href="#SVGID_79_"  style="overflow:visible;"/>
			</clipPath>
			<path class="st42" d="M224.6,252.4h-0.4c-2.2,0-4.1-1.8-4.1-4c0-0.2,0-0.4,0-0.5l2.2-25.1c0.3-2.5,2.4-4.4,4.9-4.5
				c2.2-0.1,4.1,1.7,4.2,4c0,0.2,0,0.3,0,0.5l-2.3,25.1C228.9,250.3,227,252.2,224.6,252.4z"/>
		</g>
	</g>
	<g>
		<g>
			<defs>
				<rect id="SVGID_81_" y="-22.1" width="482.1" height="326.1"/>
			</defs>
			<clipPath id="SVGID_82_">
				<use xlink:href="#SVGID_81_"  style="overflow:visible;"/>
			</clipPath>
			<path class="st43" d="M260.2,151.6l-55.9,4.9c-2.2,0.3-4.3-1.3-4.5-3.6c0-0.2,0-0.3,0-0.5c0.1-2.5,2-4.6,4.5-4.9l55.9-4.9
				c2.2-0.3,4.3,1.3,4.5,3.6c0,0.2,0,0.3,0,0.5C264.7,149.3,262.7,151.4,260.2,151.6z"/>
		</g>
	</g>
	<g>
		<g>
			<defs>
				<rect id="SVGID_83_" y="-22.1" width="482.1" height="326.1"/>
			</defs>
			<clipPath id="SVGID_84_">
				<use xlink:href="#SVGID_83_"  style="overflow:visible;"/>
			</clipPath>
			<path class="st44" d="M232.2,154.1h-0.4c-2.2,0.1-4.1-1.7-4.2-4c0-0.2,0-0.3,0-0.5l1.6-18.4c0.3-2.5,2.4-4.4,4.9-4.5
				c2.2-0.1,4.1,1.7,4.2,4c0,0.2,0,0.3,0,0.5l-1.6,18.4C236.5,151.9,234.6,153.8,232.2,154.1z"/>
		</g>
	</g>
	<g>
		<g>
			<defs>
				<rect id="SVGID_85_" y="-22.1" width="482.1" height="326.1"/>
			</defs>
			<clipPath id="SVGID_86_">
				<use xlink:href="#SVGID_85_"  style="overflow:visible;"/>
			</clipPath>
			<path class="st45" d="M266.6,221.3l-79.2,6.9c-2.2,0.3-4.3-1.3-4.5-3.6c0-0.2,0-0.3,0-0.5c0.1-2.5,2-4.6,4.5-4.9l79.2-6.9
				c2.2-0.3,4.3,1.3,4.5,3.6c0,0.2,0,0.3,0,0.5C271.1,219,269.2,221.1,266.6,221.3z"/>
		</g>
	</g>
	<g>
		<g>
			<defs>
				<rect id="SVGID_87_" y="-22.1" width="482.1" height="326.1"/>
			</defs>
			<clipPath id="SVGID_88_">
				<use xlink:href="#SVGID_87_"  style="overflow:visible;"/>
			</clipPath>
			<path class="st46" d="M244.4,204.9l-43.7,3.8c-2.4,0.3-4.5-1.4-4.8-3.8c0-0.2,0-0.4,0-0.5c0.1-2.7,2.1-4.9,4.8-5.2l43.7-3.8
				c5.7-0.7,10.2-5.2,10.9-10.9l0.3-3c0.3-2.3-0.5-4.6-2.1-6.3c-1.7-1.6-4-2.3-6.3-2.1l-43.7,3.7c-2.4,0.3-4.5-1.4-4.8-3.8
				c0-0.2,0-0.4,0-0.5c0.1-2.7,2.1-4.9,4.8-5.2l43.7-3.8c4.9-0.6,9.8,1.1,13.4,4.5c3.5,3.5,5.2,8.4,4.6,13.3l-0.3,3
				C264,194.8,254.8,203.9,244.4,204.9z"/>
		</g>
	</g>
	<g>
		<g>
			<defs>
				<rect id="SVGID_89_" y="-22.1" width="482.1" height="326.1"/>
			</defs>
			<clipPath id="SVGID_90_">
				<use xlink:href="#SVGID_89_"  style="overflow:visible;"/>
			</clipPath>
			<path class="st47" d="M242.7,189.3l-40.5,3.5c-2.4,0.3-4.5-1.4-4.8-3.8c0-0.2,0-0.4,0-0.5c0.1-2.7,2.1-4.9,4.8-5.2l40.5-3.5
				c2.4-0.3,4.5,1.4,4.8,3.8c0,0.2,0,0.4,0,0.5C247.5,186.8,245.4,189,242.7,189.3z"/>
		</g>
	</g>
	<g>
		<g>
			<defs>
				<rect id="SVGID_91_" y="-22.1" width="482.1" height="326.1"/>
			</defs>
			<clipPath id="SVGID_92_">
				<use xlink:href="#SVGID_91_"  style="overflow:visible;"/>
			</clipPath>
			<path class="st48" d="M167.7,229l-79.2,6.9c-2.2,0.3-4.3-1.3-4.5-3.6c0-0.2,0-0.3,0-0.5c0.1-2.5,2-4.6,4.5-4.9l79.2-6.9
				c2.2-0.3,4.3,1.3,4.5,3.6c0,0.2,0,0.3,0,0.5C172.2,226.7,170.2,228.7,167.7,229z"/>
		</g>
	</g>
	<g>
		<g>
			<defs>
				<rect id="SVGID_93_" y="-22.1" width="482.1" height="326.1"/>
			</defs>
			<clipPath id="SVGID_94_">
				<use xlink:href="#SVGID_93_"  style="overflow:visible;"/>
			</clipPath>
			<path class="st49" d="M125.7,260.1h-0.4c-2.2,0-4.1-1.7-4.2-4c0-0.2,0-0.3,0-0.5l2.2-25.1c0.3-2.5,2.4-4.4,4.9-4.5
				c2.2-0.1,4.1,1.7,4.2,4c0,0.2,0,0.3,0,0.5l-2.2,25.1C129.9,258,128,259.9,125.7,260.1z"/>
		</g>
	</g>
	<g>
		<g>
			<defs>
				<rect id="SVGID_95_" y="-22.1" width="482.1" height="326.1"/>
			</defs>
			<clipPath id="SVGID_96_">
				<use xlink:href="#SVGID_95_"  style="overflow:visible;"/>
			</clipPath>
			<path class="st50" d="M153.8,135.8c-8.2,0.8-14.6,7.6-14.8,15.9c-0.1,7.3,5.8,13.3,13.1,13.4c0.6,0,1.1,0,1.7-0.1
				c8.2-0.8,14.6-7.6,14.8-15.8c0.1-7.3-5.8-13.3-13.1-13.4C154.9,135.7,154.3,135.7,153.8,135.8z M153.8,156.6
				c-3.1,0.4-5.9-1.9-6.3-5c0-0.2,0-0.5,0-0.7c0.1-3.5,2.8-6.4,6.3-6.7c3.1-0.4,5.9,1.8,6.3,4.9c0,0.2,0,0.5,0,0.7
				C160,153.3,157.3,156.2,153.8,156.6L153.8,156.6z"/>
		</g>
	</g>
	<g>
		<g>
			<defs>
				<rect id="SVGID_97_" y="-22.1" width="482.1" height="326.1"/>
			</defs>
			<clipPath id="SVGID_98_">
				<use xlink:href="#SVGID_97_"  style="overflow:visible;"/>
			</clipPath>
			<path class="st51" d="M114.5,139.2c-8.2,0.8-14.6,7.6-14.8,15.9c-0.1,7.3,5.8,13.3,13.1,13.4c0.6,0,1.1,0,1.7-0.1
				c8.2-0.8,14.6-7.6,14.8-15.8c0.1-7.3-5.8-13.3-13.1-13.4C115.6,139.1,115,139.1,114.5,139.2z M114.9,159.4
				c-2.8,0.3-5.4-1.7-5.8-4.5c0-0.2,0-0.4,0-0.7c0.1-3.2,2.6-5.9,5.8-6.2c2.8-0.3,5.4,1.7,5.7,4.5c0,0.2,0,0.4,0,0.6
				C120.6,156.5,118.1,159.1,114.9,159.4z"/>
		</g>
	</g>
	<g>
		<g>
			<defs>
				<rect id="SVGID_99_" y="-22.1" width="482.1" height="326.1"/>
			</defs>
			<clipPath id="SVGID_100_">
				<use xlink:href="#SVGID_99_"  style="overflow:visible;"/>
			</clipPath>
			<path class="st52" d="M144.9,213.5l-43.7,3.8c-2.4,0.3-4.5-1.4-4.8-3.8c0-0.2,0-0.4,0-0.5c0.1-2.7,2.1-4.9,4.8-5.2l43.7-3.8
				c5.7-0.7,10.2-5.2,10.9-10.9l0.3-3c0.3-2.3-0.5-4.6-2.1-6.3c-1.7-1.6-4-2.3-6.3-2.1l-43.7,3.8c-2.4,0.3-4.5-1.4-4.8-3.8
				c0-0.2,0-0.4,0-0.5c0.1-2.7,2.1-4.9,4.8-5.2l43.7-3.8c4.9-0.6,9.8,1.1,13.4,4.5c3.5,3.5,5.2,8.4,4.6,13.3l-0.3,3
				C164.5,203.5,155.3,212.6,144.9,213.5z"/>
		</g>
	</g>
	<g>
		<g>
			<defs>
				<rect id="SVGID_101_" y="-22.1" width="482.1" height="326.1"/>
			</defs>
			<clipPath id="SVGID_102_">
				<use xlink:href="#SVGID_101_"  style="overflow:visible;"/>
			</clipPath>
			<path class="st53" d="M143.2,197.9l-40.5,3.5c-2.4,0.3-4.5-1.4-4.8-3.8c0-0.2,0-0.4,0-0.5c0.1-2.7,2.1-4.9,4.8-5.2l40.5-3.5
				c2.4-0.3,4.5,1.4,4.8,3.8c0,0.2,0,0.4,0,0.5C148,195.4,145.9,197.7,143.2,197.9z"/>
		</g>
	</g>
	<g>
		<g>
			<defs>
				<rect id="SVGID_103_" y="-22.1" width="482.1" height="326.1"/>
			</defs>
			<clipPath id="SVGID_104_">
				<use xlink:href="#SVGID_103_"  style="overflow:visible;"/>
			</clipPath>
			<path class="st54" d="M185.7,27.6l-55.9,4.9c-2.5,0.2-4.5,2.3-4.5,4.9c0,2.2,1.8,4.1,4,4.1c0.2,0,0.3,0,0.5,0l55.9-4.8
				c2.5-0.2,4.5-2.3,4.5-4.9c0-2.3-1.8-4.1-4.1-4.1C186,27.6,185.8,27.6,185.7,27.6z"/>
		</g>
	</g>
	<g>
		<g>
			<defs>
				<rect id="SVGID_105_" y="-22.1" width="482.1" height="326.1"/>
			</defs>
			<clipPath id="SVGID_106_">
				<use xlink:href="#SVGID_105_"  style="overflow:visible;"/>
			</clipPath>
			<path class="st55" d="M107,57.4c-2.5,0.1-4.6,2-4.9,4.5l-4.9,55.5c-0.2,2.2,1.4,4.2,3.6,4.5c0.2,0,0.3,0,0.5,0h0.4
				c2.4-0.2,4.3-2.1,4.5-4.5l4.8-55.5c0.2-2.2-1.4-4.2-3.6-4.5C107.3,57.4,107.2,57.4,107,57.4z"/>
		</g>
	</g>
	<g>
		<g>
			<defs>
				<rect id="SVGID_107_" y="-22.1" width="482.1" height="326.1"/>
			</defs>
			<clipPath id="SVGID_108_">
				<use xlink:href="#SVGID_107_"  style="overflow:visible;"/>
			</clipPath>
			<path class="st56" d="M155.3,72.7c-1.2-1.1-2.9-1.5-4.4-0.9c-0.3,0-0.7,0-1,0l-22,1.9c-2.7,0.3-4.8,2.5-4.8,5.2
				c0,2.4,1.9,4.3,4.3,4.4c0.2,0,0.4,0,0.5,0l11.7-1l-11,10.9c-1.8,1.7-2,4.5-0.3,6.3l0,0c0.9,0.9,2.1,1.3,3.4,1.2
				c1.2-0.1,2.2-0.6,3.1-1.4L155,79.1C156.8,77.4,157,74.6,155.3,72.7C155.4,72.7,155.3,72.7,155.3,72.7z"/>
		</g>
	</g>
	<g>
		<g>
			<defs>
				<rect id="SVGID_109_" y="-22.1" width="482.1" height="326.1"/>
			</defs>
			<clipPath id="SVGID_110_">
				<use xlink:href="#SVGID_109_"  style="overflow:visible;"/>
			</clipPath>
			<path class="st57" d="M185.1,70.6c-1.9-1.7-4.7-1.5-6.4,0.3l-37.1,36.9c-1.8,1.7-2,4.5-0.3,6.3l0,0c0.9,0.9,2.1,1.3,3.4,1.1
				c1.2-0.1,2.3-0.6,3.1-1.4L162.6,99l15,14.8c0.9,0.9,2.1,1.3,3.4,1.2c1.2-0.1,2.2-0.6,3.1-1.4c1.8-1.7,2-4.5,0.3-6.3l0,0l-15-14.8
				L185,77C186.7,75.3,186.9,72.4,185.1,70.6C185.2,70.6,185.2,70.6,185.1,70.6z"/>
		</g>
	</g>
	<g>
		<g>
			<defs>
				<rect id="SVGID_111_" y="-22.1" width="482.1" height="326.1"/>
			</defs>
			<clipPath id="SVGID_112_">
				<use xlink:href="#SVGID_111_"  style="overflow:visible;"/>
			</clipPath>
			<path class="st58" d="M198.1,5.8L177,7.6c-2.5,0.2-4.5,2.3-4.5,4.9c0,2.3,1.8,4.1,4,4.1c0.2,0,0.3,0,0.5,0l21.1-1.8
				c2.5-0.2,4.5-2.3,4.5-4.9c0-2.2-1.8-4.1-4-4.1C198.4,5.7,198.3,5.7,198.1,5.8z"/>
		</g>
	</g>
	<g>
		<g>
			<defs>
				<rect id="SVGID_113_" y="-22.1" width="482.1" height="326.1"/>
			</defs>
			<clipPath id="SVGID_114_">
				<use xlink:href="#SVGID_113_"  style="overflow:visible;"/>
			</clipPath>
			<g class="st59">
				<path class="st60" d="M255.7,47.3l23.8-2.1c2.5-0.2,4.5-2.3,4.6-4.9c0-2.2-1.8-4.1-4-4.1c-0.2,0-0.3,0-0.5,0l-23,2l2.7-31
					c0.3-2.2-1.3-4.3-3.6-4.5c-0.2,0-0.4,0-0.6,0c-2.5,0-4.7,2-4.9,4.5L247.4,39l-23.8,2.1c-2.5,0.3-4.4,2.3-4.5,4.9
					c0,2.2,1.8,4.1,4,4.1c0.2,0,0.3,0,0.5,0l23-2l-1.2,14.3l-41.8,41.4c-1.8,1.7-2,4.5-0.3,6.3l0,0c0.9,0.9,2.1,1.3,3.4,1.2
					c1.2-0.1,2.3-0.6,3.1-1.4l43-42.7c1-1,1.5-2.3,1.4-3.7c0.1-0.3,0.1-0.5,0.1-0.8L255.7,47.3z"/>
			</g>
		</g>
	</g>
	<g>
		<g>
			<defs>
				<rect id="SVGID_115_" y="-22.1" width="482.1" height="326.1"/>
			</defs>
			<clipPath id="SVGID_116_">
				<use xlink:href="#SVGID_115_"  style="overflow:visible;"/>
			</clipPath>
			<path class="st61" d="M356.4,158.5l-21,1.8c-2.7,0.3-4.8,2.5-4.8,5.2c0,0.3,0,0.7,0.1,1c0,0.1-0.1,0.3-0.1,0.4l-10.4,119.2
				c-0.3,2.5,1.5,4.7,4,5c0.2,0,0.4,0,0.6,0h0.5c2.6-0.3,4.7-2.4,5-5l10.2-116.7l16-1.4c2.7-0.3,4.8-2.5,4.8-5.2
				c0-2.4-1.9-4.3-4.3-4.4C356.8,158.5,356.6,158.5,356.4,158.5z"/>
		</g>
	</g>
	<g>
		<g>
			<defs>
				<rect id="SVGID_117_" y="-22.1" width="482.1" height="326.1"/>
			</defs>
			<clipPath id="SVGID_118_">
				<use xlink:href="#SVGID_117_"  style="overflow:visible;"/>
			</clipPath>
			<path class="st62" d="M355.3,178.9c-2.5,0-4.7,2-4.9,4.5l-2.8,32c-0.2,2.2,1.4,4.2,3.6,4.5c0.2,0,0.3,0,0.5,0h0.4
				c2.4-0.2,4.3-2.1,4.5-4.5l2.8-32c0.2-2.2-1.4-4.2-3.6-4.5C355.6,178.9,355.4,178.9,355.3,178.9z"/>
		</g>
	</g>
	<g>
		<g>
			<defs>
				<rect id="SVGID_119_" y="-22.1" width="482.1" height="326.1"/>
			</defs>
			<clipPath id="SVGID_120_">
				<use xlink:href="#SVGID_119_"  style="overflow:visible;"/>
			</clipPath>
			<path class="st63" d="M316.5,190.1c2.5-0.2,4.5-2.3,4.5-4.9c0-2.3-1.8-4.1-4.1-4.1c-0.2,0-0.3,0-0.5,0l-18.6,1.6l0.9-10.1
				l17.5-1.5c2.5-0.2,4.5-2.3,4.5-4.9c0-2.3-1.8-4.1-4.1-4.1c-0.2,0-0.3,0-0.5,0l-21.1,1.8c-2.5,0.2-4.5,2.3-4.5,4.9
				c0,0.4,0.1,0.8,0.2,1.1l-5,56.9c-0.1,1,0.2,2,0.9,2.7c0.2,0.6,0.5,1.1,1,1.6l13.6,13.5c0.9,0.9,2.1,1.3,3.4,1.2
				c1.2-0.1,2.2-0.6,3.1-1.4c1.8-1.6,2-4.5,0.3-6.3c0,0,0,0,0-0.1l-13.6-13.5l-0.1-0.1l1.3-15.1l19.1-1.7c2.5-0.2,4.5-2.3,4.5-4.9
				c0-2.3-1.8-4.1-4.1-4.1c-0.2,0-0.3,0-0.5,0l-18.3,1.6l0.8-8.6L316.5,190.1z"/>
		</g>
	</g>
	<g>
		<g>
			<defs>
				<rect id="SVGID_121_" y="-22.1" width="482.1" height="326.1"/>
			</defs>
			<clipPath id="SVGID_122_">
				<use xlink:href="#SVGID_121_"  style="overflow:visible;"/>
			</clipPath>
			<path class="st64" d="M296.6,146.2L296.6,146.2c0.3,0,0.7,0,1,0l8.7-0.8l-0.4,4c-0.2,2.4,1.5,4.5,3.8,4.7c0.2,0,0.4,0,0.6,0h0.4
				c2.5-0.2,4.5-2.2,4.8-4.8l0.4-4.8l4.8-0.4c2.7-0.3,4.8-2.5,4.8-5.2c0-2.4-1.9-4.3-4.3-4.4c-0.2,0-0.4,0-0.6,0l-18.8,1.6l1.1-13
				c0.2-2.2-1.4-4.2-3.6-4.5c-0.2,0-0.3,0-0.5,0c-2.5,0-4.7,2-4.9,4.5l-1.6,18.4c-0.2,2.2,1.4,4.2,3.6,4.5
				C296.2,146.2,296.4,146.2,296.6,146.2z"/>
		</g>
	</g>
	<g>
		<g>
			<defs>
				<rect id="SVGID_123_" y="-22.1" width="482.1" height="326.1"/>
			</defs>
			<clipPath id="SVGID_124_">
				<use xlink:href="#SVGID_123_"  style="overflow:visible;"/>
			</clipPath>
			<path class="st65" d="M360.3,131.3l-18.7,1.6l1.1-13c0.2-2.2-1.4-4.2-3.6-4.5c-0.2,0-0.3,0-0.5,0c-2.5,0-4.7,2-4.9,4.5l-1.6,18.3
				c-0.3,2.2,1.3,4.2,3.5,4.4c0.1,0,0.2,0,0.3,0c0.4,0.1,0.8,0.1,1.2,0.1l9.6-0.8l-0.4,4c-0.2,2.4,1.5,4.5,3.8,4.7
				c0.2,0,0.4,0,0.6,0h0.4c2.5-0.3,4.5-2.2,4.8-4.8l0.4-4.8l3.8-0.3c2.7-0.3,4.8-2.5,4.8-5.2c0-2.4-1.9-4.4-4.3-4.4
				C360.7,131.2,360.5,131.2,360.3,131.3z"/>
		</g>
	</g>
	<g>
		<g>
			<defs>
				<rect id="SVGID_125_" y="-22.1" width="482.1" height="326.1"/>
			</defs>
			<clipPath id="SVGID_126_">
				<use xlink:href="#SVGID_125_"  style="overflow:visible;"/>
			</clipPath>
			<path class="st66" d="M198.8,153.7l27.9-2.4h0.1l27.9-2.4c2.5-0.2,4.5-2.3,4.5-4.9c0-2.3-1.8-4.1-4.1-4.1c-0.2,0-0.3,0-0.5,0
				l-23,2l1.2-13.4c0.2-2.2-1.4-4.2-3.6-4.5c-0.2,0-0.4,0-0.5,0c-2.5,0.1-4.6,2-4.9,4.5l-1.2,14.2l-23.8,2.1
				c-2.5,0.2-4.5,2.3-4.5,4.9c0,2.2,1.8,4.1,4,4.1C198.5,153.7,198.7,153.7,198.8,153.7z"/>
		</g>
	</g>
	<g>
		<g>
			<defs>
				<rect id="SVGID_127_" y="-22.1" width="482.1" height="326.1"/>
			</defs>
			<clipPath id="SVGID_128_">
				<use xlink:href="#SVGID_127_"  style="overflow:visible;"/>
			</clipPath>
			<path class="st67" d="M261.2,209.5l-79.2,6.9c-2.5,0.2-4.5,2.3-4.5,4.9c0,2.2,1.8,4.1,4,4.1c0.2,0,0.3,0,0.5,0l34.6-3l-2,22.8
				c-0.2,2.2,1.4,4.2,3.6,4.5c0.2,0,0.4,0,0.5,0h0.4c2.4-0.2,4.3-2.1,4.5-4.5l2.1-23.6l35.4-3.1c2.5-0.2,4.5-2.3,4.5-4.9
				c0-2.3-1.8-4.1-4-4.1C261.5,209.5,261.4,209.5,261.2,209.5z"/>
		</g>
	</g>
	<g>
		<g>
			<defs>
				<rect id="SVGID_129_" y="-22.1" width="482.1" height="326.1"/>
			</defs>
			<clipPath id="SVGID_130_">
				<use xlink:href="#SVGID_129_"  style="overflow:visible;"/>
			</clipPath>
			<path class="st68" d="M195.3,205.8L239,202c10.4-0.9,19.6-10,20.5-20.4l0.3-3c0.6-4.9-1.1-9.8-4.6-13.3
				c-3.6-3.4-8.5-5.1-13.4-4.5l-43.6,3.8c-2.7,0.3-4.7,2.5-4.8,5.2c0,2.4,1.9,4.3,4.3,4.4c0.2,0,0.4,0,0.5,0l43.7-3.8
				c2.3-0.3,4.6,0.5,6.3,2.1c1.6,1.7,2.4,4,2.1,6.3l-0.3,3c-0.7,5.7-5.2,10.1-10.9,10.9l-43.7,3.8c-2.7,0.3-4.7,2.5-4.8,5.2
				c0,2.4,1.8,4.3,4.2,4.4C194.9,205.9,195.1,205.9,195.3,205.8z"/>
		</g>
	</g>
	<g>
		<g>
			<defs>
				<rect id="SVGID_131_" y="-22.1" width="482.1" height="326.1"/>
			</defs>
			<clipPath id="SVGID_132_">
				<use xlink:href="#SVGID_131_"  style="overflow:visible;"/>
			</clipPath>
			<path class="st69" d="M237.3,186.5c2.7-0.2,4.8-2.5,4.8-5.2c0-2.4-1.9-4.3-4.3-4.4c-0.2,0-0.4,0-0.5,0l-40.5,3.5
				c-2.7,0.3-4.7,2.5-4.8,5.2c0,2.4,1.9,4.3,4.3,4.4c0.2,0,0.4,0,0.5,0L237.3,186.5z"/>
		</g>
	</g>
	<g>
		<g>
			<defs>
				<rect id="SVGID_133_" y="-22.1" width="482.1" height="326.1"/>
			</defs>
			<clipPath id="SVGID_134_">
				<use xlink:href="#SVGID_133_"  style="overflow:visible;"/>
			</clipPath>
			<path class="st70" d="M162.5,217.8l-79.2,6.9c-2.5,0.2-4.5,2.3-4.5,4.9c0,2.2,1.8,4.1,4,4.1c0.2,0,0.3,0,0.5,0l34.6-3l-2,22.8
				c-0.3,2.2,1.3,4.2,3.6,4.5c0.2,0,0.4,0,0.6,0h0.4c2.4-0.2,4.3-2.1,4.5-4.5l2.1-23.6l35.4-3.1c2.5-0.2,4.5-2.3,4.5-4.9
				c0-2.3-1.8-4.1-4-4.1C162.9,217.7,162.7,217.7,162.5,217.8z"/>
		</g>
	</g>
	<g>
		<g>
			<defs>
				<rect id="SVGID_135_" y="-22.1" width="482.1" height="326.1"/>
			</defs>
			<clipPath id="SVGID_136_">
				<use xlink:href="#SVGID_135_"  style="overflow:visible;"/>
			</clipPath>
			<path class="st71" d="M148.6,162.7c8.2-0.8,14.6-7.6,14.8-15.8c0.1-7.3-5.8-13.3-13.1-13.4c-0.6,0-1.1,0-1.7,0.1
				c-8.2,0.8-14.6,7.6-14.8,15.9C133.8,157.4,140.5,163.4,148.6,162.7z M148.6,141.9c3.1-0.4,5.9,1.8,6.3,4.9c0,0.2,0,0.5,0,0.7
				c-0.1,3.5-2.8,6.4-6.3,6.7c-3.1,0.4-5.9-1.9-6.3-5c0-0.2,0-0.5,0-0.7C142.4,145.1,145.1,142.2,148.6,141.9L148.6,141.9z"/>
		</g>
	</g>
	<g>
		<g>
			<defs>
				<rect id="SVGID_137_" y="-22.1" width="482.1" height="326.1"/>
			</defs>
			<clipPath id="SVGID_138_">
				<use xlink:href="#SVGID_137_"  style="overflow:visible;"/>
			</clipPath>
			<path class="st72" d="M109.3,166.1c8.2-0.8,14.6-7.6,14.8-15.8c0.1-7.3-5.8-13.3-13.1-13.4c-0.6,0-1.1,0-1.7,0.1
				c-8.2,0.8-14.6,7.6-14.8,15.9c-0.1,7.3,5.8,13.3,13.1,13.4C108.2,166.2,108.7,166.1,109.3,166.1z M109.7,145.8
				c2.8-0.3,5.4,1.7,5.7,4.5c0,0.2,0,0.4,0,0.6c-0.1,3.2-2.6,5.9-5.8,6.2c-2.8,0.3-5.4-1.7-5.7-4.5c0-0.2,0-0.4,0-0.6
				C104,148.7,106.5,146.1,109.7,145.8L109.7,145.8z"/>
		</g>
	</g>
	<g>
		<g>
			<defs>
				<rect id="SVGID_139_" y="-22.1" width="482.1" height="326.1"/>
			</defs>
			<clipPath id="SVGID_140_">
				<use xlink:href="#SVGID_139_"  style="overflow:visible;"/>
			</clipPath>
			<path class="st73" d="M96,215l43.7-3.8c10.4-0.9,19.6-10,20.5-20.3l0.3-3c0.6-4.9-1.1-9.8-4.6-13.3c-3.6-3.4-8.5-5.1-13.4-4.5
				l-43.7,3.8c-2.7,0.3-4.7,2.5-4.8,5.2c0,2.4,1.9,4.3,4.3,4.4c0.2,0,0.4,0,0.5,0l43.7-3.8c2.3-0.3,4.6,0.5,6.3,2.1
				c1.6,1.7,2.4,4,2.1,6.3l-0.3,3c-0.7,5.7-5.2,10.1-10.9,10.9L96,205.6c-2.7,0.3-4.7,2.5-4.8,5.2c0,2.4,1.9,4.3,4.3,4.4
				C95.7,215.1,95.9,215.1,96,215z"/>
		</g>
	</g>
	<g>
		<g>
			<defs>
				<rect id="SVGID_141_" y="-22.1" width="482.1" height="326.1"/>
			</defs>
			<clipPath id="SVGID_142_">
				<use xlink:href="#SVGID_141_"  style="overflow:visible;"/>
			</clipPath>
			<path class="st74" d="M138,195.6c2.7-0.3,4.7-2.5,4.8-5.2c0-2.4-1.9-4.3-4.3-4.4c-0.2,0-0.4,0-0.5,0l-40.5,3.5
				c-2.7,0.3-4.7,2.5-4.8,5.2c0,2.4,1.9,4.3,4.3,4.4c0.2,0,0.4,0,0.5,0L138,195.6z"/>
		</g>
	</g>
	<g>
		<g>
			<defs>
				<rect id="SVGID_143_" y="-22.1" width="482.1" height="326.1"/>
			</defs>
			<clipPath id="SVGID_144_">
				<use xlink:href="#SVGID_143_"  style="overflow:visible;"/>
			</clipPath>
			<path class="st75" d="M367.1,91.2L288.3,98l0,0L273,82.8c-1.9-1.7-4.7-1.6-6.4,0.3c-1.8,1.6-2,4.5-0.3,6.3c0,0,0,0,0,0.1
				l16.3,16.2c0.6,0.6,1.3,0.9,2,1.1c1,1,2.3,1.4,3.7,1.3l78.8-6.8c2.8-0.3,5-2.6,5.1-5.4c0-2.5-2-4.6-4.5-4.6
				C367.5,91.1,367.3,91.1,367.1,91.2z"/>
		</g>
	</g>
</g>
</svg>
