<?xml version="1.0" encoding="utf-8"?>
<!-- Generator: Adobe Illustrator 21.0.0, SVG Export Plug-In . SVG Version: 6.00 Build 0)  -->
<svg version="1.1" id="圖層_1" xmlns="http://www.w3.org/2000/svg" xmlns:xlink="http://www.w3.org/1999/xlink" x="0px" y="0px"
	 viewBox="0 0 375 373.3" style="enable-background:new 0 0 375 373.3;" xml:space="preserve">
<style type="text/css">
	.st0{clip-path:url(#SVGID_2_);}
	.st1{fill:#CF5951;}
	.st2{fill:#172A88;}
	.st3{fill:none;stroke:#CF5951;stroke-width:5;stroke-linecap:round;stroke-miterlimit:10;}
	.st4{fill:none;}
	.st5{enable-background:new    ;}
	.st6{fill:#182987;}
	.st7{clip-path:url(#SVGID_4_);fill:none;stroke:#172A88;stroke-width:1.1245;stroke-miterlimit:10;}
	.st8{clip-path:url(#SVGID_6_);fill:none;stroke:#172A88;stroke-width:1.1245;stroke-miterlimit:10;}
	.st9{clip-path:url(#SVGID_8_);fill:none;stroke:#172A88;stroke-width:1.1245;stroke-miterlimit:10;}
	.st10{clip-path:url(#SVGID_10_);fill:none;stroke:#172A88;stroke-width:1.1245;stroke-miterlimit:10;}
	.st11{clip-path:url(#SVGID_12_);fill:#C5564F;}
	.st12{clip-path:url(#SVGID_14_);fill:#192D78;}
	.st13{clip-path:url(#SVGID_16_);fill:#C5564F;}
	.st14{clip-path:url(#SVGID_18_);fill:#C5564F;}
	.st15{clip-path:url(#SVGID_20_);fill:#C5564F;}
	.st16{clip-path:url(#SVGID_22_);fill:#C5564F;}
	.st17{clip-path:url(#SVGID_24_);fill:#C5564F;}
	.st18{clip-path:url(#SVGID_26_);fill:#C5564F;}
	.st19{clip-path:url(#SVGID_28_);fill:#192D78;}
	.st20{clip-path:url(#SVGID_30_);fill:#9FA0A0;stroke:#9FA0A0;stroke-width:1.7492;stroke-miterlimit:10;}
	.st21{clip-path:url(#SVGID_32_);fill:#9FA0A0;stroke:#9FA0A0;stroke-width:1.7492;stroke-miterlimit:10;}
	.st22{clip-path:url(#SVGID_34_);fill:#9FA0A0;stroke:#9FA0A0;stroke-width:1.7492;stroke-miterlimit:10;}
	.st23{clip-path:url(#SVGID_36_);fill:#9FA0A0;stroke:#9FA0A0;stroke-width:1.7492;stroke-miterlimit:10;}
	.st24{clip-path:url(#SVGID_38_);fill:#9FA0A0;stroke:#9FA0A0;stroke-width:1.7492;stroke-miterlimit:10;}
	.st25{clip-path:url(#SVGID_40_);fill:#9FA0A0;stroke:#9FA0A0;stroke-width:1.7492;stroke-miterlimit:10;}
	.st26{clip-path:url(#SVGID_42_);fill:#9FA0A0;stroke:#9FA0A0;stroke-width:1.7492;stroke-miterlimit:10;}
	.st27{clip-path:url(#SVGID_44_);fill:#9FA0A0;stroke:#9FA0A0;stroke-width:1.7492;stroke-miterlimit:10;}
	.st28{clip-path:url(#SVGID_46_);fill:#9FA0A0;stroke:#9FA0A0;stroke-width:1.7492;stroke-miterlimit:10;}
	.st29{clip-path:url(#SVGID_48_);fill:#9FA0A0;stroke:#9FA0A0;stroke-width:1.7492;stroke-miterlimit:10;}
	.st30{clip-path:url(#SVGID_50_);fill:#9FA0A0;stroke:#9FA0A0;stroke-width:1.7492;stroke-miterlimit:10;}
	.st31{clip-path:url(#SVGID_52_);fill:#9FA0A0;}
	.st32{clip-path:url(#SVGID_54_);fill:#9FA0A0;}
	.st33{clip-path:url(#SVGID_56_);fill:#9FA0A0;}
	.st34{clip-path:url(#SVGID_58_);fill:#9FA0A0;}
	.st35{clip-path:url(#SVGID_60_);fill:#9FA0A0;}
	.st36{clip-path:url(#SVGID_62_);fill:#9FA0A0;}
	.st37{clip-path:url(#SVGID_64_);fill:#9FA0A0;}
	.st38{clip-path:url(#SVGID_66_);fill:#9FA0A0;}
	.st39{clip-path:url(#SVGID_68_);fill:#9FA0A0;}
	.st40{clip-path:url(#SVGID_70_);fill:#9FA0A0;}
	.st41{clip-path:url(#SVGID_72_);fill:#9FA0A0;}
	.st42{clip-path:url(#SVGID_74_);fill:#9FA0A0;}
	.st43{clip-path:url(#SVGID_76_);fill:#9FA0A0;}
	.st44{clip-path:url(#SVGID_78_);fill:#9FA0A0;}
	.st45{clip-path:url(#SVGID_80_);fill:#9FA0A0;}
	.st46{clip-path:url(#SVGID_82_);fill:#9FA0A0;}
	.st47{clip-path:url(#SVGID_84_);fill:#9FA0A0;}
	.st48{clip-path:url(#SVGID_86_);fill:#9FA0A0;}
	.st49{clip-path:url(#SVGID_88_);fill:#9FA0A0;}
	.st50{clip-path:url(#SVGID_90_);fill:#9FA0A0;}
	.st51{clip-path:url(#SVGID_92_);fill:#9FA0A0;}
	.st52{clip-path:url(#SVGID_94_);fill:#9FA0A0;}
	.st53{clip-path:url(#SVGID_96_);fill:#9FA0A0;}
	.st54{clip-path:url(#SVGID_98_);fill:#9FA0A0;}
	.st55{clip-path:url(#SVGID_100_);fill:#9FA0A0;}
	.st56{clip-path:url(#SVGID_102_);fill:#9FA0A0;}
	.st57{clip-path:url(#SVGID_104_);fill:#9FA0A0;}
	.st58{clip-path:url(#SVGID_106_);fill:none;stroke:#172A88;stroke-width:4.3651;stroke-miterlimit:10;}
	.st59{clip-path:url(#SVGID_108_);fill:none;stroke:#172A88;stroke-width:4.3651;stroke-miterlimit:10;}
	.st60{clip-path:url(#SVGID_110_);fill:none;stroke:#172A88;stroke-width:4.3651;stroke-miterlimit:10;}
	.st61{clip-path:url(#SVGID_112_);fill:none;stroke:#172A88;stroke-width:4.3651;stroke-miterlimit:10;}
	.st62{clip-path:url(#SVGID_114_);fill:none;stroke:#172A88;stroke-width:4.3651;stroke-miterlimit:10;}
	.st63{opacity:0.9;clip-path:url(#SVGID_116_);}
	.st64{fill:none;stroke:#172A88;stroke-width:4.3651;stroke-miterlimit:10;}
	.st65{clip-path:url(#SVGID_118_);fill:none;stroke:#172A88;stroke-width:4.3651;stroke-miterlimit:10;}
	.st66{clip-path:url(#SVGID_120_);fill:none;stroke:#172A88;stroke-width:4.3651;stroke-miterlimit:10;}
	.st67{clip-path:url(#SVGID_122_);fill:none;stroke:#172A88;stroke-width:4.3651;stroke-miterlimit:10;}
	.st68{clip-path:url(#SVGID_124_);fill:none;stroke:#172A88;stroke-width:4.3651;stroke-miterlimit:10;}
	.st69{clip-path:url(#SVGID_126_);fill:none;stroke:#172A88;stroke-width:4.3651;stroke-miterlimit:10;}
	.st70{clip-path:url(#SVGID_128_);fill:none;stroke:#172A88;stroke-width:4.3651;stroke-miterlimit:10;}
	.st71{clip-path:url(#SVGID_130_);fill:none;stroke:#172A88;stroke-width:4.3651;stroke-miterlimit:10;}
	.st72{clip-path:url(#SVGID_132_);fill:none;stroke:#172A88;stroke-width:4.3651;stroke-miterlimit:10;}
	.st73{clip-path:url(#SVGID_134_);fill:none;stroke:#172A88;stroke-width:4.3651;stroke-miterlimit:10;}
	.st74{clip-path:url(#SVGID_136_);fill:none;stroke:#172A88;stroke-width:4.3651;stroke-miterlimit:10;}
	.st75{clip-path:url(#SVGID_138_);fill:none;stroke:#172A88;stroke-width:4.3651;stroke-miterlimit:10;}
	.st76{clip-path:url(#SVGID_140_);fill:none;stroke:#172A88;stroke-width:4.3651;stroke-miterlimit:10;}
	.st77{clip-path:url(#SVGID_142_);fill:none;stroke:#172A88;stroke-width:4.3651;stroke-miterlimit:10;}
	.st78{clip-path:url(#SVGID_144_);fill:none;stroke:#172A88;stroke-width:4.3651;stroke-miterlimit:10;}
	.st79{clip-path:url(#SVGID_146_);fill:none;stroke:#172A88;stroke-width:4.0137;stroke-miterlimit:10;}
</style>
<title>資產 1</title>
<g id="圖層_2">
	<g id="圖層_1-2">
		<g>
			<g>
				<g>
					<defs>
						<rect id="SVGID_1_" y="-6.1" width="375" height="383.2"/>
					</defs>
					<clipPath id="SVGID_2_">
						<use xlink:href="#SVGID_1_"  style="overflow:visible;"/>
					</clipPath>
					<g class="st0">
						<path class="st1" d="M56.5,69c-1.1,0.9-2.8,0.7-3.7-0.5l0,0l-9.1-11.9c-0.9-1.1-0.7-2.8,0.4-3.7c0,0,0,0,0.1,0l11.9-9.1
							c1.1-0.9,2.8-0.7,3.7,0.5l0,0L69,56.2c0.9,1.1,0.7,2.8-0.4,3.7l0,0L56.5,69z"/>
						<path class="st1" d="M86.6,20.6c-0.3,1.4-1.6,2.3-3,2.1L68.7,20c-1.4-0.2-2.4-1.6-2.2-3c0,0,0,0,0-0.1l2.8-14.8
							c0.3-1.4,1.6-2.3,3-2.1l14.8,2.7c1.4,0.3,2.4,1.6,2.1,3.1L86.6,20.6z"/>
						<path class="st1" d="M17.2,46.2c0.2,1.4-0.7,2.7-2.1,3L0.4,52c-1.4,0.3-2.8-0.7-3-2.1l0,0l-2.8-14.8c-0.3-1.4,0.7-2.8,2.1-3.1
							l0,0l14.8-2.8c1.4-0.3,2.8,0.6,3.1,2v0.1L17.2,46.2z"/>
						
							<ellipse transform="matrix(7.741496e-02 -0.997 0.997 7.741496e-02 23.9041 129.5076)" class="st2" cx="81.9" cy="51.8" rx="4" ry="4"/>
						
							<ellipse transform="matrix(7.741496e-02 -0.997 0.997 7.741496e-02 -9.1095 71.6064)" class="st2" cx="34.1" cy="40.7" rx="4" ry="4"/>
						<line class="st3" x1="40.7" y1="24.5" x2="35.5" y2="11.4"/>
						<line class="st3" x1="22.5" y1="80.9" x2="29.8" y2="68.8"/>
						<path class="st1" d="M313.5,363.2c0.2,1.4-0.7,2.8-2.2,3l0,0l-14.9,2.2c-1.4,0.2-2.8-0.7-3-2.2l0,0l-2.2-14.9
							c-0.2-1.4,0.7-2.8,2.2-3l0,0l14.9-2.2c1.4-0.2,2.8,0.8,3,2.2l0,0L313.5,363.2z"/>
						<path class="st1" d="M352.3,328.7c-0.6,1.3-2.2,1.8-3.5,1.2l0,0l-13.5-6.6c-1.3-0.6-1.8-2.2-1.2-3.5l6.6-13.5
							c0.6-1.3,2.2-1.8,3.5-1.2l0,0l13.5,6.6c1.3,0.6,1.8,2.2,1.2,3.5L352.3,328.7z"/>
						
							<ellipse transform="matrix(7.741496e-02 -0.997 0.997 7.741496e-02 -74.831 589.8074)" class="st2" cx="281.3" cy="335.3" rx="4" ry="4"/>
						
							<ellipse transform="matrix(7.741496e-02 -0.997 0.997 7.741496e-02 -37.2183 651.2478)" class="st2" cx="333.3" cy="345.7" rx="4" ry="4"/>
						<line class="st3" x1="366.4" y1="339" x2="378.5" y2="331.7"/>
						<line class="st3" x1="337.4" y1="370.8" x2="344.3" y2="358.5"/>
						<line class="st3" x1="302.4" y1="325.6" x2="297.2" y2="312.5"/>
					</g>
				</g>
			</g>
		</g>
	</g>
</g>
<g>
	<rect x="-0.7" y="67" class="st4" width="376.5" height="254.6"/>
	<g class="st5">
		<path class="st6" d="M307.4,198.2l-2.2,0.2l-2-4.5c-0.5-1.1-1-2.5-1.4-3.7h-0.1c0,1.4-0.2,3-0.3,5.1l-0.3,3.5l-2,0.2l1-11.4
			l2.3-0.2l2,4.5c0.5,1.1,1,2.4,1.4,3.6l0,0c0-1.4,0.1-3,0.2-4.9l0.3-3.4l2-0.2L307.4,198.2z"/>
		<path class="st6" d="M317.7,197c-0.5,0.2-1.4,0.5-2.6,0.6c-3.4,0.3-5.1-1.9-4.8-5.2c0.3-4,3-6.2,6.1-6.5c1.2-0.1,2,0.1,2.3,0.2
			l-0.5,1.8c-0.4-0.2-1-0.3-1.8-0.2c-1.9,0.2-3.5,1.6-3.7,4.4c-0.2,2.6,0.9,3.8,3,3.7c0.7-0.1,1.4-0.2,1.9-0.5L317.7,197z"/>
		<path class="st6" d="M328.2,196.4l-2.5,0.2l-2.2-4.8l-0.9,1.2l-0.3,3.9l-2.2,0.2l1-11.4l2.2-0.2l-0.5,5.2h0.1
			c0.3-0.5,0.5-0.9,0.9-1.4l2.8-4.1l2.6-0.2l-3.8,5.2L328.2,196.4z"/>
		<path class="st6" d="M338.6,190.8c-0.3,3.4-2,5.1-4.6,5.2c-2.6,0.2-3.9-1.2-3.6-4.5l0.5-6.7l2.2-0.2l-0.6,6.9
			c-0.2,2,0.5,2.8,1.6,2.7c1.2-0.1,2-1,2.2-3l0.6-6.9l2.2-0.2L338.6,190.8z"/>
	</g>
	<g class="st5">
		<path class="st6" d="M302.7,218.3c1.2,0.2,2.1,1.2,2,2.6c-0.1,0.9-0.5,1.8-1.2,2.4c-0.9,0.8-2.1,1.2-4.1,1.4
			c-1.1,0.1-1.9,0.1-2.4,0.1l0.9-11.2c0.6-0.2,1.8-0.4,2.9-0.5c1.4-0.2,2.3,0,3,0.5c0.6,0.4,1,1.1,0.9,2
			C304.7,216.7,304,217.7,302.7,218.3L302.7,218.3z M299.2,223.1c0.2,0,0.5,0,0.9,0c1.2-0.1,2.3-0.7,2.3-2c0.1-1.3-0.9-1.7-2.1-1.6
			l-0.8,0.1L299.2,223.1z M300.5,217.9c1.2-0.1,2-0.9,2.1-1.8c0.1-1.1-0.7-1.4-1.7-1.3c-0.5,0.1-0.8,0.1-0.9,0.2l-0.2,3L300.5,217.9
			z"/>
		<path class="st6" d="M307.9,212.6l2.2-0.2l-1,11.4l-2.2,0.2L307.9,212.6z"/>
		<path class="st6" d="M320.2,222.9l-2.5,0.2l-2.2-4.8l-0.9,1.2l-0.3,3.9l-2.2,0.2l1-11.4l2.2-0.2l-0.5,5.2h0.1
			c0.3-0.5,0.5-0.9,0.9-1.4l2.8-4.1l2.6-0.2l-3.8,5.2L320.2,222.9z"/>
		<path class="st6" d="M328.4,222.2l-6.3,0.5l1-11.4l6.1-0.5l-0.2,1.9l-3.9,0.3l-0.2,2.7l3.7-0.3l-0.2,1.8l-3.7,0.3l-0.3,3.2
			l4.1-0.4L328.4,222.2z"/>
	</g>
	<g class="st5">
		<path class="st6" d="M294.6,250.9l1-11.4l6.1-0.5l-0.2,1.9l-3.9,0.3l-0.2,3l3.7-0.3l-0.2,1.8l-3.7,0.3l-0.4,4.8L294.6,250.9z"/>
		<path class="st6" d="M309.7,249.6l-6.3,0.5l1-11.4l6.1-0.5l-0.2,1.9l-3.9,0.3l-0.2,2.7l3.7-0.3l-0.2,1.8l-3.7,0.3l-0.3,3.2
			l4.1-0.4L309.7,249.6z"/>
		<path class="st6" d="M318.5,239.6c-0.4-0.2-1-0.4-2-0.3c-1.2,0.1-1.7,0.8-1.8,1.4c-0.1,0.8,0.5,1.2,1.8,1.6
			c1.7,0.6,2.5,1.6,2.3,3.1c-0.2,2-1.8,3.6-4.5,3.8c-1.1,0.1-2.3-0.1-2.7-0.4l0.6-1.9c0.5,0.3,1.5,0.5,2.4,0.4
			c1.2-0.1,1.9-0.7,2-1.6c0.1-0.8-0.5-1.2-1.6-1.7c-1.6-0.6-2.7-1.6-2.5-3c0.2-1.9,1.7-3.4,4.2-3.7c1.1-0.1,1.9,0.1,2.4,0.3
			L318.5,239.6z"/>
		<path class="st6" d="M328.7,238.5l-2.8,0.2l-0.9,9.5l-2.2,0.2l0.9-9.5l-2.8,0.2l0.2-1.9l7.8-0.7L328.7,238.5z"/>
		<path class="st6" d="M330.9,236.4l2.2-0.2l-1,11.4l-2.2,0.2L330.9,236.4z"/>
		<path class="st6" d="M344.3,235.2l-4.5,11.7l-2.5,0.2L335,236l2.4-0.2l0.9,4.9c0.2,1.3,0.5,2.7,0.5,4h0.1c0.4-1.4,0.9-2.8,1.3-4.2
			l1.7-5.2L344.3,235.2z"/>
		<path class="st6" d="M353.5,245.8l-2.3,0.2l-0.5-3l-3,0.2l-1,3l-2.2,0.2l4.2-11.7l2.7-0.2L353.5,245.8z M350.5,241.4l-0.5-2.6
			c-0.1-0.7-0.2-1.6-0.3-2.3h-0.1c-0.2,0.7-0.5,1.7-0.7,2.3l-0.9,2.7L350.5,241.4z"/>
		<path class="st6" d="M362,245l-6.2,0.5l1-11.4l2.2-0.2l-0.9,9.5l4.1-0.4L362,245z"/>
	</g>
	<g>
		<g>
			<defs>
				<rect id="SVGID_3_" x="-0.7" y="67" width="376.5" height="254.6"/>
			</defs>
			<clipPath id="SVGID_4_">
				<use xlink:href="#SVGID_3_"  style="overflow:visible;"/>
			</clipPath>
			<line class="st7" x1="-67.4" y1="104.7" x2="96.3" y2="90.4"/>
		</g>
	</g>
	<g>
		<g>
			<defs>
				<rect id="SVGID_5_" x="-0.7" y="67" width="376.5" height="254.6"/>
			</defs>
			<clipPath id="SVGID_6_">
				<use xlink:href="#SVGID_5_"  style="overflow:visible;"/>
			</clipPath>
			<line class="st8" x1="-75.5" y1="117.7" x2="88.2" y2="103.4"/>
		</g>
	</g>
	<g>
		<g>
			<defs>
				<rect id="SVGID_7_" x="-0.7" y="67" width="376.5" height="254.6"/>
			</defs>
			<clipPath id="SVGID_8_">
				<use xlink:href="#SVGID_7_"  style="overflow:visible;"/>
			</clipPath>
			<line class="st9" x1="302.1" y1="269.3" x2="465.8" y2="254.9"/>
		</g>
	</g>
	<g>
		<g>
			<defs>
				<rect id="SVGID_9_" x="-0.7" y="67" width="376.5" height="254.6"/>
			</defs>
			<clipPath id="SVGID_10_">
				<use xlink:href="#SVGID_9_"  style="overflow:visible;"/>
			</clipPath>
			<line class="st10" x1="293.9" y1="282.2" x2="457.6" y2="267.8"/>
		</g>
	</g>
	<g>
		<g>
			<defs>
				<rect id="SVGID_11_" x="-0.7" y="67" width="376.5" height="254.6"/>
			</defs>
			<clipPath id="SVGID_12_">
				<use xlink:href="#SVGID_11_"  style="overflow:visible;"/>
			</clipPath>
			<path class="st11" d="M296.6,143.1L296.6,143.1c-3.7,0.4-7.3-0.8-9.9-3.4c-2.6-2.6-3.8-6.2-3.4-9.8c0.2-2.3,0.9-4.5,2-6.4
				c0.4-0.8,1.3-1.1,2.2-0.8c0.7,0.4,1,1.2,0.6,2c0,0.1-0.1,0.1-0.1,0.1c-0.9,1.6-1.4,3.3-1.6,5.1c-0.3,2.8,0.6,5.5,2.6,7.6
				c2,2,4.8,2.9,7.6,2.5l0,0c6.2-0.5,11.8-6,12.3-12.3c0.2-1.6-0.1-3.3-0.7-4.8c-0.3-0.9,0.1-1.7,0.9-2.1c0.7-0.4,1.6-0.1,2,0.6
				c0,0,0,0.1,0.1,0.1c0.8,2,1.1,4.1,0.9,6.2C311.5,135.6,304.5,142.4,296.6,143.1z"/>
		</g>
	</g>
	<g>
		<g>
			<defs>
				<rect id="SVGID_13_" x="-0.7" y="67" width="376.5" height="254.6"/>
			</defs>
			<clipPath id="SVGID_14_">
				<use xlink:href="#SVGID_13_"  style="overflow:visible;"/>
			</clipPath>
			<path class="st12" d="M273.1,107.8L273.1,107.8l-7.3,0.6c-1.2,0.2-2.3-0.7-2.4-1.9c0-0.1,0-0.2,0-0.3c0-1.4,1.1-2.5,2.4-2.7l0,0
				l7.3-0.6c1.2-0.2,2.3,0.7,2.4,2c0,0.1,0,0.2,0,0.2C275.5,106.6,274.5,107.7,273.1,107.8z"/>
		</g>
	</g>
	<g>
		<g>
			<defs>
				<rect id="SVGID_15_" x="-0.7" y="67" width="376.5" height="254.6"/>
			</defs>
			<clipPath id="SVGID_16_">
				<use xlink:href="#SVGID_15_"  style="overflow:visible;"/>
			</clipPath>
			<path class="st13" d="M247.6,147L247.6,147c-3.7,0.4-7.4-0.9-10.2-3.4c-2.7-2.7-3.9-6.4-3.4-10.1c0.7-8,7.8-15.1,15.9-15.8l0,0
				c5.5-0.5,10.2,2.1,12.4,6.6c0.3,0.8,0,1.7-0.8,2.1c-0.7,0.4-1.6,0.2-2-0.5c0,0,0-0.1-0.1-0.1c-1.6-3.5-5.3-5.5-9.5-5.1l0,0
				c-6.5,0.5-12.2,6.2-12.7,12.7c-0.3,2.9,0.6,5.8,2.7,7.8c2.1,2,4.9,3,7.8,2.6l0,0c4.6-0.5,8.7-3.2,10.9-7.3
				c0.4-0.8,1.4-1.1,2.2-0.7c0.7,0.4,1,1.2,0.6,2l-0.1,0.1C258.4,143.1,253.4,146.4,247.6,147z"/>
		</g>
	</g>
	<g>
		<g>
			<defs>
				<rect id="SVGID_17_" x="-0.7" y="67" width="376.5" height="254.6"/>
			</defs>
			<clipPath id="SVGID_18_">
				<use xlink:href="#SVGID_17_"  style="overflow:visible;"/>
			</clipPath>
			<path class="st14" d="M300.4,114.1L300.4,114.1l-7.4,0.6c-0.7,0.1-1.4-0.5-1.5-1.2c0-0.1,0-0.1,0-0.2c0-0.8,0.6-1.5,1.5-1.6l0,0
				l7.3-0.6c0.7-0.1,1.4,0.5,1.5,1.2c0,0.1,0,0.1,0,0.2C301.8,113.3,301.2,113.9,300.4,114.1z"/>
		</g>
	</g>
	<g>
		<g>
			<defs>
				<rect id="SVGID_19_" x="-0.7" y="67" width="376.5" height="254.6"/>
			</defs>
			<clipPath id="SVGID_20_">
				<use xlink:href="#SVGID_19_"  style="overflow:visible;"/>
			</clipPath>
			<path class="st15" d="M248,134.6c-0.5,0.1-0.9-0.1-1.2-0.4c-0.6-0.6-0.5-1.6,0.1-2.2l0,0l22.5-22.3c0.5-0.6,1.6-0.7,2.2-0.2l0,0
				c0.5,0.6,0.5,1.6-0.1,2.2l0,0L249,134.1C248.8,134.4,248.4,134.6,248,134.6z"/>
		</g>
	</g>
	<g>
		<g>
			<defs>
				<rect id="SVGID_21_" x="-0.7" y="67" width="376.5" height="254.6"/>
			</defs>
			<clipPath id="SVGID_22_">
				<use xlink:href="#SVGID_21_"  style="overflow:visible;"/>
			</clipPath>
			<path class="st16" d="M268.7,132.3c-0.5,0.1-0.9-0.1-1.2-0.4c-0.6-0.6-0.5-1.6,0.1-2.2l0,0l22.5-22.3c0.6-0.6,1.6-0.7,2.3-0.1
				c0.5,0.6,0.5,1.6-0.1,2.2l0,0l-22.5,22.3C269.5,132.1,269.1,132.3,268.7,132.3z"/>
		</g>
	</g>
	<g>
		<g>
			<defs>
				<rect id="SVGID_23_" x="-0.7" y="67" width="376.5" height="254.6"/>
			</defs>
			<clipPath id="SVGID_24_">
				<use xlink:href="#SVGID_23_"  style="overflow:visible;"/>
			</clipPath>
			<path class="st17" d="M268.4,135.5h-0.2c-0.8,0-1.4-0.6-1.4-1.4c0-0.1,0-0.2,0-0.2l2-23.1c0.1-0.9,0.9-1.6,1.7-1.6
				c0.8,0,1.4,0.6,1.5,1.4c0,0.1,0,0.1,0,0.2l-2,23.1C269.9,134.8,269.2,135.4,268.4,135.5z"/>
		</g>
	</g>
	<g>
		<g>
			<defs>
				<rect id="SVGID_25_" x="-0.7" y="67" width="376.5" height="254.6"/>
			</defs>
			<clipPath id="SVGID_26_">
				<use xlink:href="#SVGID_25_"  style="overflow:visible;"/>
			</clipPath>
			<path class="st18" d="M297.8,130.4c-0.5,0.1-0.9-0.1-1.2-0.5l-12.1-12.6c-0.5-0.6-0.5-1.6,0.2-2.2l0,0c0.6-0.6,1.6-0.6,2.3-0.1
				l12.1,12.6c0.5,0.6,0.5,1.6-0.2,2.2l0,0C298.5,130.2,298.2,130.3,297.8,130.4z"/>
		</g>
	</g>
	<g>
		<g>
			<defs>
				<rect id="SVGID_27_" x="-0.7" y="67" width="376.5" height="254.6"/>
			</defs>
			<clipPath id="SVGID_28_">
				<use xlink:href="#SVGID_27_"  style="overflow:visible;"/>
			</clipPath>
			<path class="st19" d="M272,136L272,136l-7.3,0.6c-0.7,0.1-1.4-0.5-1.5-1.2c0-0.1,0-0.1,0-0.2c0-0.8,0.6-1.5,1.5-1.6l0,0l7.3-0.6
				c0.7-0.1,1.4,0.5,1.5,1.2c0,0.1,0,0.1,0,0.2C273.4,135.3,272.8,136,272,136z"/>
		</g>
	</g>
	<g>
		<g>
			<defs>
				<rect id="SVGID_29_" x="-0.7" y="67" width="376.5" height="254.6"/>
			</defs>
			<clipPath id="SVGID_30_">
				<use xlink:href="#SVGID_29_"  style="overflow:visible;"/>
			</clipPath>
			<path class="st20" d="M148.5,116l-43.7,3.8c-1.7,0.2-3.4-1-3.5-2.8c0-0.2,0-0.2,0-0.4c0.1-2,1.6-3.6,3.5-3.8l43.7-3.8
				c1.7-0.2,3.4,1,3.5,2.8c0,0.2,0,0.2,0,0.4C152,114.2,150.4,115.9,148.5,116z"/>
		</g>
	</g>
	<g>
		<g>
			<defs>
				<rect id="SVGID_31_" x="-0.7" y="67" width="376.5" height="254.6"/>
			</defs>
			<clipPath id="SVGID_32_">
				<use xlink:href="#SVGID_31_"  style="overflow:visible;"/>
			</clipPath>
			<path class="st21" d="M83,182.7h-0.3c-1.7,0.1-3.2-1.3-3.3-3.1c0-0.2,0-0.2,0-0.4l3.8-43.3c0.2-2,1.9-3.4,3.8-3.5
				c1.7-0.1,3.2,1.3,3.3,3.1c0,0.2,0,0.2,0,0.4l-3.8,43.3C86.3,181,84.9,182.5,83,182.7z"/>
		</g>
	</g>
	<g>
		<g>
			<defs>
				<rect id="SVGID_33_" x="-0.7" y="67" width="376.5" height="254.6"/>
			</defs>
			<clipPath id="SVGID_34_">
				<use xlink:href="#SVGID_33_"  style="overflow:visible;"/>
			</clipPath>
			<path class="st22" d="M106.4,165.9c-0.9,0.1-2-0.2-2.7-0.9c-1.3-1.4-1.2-3.6,0.2-4.9c0,0,0,0,0.1,0l15.8-15.6
				c1.3-1.4,3.6-1.6,5-0.2c1.3,1.4,1.2,3.6-0.2,4.9l0,0l-15.8,15.6C108.2,165.5,107.3,165.9,106.4,165.9z"/>
		</g>
	</g>
	<g>
		<g>
			<defs>
				<rect id="SVGID_35_" x="-0.7" y="67" width="376.5" height="254.6"/>
			</defs>
			<clipPath id="SVGID_36_">
				<use xlink:href="#SVGID_35_"  style="overflow:visible;"/>
			</clipPath>
			<path class="st23" d="M116.5,177.4c-0.9,0.1-2-0.2-2.7-0.9c-1.3-1.4-1.2-3.6,0.2-4.9l0,0l29-28.8c1.3-1.4,3.6-1.6,5-0.2
				c1.3,1.4,1.2,3.6-0.2,4.9l0,0l-29,28.8C118.3,177,117.4,177.3,116.5,177.4z"/>
		</g>
	</g>
	<g>
		<g>
			<defs>
				<rect id="SVGID_37_" x="-0.7" y="67" width="376.5" height="254.6"/>
			</defs>
			<clipPath id="SVGID_38_">
				<use xlink:href="#SVGID_37_"  style="overflow:visible;"/>
			</clipPath>
			<path class="st24" d="M144.8,177.3c-0.9,0.1-2-0.2-2.7-0.9l-12.7-12.7c-1.3-1.4-1.2-3.6,0.2-4.9l0,0c1.3-1.4,3.6-1.5,5-0.2
				l12.7,12.7c1.3,1.4,1.2,3.6-0.2,4.9l0,0C146.5,176.8,145.7,177.2,144.8,177.3z"/>
		</g>
	</g>
	<g>
		<g>
			<defs>
				<rect id="SVGID_39_" x="-0.7" y="67" width="376.5" height="254.6"/>
			</defs>
			<clipPath id="SVGID_40_">
				<use xlink:href="#SVGID_39_"  style="overflow:visible;"/>
			</clipPath>
			<path class="st25" d="M158.2,98.9l-16.5,1.4c-1.7,0.2-3.4-1-3.5-2.8c0-0.2,0-0.2,0-0.4c0.1-2,1.6-3.6,3.5-3.8l16.5-1.4
				c1.7-0.2,3.4,1,3.6,2.7c0,0.2,0,0.3,0,0.5C161.7,97.2,160.2,98.8,158.2,98.9z"/>
		</g>
	</g>
	<g>
		<g>
			<defs>
				<rect id="SVGID_41_" x="-0.7" y="67" width="376.5" height="254.6"/>
			</defs>
			<clipPath id="SVGID_42_">
				<use xlink:href="#SVGID_41_"  style="overflow:visible;"/>
			</clipPath>
			<path class="st26" d="M120.6,150.9l-17.2,1.5c-1.9,0.2-3.5-1.1-3.7-3c0-0.2,0-0.3,0-0.5c0.1-2.1,1.6-3.8,3.7-4.1l17.2-1.5
				c1.9-0.2,3.5,1.1,3.7,3c0,0.2,0,0.3,0,0.4C124.4,148.9,122.7,150.7,120.6,150.9z"/>
		</g>
	</g>
	<g>
		<g>
			<defs>
				<rect id="SVGID_43_" x="-0.7" y="67" width="376.5" height="254.6"/>
			</defs>
			<clipPath id="SVGID_44_">
				<use xlink:href="#SVGID_43_"  style="overflow:visible;"/>
			</clipPath>
			<path class="st27" d="M222.6,122.8l-43.7,3.8c-1.7,0.2-3.4-1-3.5-2.8c0-0.2,0-0.2,0-0.4c0.1-2,1.6-3.7,3.5-3.8l43.7-3.7
				c1.7-0.2,3.4,1,3.5,2.8c0,0.2,0,0.2,0,0.4C226.1,120.9,224.6,122.5,222.6,122.8z"/>
		</g>
	</g>
	<g>
		<g>
			<defs>
				<rect id="SVGID_45_" x="-0.7" y="67" width="376.5" height="254.6"/>
			</defs>
			<clipPath id="SVGID_46_">
				<use xlink:href="#SVGID_45_"  style="overflow:visible;"/>
			</clipPath>
			<path class="st28" d="M199.5,139.9h-0.3c-1.7,0.1-3.2-1.3-3.3-3.1c0-0.2,0-0.3,0-0.4l3.8-43.3c0.2-2,1.9-3.5,3.8-3.5
				c1.7,0,3.2,1.3,3.3,3.1c0,0.2,0,0.2,0,0.4l-3.8,43.3C202.8,138.2,201.3,139.7,199.5,139.9z"/>
		</g>
	</g>
	<g>
		<g>
			<defs>
				<rect id="SVGID_47_" x="-0.7" y="67" width="376.5" height="254.6"/>
			</defs>
			<clipPath id="SVGID_48_">
				<use xlink:href="#SVGID_47_"  style="overflow:visible;"/>
			</clipPath>
			<path class="st29" d="M165.8,174.4c-0.9,0.1-2-0.2-2.7-0.9c-1.3-1.4-1.2-3.6,0.2-4.9c0,0,0,0,0.1,0l33.6-33.3
				c1.3-1.4,3.6-1.6,5-0.2c1.3,1.4,1.2,3.6-0.2,4.9l0,0l-33.6,33.3C167.5,173.9,166.6,174.3,165.8,174.4z"/>
		</g>
	</g>
	<g>
		<g>
			<defs>
				<rect id="SVGID_49_" x="-0.7" y="67" width="376.5" height="254.6"/>
			</defs>
			<clipPath id="SVGID_50_">
				<use xlink:href="#SVGID_49_"  style="overflow:visible;"/>
			</clipPath>
			<path class="st30" d="M227.5,169.7c-0.9,0.1-2-0.2-2.7-0.9l-12.7-12.7c-1.3-1.4-1.2-3.6,0.2-4.9c0,0,0,0,0.1,0
				c1.3-1.4,3.6-1.5,5-0.2l12.7,12.7c1.3,1.4,1.2,3.6-0.2,4.9c0,0,0,0-0.1,0C229.2,169.1,228.5,169.6,227.5,169.7z"/>
		</g>
	</g>
	<g>
		<g>
			<defs>
				<rect id="SVGID_51_" x="-0.7" y="67" width="376.5" height="254.6"/>
			</defs>
			<clipPath id="SVGID_52_">
				<use xlink:href="#SVGID_51_"  style="overflow:visible;"/>
			</clipPath>
			<path class="st31" d="M290,166.3l-61.5,5.3c-2,0.2-3.7-1.2-3.9-3.1c0-0.2,0-0.3,0-0.4c0.1-2.2,1.7-4.1,4-4.2l61.5-5.3
				c2-0.2,3.7,1.2,3.9,3.1c0,0.2,0,0.3,0,0.5C293.9,164.2,292.2,166,290,166.3z"/>
		</g>
	</g>
	<g>
		<g>
			<defs>
				<rect id="SVGID_53_" x="-0.7" y="67" width="376.5" height="254.6"/>
			</defs>
			<clipPath id="SVGID_54_">
				<use xlink:href="#SVGID_53_"  style="overflow:visible;"/>
			</clipPath>
			<path class="st32" d="M281,218.1l-16.5,1.4c-1.9,0.2-3.5-1.1-3.7-3c0-0.2,0-0.3,0-0.4c0.1-2.1,1.6-3.8,3.7-4.1l16.4-1.4
				c1.9-0.2,3.5,1.1,3.7,3c0,0.2,0,0.3,0,0.4C284.8,216.2,283.1,217.9,281,218.1z"/>
		</g>
	</g>
	<g>
		<g>
			<defs>
				<rect id="SVGID_55_" x="-0.7" y="67" width="376.5" height="254.6"/>
			</defs>
			<clipPath id="SVGID_56_">
				<use xlink:href="#SVGID_55_"  style="overflow:visible;"/>
			</clipPath>
			<path class="st33" d="M277.7,258.6h-0.3c-1.7,0.1-3.2-1.3-3.3-3.1c0-0.2,0-0.2,0-0.4l2.2-25c0.2-2,1.9-3.5,3.8-3.5
				c1.7,0,3.2,1.3,3.3,3.1c0,0.2,0,0.2,0,0.4l-2.2,25C281,256.9,279.5,258.4,277.7,258.6z"/>
		</g>
	</g>
	<g>
		<g>
			<defs>
				<rect id="SVGID_57_" x="-0.7" y="67" width="376.5" height="254.6"/>
			</defs>
			<clipPath id="SVGID_58_">
				<use xlink:href="#SVGID_57_"  style="overflow:visible;"/>
			</clipPath>
			<path class="st34" d="M240.6,278.9c-0.9,0.1-2-0.2-2.7-0.9l-10.6-10.5c-1.3-1.4-1.2-3.6,0.2-4.9l0,0c1.3-1.4,3.6-1.5,5-0.2
				l10.6,10.5c1.3,1.4,1.2,3.6-0.2,4.9l0,0C242.4,278.5,241.6,278.9,240.6,278.9z"/>
		</g>
	</g>
	<g>
		<g>
			<defs>
				<rect id="SVGID_59_" x="-0.7" y="67" width="376.5" height="254.6"/>
			</defs>
			<clipPath id="SVGID_60_">
				<use xlink:href="#SVGID_59_"  style="overflow:visible;"/>
			</clipPath>
			<path class="st35" d="M249.8,220.6l-16.5,1.4c-1.7,0.2-3.4-1-3.5-2.8c0-0.2,0-0.2,0-0.4c0.1-2,1.6-3.6,3.5-3.8l16.5-1.4
				c1.7-0.2,3.4,1,3.5,2.8c0,0.2,0,0.2,0,0.4C253.3,218.7,251.7,220.4,249.8,220.6z"/>
		</g>
	</g>
	<g>
		<g>
			<defs>
				<rect id="SVGID_61_" x="-0.7" y="67" width="376.5" height="254.6"/>
			</defs>
			<clipPath id="SVGID_62_">
				<use xlink:href="#SVGID_61_"  style="overflow:visible;"/>
			</clipPath>
			<path class="st36" d="M249.9,235.4l-16.5,1.4c-1.7,0.2-3.4-1-3.5-2.8c0-0.2,0-0.2,0-0.4c0.1-2,1.6-3.6,3.5-3.8l16.5-1.4
				c1.7-0.2,3.4,1,3.5,2.8c0,0.2,0,0.2,0,0.4C253.4,233.5,251.9,235.2,249.9,235.4z"/>
		</g>
	</g>
	<g>
		<g>
			<defs>
				<rect id="SVGID_63_" x="-0.7" y="67" width="376.5" height="254.6"/>
			</defs>
			<clipPath id="SVGID_64_">
				<use xlink:href="#SVGID_63_"  style="overflow:visible;"/>
			</clipPath>
			<path class="st37" d="M248.4,249.1l-16.5,1.4c-1.7,0.2-3.4-1-3.5-2.8c0-0.2,0-0.2,0-0.4c0.1-2,1.6-3.6,3.5-3.8l16.5-1.4
				c1.7-0.2,3.4,1,3.5,2.8c0,0.2,0,0.2,0,0.4C252,247.3,250.4,249,248.4,249.1z"/>
		</g>
	</g>
	<g>
		<g>
			<defs>
				<rect id="SVGID_65_" x="-0.7" y="67" width="376.5" height="254.6"/>
			</defs>
			<clipPath id="SVGID_66_">
				<use xlink:href="#SVGID_65_"  style="overflow:visible;"/>
			</clipPath>
			<path class="st38" d="M234.6,201h-0.3c-1.7,0.1-3.2-1.3-3.3-3.1c0-0.2,0-0.2,0-0.4l1.2-14.4c0.2-2,1.9-3.5,3.8-3.5
				c1.7-0.1,3.2,1.3,3.3,3.1c0,0.2,0,0.3,0,0.4l-1.2,14.4C238,199.4,236.5,200.9,234.6,201z"/>
		</g>
	</g>
	<g>
		<g>
			<defs>
				<rect id="SVGID_67_" x="-0.7" y="67" width="376.5" height="254.6"/>
			</defs>
			<clipPath id="SVGID_68_">
				<use xlink:href="#SVGID_67_"  style="overflow:visible;"/>
			</clipPath>
			<path class="st39" d="M265.5,198.4h-0.3c-1.7,0.1-3.2-1.3-3.3-3.1c0-0.2,0-0.2,0-0.4l1.2-14.4c0.2-2,1.9-3.5,3.8-3.5
				c1.7-0.1,3.2,1.3,3.3,3.1c0,0.2,0,0.2,0,0.4l-1.2,14.4C268.9,196.7,267.4,198.2,265.5,198.4z"/>
		</g>
	</g>
	<g>
		<g>
			<defs>
				<rect id="SVGID_69_" x="-0.7" y="67" width="376.5" height="254.6"/>
			</defs>
			<clipPath id="SVGID_70_">
				<use xlink:href="#SVGID_69_"  style="overflow:visible;"/>
			</clipPath>
			<path class="st40" d="M253.2,199.4l-18.1,1.6c-1.9,0.2-3.5-1.1-3.7-3c0-0.2,0-0.3,0-0.5c0.1-2.1,1.6-3.8,3.7-4.1l18.1-1.6
				c1.9-0.2,3.5,1.1,3.7,3c0,0.2,0,0.3,0,0.5C257,197.6,255.3,199.3,253.2,199.4z"/>
		</g>
	</g>
	<g>
		<g>
			<defs>
				<rect id="SVGID_71_" x="-0.7" y="67" width="376.5" height="254.6"/>
			</defs>
			<clipPath id="SVGID_72_">
				<use xlink:href="#SVGID_71_"  style="overflow:visible;"/>
			</clipPath>
			<path class="st41" d="M284.1,196.8l-18.1,1.6c-1.9,0.2-3.5-1.1-3.7-3c0-0.2,0-0.3,0-0.4c0.1-2.1,1.6-3.8,3.7-4.1l18.1-1.6
				c1.9-0.2,3.5,1.1,3.7,3c0,0.2,0,0.3,0,0.5C287.8,194.8,286.2,196.6,284.1,196.8z"/>
		</g>
	</g>
	<g>
		<g>
			<defs>
				<rect id="SVGID_73_" x="-0.7" y="67" width="376.5" height="254.6"/>
			</defs>
			<clipPath id="SVGID_74_">
				<use xlink:href="#SVGID_73_"  style="overflow:visible;"/>
			</clipPath>
			<path class="st42" d="M245.4,207.3h-0.3c-1.9,0.1-3.4-1.4-3.4-3.3c0-0.2,0-0.3,0-0.4l0.6-7c0.2-2.1,2-3.7,4.1-3.7
				c1.9-0.1,3.4,1.4,3.4,3.3c0,0.2,0,0.3,0,0.5l-0.6,7C249,205.5,247.4,207.1,245.4,207.3z"/>
		</g>
	</g>
	<g>
		<g>
			<defs>
				<rect id="SVGID_75_" x="-0.7" y="67" width="376.5" height="254.6"/>
			</defs>
			<clipPath id="SVGID_76_">
				<use xlink:href="#SVGID_75_"  style="overflow:visible;"/>
			</clipPath>
			<path class="st43" d="M276.9,204.5h-0.3c-1.9,0.1-3.4-1.4-3.4-3.3c0-0.2,0-0.3,0-0.4l0.6-7c0.2-2.1,2-3.7,4.1-3.7
				c1.9-0.1,3.4,1.4,3.4,3.3c0,0.2,0,0.3,0,0.4l-0.6,7C280.5,202.8,279,204.4,276.9,204.5z"/>
		</g>
	</g>
	<g>
		<g>
			<defs>
				<rect id="SVGID_77_" x="-0.7" y="67" width="376.5" height="254.6"/>
			</defs>
			<clipPath id="SVGID_78_">
				<use xlink:href="#SVGID_77_"  style="overflow:visible;"/>
			</clipPath>
			<path class="st44" d="M256.6,314.2h-0.4c-2,0.1-3.6-1.5-3.6-3.4c0-0.2,0-0.3,0-0.5l8.1-93.1c0.2-2.2,2.1-3.9,4.3-3.9
				c2-0.1,3.6,1.5,3.6,3.4c0,0.2,0,0.3,0,0.5l-8.1,93.1C260.3,312.4,258.7,314,256.6,314.2z"/>
		</g>
	</g>
	<g>
		<g>
			<defs>
				<rect id="SVGID_79_" x="-0.7" y="67" width="376.5" height="254.6"/>
			</defs>
			<clipPath id="SVGID_80_">
				<use xlink:href="#SVGID_79_"  style="overflow:visible;"/>
			</clipPath>
			<path class="st45" d="M229.2,267.3h-0.3c-1.6,0-2.9-1.2-3-2.8c0-0.2,0-0.2,0-0.4l4-45.6c0.2-1.8,1.7-3.1,3.5-3.2
				c1.6-0.1,2.9,1.2,3,2.8c0,0.2,0,0.2,0,0.4l-4,45.6C232.2,265.8,230.9,267.1,229.2,267.3z"/>
		</g>
	</g>
	<g>
		<g>
			<defs>
				<rect id="SVGID_81_" x="-0.7" y="67" width="376.5" height="254.6"/>
			</defs>
			<clipPath id="SVGID_82_">
				<use xlink:href="#SVGID_81_"  style="overflow:visible;"/>
			</clipPath>
			<path class="st46" d="M174.7,281.4h-0.3c-1.7,0-3.2-1.4-3.2-3.1c0-0.2,0-0.3,0-0.4l1.7-19.6c0.2-2,1.9-3.4,3.8-3.5
				c1.7-0.1,3.2,1.3,3.3,3.1c0,0.2,0,0.2,0,0.4l-1.8,19.6C178,279.7,176.5,281.2,174.7,281.4z"/>
		</g>
	</g>
	<g>
		<g>
			<defs>
				<rect id="SVGID_83_" x="-0.7" y="67" width="376.5" height="254.6"/>
			</defs>
			<clipPath id="SVGID_84_">
				<use xlink:href="#SVGID_83_"  style="overflow:visible;"/>
			</clipPath>
			<path class="st47" d="M202.5,202.6l-43.7,3.8c-1.7,0.2-3.4-1-3.5-2.8c0-0.2,0-0.2,0-0.4c0.1-2,1.6-3.6,3.5-3.8l43.7-3.8
				c1.7-0.2,3.4,1,3.5,2.8c0,0.2,0,0.2,0,0.4C206,200.9,204.4,202.5,202.5,202.6z"/>
		</g>
	</g>
	<g>
		<g>
			<defs>
				<rect id="SVGID_85_" x="-0.7" y="67" width="376.5" height="254.6"/>
			</defs>
			<clipPath id="SVGID_86_">
				<use xlink:href="#SVGID_85_"  style="overflow:visible;"/>
			</clipPath>
			<path class="st48" d="M180.6,204.6h-0.3c-1.7,0.1-3.2-1.3-3.3-3.1c0-0.2,0-0.2,0-0.4l1.2-14.4c0.2-2,1.9-3.4,3.8-3.5
				c1.7-0.1,3.2,1.3,3.3,3.1c0,0.2,0,0.2,0,0.4l-1.2,14.4C183.9,202.9,182.5,204.4,180.6,204.6z"/>
		</g>
	</g>
	<g>
		<g>
			<defs>
				<rect id="SVGID_87_" x="-0.7" y="67" width="376.5" height="254.6"/>
			</defs>
			<clipPath id="SVGID_88_">
				<use xlink:href="#SVGID_87_"  style="overflow:visible;"/>
			</clipPath>
			<path class="st49" d="M207.5,257.1l-61.8,5.4c-1.7,0.2-3.4-1-3.5-2.8c0-0.2,0-0.2,0-0.4c0.1-2,1.6-3.6,3.5-3.8l61.8-5.4
				c1.7-0.2,3.4,1,3.5,2.8c0,0.2,0,0.2,0,0.4C211,255.3,209.5,256.9,207.5,257.1z"/>
		</g>
	</g>
	<g>
		<g>
			<defs>
				<rect id="SVGID_89_" x="-0.7" y="67" width="376.5" height="254.6"/>
			</defs>
			<clipPath id="SVGID_90_">
				<use xlink:href="#SVGID_89_"  style="overflow:visible;"/>
			</clipPath>
			<path class="st50" d="M190.1,244.3l-34.1,3c-1.9,0.2-3.5-1.1-3.7-3c0-0.2,0-0.3,0-0.4c0.1-2.1,1.6-3.8,3.7-4.1l34.1-3
				c4.5-0.5,8-4.1,8.5-8.5l0.2-2.3c0.2-1.8-0.4-3.6-1.6-4.9c-1.3-1.2-3.1-1.8-4.9-1.6l-34.1,2.9c-1.9,0.2-3.5-1.1-3.7-3
				c0-0.2,0-0.3,0-0.4c0.1-2.1,1.6-3.8,3.7-4.1l34.1-3c3.8-0.5,7.7,0.9,10.5,3.5c2.7,2.7,4.1,6.6,3.6,10.4l-0.2,2.3
				C205.4,236.4,198.2,243.5,190.1,244.3z"/>
		</g>
	</g>
	<g>
		<g>
			<defs>
				<rect id="SVGID_91_" x="-0.7" y="67" width="376.5" height="254.6"/>
			</defs>
			<clipPath id="SVGID_92_">
				<use xlink:href="#SVGID_91_"  style="overflow:visible;"/>
			</clipPath>
			<path class="st51" d="M188.8,232.1l-31.6,2.7c-1.9,0.2-3.5-1.1-3.7-3c0-0.2,0-0.3,0-0.4c0.1-2.1,1.6-3.8,3.7-4.1l31.6-2.7
				c1.9-0.2,3.5,1.1,3.7,3c0,0.2,0,0.3,0,0.4C192.5,230.1,190.9,231.9,188.8,232.1z"/>
		</g>
	</g>
	<g>
		<g>
			<defs>
				<rect id="SVGID_93_" x="-0.7" y="67" width="376.5" height="254.6"/>
			</defs>
			<clipPath id="SVGID_94_">
				<use xlink:href="#SVGID_93_"  style="overflow:visible;"/>
			</clipPath>
			<path class="st52" d="M130.2,263.1l-61.8,5.4c-1.7,0.2-3.4-1-3.5-2.8c0-0.2,0-0.2,0-0.4c0.1-2,1.6-3.6,3.5-3.8l61.8-5.4
				c1.7-0.2,3.4,1,3.5,2.8c0,0.2,0,0.2,0,0.4C133.7,261.3,132.2,262.9,130.2,263.1z"/>
		</g>
	</g>
	<g>
		<g>
			<defs>
				<rect id="SVGID_95_" x="-0.7" y="67" width="376.5" height="254.6"/>
			</defs>
			<clipPath id="SVGID_96_">
				<use xlink:href="#SVGID_95_"  style="overflow:visible;"/>
			</clipPath>
			<path class="st53" d="M97.4,287.4h-0.3c-1.7,0-3.2-1.3-3.3-3.1c0-0.2,0-0.2,0-0.4l1.7-19.6c0.2-2,1.9-3.4,3.8-3.5
				c1.7-0.1,3.2,1.3,3.3,3.1c0,0.2,0,0.2,0,0.4l-1.7,19.6C100.7,285.7,99.2,287.2,97.4,287.4z"/>
		</g>
	</g>
	<g>
		<g>
			<defs>
				<rect id="SVGID_97_" x="-0.7" y="67" width="376.5" height="254.6"/>
			</defs>
			<clipPath id="SVGID_98_">
				<use xlink:href="#SVGID_97_"  style="overflow:visible;"/>
			</clipPath>
			<path class="st54" d="M119.4,190.3c-6.4,0.6-11.4,5.9-11.6,12.4c-0.1,5.7,4.5,10.4,10.2,10.5c0.5,0,0.9,0,1.3-0.1
				c6.4-0.6,11.4-5.9,11.6-12.3c0.1-5.7-4.5-10.4-10.2-10.5C120.2,190.2,119.8,190.2,119.4,190.3z M119.4,206.6
				c-2.4,0.3-4.6-1.5-4.9-3.9c0-0.2,0-0.4,0-0.5c0.1-2.7,2.2-5,4.9-5.2c2.4-0.3,4.6,1.4,4.9,3.8c0,0.2,0,0.4,0,0.5
				C124.2,204,122.1,206.2,119.4,206.6L119.4,206.6z"/>
		</g>
	</g>
	<g>
		<g>
			<defs>
				<rect id="SVGID_99_" x="-0.7" y="67" width="376.5" height="254.6"/>
			</defs>
			<clipPath id="SVGID_100_">
				<use xlink:href="#SVGID_99_"  style="overflow:visible;"/>
			</clipPath>
			<path class="st55" d="M88.7,193c-6.4,0.6-11.4,5.9-11.6,12.4c-0.1,5.7,4.5,10.4,10.2,10.5c0.5,0,0.9,0,1.3-0.1
				c6.4-0.6,11.4-5.9,11.6-12.3c0.1-5.7-4.5-10.4-10.2-10.5C89.5,192.9,89.1,192.9,88.7,193z M89,208.7c-2.2,0.2-4.2-1.3-4.5-3.5
				c0-0.2,0-0.3,0-0.5c0.1-2.5,2-4.6,4.5-4.8c2.2-0.2,4.2,1.3,4.5,3.5c0,0.2,0,0.3,0,0.5C93.4,206.5,91.5,208.5,89,208.7z"/>
		</g>
	</g>
	<g>
		<g>
			<defs>
				<rect id="SVGID_101_" x="-0.7" y="67" width="376.5" height="254.6"/>
			</defs>
			<clipPath id="SVGID_102_">
				<use xlink:href="#SVGID_101_"  style="overflow:visible;"/>
			</clipPath>
			<path class="st56" d="M112.4,251l-34.1,3c-1.9,0.2-3.5-1.1-3.7-3c0-0.2,0-0.3,0-0.4c0.1-2.1,1.6-3.8,3.7-4.1l34.1-3
				c4.5-0.5,8-4.1,8.5-8.5l0.2-2.3c0.2-1.8-0.4-3.6-1.6-4.9c-1.3-1.2-3.1-1.8-4.9-1.6l-34.1,3c-1.9,0.2-3.5-1.1-3.7-3
				c0-0.2,0-0.3,0-0.4c0.1-2.1,1.6-3.8,3.7-4.1l34.1-3c3.8-0.5,7.7,0.9,10.5,3.5c2.7,2.7,4.1,6.6,3.6,10.4l-0.2,2.3
				C127.7,243.2,120.5,250.3,112.4,251z"/>
		</g>
	</g>
	<g>
		<g>
			<defs>
				<rect id="SVGID_103_" x="-0.7" y="67" width="376.5" height="254.6"/>
			</defs>
			<clipPath id="SVGID_104_">
				<use xlink:href="#SVGID_103_"  style="overflow:visible;"/>
			</clipPath>
			<path class="st57" d="M111.1,238.8l-31.6,2.7c-1.9,0.2-3.5-1.1-3.7-3c0-0.2,0-0.3,0-0.4c0.1-2.1,1.6-3.8,3.7-4.1l31.6-2.7
				c1.9-0.2,3.5,1.1,3.7,3c0,0.2,0,0.3,0,0.4C114.8,236.8,113.2,238.6,111.1,238.8z"/>
		</g>
	</g>
	<g>
		<g>
			<defs>
				<rect id="SVGID_105_" x="-0.7" y="67" width="376.5" height="254.6"/>
			</defs>
			<clipPath id="SVGID_106_">
				<use xlink:href="#SVGID_105_"  style="overflow:visible;"/>
			</clipPath>
			<path class="st58" d="M144.3,105.8l-43.7,3.8c-2,0.2-3.5,1.8-3.5,3.8c0,1.7,1.4,3.2,3.1,3.2c0.2,0,0.2,0,0.4,0l43.7-3.7
				c2-0.2,3.5-1.8,3.5-3.8c0-1.8-1.4-3.2-3.2-3.2C144.5,105.8,144.4,105.8,144.3,105.8z"/>
		</g>
	</g>
	<g>
		<g>
			<defs>
				<rect id="SVGID_107_" x="-0.7" y="67" width="376.5" height="254.6"/>
			</defs>
			<clipPath id="SVGID_108_">
				<use xlink:href="#SVGID_107_"  style="overflow:visible;"/>
			</clipPath>
			<path class="st59" d="M82.8,129.1c-2,0.1-3.6,1.6-3.8,3.5l-3.8,43.3c-0.2,1.7,1.1,3.3,2.8,3.5c0.2,0,0.2,0,0.4,0h0.3
				c1.9-0.2,3.4-1.6,3.5-3.5l3.7-43.3c0.2-1.7-1.1-3.3-2.8-3.5C83.1,129.1,83,129.1,82.8,129.1z"/>
		</g>
	</g>
	<g>
		<g>
			<defs>
				<rect id="SVGID_109_" x="-0.7" y="67" width="376.5" height="254.6"/>
			</defs>
			<clipPath id="SVGID_110_">
				<use xlink:href="#SVGID_109_"  style="overflow:visible;"/>
			</clipPath>
			<path class="st60" d="M120.5,141c-0.9-0.9-2.3-1.2-3.4-0.7c-0.2,0-0.5,0-0.8,0l-17.2,1.5c-2.1,0.2-3.7,2-3.7,4.1
				c0,1.9,1.5,3.4,3.4,3.4c0.2,0,0.3,0,0.4,0l9.1-0.8l-8.6,8.5c-1.4,1.3-1.6,3.5-0.2,4.9l0,0c0.7,0.7,1.6,1,2.7,0.9
				c0.9-0.1,1.7-0.5,2.4-1.1l15.8-15.8C121.7,144.7,121.9,142.5,120.5,141C120.6,141,120.5,141,120.5,141z"/>
		</g>
	</g>
	<g>
		<g>
			<defs>
				<rect id="SVGID_111_" x="-0.7" y="67" width="376.5" height="254.6"/>
			</defs>
			<clipPath id="SVGID_112_">
				<use xlink:href="#SVGID_111_"  style="overflow:visible;"/>
			</clipPath>
			<path class="st61" d="M143.8,139.4c-1.5-1.3-3.7-1.2-5,0.2l-29,28.8c-1.4,1.3-1.6,3.5-0.2,4.9l0,0c0.7,0.7,1.6,1,2.7,0.9
				c0.9-0.1,1.8-0.5,2.4-1.1l11.6-11.6l11.7,11.6c0.7,0.7,1.6,1,2.7,0.9c0.9-0.1,1.7-0.5,2.4-1.1c1.4-1.3,1.6-3.5,0.2-4.9l0,0
				l-11.7-11.6l12.2-12.1C145.1,143.1,145.2,140.8,143.8,139.4C143.9,139.4,143.9,139.4,143.8,139.4z"/>
		</g>
	</g>
	<g>
		<g>
			<defs>
				<rect id="SVGID_113_" x="-0.7" y="67" width="376.5" height="254.6"/>
			</defs>
			<clipPath id="SVGID_114_">
				<use xlink:href="#SVGID_113_"  style="overflow:visible;"/>
			</clipPath>
			<path class="st62" d="M154,88.8l-16.5,1.4c-2,0.2-3.5,1.8-3.5,3.8c0,1.8,1.4,3.2,3.1,3.2c0.2,0,0.2,0,0.4,0l16.5-1.4
				c2-0.2,3.5-1.8,3.5-3.8c0-1.7-1.4-3.2-3.1-3.2C154.2,88.7,154.1,88.7,154,88.8z"/>
		</g>
	</g>
	<g>
		<g>
			<defs>
				<rect id="SVGID_115_" x="-0.7" y="67" width="376.5" height="254.6"/>
			</defs>
			<clipPath id="SVGID_116_">
				<use xlink:href="#SVGID_115_"  style="overflow:visible;"/>
			</clipPath>
			<g class="st63">
				<path class="st64" d="M198.9,121.2l18.6-1.6c2-0.2,3.5-1.8,3.6-3.8c0-1.7-1.4-3.2-3.1-3.2c-0.2,0-0.2,0-0.4,0l-18,1.6l2.1-24.2
					c0.2-1.7-1-3.4-2.8-3.5c-0.2,0-0.3,0-0.5,0c-2,0-3.7,1.6-3.8,3.5l-2.2,24.8l-18.6,1.6c-2,0.2-3.4,1.8-3.5,3.8
					c0,1.7,1.4,3.2,3.1,3.2c0.2,0,0.2,0,0.4,0l18-1.6l-0.9,11.2l-32.6,32.3c-1.4,1.3-1.6,3.5-0.2,4.9l0,0c0.7,0.7,1.6,1,2.7,0.9
					c0.9-0.1,1.8-0.5,2.4-1.1l33.6-33.3c0.8-0.8,1.2-1.8,1.1-2.9c0.1-0.2,0.1-0.4,0.1-0.6L198.9,121.2z"/>
			</g>
		</g>
	</g>
	<g>
		<g>
			<defs>
				<rect id="SVGID_117_" x="-0.7" y="67" width="376.5" height="254.6"/>
			</defs>
			<clipPath id="SVGID_118_">
				<use xlink:href="#SVGID_117_"  style="overflow:visible;"/>
			</clipPath>
			<path class="st65" d="M277.6,208l-16.4,1.4c-2.1,0.2-3.7,2-3.7,4.1c0,0.2,0,0.5,0.1,0.8c0,0.1-0.1,0.2-0.1,0.3l-8.1,93.1
				c-0.2,2,1.2,3.7,3.1,3.9c0.2,0,0.3,0,0.5,0h0.4c2-0.2,3.7-1.9,3.9-3.9l8-91.1l12.5-1.1c2.1-0.2,3.7-2,3.7-4.1
				c0-1.9-1.5-3.4-3.4-3.4C277.9,208,277.7,208,277.6,208z"/>
		</g>
	</g>
	<g>
		<g>
			<defs>
				<rect id="SVGID_119_" x="-0.7" y="67" width="376.5" height="254.6"/>
			</defs>
			<clipPath id="SVGID_120_">
				<use xlink:href="#SVGID_119_"  style="overflow:visible;"/>
			</clipPath>
			<path class="st66" d="M276.7,224c-2,0-3.7,1.6-3.8,3.5l-2.2,25c-0.2,1.7,1.1,3.3,2.8,3.5c0.2,0,0.2,0,0.4,0h0.3
				c1.9-0.2,3.4-1.6,3.5-3.5l2.2-25c0.2-1.7-1.1-3.3-2.8-3.5C276.9,224,276.8,224,276.7,224z"/>
		</g>
	</g>
	<g>
		<g>
			<defs>
				<rect id="SVGID_121_" x="-0.7" y="67" width="376.5" height="254.6"/>
			</defs>
			<clipPath id="SVGID_122_">
				<use xlink:href="#SVGID_121_"  style="overflow:visible;"/>
			</clipPath>
			<path class="st67" d="M246.4,232.7c2-0.2,3.5-1.8,3.5-3.8c0-1.8-1.4-3.2-3.2-3.2c-0.2,0-0.2,0-0.4,0l-14.5,1.2l0.7-7.9l13.7-1.2
				c2-0.2,3.5-1.8,3.5-3.8c0-1.8-1.4-3.2-3.2-3.2c-0.2,0-0.2,0-0.4,0l-16.5,1.4c-2,0.2-3.5,1.8-3.5,3.8c0,0.3,0.1,0.6,0.2,0.9
				l-3.9,44.4c-0.1,0.8,0.2,1.6,0.7,2.1c0.2,0.5,0.4,0.9,0.8,1.2l10.6,10.5c0.7,0.7,1.6,1,2.7,0.9c0.9-0.1,1.7-0.5,2.4-1.1
				c1.4-1.2,1.6-3.5,0.2-4.9c0,0,0,0,0-0.1l-10.6-10.5l-0.1-0.1l1-11.8l14.9-1.3c2-0.2,3.5-1.8,3.5-3.8c0-1.8-1.4-3.2-3.2-3.2
				c-0.2,0-0.2,0-0.4,0l-14.3,1.2l0.6-6.7L246.4,232.7z"/>
		</g>
	</g>
	<g>
		<g>
			<defs>
				<rect id="SVGID_123_" x="-0.7" y="67" width="376.5" height="254.6"/>
			</defs>
			<clipPath id="SVGID_124_">
				<use xlink:href="#SVGID_123_"  style="overflow:visible;"/>
			</clipPath>
			<path class="st68" d="M230.9,198.4L230.9,198.4c0.2,0,0.5,0,0.8,0l6.8-0.6l-0.3,3.1c-0.2,1.9,1.2,3.5,3,3.7c0.2,0,0.3,0,0.5,0
				h0.3c2-0.2,3.5-1.7,3.7-3.7l0.3-3.7l3.7-0.3c2.1-0.2,3.7-2,3.7-4.1c0-1.9-1.5-3.4-3.4-3.4c-0.2,0-0.3,0-0.5,0l-14.7,1.2l0.9-10.2
				c0.2-1.7-1.1-3.3-2.8-3.5c-0.2,0-0.2,0-0.4,0c-2,0-3.7,1.6-3.8,3.5l-1.2,14.4c-0.2,1.7,1.1,3.3,2.8,3.5
				C230.6,198.4,230.7,198.4,230.9,198.4z"/>
		</g>
	</g>
	<g>
		<g>
			<defs>
				<rect id="SVGID_125_" x="-0.7" y="67" width="376.5" height="254.6"/>
			</defs>
			<clipPath id="SVGID_126_">
				<use xlink:href="#SVGID_125_"  style="overflow:visible;"/>
			</clipPath>
			<path class="st69" d="M280.6,186.8L266,188l0.9-10.2c0.2-1.7-1.1-3.3-2.8-3.5c-0.2,0-0.2,0-0.4,0c-2,0-3.7,1.6-3.8,3.5l-1.2,14.3
				c-0.2,1.7,1,3.3,2.7,3.4c0.1,0,0.2,0,0.2,0c0.3,0.1,0.6,0.1,0.9,0.1l7.5-0.6l-0.3,3.1c-0.2,1.9,1.2,3.5,3,3.7c0.2,0,0.3,0,0.5,0
				h0.3c2-0.2,3.5-1.7,3.7-3.7l0.3-3.7l3-0.2c2.1-0.2,3.7-2,3.7-4.1c0-1.9-1.5-3.4-3.4-3.4C280.9,186.7,280.8,186.7,280.6,186.8z"/>
		</g>
	</g>
	<g>
		<g>
			<defs>
				<rect id="SVGID_127_" x="-0.7" y="67" width="376.5" height="254.6"/>
			</defs>
			<clipPath id="SVGID_128_">
				<use xlink:href="#SVGID_127_"  style="overflow:visible;"/>
			</clipPath>
			<path class="st70" d="M154.5,204.3l21.8-1.9h0.1l21.8-1.9c2-0.2,3.5-1.8,3.5-3.8c0-1.8-1.4-3.2-3.2-3.2c-0.2,0-0.2,0-0.4,0
				l-18,1.6l0.9-10.5c0.2-1.7-1.1-3.3-2.8-3.5c-0.2,0-0.3,0-0.4,0c-2,0.1-3.6,1.6-3.8,3.5l-0.9,11.1l-18.6,1.6
				c-2,0.2-3.5,1.8-3.5,3.8c0,1.7,1.4,3.2,3.1,3.2C154.3,204.3,154.4,204.3,154.5,204.3z"/>
		</g>
	</g>
	<g>
		<g>
			<defs>
				<rect id="SVGID_129_" x="-0.7" y="67" width="376.5" height="254.6"/>
			</defs>
			<clipPath id="SVGID_130_">
				<use xlink:href="#SVGID_129_"  style="overflow:visible;"/>
			</clipPath>
			<path class="st71" d="M203.2,247.9l-61.8,5.4c-2,0.2-3.5,1.8-3.5,3.8c0,1.7,1.4,3.2,3.1,3.2c0.2,0,0.2,0,0.4,0l27-2.3l-1.6,17.8
				c-0.2,1.7,1.1,3.3,2.8,3.5c0.2,0,0.3,0,0.4,0h0.3c1.9-0.2,3.4-1.6,3.5-3.5l1.6-18.4l27.6-2.4c2-0.2,3.5-1.8,3.5-3.8
				c0-1.8-1.4-3.2-3.1-3.2C203.5,247.9,203.4,247.9,203.2,247.9z"/>
		</g>
	</g>
	<g>
		<g>
			<defs>
				<rect id="SVGID_131_" x="-0.7" y="67" width="376.5" height="254.6"/>
			</defs>
			<clipPath id="SVGID_132_">
				<use xlink:href="#SVGID_131_"  style="overflow:visible;"/>
			</clipPath>
			<path class="st72" d="M151.8,245l34.1-3c8.1-0.7,15.3-7.8,16-15.9l0.2-2.3c0.5-3.8-0.9-7.7-3.6-10.4c-2.8-2.7-6.6-4-10.5-3.5
				l-34,3c-2.1,0.2-3.7,2-3.7,4.1c0,1.9,1.5,3.4,3.4,3.4c0.2,0,0.3,0,0.4,0l34.1-3c1.8-0.2,3.6,0.4,4.9,1.6c1.2,1.3,1.9,3.1,1.6,4.9
				l-0.2,2.3c-0.5,4.5-4.1,7.9-8.5,8.5l-34.1,3c-2.1,0.2-3.7,2-3.7,4.1c0,1.9,1.4,3.4,3.3,3.4C151.5,245,151.6,245,151.8,245z"/>
		</g>
	</g>
	<g>
		<g>
			<defs>
				<rect id="SVGID_133_" x="-0.7" y="67" width="376.5" height="254.6"/>
			</defs>
			<clipPath id="SVGID_134_">
				<use xlink:href="#SVGID_133_"  style="overflow:visible;"/>
			</clipPath>
			<path class="st73" d="M184.6,229.9c2.1-0.2,3.7-2,3.7-4.1c0-1.9-1.5-3.4-3.4-3.4c-0.2,0-0.3,0-0.4,0l-31.6,2.7
				c-2.1,0.2-3.7,2-3.7,4.1c0,1.9,1.5,3.4,3.4,3.4c0.2,0,0.3,0,0.4,0L184.6,229.9z"/>
		</g>
	</g>
	<g>
		<g>
			<defs>
				<rect id="SVGID_135_" x="-0.7" y="67" width="376.5" height="254.6"/>
			</defs>
			<clipPath id="SVGID_136_">
				<use xlink:href="#SVGID_135_"  style="overflow:visible;"/>
			</clipPath>
			<path class="st74" d="M126.2,254.3l-61.8,5.4c-2,0.2-3.5,1.8-3.5,3.8c0,1.7,1.4,3.2,3.1,3.2c0.2,0,0.2,0,0.4,0l27-2.3l-1.6,17.8
				c-0.2,1.7,1,3.3,2.8,3.5c0.2,0,0.3,0,0.5,0h0.3c1.9-0.2,3.4-1.6,3.5-3.5l1.6-18.4l27.6-2.4c2-0.2,3.5-1.8,3.5-3.8
				c0-1.8-1.4-3.2-3.1-3.2C126.5,254.3,126.3,254.3,126.2,254.3z"/>
		</g>
	</g>
	<g>
		<g>
			<defs>
				<rect id="SVGID_137_" x="-0.7" y="67" width="376.5" height="254.6"/>
			</defs>
			<clipPath id="SVGID_138_">
				<use xlink:href="#SVGID_137_"  style="overflow:visible;"/>
			</clipPath>
			<path class="st75" d="M115.3,211.3c6.4-0.6,11.4-5.9,11.6-12.3c0.1-5.7-4.5-10.4-10.2-10.5c-0.5,0-0.9,0-1.3,0.1
				c-6.4,0.6-11.4,5.9-11.6,12.4C103.8,207.2,109,211.9,115.3,211.3z M115.3,195.1c2.4-0.3,4.6,1.4,4.9,3.8c0,0.2,0,0.4,0,0.5
				c-0.1,2.7-2.2,5-4.9,5.2c-2.4,0.3-4.6-1.5-4.9-3.9c0-0.2,0-0.4,0-0.5C110.5,197.6,112.6,195.3,115.3,195.1L115.3,195.1z"/>
		</g>
	</g>
	<g>
		<g>
			<defs>
				<rect id="SVGID_139_" x="-0.7" y="67" width="376.5" height="254.6"/>
			</defs>
			<clipPath id="SVGID_140_">
				<use xlink:href="#SVGID_139_"  style="overflow:visible;"/>
			</clipPath>
			<path class="st76" d="M84.6,214c6.4-0.6,11.4-5.9,11.6-12.3c0.1-5.7-4.5-10.4-10.2-10.5c-0.5,0-0.9,0-1.3,0.1
				c-6.4,0.6-11.4,5.9-11.6,12.4c-0.1,5.7,4.5,10.4,10.2,10.5C83.8,214,84.2,214,84.6,214z M84.9,198.1c2.2-0.2,4.2,1.3,4.5,3.5
				c0,0.2,0,0.3,0,0.5c-0.1,2.5-2,4.6-4.5,4.8c-2.2,0.2-4.2-1.3-4.5-3.5c0-0.2,0-0.3,0-0.5C80.5,200.4,82.4,198.4,84.9,198.1
				L84.9,198.1z"/>
		</g>
	</g>
	<g>
		<g>
			<defs>
				<rect id="SVGID_141_" x="-0.7" y="67" width="376.5" height="254.6"/>
			</defs>
			<clipPath id="SVGID_142_">
				<use xlink:href="#SVGID_141_"  style="overflow:visible;"/>
			</clipPath>
			<path class="st77" d="M74.2,252.2l34.1-3c8.1-0.7,15.3-7.8,16-15.9l0.2-2.3c0.5-3.8-0.9-7.7-3.6-10.4c-2.8-2.7-6.6-4-10.5-3.5
				l-34.1,3c-2.1,0.2-3.7,2-3.7,4.1c0,1.9,1.5,3.4,3.4,3.4c0.2,0,0.3,0,0.4,0l34.1-3c1.8-0.2,3.6,0.4,4.9,1.6
				c1.2,1.3,1.9,3.1,1.6,4.9l-0.2,2.3c-0.5,4.5-4.1,7.9-8.5,8.5l-34.1,2.8c-2.1,0.2-3.7,2-3.7,4.1c0,1.9,1.5,3.4,3.4,3.4
				C74,252.2,74.2,252.2,74.2,252.2z"/>
		</g>
	</g>
	<g>
		<g>
			<defs>
				<rect id="SVGID_143_" x="-0.7" y="67" width="376.5" height="254.6"/>
			</defs>
			<clipPath id="SVGID_144_">
				<use xlink:href="#SVGID_143_"  style="overflow:visible;"/>
			</clipPath>
			<path class="st78" d="M107,237c2.1-0.2,3.7-2,3.7-4.1c0-1.9-1.5-3.4-3.4-3.4c-0.2,0-0.3,0-0.4,0l-31.6,2.7
				c-2.1,0.2-3.7,2-3.7,4.1c0,1.9,1.5,3.4,3.4,3.4c0.2,0,0.3,0,0.4,0L107,237z"/>
		</g>
	</g>
	<g>
		<g>
			<defs>
				<rect id="SVGID_145_" x="-0.7" y="67" width="376.5" height="254.6"/>
			</defs>
			<clipPath id="SVGID_146_">
				<use xlink:href="#SVGID_145_"  style="overflow:visible;"/>
			</clipPath>
			<path class="st79" d="M285.9,155.5l-61.5,5.3l0,0l-11.9-11.9c-1.5-1.3-3.7-1.2-5,0.2c-1.4,1.2-1.6,3.5-0.2,4.9c0,0,0,0,0,0.1
				l12.7,12.7c0.5,0.5,1,0.7,1.6,0.9c0.8,0.8,1.8,1.1,2.9,1l61.5-5.3c2.2-0.2,3.9-2,4-4.2c0-2-1.6-3.6-3.5-3.6
				C286.2,155.4,286.1,155.4,285.9,155.5z"/>
		</g>
	</g>
</g>
</svg>
