<?xml version="1.0" encoding="utf-8"?>
<!-- Generator: Adobe Illustrator 21.0.0, SVG Export Plug-In . SVG Version: 6.00 Build 0)  -->
<svg version="1.1" id="圖層_1" xmlns="http://www.w3.org/2000/svg" xmlns:xlink="http://www.w3.org/1999/xlink" x="0px" y="0px"
	 viewBox="0 0 22 40.3" style="enable-background:new 0 0 22 40.3;" xml:space="preserve">
<style type="text/css">
	.st0{fill:#C5564F;}
	.st1{fill:#192D78;}
</style>
<title>資產 3</title>
<path class="st0" d="M0,32.9L0,32.9c0-4.1,3.4-7.5,7.5-7.5c1.1,0,2.3,0.3,3.3,0.8c0.4,0.2,0.5,0.7,0.3,1l0,0
	c-0.2,0.4-0.7,0.6-1.1,0.4C9.2,27.2,8.3,27,7.4,27c-3.2,0-5.7,2.6-5.7,5.7l0,0l0,0c0,3.2,2.6,5.9,5.8,5.9l0,0c0.9,0,1.7-0.2,2.5-0.6
	c0.4-0.2,0.8-0.1,1,0.3c0,0,0,0,0,0.1c0.2,0.4,0,0.9-0.5,1.1c-3.7,1.8-8.1,0.3-9.9-3.4C0.2,35.2,0,34.1,0,32.9z"/>
<path class="st1" d="M19.5,19.1L19.5,19.1v-3.8c0-0.7,0.6-1.3,1.3-1.4c0.6-0.1,1.2,0.4,1.3,1V15l0,0v3.8c0,0.7-0.6,1.3-1.3,1.4
	C20.2,20.3,19.6,19.8,19.5,19.1C19.5,19.2,19.5,19.2,19.5,19.1z"/>
<path class="st0" d="M0.1,7.7L0.1,7.7C0.1,3.5,3.6,0,7.8,0s7.5,3.4,7.5,7.5l0,0c0,2.8-1.5,5.4-4,6.8c-0.4,0.2-0.8,0.1-1.1-0.3l0,0
	c-0.2-0.4-0.1-0.9,0.3-1.2c1.9-1,3.1-3,3.1-5.1l0,0c0-3.3-2.7-6-6-6S1.7,4.3,1.7,7.6l0,0l0,0C1.7,9.9,3,12,5,13
	c0.4,0.2,0.5,0.7,0.3,1.1l0,0c-0.2,0.4-0.7,0.6-1.1,0.4C1.7,13.2,0.1,10.6,0.1,7.7z"/>
<path class="st0" d="M15,33.5L15,33.5v-3.8c0-0.4,0.3-0.8,0.8-0.8c0.4,0,0.7,0.2,0.8,0.6v0.1l0,0v3.8c0,0.4-0.3,0.8-0.8,0.8
	C15.4,34.2,15.1,34,15,33.5C15,33.6,15,33.5,15,33.5z"/>
<path class="st0" d="M6.6,7.3c0-0.2,0.1-0.5,0.3-0.6c0.3-0.3,0.8-0.4,1.2-0.1l0,0l10.6,10.6c0.3,0.4,0.2,0.9-0.1,1.2
	c-0.3,0.3-0.8,0.3-1.1,0L6.8,7.8C6.7,7.7,6.6,7.5,6.6,7.3z"/>
<path class="st0" d="M6.9,17.9c0-0.2,0.1-0.5,0.3-0.6C7.5,17,8,16.9,8.4,17.2l0,0L19,27.8c0.3,0.3,0.3,0.8,0,1.2l0,0
	c-0.3,0.3-0.8,0.4-1.2,0.1l0,0L7.1,18.5C7,18.3,6.9,18.1,6.9,17.9z"/>
<path class="st0" d="M5.2,17.9L5.2,17.9c0-0.5,0.4-0.9,0.9-0.9h12c0.4,0,0.7,0.3,0.7,0.7v0.1c0,0.5-0.4,0.8-0.9,0.8h-12
	C5.6,18.7,5.2,18.3,5.2,17.9L5.2,17.9z"/>
<path class="st0" d="M6.6,32.9c0-0.2,0.1-0.5,0.3-0.6l7.1-6.8c0.3-0.3,0.8-0.3,1.1,0l0,0c0.3,0.3,0.3,0.9-0.1,1.2l-7.1,6.8
	c-0.3,0.3-0.8,0.3-1.2,0l0,0C6.7,33.3,6.6,33.1,6.6,32.9z"/>
<path class="st1" d="M4.8,19.8L4.8,19.8V16c0-0.4,0.3-0.8,0.8-0.8c0.4,0,0.7,0.2,0.8,0.6v0.1l0,0v3.8c0,0.4-0.3,0.8-0.8,0.8
	C5.2,20.5,4.9,20.3,4.8,19.8L4.8,19.8z"/>
</svg>
