<?xml version="1.0" encoding="utf-8"?>
<!-- Generator: Adobe Illustrator 21.0.0, SVG Export Plug-In . SVG Version: 6.00 Build 0)  -->
<svg version="1.1" id="圖層_1" xmlns="http://www.w3.org/2000/svg" xmlns:xlink="http://www.w3.org/1999/xlink" x="0px" y="0px"
	 viewBox="0 0 31.6 233.2" style="enable-background:new 0 0 31.6 233.2;" xml:space="preserve">
<style type="text/css">
	.st0{enable-background:new    ;}
	.st1{fill:#172A88;}
	.st2{fill:#C5564F;}
	.st3{fill:#192D78;}
	.st4{fill:none;}
</style>
<title>資產 5</title>
<g class="st0">
	<path class="st1" d="M21.6,77.4c0.3-0.6,0.7-1.6,0.7-2.9c0-1.6-0.9-2.4-1.8-2.4c-1.2,0-1.7,0.8-2.6,2.8c-1.2,2.6-2.6,3.7-4.8,3.7
		c-2.8,0-4.9-2.1-4.9-5.9c0-1.6,0.4-3.2,0.9-4l2.6,0.6c-0.5,0.8-0.9,2.2-0.9,3.5c0,1.7,0.8,2.6,2,2.6c1.2,0,1.8-0.8,2.6-2.6
		c1.1-2.4,2.6-3.9,4.7-3.9c2.6,0,4.7,2.1,4.7,5.6c0,1.5-0.4,2.7-0.7,3.5L21.6,77.4z"/>
	<path class="st1" d="M8.9,93.4c-0.3-0.6-0.6-1.9-0.6-3.6c0-4.9,3.3-7.5,8.1-7.5c5.6,0,8.5,3.6,8.5,7.9c0,1.7-0.4,2.9-0.6,3.3
		L21.7,93c0.3-0.6,0.5-1.5,0.5-2.6c0-2.7-1.8-4.8-5.7-4.8c-3.7,0-5.6,1.9-5.6,4.8c0,1,0.2,2,0.5,2.6L8.9,93.4z"/>
	<path class="st1" d="M16.1,105.3c-0.4,1.1-1.5,1.8-3.2,2.1c-1.9,0.5-3.8,0.9-4.5,1.2v-3.2c0.5-0.2,1.9-0.6,3.8-1
		c2.1-0.4,2.7-1.1,2.7-2.5v-1H8.5v-3.1h15.9c0.2,1.1,0.3,2.6,0.3,4.2c0,2-0.3,6.2-4.6,6.2C18.2,108.1,16.8,106.8,16.1,105.3
		L16.1,105.3z M17.3,102.2c0,1.8,1,2.8,2.6,2.8c2.1,0,2.5-1.6,2.5-2.7c0-0.7,0-1.2-0.1-1.4h-4.9V102.2z"/>
	<path class="st1" d="M16.8,125.5c-5.6,0-8.5-2.9-8.5-6.9c0-4.3,3.6-6.7,8.3-6.7c4.8,0,8.4,2.7,8.4,6.9
		C24.9,123.3,21.1,125.5,16.8,125.5z M16.6,115.2c-3.2,0-5.8,1.2-5.8,3.5c0,2.3,2.6,3.5,5.8,3.5c3,0,5.7-1.1,5.7-3.5
		C22.3,116.4,19.5,115.2,16.6,115.2z"/>
	<path class="st1" d="M8.5,138.9V130h16.1v3.1H11.1v5.8H8.5z"/>
	<path class="st1" d="M8.5,151.9v-8.9h16.1v3.1H11.1v5.8H8.5z"/>
</g>
<path class="st2" d="M3,43.8L3,43.8c0-2.6,1-5.1,2.9-7c1.8-1.9,4.3-2.9,6.9-2.9c1.5,0,2.9,0.3,4.2,1c0.5,0.3,0.7,0.9,0.4,1.3
	c0,0,0,0.1-0.1,0.1c-0.3,0.5-0.9,0.8-1.4,0.5c-1-0.5-2.2-0.8-3.4-0.8c-2,0-3.9,0.8-5.3,2.2c-1.4,1.4-2.2,3.3-2.2,5.3l0,0
	c0,4.2,3.4,7.7,7.6,7.7c1.1,0,2.3-0.2,3.3-0.7c0.5-0.3,1.1-0.1,1.4,0.4c0,0,0,0,0,0.1c0.2,0.6-0.1,1.2-0.6,1.5c-1.3,0.7-2.8,1-4.2,1
	C7.2,53.4,3,49.1,3,43.8z"/>
<path class="st3" d="M28.4,25.6L28.4,25.6v-5c0-0.9,0.7-1.7,1.6-1.8c0.8-0.1,1.5,0.5,1.6,1.3c0,0.1,0,0.1,0,0.2l0,0v5
	c0,0.9-0.7,1.7-1.6,1.8c-0.8,0.1-1.6-0.5-1.6-1.3C28.4,25.7,28.3,25.6,28.4,25.6z"/>
<path class="st2" d="M3.2,10.4L3.2,10.4c0-2.7,1-5.2,2.9-7.1c3.8-3.9,10-4,13.9-0.2c1.9,1.9,3,4.5,3,7.2l0,0c0,3.7-2,7.1-5.3,8.9
	c-0.5,0.3-1.1,0.1-1.4-0.3c0,0,0,0,0-0.1c-0.2-0.6,0-1.2,0.5-1.5c2.5-1.4,4-4,4-6.8l0,0c0-4.4-3.5-8-7.8-8c-2,0-4,0.8-5.4,2.3
	c-1.4,1.5-2.2,3.4-2.2,5.5l0,0c0,3,1.6,5.7,4.3,7.1c0.5,0.2,0.7,0.9,0.4,1.3c0,0,0,0.1-0.1,0.1c-0.3,0.5-0.9,0.7-1.5,0.5
	C5.2,17.6,3.2,14.2,3.2,10.4z"/>
<path class="st2" d="M22.5,44.5L22.5,44.5v-5c0-0.6,0.4-1,1-1.1c0.5-0.1,0.9,0.3,1,0.8c0,0,0,0.1,0,0.1l0,0v5c0,0.6-0.4,1-1,1.1
	c-0.5,0.1-0.9-0.3-1-0.8C22.5,44.6,22.5,44.6,22.5,44.5z"/>
<path class="st2" d="M11.6,10c0-0.3,0.1-0.6,0.4-0.9c0.3-0.4,1-0.5,1.4-0.2c0,0,0.1,0.1,0.1,0.1l13.8,14c0.4,0.4,0.4,1.1-0.1,1.5
	c-0.3,0.4-1,0.5-1.4,0.2c0,0-0.1-0.1-0.1-0.1l-13.8-14C11.8,10.5,11.6,10.3,11.6,10z"/>
<path class="st2" d="M12,24c0-0.3,0.1-0.6,0.3-0.8c0.3-0.4,1-0.5,1.4-0.2c0,0,0.1,0.1,0.1,0.1l13.8,14c0.4,0.4,0.4,1.1-0.1,1.5
	c-0.3,0.4-1,0.5-1.4,0.2c0,0-0.1-0.1-0.1-0.1l-13.8-14C12.1,24.5,12,24.3,12,24z"/>
<path class="st2" d="M9.8,24c0,0,0-0.1,0-0.1c0-0.6,0.6-1.1,1.2-1.1h15.6c0.6,0,1,0.4,1,1c0,0,0,0.1,0,0.1c0,0.6-0.6,1.1-1.2,1.1
	H10.8C10.3,25,9.8,24.5,9.8,24z"/>
<path class="st2" d="M11.6,43.8c0-0.3,0.1-0.6,0.4-0.8l9.2-9c0.4-0.4,1-0.5,1.4-0.1c0,0,0.1,0.1,0.1,0.1c0.4,0.5,0.3,1.1-0.1,1.5
	l-9.2,9c-0.4,0.4-1,0.5-1.4,0.1c0,0-0.1-0.1-0.1-0.1C11.7,44.3,11.6,44,11.6,43.8z"/>
<path class="st3" d="M9.3,26.5L9.3,26.5v-5c0-0.6,0.4-1,1-1.1c0.5-0.1,0.9,0.3,1,0.8c0,0,0,0.1,0,0.1l0,0v5c0,0.6-0.4,1-1,1.1
	c-0.5,0.1-0.9-0.3-1-0.8C9.3,26.5,9.3,26.5,9.3,26.5z"/>
<rect x="3" class="st4" width="28.7" height="233.2"/>
</svg>
