<?xml version="1.0" encoding="utf-8"?>
<!-- Generator: Adobe Illustrator 21.0.0, SVG Export Plug-In . SVG Version: 6.00 Build 0)  -->
<svg version="1.1" id="圖層_1" xmlns="http://www.w3.org/2000/svg" xmlns:xlink="http://www.w3.org/1999/xlink" x="0px" y="0px"
	 viewBox="0 0 64.7 64.7" style="enable-background:new 0 0 64.7 64.7;" xml:space="preserve">
<style type="text/css">
	.st0{fill:#FFFFFF;}
	.st1{fill:none;}
</style>
<g>
	<path class="st0" d="M14.9,16.4v31.9h34.8V16.4H14.9z M20.7,45.4h-2.9v-2.9h2.9V45.4z M20.7,39.6h-2.9v-2.9h2.9V39.6z M20.7,33.8
		h-2.9v-2.9h2.9V33.8z M20.7,28h-2.9v-2.9h2.9V28z M20.7,22.2h-2.9v-2.9h2.9V22.2z M41.1,39.6H23.6V25.1h17.4V39.6z M46.9,45.4H44
		v-2.9h2.9V45.4z M46.9,39.6H44v-2.9h2.9V39.6z M46.9,33.8H44v-2.9h2.9V33.8z M46.9,28H44v-2.9h2.9V28z M46.9,22.2H44v-2.9h2.9V22.2
		z M29.4,36.7V28l7.3,4.4L29.4,36.7z"/>
	<rect x="-14.5" y="-14.5" class="st1" width="93.7" height="93.7"/>
</g>
</svg>
