<svg xmlns="http://www.w3.org/2000/svg" viewBox="0 0 299.29 389.25"><defs><style>.cls-1,.cls-3{fill:#cf5951;}.cls-2{fill:#172a88;}.cls-3{stroke:#cf5951;stroke-linecap:round;stroke-miterlimit:10;stroke-width:5px;}.cls-4{fill:none;}</style></defs><title>資產 7</title><g id="圖層_2" data-name="圖層 2"><g id="網頁版面"><path class="cls-1" d="M191.56,354.92a2.61,2.61,0,0,1-3.69.24l-11.27-9.94a2.61,2.61,0,0,1-.23-3.69l9.94-11.27A2.61,2.61,0,0,1,190,330L201.27,340a2.63,2.63,0,0,1,.23,3.7Z"/><path class="cls-1" d="M243,362.19a2.61,2.61,0,0,1-3.18-1.88l-3.71-14.56a2.6,2.6,0,0,1,1.89-3.17l14.56-3.71a2.61,2.61,0,0,1,3.19,1.89l3.71,14.56a2.63,2.63,0,0,1-1.89,3.18Z"/><circle class="cls-2" cx="191.94" cy="312.23" r="4" transform="translate(-146.49 171.54) rotate(-35.85)"/><circle class="cls-2" cx="217.72" cy="358.67" r="4" transform="translate(-168.81 195.44) rotate(-35.85)"/><line class="cls-3" x1="244.24" y1="379.59" x2="257.63" y2="384.11"/><line class="cls-3" x1="201.19" y1="378.06" x2="215.06" y2="375.34"/><line class="cls-3" x1="213.08" y1="322.12" x2="219.68" y2="309.63"/><path class="cls-1" d="M86.24,26.9A2.61,2.61,0,0,1,89.41,25L104,28.67a2.61,2.61,0,0,1,1.89,3.17L102.2,46.41A2.61,2.61,0,0,1,99,48.31L84.46,44.64a2.63,2.63,0,0,1-1.89-3.18Z"/><path class="cls-1" d="M37.17,44a2.61,2.61,0,0,1,3.69.22l10,11.24a2.61,2.61,0,0,1-.23,3.68l-11.24,10a2.61,2.61,0,0,1-3.7-.22l-10-11.24a2.63,2.63,0,0,1,.23-3.7Z"/><circle class="cls-2" cx="105.46" cy="65.02" r="4" transform="translate(-0.23 129.66) rotate(-63.1)"/><circle class="cls-2" cx="61.27" cy="35.55" r="4" transform="translate(1.85 74.1) rotate(-63.09)"/><line class="cls-3" x1="28.11" y1="29.09" x2="14.14" y2="31.21"/><line class="cls-3" x1="67.08" y1="10.74" x2="56" y2="19.5"/><line class="cls-3" x1="82.13" y1="65.9" x2="81.99" y2="80.03"/><rect class="cls-4" width="299.29" height="389.25"/></g></g></svg>